<svg xmlns="http://www.w3.org/2000/svg" width="450.5" height="302.492" viewBox="0 0 450.5 302.492">
  <g id="layer_17" data-name="layer 17" transform="translate(-39.5 -84.508)">
    <path id="path5154-1-5-9-3-8-91" d="M512.566,388.957a41.006,41.006,0,0,1-75.8,13.252" transform="translate(-63.169 -54.676)" fill="none" stroke="#000" stroke-width="0.6"/>
    <path id="path5154-8-79-9-2" d="M453.327,386.96A24.6,24.6,0,0,1,474.336,350" transform="translate(-65.549 -47.668)" fill="none" stroke="#000" stroke-width="0.6"/>
    <path id="path5154-1-4-7-8-5" d="M480.055,340a32.8,32.8,0,0,1,32.229,38.683" transform="translate(-70.956 -45.869)" fill="none" stroke="#000" stroke-width="0.6"/>
    <path id="path8056-1-2-7-1-1-9-1" d="M490,362.012V280" transform="translate(-80.946 -35.077)" fill="none" stroke="blue" stroke-width="1"/>
    <path id="path8056-1-3-3-3-0-5" d="M345.134,122,250,177.768" transform="translate(-37.775 -6.656)" fill="none" stroke="blue" stroke-width="1"/>
    <path id="path2898-4-7-0-6-1-3-0" d="M95.481,115.472c26.4-15.084,86.311-20.518,133.824-12.139s64.632,27.4,38.237,42.484-86.311,20.518-133.824,12.139-64.632-27.4-38.237-42.484Z" transform="translate(-7.749 -2.59)" fill="none" stroke="blue" stroke-linecap="round" stroke-linejoin="round" stroke-width="0.834"/>
    <path id="path8056-1-6-20-2-9-3" d="M40,153l172.225,30.344" transform="translate(0 -12.232)" fill="none" stroke="blue" stroke-width="1"/>
    <path id="path8056-1-6-20-7-9-7-6" d="M156,85l172.225,30.344" transform="translate(-20.866)" fill="none" stroke="blue" stroke-width="1"/>
    <path id="path8056-1-3-3-7-4-9-4" d="M135.134,85,40,140.768" fill="none" stroke="blue" stroke-width="1"/>
    <path id="path8056-1-6-20-7-8-1-3-9" d="M98,119l172.225,30.344" transform="translate(-10.433 -6.116)" fill="none" stroke="blue" stroke-width="1"/>
    <path id="path8056-1-3-3-1-2-5-2" d="M240.134,103,145,158.768" transform="translate(-18.887 -3.238)" fill="none" stroke="blue" stroke-width="1"/>
    <path id="path8056-1-6-9-80-8-9" d="M250,190V376.987" transform="translate(-37.775 -18.887)" fill="none" stroke="blue" stroke-width="1"/>
    <path id="path2898-4-7-0-0-5-3-4" d="M126.146,170.724C78.782,162.248,40.295,197.2,40.183,248.8S78.377,349.094,125.741,357.57s85.852-26.481,85.964-78.077S173.511,179.2,126.146,170.724Z" transform="translate(-0.033 -15.192)" fill="none" stroke="blue" stroke-linecap="round" stroke-linejoin="round" stroke-width="0.516"/>
    <path id="path8056-1-6-9-3-7-9-0" d="M40,153V339.987" transform="translate(0 -12.232)" fill="none" stroke="blue" stroke-width="1"/>
    <path id="path8056-1-6-20-9-3-6-5" d="M40,381l172.225,30.344" transform="translate(0 -53.244)" fill="none" stroke="blue" stroke-width="1"/>
    <path id="path8056-1-6-9-8-0-7-9" d="M145,171V357.987" transform="translate(-18.887 -15.47)" fill="none" stroke="blue" stroke-width="1"/>
    <path id="path8056-1-6-20-0-4-5-6" d="M40,266l172.225,30.344" transform="translate(0 -32.558)" fill="none" stroke="blue" stroke-width="1"/>
    <path id="path2898-4-7-0-1-0-96-2" d="M298.033,155.136c26.322-15.092,47.39,14.531,47.058,66.167s-21.939,105.729-48.26,120.821-47.39-14.531-47.058-66.167,21.939-105.729,48.261-120.821Z" transform="translate(-37.733 -11.908)" fill="none" stroke="blue" stroke-linecap="round" stroke-linejoin="round" stroke-width="0.698"/>
    <path id="path8056-1-6-9-5-8-7-8" d="M366,122V308.987" transform="translate(-58.641 -6.656)" fill="none" stroke="blue" stroke-width="1"/>
    <path id="path8056-1-3-3-9-5-9-8" d="M345.134,350,250,405.768" transform="translate(-37.775 -47.668)" fill="none" stroke="blue" stroke-width="1"/>
    <path id="path8056-1-6-9-6-1-6-7" d="M308,156V342.987" transform="translate(-48.208 -12.771)" fill="none" stroke="blue" stroke-width="1"/>
    <path id="path8056-1-3-3-6-6-6-5" d="M345.134,235,250,290.768" transform="translate(-37.775 -26.982)" fill="none" stroke="blue" stroke-width="1"/>
    <path id="path8056-1-2-7-1-1-9-1-8" d="M474.422,380,403.4,421.006" transform="translate(-65.368 -53.064)" fill="none" stroke="blue" stroke-width="1"/>
    <path id="path8056-1-2-7-1-1-9-1-2" d="M490,380l80.766,14.241" transform="translate(-80.946 -53.064)" fill="none" stroke="blue" stroke-width="1"/>
    <text id="text3764-63-0-7-3-9-0-7-1-14-3-3-8-7-7-1-1-6-88-7-2-6-1-1-2-1-1-1-7-0" transform="translate(352 310)" font-size="14" font-family="ArialMT, Arial" opacity="0.922"><tspan x="0" y="0">120ยบ</tspan></text>
    <text id="text3764-63-0-7-3-9-0-7-1-14-3-3-8-7-7-1-1-6-88-7-2-6-1-1-2-1-1-1-7-3-39" transform="translate(442 302)" font-size="14" font-family="ArialMT, Arial" opacity="0.922"><tspan x="0" y="0">100ยบ</tspan></text>
    <text id="text3764-63-0-7-3-9-0-7-1-14-3-3-8-7-7-1-1-6-88-7-2-6-1-1-2-1-1-1-7-33-96" transform="translate(409 384)" font-size="14" font-family="ArialMT, Arial" opacity="0.922"><tspan x="0" y="0">140ยบ</tspan></text>
    <text id="text3764-63-0-7-3-9-0-7-1-14-3-3-8-7-7-1-1-6-88-7-2-6-1-1-2-1-1-1-7-11-99" transform="translate(417 253)" font-size="14" font-family="ArialMT, Arial" opacity="0.922"><tspan x="0" y="0">z</tspan></text>
    <text id="text3764-63-0-7-3-9-0-7-1-14-3-3-8-7-7-1-1-6-88-7-2-6-1-1-2-1-1-1-7-11-2-93" transform="translate(335 360)" font-size="14" font-family="ArialMT, Arial" opacity="0.922"><tspan x="0" y="0">x</tspan></text>
    <text id="text3764-63-0-7-3-9-0-7-1-14-3-3-8-7-7-1-1-6-88-7-2-6-1-1-2-1-1-1-7-11-1-6" transform="translate(483 351)" font-size="14" font-family="ArialMT, Arial" opacity="0.922"><tspan x="0" y="0">y</tspan></text>
  </g>
</svg>
