<svg xmlns="http://www.w3.org/2000/svg" width="414.748" height="275.234" viewBox="0 0 414.748 275.234">
  <g id="layer_11" data-name="layer 11" transform="translate(-29.625 -83.182)">
    <path id="path5154-1-4" d="M480.055,340a29.772,29.772,0,0,1,28.654,37.707" transform="translate(-107.663 -65.548)" fill="none" stroke="#000" stroke-width="0.6"/>
    <path id="path5154-8" d="M450.739,378.027A22.329,22.329,0,0,1,472.086,350" transform="translate(-99.978 -68.105)" fill="none" stroke="#000" stroke-width="0.6"/>
    <path id="path5154-1-5-9" d="M503.526,393.233a37.214,37.214,0,0,1-71.8-.228" transform="translate(-95.304 -79.102)" fill="none" stroke="#000" stroke-width="0.6"/>
    <path id="path8056-4-21-0" d="M114.908,140.063l126.536-33.715" transform="translate(-21.734 -5.8)" fill="none" stroke="blue" stroke-width="1"/>
    <path id="path8056-4-8-6-2" d="M241.439,140.079,114.917,106.314" transform="translate(-21.737 -5.792)" fill="none" stroke="blue" stroke-width="1"/>
    <path id="path2898-4-7-0-8-8" d="M178.629,23.817c0,13.154-39.988,23.817-89.315,23.817S0,36.97,0,23.817,39.987,0,89.315,0s89.315,10.663,89.315,23.817Z" transform="matrix(1, 0, 0, 1, 67.131, 93.57)" fill="none" stroke="blue" stroke-linecap="round" stroke-linejoin="round" stroke-width="1"/>
    <path id="path8056-4-8-4-5-6" d="M326.444,117.431,199.922,83.665" transform="translate(-43.473)" fill="none" stroke="blue" stroke-width="1"/>
    <path id="path8056-4-8-4-2-7-0" d="M156.435,162.728,29.912,128.963" transform="translate(0 -11.583)" fill="none" stroke="blue" stroke-width="1"/>
    <path id="path8056-4-8-4-7-6-2" d="M156.449,83.665,29.912,117.38" fill="none" stroke="blue" stroke-width="1"/>
    <path id="path8056-4-8-4-7-9-1-4" d="M326.439,129.032,199.9,162.746" transform="translate(-43.468 -11.601)" fill="none" stroke="blue" stroke-width="1"/>
    <path id="path8056-3-6" d="M115.051,151.809l.144,172.185" transform="translate(-21.771 -17.425)" fill="none" stroke="blue" stroke-width="1"/>
    <path id="path8056-1-4-5" d="M156.6,278.483,30.3,244.96" transform="translate(-0.098 -41.245)" fill="none" stroke="blue" stroke-width="1"/>
    <path id="path2898-4-7-0-3-0" d="M93.523,323.433c34.879,9.257,63.122-21.783,63.083-69.331s-28.348-93.6-63.227-102.854S30.256,173.031,30.3,220.579s28.348,93.6,63.227,102.854Z" transform="translate(-0.098 -16.864)" fill="none" stroke="blue" stroke-linecap="round" stroke-linejoin="round" stroke-width="0.569"/>
    <path id="path8056-1-3-79-9" d="M156.7,394.154,30.392,360.63" transform="translate(-0.123 -70.823)" fill="none" stroke="blue" stroke-width="1"/>
    <path id="path8056-1-6-9-0" d="M30.343,301.474,30.2,129.289" transform="translate(-0.073 -11.667)" fill="none" stroke="blue" stroke-width="1"/>
    <path id="path8056-1-6-5-8-6" d="M200.047,346.514,199.9,174.329" transform="translate(-43.468 -23.184)" fill="none" stroke="blue" stroke-width="1"/>
    <path id="path8056-3-6-3" d="M284.706,151.809l-.144,172.185" transform="translate(-65.117 -17.425)" fill="none" stroke="blue" stroke-width="1"/>
    <path id="path8056-1-4-5-8" d="M199.806,278.483l126.31-33.523" transform="translate(-43.444 -41.245)" fill="none" stroke="blue" stroke-width="1"/>
    <path id="path2898-4-7-0-3-0-9" d="M262.888,323.433c-34.879,9.257-63.122-21.783-63.083-69.331s28.348-93.6,63.227-102.854,63.122,21.783,63.082,69.331-28.348,93.6-63.227,102.854Z" transform="translate(-43.443 -16.864)" fill="none" stroke="blue" stroke-linecap="round" stroke-linejoin="round" stroke-width="0.569"/>
    <path id="path8056-1-3-79-9-3" d="M199.71,394.154,326.019,360.63" transform="translate(-43.419 -70.823)" fill="none" stroke="blue" stroke-width="1"/>
    <path id="path8056-1-6-9-0-4" d="M369.414,301.473l.144-172.185" transform="translate(-86.814 -11.666)" fill="none" stroke="blue" stroke-width="1"/>
    <path id="path8056-1-2-7-1-92" d="M490,354.429V280" transform="translate(-117.649 -50.205)" fill="none" stroke="blue" stroke-width="1"/>
    <path id="path8056-1-2-7-1-42-1" d="M465.3,380l-71.893,19.264" transform="translate(-92.95 -75.776)" fill="none" stroke="blue" stroke-width="1"/>
    <path id="path8056-1-2-7-1-42-2" d="M490,380l71.893,19.264" transform="translate(-117.649 -75.776)" fill="none" stroke="blue" stroke-width="1"/>
    <text id="text3764-63-0-7-3-9-0-7-1-14-3-3-8-7-7-1-1-6-88-7-2-6-1-1-2-1-1-1-7-98" transform="translate(327.693 288.43)" font-size="12" font-family="ArialMT, Arial" opacity="0.922"><tspan x="0" y="0">105ยบ</tspan></text>
    <text id="text3764-63-0-7-3-9-0-7-1-14-3-3-8-7-7-1-1-6-88-7-2-6-1-1-2-1-1-1-7-3-08" transform="translate(402.122 288.43)" font-size="12" font-family="ArialMT, Arial" opacity="0.922"><tspan x="0" y="0">105ยบ</tspan></text>
    <text id="text3764-63-0-7-3-9-0-7-1-14-3-3-8-7-7-1-1-6-88-7-2-6-1-1-2-1-1-1-7-33-7" transform="translate(364.908 355.416)" font-size="12" font-family="ArialMT, Arial" opacity="0.922"><tspan x="0" y="0">150ยบ</tspan></text>
    <text id="text3764-63-0-7-3-9-0-7-1-14-3-3-8-7-7-1-1-6-88-7-2-6-1-1-2-1-1-1-7-11-38" transform="translate(379.794 236.329)" font-size="12" font-family="ArialMT, Arial" opacity="0.922"><tspan x="0" y="0">z</tspan></text>
    <text id="text3764-63-0-7-3-9-0-7-1-14-3-3-8-7-7-1-1-6-88-7-2-6-1-1-2-1-1-1-7-11-2-71" transform="translate(297.922 318.201)" font-size="12" font-family="ArialMT, Arial" opacity="0.922"><tspan x="0" y="0">x</tspan></text>
    <text id="text3764-63-0-7-3-9-0-7-1-14-3-3-8-7-7-1-1-6-88-7-2-6-1-1-2-1-1-1-7-11-1-7" transform="translate(431.894 333.087)" font-size="12" font-family="ArialMT, Arial" opacity="0.922"><tspan x="0" y="0">y</tspan></text>
  </g>
</svg>
