<svg xmlns="http://www.w3.org/2000/svg" width="32.668" height="43.479" viewBox="0 0 32.668 43.479">
  <path id="stationery_1_" data-name="stationery (1)" d="M13.563,21.142a1.319,1.319,0,0,0-1.318,1.318V39.507a7.566,7.566,0,0,0-2.04,5.19v.123a.659.659,0,0,0,.659.659H38.108a.659.659,0,0,0,.659-.659V44.7a7.569,7.569,0,0,0-2.111-5.266V22.459A1.319,1.319,0,0,0,35.6,21.168l6.187-9.595a.661.661,0,0,0,.043-.111.674.674,0,0,0,.05-.128s0,0,0-.007l.983-5.7a.659.659,0,0,0-1.024-.654L37.18,8.2a.667.667,0,0,0-.068.072.626.626,0,0,0-.1.1s0,.008-.005.012-.007.006-.009.01L29.117,21.142H28.77V7.729H29.8v5.6a.659.659,0,1,0,1.318,0V7.07a.659.659,0,0,0-.659-.659H28.77V3.728A1.73,1.73,0,0,0,27.042,2H25.189a1.73,1.73,0,0,0-1.728,1.728V21.142H22.44l-3.8-16.836a.659.659,0,0,0-.788-.5L11.386,5.271a.659.659,0,0,0-.5.788l3.086,13.658s0,0,0,0v0l.321,1.422Zm1.547,1.318.012,0,.018,0h8.954c.009,0,.017.005.027.005s.018-.005.027-.005h3.936c.01,0,.018.006.028.006s.018-.005.028-.006h7.2V39.114H13.563V22.459Zm22.318,21.7H11.545a6.25,6.25,0,0,1,1.648-3.73H35.779A6.25,6.25,0,0,1,37.427,44.162ZM40.756,10.1,38.723,8.732,41.3,6.953Zm-3-.433L40.328,11.4l-6.281,9.74H30.665ZM25.189,3.317h1.852a.411.411,0,0,1,.41.41V6.411H24.779V3.728a.411.411,0,0,1,.41-.41Zm-.41,4.411h2.673V21.142H24.779ZM15.406,20.07l.842-.19a.659.659,0,1,0-.29-1.285l-.842.19-.523-2.316.842-.19a.659.659,0,1,0-.29-1.285l-.842.19-.523-2.316.843-.19a.659.659,0,0,0-.29-1.285l-.844.19-.523-2.316.844-.191a.659.659,0,1,0-.29-1.285l-.844.191-.355-1.571L17.5,5.238l3.586,15.9H15.648Z" transform="translate(-10.206 -2)" fill="#ff8f00"/>
</svg>
