<svg xmlns="http://www.w3.org/2000/svg" width="471.796" height="360.528" viewBox="0 0 471.796 360.528">
  <g id="Grupo_13573" data-name="Grupo 13573" transform="translate(-2476.45 3158.533)">
    <path id="path5154-3" d="M453.109,384.367A22.858,22.858,0,0,1,472.61,350" transform="translate(2401.814 -3270.067)" fill="none" stroke="#000" stroke-width="0.6"/>
    <path id="path5154-1-1" d="M480.055,340a30.477,30.477,0,0,1,26.332,45.751" transform="translate(2394.659 -3267.686)" fill="none" stroke="#000" stroke-width="0.6"/>
    <path id="path5154-1-5-2" d="M502.621,405.168a38.1,38.1,0,0,1-65.85-.045" transform="translate(2404.963 -3283.19)" fill="none" stroke="#000" stroke-width="0.6"/>
    <path id="path8056-1-2-7-1-89" d="M490,356.193V280" transform="translate(2384.672 -3253.402)" fill="none" stroke="blue" stroke-width="1"/>
    <path id="path8056-1-2-7-1-89-4" d="M469.383,380,403.4,418.1" transform="translate(2405.289 -3277.209)" fill="none" stroke="blue" stroke-width="1"/>
    <path id="path8056-1-2-7-1-89-5" d="M490,380l65.985,38.1" transform="translate(2384.672 -3277.209)" fill="none" stroke="blue" stroke-width="1"/>
    <path id="text3764-63-0-7-3-9-0-7-1-14-3-3-8-7-7-1-1-6-88-7-2-6-1-1-2-1-1-1-7-65" d="M4.471,0H3.416V-6.721a5.451,5.451,0,0,1-1,.727,7.082,7.082,0,0,1-1.11.545v-1.02A6.369,6.369,0,0,0,2.854-7.477a3.964,3.964,0,0,0,.938-1.148h.68Zm8.244-1.014V0H7.037A1.866,1.866,0,0,1,7.16-.732a3.875,3.875,0,0,1,.694-1.143,10.878,10.878,0,0,1,1.38-1.3A11.7,11.7,0,0,0,11.127-5a2.178,2.178,0,0,0,.492-1.269,1.409,1.409,0,0,0-.448-1.058A1.617,1.617,0,0,0,10-7.752a1.647,1.647,0,0,0-1.219.457A1.729,1.729,0,0,0,8.32-6.029L7.236-6.141a2.668,2.668,0,0,1,.838-1.849,2.858,2.858,0,0,1,1.951-.636,2.723,2.723,0,0,1,1.957.686,2.251,2.251,0,0,1,.721,1.7,2.577,2.577,0,0,1-.211,1.014,3.934,3.934,0,0,1-.7,1.049,17.058,17.058,0,0,1-1.626,1.512q-.949.8-1.219,1.081a3.468,3.468,0,0,0-.445.571Zm1.131-3.223a7.86,7.86,0,0,1,.313-2.452,3.05,3.05,0,0,1,.932-1.433,2.382,2.382,0,0,1,1.556-.5,2.538,2.538,0,0,1,1.213.278,2.319,2.319,0,0,1,.861.8,4.306,4.306,0,0,1,.533,1.277,8.487,8.487,0,0,1,.193,2.03,7.882,7.882,0,0,1-.311,2.44A3.051,3.051,0,0,1,18.208-.36a2.382,2.382,0,0,1-1.562.507A2.357,2.357,0,0,1,14.7-.744,5.661,5.661,0,0,1,13.846-4.236Zm1.084,0a5.386,5.386,0,0,0,.5,2.815,1.459,1.459,0,0,0,1.222.7,1.458,1.458,0,0,0,1.222-.7,5.388,5.388,0,0,0,.5-2.812,5.384,5.384,0,0,0-.5-2.818,1.47,1.47,0,0,0-1.233-.7,1.351,1.351,0,0,0-1.16.615A5.448,5.448,0,0,0,14.93-4.236Zm7.277-4.5a1.792,1.792,0,0,1,1.386.586,2.306,2.306,0,0,1,.536,1.617,2.289,2.289,0,0,1-.539,1.611,1.788,1.788,0,0,1-1.377.586,1.819,1.819,0,0,1-1.389-.574,2.246,2.246,0,0,1-.539-1.6,2.341,2.341,0,0,1,.536-1.641A1.792,1.792,0,0,1,22.207-8.736Zm0,.779a.963.963,0,0,0-.765.334,1.651,1.651,0,0,0-.29,1.09,1.632,1.632,0,0,0,.3,1.081.957.957,0,0,0,.759.343.955.955,0,0,0,.762-.343,1.7,1.7,0,0,0,.293-1.11,1.578,1.578,0,0,0-.3-1.055A.961.961,0,0,0,22.207-7.957Z" transform="translate(2828.956 -2913.638)" opacity="0.922"/>
    <path id="text3764-63-0-7-3-9-0-7-1-14-3-3-8-7-7-1-1-6-88-7-2-6-1-1-2-1-1-1-7-3-54" d="M4.471,0H3.416V-6.721a5.451,5.451,0,0,1-1,.727,7.082,7.082,0,0,1-1.11.545v-1.02A6.369,6.369,0,0,0,2.854-7.477a3.964,3.964,0,0,0,.938-1.148h.68Zm8.244-1.014V0H7.037A1.866,1.866,0,0,1,7.16-.732a3.875,3.875,0,0,1,.694-1.143,10.878,10.878,0,0,1,1.38-1.3A11.7,11.7,0,0,0,11.127-5a2.178,2.178,0,0,0,.492-1.269,1.409,1.409,0,0,0-.448-1.058A1.617,1.617,0,0,0,10-7.752a1.647,1.647,0,0,0-1.219.457A1.729,1.729,0,0,0,8.32-6.029L7.236-6.141a2.668,2.668,0,0,1,.838-1.849,2.858,2.858,0,0,1,1.951-.636,2.723,2.723,0,0,1,1.957.686,2.251,2.251,0,0,1,.721,1.7,2.577,2.577,0,0,1-.211,1.014,3.934,3.934,0,0,1-.7,1.049,17.058,17.058,0,0,1-1.626,1.512q-.949.8-1.219,1.081a3.468,3.468,0,0,0-.445.571Zm1.131-3.223a7.86,7.86,0,0,1,.313-2.452,3.05,3.05,0,0,1,.932-1.433,2.382,2.382,0,0,1,1.556-.5,2.538,2.538,0,0,1,1.213.278,2.319,2.319,0,0,1,.861.8,4.306,4.306,0,0,1,.533,1.277,8.487,8.487,0,0,1,.193,2.03,7.882,7.882,0,0,1-.311,2.44A3.051,3.051,0,0,1,18.208-.36a2.382,2.382,0,0,1-1.562.507A2.357,2.357,0,0,1,14.7-.744,5.661,5.661,0,0,1,13.846-4.236Zm1.084,0a5.386,5.386,0,0,0,.5,2.815,1.459,1.459,0,0,0,1.222.7,1.458,1.458,0,0,0,1.222-.7,5.388,5.388,0,0,0,.5-2.812,5.384,5.384,0,0,0-.5-2.818,1.47,1.47,0,0,0-1.233-.7,1.351,1.351,0,0,0-1.16.615A5.448,5.448,0,0,0,14.93-4.236Zm7.277-4.5a1.792,1.792,0,0,1,1.386.586,2.306,2.306,0,0,1,.536,1.617,2.289,2.289,0,0,1-.539,1.611,1.788,1.788,0,0,1-1.377.586,1.819,1.819,0,0,1-1.389-.574,2.246,2.246,0,0,1-.539-1.6,2.341,2.341,0,0,1,.536-1.641A1.792,1.792,0,0,1,22.207-8.736Zm0,.779a.963.963,0,0,0-.765.334,1.651,1.651,0,0,0-.29,1.09,1.632,1.632,0,0,0,.3,1.081.957.957,0,0,0,.759.343.955.955,0,0,0,.762-.343,1.7,1.7,0,0,0,.293-1.11,1.578,1.578,0,0,0-.3-1.055A.961.961,0,0,0,22.207-7.957Z" transform="translate(2905.149 -2913.638)" opacity="0.922"/>
    <path id="text3764-63-0-7-3-9-0-7-1-14-3-3-8-7-7-1-1-6-88-7-2-6-1-1-2-1-1-1-7-33-2" d="M4.471,0H3.416V-6.721a5.451,5.451,0,0,1-1,.727,7.082,7.082,0,0,1-1.11.545v-1.02A6.369,6.369,0,0,0,2.854-7.477a3.964,3.964,0,0,0,.938-1.148h.68Zm8.244-1.014V0H7.037A1.866,1.866,0,0,1,7.16-.732a3.875,3.875,0,0,1,.694-1.143,10.878,10.878,0,0,1,1.38-1.3A11.7,11.7,0,0,0,11.127-5a2.178,2.178,0,0,0,.492-1.269,1.409,1.409,0,0,0-.448-1.058A1.617,1.617,0,0,0,10-7.752a1.647,1.647,0,0,0-1.219.457A1.729,1.729,0,0,0,8.32-6.029L7.236-6.141a2.668,2.668,0,0,1,.838-1.849,2.858,2.858,0,0,1,1.951-.636,2.723,2.723,0,0,1,1.957.686,2.251,2.251,0,0,1,.721,1.7,2.577,2.577,0,0,1-.211,1.014,3.934,3.934,0,0,1-.7,1.049,17.058,17.058,0,0,1-1.626,1.512q-.949.8-1.219,1.081a3.468,3.468,0,0,0-.445.571Zm1.131-3.223a7.86,7.86,0,0,1,.313-2.452,3.05,3.05,0,0,1,.932-1.433,2.382,2.382,0,0,1,1.556-.5,2.538,2.538,0,0,1,1.213.278,2.319,2.319,0,0,1,.861.8,4.306,4.306,0,0,1,.533,1.277,8.487,8.487,0,0,1,.193,2.03,7.882,7.882,0,0,1-.311,2.44A3.051,3.051,0,0,1,18.208-.36a2.382,2.382,0,0,1-1.562.507A2.357,2.357,0,0,1,14.7-.744,5.661,5.661,0,0,1,13.846-4.236Zm1.084,0a5.386,5.386,0,0,0,.5,2.815,1.459,1.459,0,0,0,1.222.7,1.458,1.458,0,0,0,1.222-.7,5.388,5.388,0,0,0,.5-2.812,5.384,5.384,0,0,0-.5-2.818,1.47,1.47,0,0,0-1.233-.7,1.351,1.351,0,0,0-1.16.615A5.448,5.448,0,0,0,14.93-4.236Zm7.277-4.5a1.792,1.792,0,0,1,1.386.586,2.306,2.306,0,0,1,.536,1.617,2.289,2.289,0,0,1-.539,1.611,1.788,1.788,0,0,1-1.377.586,1.819,1.819,0,0,1-1.389-.574,2.246,2.246,0,0,1-.539-1.6,2.341,2.341,0,0,1,.536-1.641A1.792,1.792,0,0,1,22.207-8.736Zm0,.779a.963.963,0,0,0-.765.334,1.651,1.651,0,0,0-.29,1.09,1.632,1.632,0,0,0,.3,1.081.957.957,0,0,0,.759.343.955.955,0,0,0,.762-.343,1.7,1.7,0,0,0,.293-1.11,1.578,1.578,0,0,0-.3-1.055A.961.961,0,0,0,22.207-7.957Z" transform="translate(2859.433 -2845.064)" opacity="0.922"/>
    <text id="text3764-63-0-7-3-9-0-7-1-14-3-3-8-7-7-1-1-6-88-7-2-6-1-1-2-1-1-1-7-11-01" transform="translate(2882.292 -2968.974)" font-size="10" font-family="ArialMT, Arial" opacity="0.922"><tspan x="0" y="0">z</tspan></text>
    <text id="text3764-63-0-7-3-9-0-7-1-14-3-3-8-7-7-1-1-6-88-7-2-6-1-1-2-1-1-1-7-11-2-0" transform="translate(2813.717 -2854.684)" font-size="10" font-family="ArialMT, Arial" opacity="0.922"><tspan x="0" y="0">x</tspan></text>
    <text id="text3764-63-0-7-3-9-0-7-1-14-3-3-8-7-7-1-1-6-88-7-2-6-1-1-2-1-1-1-7-11-1-1" transform="translate(2943.246 -2869.922)" font-size="10" font-family="ArialMT, Arial" opacity="0.922"><tspan x="0" y="0">y</tspan></text>
    <path id="path8056-4-2-2" d="M221.2,146.381,348.791,72.7" transform="translate(2359.687 -3193.838)" fill="none" stroke="blue" stroke-width="1"/>
    <path id="path8056-4-8-0-4" d="M348.871,146.362,221.2,72.6" transform="translate(2359.687 -3193.819)" fill="none" stroke="blue" stroke-width="1"/>
    <path id="path2898-4-7-0-9-6" d="M368.828,105.853c0,28.811-40.271,52.053-90.064,52.053S188.7,134.664,188.7,105.853,228.971,53.8,278.764,53.8,368.828,77.2,368.828,105.853Z" transform="translate(2365.959 -3190.191)" fill="none" stroke="blue" stroke-linecap="round" stroke-linejoin="round" stroke-width="1"/>
    <path id="path8056-4-8-4-73-1" d="M427.891,100.662,300.3,26.9" transform="translate(2344.423 -3185)" fill="none" stroke="blue" stroke-width="1"/>
    <path id="path8056-4-8-4-2-7-8" d="M269.791,191.981,142.2,118.3" transform="translate(2374.932 -3202.638)" fill="none" stroke="blue" stroke-width="1"/>
    <path id="path8056-4-8-4-7-2-2" d="M269.791,26.9,142.2,100.581" transform="translate(2374.932 -3185)" fill="none" stroke="blue" stroke-width="1"/>
    <path id="path8056-4-8-4-7-9-6-1" d="M427.891,118.3,300.3,191.981" transform="translate(2344.423 -3202.638)" fill="none" stroke="blue" stroke-width="1"/>
    <path id="path8056-4-2-1-1" d="M269.791,283.381,142.2,209.7" transform="translate(2374.932 -3220.276)" fill="none" stroke="blue" stroke-width="1"/>
    <path id="path8056-4-8-0-2-9" d="M221.2,164V311.443" transform="translate(2359.687 -3211.457)" fill="none" stroke="blue" stroke-width="1"/>
    <path id="path2898-4-7-0-9-0-7" d="M160.942,157.586c24.856-14.365,65.208,8.958,90.064,52.053s24.856,89.66,0,104.106c-24.856,14.365-65.208-8.958-90.064-52.053S136.086,171.951,160.942,157.586Z" transform="translate(2374.913 -3209.401)" fill="none" stroke="blue" stroke-linecap="round" stroke-linejoin="round" stroke-width="1"/>
    <path id="path8056-4-8-4-73-0-6" d="M142.2,118.3V265.743" transform="translate(2374.932 -3202.638)" fill="none" stroke="blue" stroke-width="1"/>
    <path id="path8056-4-8-4-2-7-1-2" d="M300.3,209.6V357.043" transform="translate(2344.423 -3220.257)" fill="none" stroke="blue" stroke-width="1"/>
    <path id="path8056-4-8-4-7-2-4-9" d="M142.2,301l127.591,73.681" transform="translate(2374.932 -3237.895)" fill="none" stroke="blue" stroke-width="1"/>
    <path id="path8056-4-8-4-7-2-4-9-2" data-name="path8056-4-8-4-7-2-4-9" d="M92.1,272.2,323.958,406" transform="translate(2384.6 -3232.337)" fill="#fff" stroke="#000" stroke-miterlimit="10" stroke-width="1"/>
    <path id="path8056-4-2-17-5" d="M379.4,164V311.443" transform="translate(2329.158 -3211.457)" fill="none" stroke="blue" stroke-width="1"/>
    <path id="path8056-4-8-0-7-2" d="M300.3,283.381,427.891,209.7" transform="translate(2344.423 -3220.276)" fill="none" stroke="blue" stroke-width="1"/>
    <path id="path2898-4-7-0-9-7-0" d="M319.042,313.644c-24.856-14.365-24.856-60.93,0-104.106s65.208-66.418,90.064-52.053,24.856,60.93,0,104.106C384.331,304.686,343.979,327.928,319.042,313.644Z" transform="translate(2344.403 -3209.38)" fill="none" stroke="blue" stroke-linecap="round" stroke-linejoin="round" stroke-width="1"/>
    <path id="path8056-4-8-4-73-7-0" d="M300.3,374.681,427.891,301" transform="translate(2344.423 -3237.895)" fill="none" stroke="blue" stroke-width="1"/>
    <path id="path8056-4-8-4-7-2-3-3" d="M458.4,265.743V118.3" transform="translate(2313.913 -3202.638)" fill="none" stroke="blue" stroke-width="1"/>
    <path id="Trazado_12659" data-name="Trazado 12659" d="M.462-2.079l.967-.129A2.13,2.13,0,0,0,2-1.023a1.4,1.4,0,0,0,.975.363,1.562,1.562,0,0,0,1.152-.473A1.6,1.6,0,0,0,4.592-2.3a1.483,1.483,0,0,0-.435-1.1,1.5,1.5,0,0,0-1.106-.432,2.776,2.776,0,0,0-.682.107l.107-.849a1.478,1.478,0,0,0,.156.011,1.991,1.991,0,0,0,1.112-.322,1.1,1.1,0,0,0,.494-.994,1.176,1.176,0,0,0-.36-.881,1.279,1.279,0,0,0-.929-.349,1.317,1.317,0,0,0-.94.354,1.78,1.78,0,0,0-.483,1.063L.559-5.865a2.485,2.485,0,0,1,.806-1.507,2.329,2.329,0,0,1,1.563-.534,2.575,2.575,0,0,1,1.187.277,2,2,0,0,1,.83.755A1.939,1.939,0,0,1,5.231-5.86a1.662,1.662,0,0,1-.274.929,1.87,1.87,0,0,1-.811.666A1.827,1.827,0,0,1,5.231-3.6a2.035,2.035,0,0,1,.387,1.27A2.324,2.324,0,0,1,4.866-.577a2.645,2.645,0,0,1-1.9.717A2.474,2.474,0,0,1,1.243-.478,2.388,2.388,0,0,1,.462-2.079Zm6.112-1.8a7.205,7.205,0,0,1,.287-2.248,2.8,2.8,0,0,1,.854-1.313,2.183,2.183,0,0,1,1.426-.462,2.327,2.327,0,0,1,1.112.255,2.125,2.125,0,0,1,.79.736,3.948,3.948,0,0,1,.489,1.171,7.779,7.779,0,0,1,.177,1.861,7.226,7.226,0,0,1-.285,2.237A2.8,2.8,0,0,1,10.573-.33,2.183,2.183,0,0,1,9.142.134,2.161,2.161,0,0,1,7.353-.682,5.189,5.189,0,0,1,6.574-3.883Zm.994,0A4.937,4.937,0,0,0,8.022-1.3a1.337,1.337,0,0,0,1.12.642,1.336,1.336,0,0,0,1.12-.645,4.939,4.939,0,0,0,.454-2.578,4.936,4.936,0,0,0-.454-2.583,1.347,1.347,0,0,0-1.131-.639,1.239,1.239,0,0,0-1.063.564A4.994,4.994,0,0,0,7.568-3.883Zm6.671-4.125a1.643,1.643,0,0,1,1.27.537A2.114,2.114,0,0,1,16-5.989a2.1,2.1,0,0,1-.494,1.477,1.639,1.639,0,0,1-1.262.537A1.668,1.668,0,0,1,12.971-4.5a2.059,2.059,0,0,1-.494-1.466,2.146,2.146,0,0,1,.491-1.5A1.643,1.643,0,0,1,14.239-8.008Zm0,.714a.883.883,0,0,0-.7.306,1.513,1.513,0,0,0-.266,1A1.5,1.5,0,0,0,13.543-5a.877.877,0,0,0,.7.314.875.875,0,0,0,.7-.314,1.557,1.557,0,0,0,.269-1.018,1.446,1.446,0,0,0-.271-.967A.881.881,0,0,0,14.239-7.294Z" transform="translate(2702.709 -2877.851)"/>
    <path id="Trazado_12660" data-name="Trazado 12660" d="M5.473-5.946l-.961.075A1.821,1.821,0,0,0,4.146-6.7a1.279,1.279,0,0,0-.967-.414,1.329,1.329,0,0,0-.811.258,2.2,2.2,0,0,0-.72.972,5.08,5.08,0,0,0-.274,1.821,2.24,2.24,0,0,1,.854-.79,2.3,2.3,0,0,1,1.058-.258A2.192,2.192,0,0,1,4.933-4.4a2.554,2.554,0,0,1,.679,1.84,3.027,3.027,0,0,1-.32,1.378A2.329,2.329,0,0,1,4.415-.2,2.4,2.4,0,0,1,3.147.134,2.477,2.477,0,0,1,1.176-.755a4.488,4.488,0,0,1-.763-2.93A5.252,5.252,0,0,1,1.257-7a2.424,2.424,0,0,1,1.982-.9,2.224,2.224,0,0,1,1.523.521A2.212,2.212,0,0,1,5.473-5.946ZM1.525-2.551a2.243,2.243,0,0,0,.212.956,1.581,1.581,0,0,0,.594.7,1.484,1.484,0,0,0,.8.239,1.364,1.364,0,0,0,1.053-.494A1.945,1.945,0,0,0,4.625-2.5a1.82,1.82,0,0,0-.435-1.286,1.43,1.43,0,0,0-1.1-.47,1.491,1.491,0,0,0-1.112.47A1.694,1.694,0,0,0,1.525-2.551ZM6.574-3.883a7.205,7.205,0,0,1,.287-2.248,2.8,2.8,0,0,1,.854-1.313,2.183,2.183,0,0,1,1.426-.462,2.327,2.327,0,0,1,1.112.255,2.125,2.125,0,0,1,.79.736,3.948,3.948,0,0,1,.489,1.171,7.779,7.779,0,0,1,.177,1.861,7.226,7.226,0,0,1-.285,2.237A2.8,2.8,0,0,1,10.573-.33,2.183,2.183,0,0,1,9.142.134,2.161,2.161,0,0,1,7.353-.682,5.189,5.189,0,0,1,6.574-3.883Zm.994,0A4.937,4.937,0,0,0,8.022-1.3a1.337,1.337,0,0,0,1.12.642,1.336,1.336,0,0,0,1.12-.645,4.939,4.939,0,0,0,.454-2.578,4.936,4.936,0,0,0-.454-2.583,1.347,1.347,0,0,0-1.131-.639,1.239,1.239,0,0,0-1.063.564A4.994,4.994,0,0,0,7.568-3.883Zm6.671-4.125a1.643,1.643,0,0,1,1.27.537A2.114,2.114,0,0,1,16-5.989a2.1,2.1,0,0,1-.494,1.477,1.639,1.639,0,0,1-1.262.537A1.668,1.668,0,0,1,12.971-4.5a2.059,2.059,0,0,1-.494-1.466,2.146,2.146,0,0,1,.491-1.5A1.643,1.643,0,0,1,14.239-8.008Zm0,.714a.883.883,0,0,0-.7.306,1.513,1.513,0,0,0-.266,1A1.5,1.5,0,0,0,13.543-5a.877.877,0,0,0,.7.314.875.875,0,0,0,.7-.314,1.557,1.557,0,0,0,.269-1.018,1.446,1.446,0,0,0-.271-.967A.881.881,0,0,0,14.239-7.294Z" transform="translate(2671.087 -2910.053)"/>
    <path id="Trazado_12661" data-name="Trazado 12661" d="M.462-2.079l.967-.129A2.13,2.13,0,0,0,2-1.023a1.4,1.4,0,0,0,.975.363,1.562,1.562,0,0,0,1.152-.473A1.6,1.6,0,0,0,4.592-2.3a1.483,1.483,0,0,0-.435-1.1,1.5,1.5,0,0,0-1.106-.432,2.776,2.776,0,0,0-.682.107l.107-.849a1.478,1.478,0,0,0,.156.011,1.991,1.991,0,0,0,1.112-.322,1.1,1.1,0,0,0,.494-.994,1.176,1.176,0,0,0-.36-.881,1.279,1.279,0,0,0-.929-.349,1.317,1.317,0,0,0-.94.354,1.78,1.78,0,0,0-.483,1.063L.559-5.865a2.485,2.485,0,0,1,.806-1.507,2.329,2.329,0,0,1,1.563-.534,2.575,2.575,0,0,1,1.187.277,2,2,0,0,1,.83.755A1.939,1.939,0,0,1,5.231-5.86a1.662,1.662,0,0,1-.274.929,1.87,1.87,0,0,1-.811.666A1.827,1.827,0,0,1,5.231-3.6a2.035,2.035,0,0,1,.387,1.27A2.324,2.324,0,0,1,4.866-.577a2.645,2.645,0,0,1-1.9.717A2.474,2.474,0,0,1,1.243-.478,2.388,2.388,0,0,1,.462-2.079Zm6.112-1.8a7.205,7.205,0,0,1,.287-2.248,2.8,2.8,0,0,1,.854-1.313,2.183,2.183,0,0,1,1.426-.462,2.327,2.327,0,0,1,1.112.255,2.125,2.125,0,0,1,.79.736,3.948,3.948,0,0,1,.489,1.171,7.779,7.779,0,0,1,.177,1.861,7.226,7.226,0,0,1-.285,2.237A2.8,2.8,0,0,1,10.573-.33,2.183,2.183,0,0,1,9.142.134,2.161,2.161,0,0,1,7.353-.682,5.189,5.189,0,0,1,6.574-3.883Zm.994,0A4.937,4.937,0,0,0,8.022-1.3a1.337,1.337,0,0,0,1.12.642,1.336,1.336,0,0,0,1.12-.645,4.939,4.939,0,0,0,.454-2.578,4.936,4.936,0,0,0-.454-2.583,1.347,1.347,0,0,0-1.131-.639,1.239,1.239,0,0,0-1.063.564A4.994,4.994,0,0,0,7.568-3.883Zm6.671-4.125a1.643,1.643,0,0,1,1.27.537A2.114,2.114,0,0,1,16-5.989a2.1,2.1,0,0,1-.494,1.477,1.639,1.639,0,0,1-1.262.537A1.668,1.668,0,0,1,12.971-4.5a2.059,2.059,0,0,1-.494-1.466,2.146,2.146,0,0,1,.491-1.5A1.643,1.643,0,0,1,14.239-8.008Zm0,.714a.883.883,0,0,0-.7.306,1.513,1.513,0,0,0-.266,1A1.5,1.5,0,0,0,13.543-5a.877.877,0,0,0,.7.314.875.875,0,0,0,.7-.314,1.557,1.557,0,0,0,.269-1.018,1.446,1.446,0,0,0-.271-.967A.881.881,0,0,0,14.239-7.294Z" transform="translate(2570.048 -2877.851)"/>
    <line id="Línea_118" data-name="Línea 118" x2="255.101" transform="translate(2517.132 -2863.213)" fill="none" stroke="#ffae0d" stroke-miterlimit="10" stroke-width="1"/>
    <path id="path8056-4-8-4-7-2-4-9-3" data-name="path8056-4-8-4-7-2-4-9" d="M452.478,272.2,220.7,406" transform="translate(2359.783 -3232.337)" fill="#fff" stroke="#000" stroke-miterlimit="10" stroke-width="1"/>
    <path id="Trazado_12657" data-name="Trazado 12657" d="M366.363,385.677A54.863,54.863,0,0,0,359.1,358.4" transform="translate(2333.076 -3248.971)" fill="none" stroke="red" stroke-miterlimit="10" stroke-width="1"/>
    <path id="Trazado_12658" data-name="Trazado 12658" d="M233.1,385.677a54.863,54.863,0,0,1,7.263-27.277" transform="translate(2357.391 -3248.971)" fill="none" stroke="red" stroke-miterlimit="10" stroke-width="1"/>
    <line id="Línea_119" data-name="Línea 119" y2="212.651" transform="translate(2644.803 -3010.656)" fill="none" stroke="#000" stroke-miterlimit="10" stroke-width="1"/>
    <path id="path2898-4-7-0-9-7-0-2" data-name="path2898-4-7-0-9-7-0" d="M300.4,342.593c8.635-5,17.27-6.214,23.888-2.34s9.846,11.863,9.846,21.79" transform="translate(2344.403 -3245.027)" fill="none" stroke="red" stroke-miterlimit="10" stroke-width="1"/>
  </g>
</svg>
