<svg xmlns="http://www.w3.org/2000/svg" width="457.746" height="306.52" viewBox="0 0 457.746 306.52">
  <g id="layer_01" data-name="layer 01" transform="translate(-39.498 -84.648)">
    <path id="path5154-3-5-4" d="M457.289,392.561A24.941,24.941,0,0,1,474.669,350" transform="translate(-60.561 -44.668)" fill="none" stroke="#000" stroke-width="0.6"/>
    <path id="path5154-1-1-0-1" d="M480.055,340a33.254,33.254,0,0,1,33.208,33.364" transform="translate(-65.946 -42.98)" fill="none" stroke="#000" stroke-width="0.6"/>
    <path id="path5154-1-5-2-9-2" d="M515.558,379.345a41.568,41.568,0,0,1-71.172,29.721" transform="translate(-59.882 -49.071)" fill="none" stroke="#000" stroke-width="0.6"/>
    <path id="path8056-0" d="M40,290H239.525" transform="translate(0 -34.548)" fill="none" stroke="blue" stroke-width="1"/>
    <path id="path8056-1-2" d="M160,369.525V170" transform="translate(-20.238 -14.31)" fill="none" stroke="blue" stroke-width="1"/>
    <path id="path2898-4-7-0-2" d="M747.238,695.8a99.762,99.762,0,1,1-99.762-99.762A99.762,99.762,0,0,1,747.238,695.8Z" transform="translate(-507.715 -440.353)" fill="none" stroke="blue" stroke-linecap="round" stroke-linejoin="round" stroke-width="1"/>
    <path id="path8056-1-3-0" d="M280,369.525V170" transform="translate(-40.475 -14.31)" fill="none" stroke="blue" stroke-width="1"/>
    <path id="path8056-1-9-9" d="M40,369.525V170" transform="translate(0 -14.31)" fill="none" stroke="blue" stroke-width="1"/>
    <path id="path8056-1-6-0" d="M239.525,170H40" transform="translate(0 -14.31)" fill="none" stroke="blue" stroke-width="1"/>
    <path id="path8056-1-6-5-0" d="M239.525,410H40" transform="translate(0 -54.785)" fill="none" stroke="blue" stroke-width="1"/>
    <path id="path8056-0-6" d="M280,275.69l70.542-70.542" transform="translate(-40.475 -20.238)" fill="none" stroke="blue" stroke-width="1"/>
    <path id="path8056-1-2-1" d="M322.426,327.1V127.574" transform="translate(-47.63 -7.155)" fill="none" stroke="blue" stroke-width="1"/>
    <path id="path2898-4-7-0-2-3" d="M350.541,190.831c0,55.1-15.791,115.554-35.271,135.033S280,316.47,280,261.373,295.79,145.819,315.27,126.34s35.271,9.394,35.271,64.492Z" transform="translate(-40.475 -5.922)" fill="none" stroke="blue" stroke-linecap="round" stroke-linejoin="round" stroke-width="0.79"/>
    <path id="path8056-1-3-0-8" d="M364.852,284.674V85.149" transform="translate(-54.785 0)" fill="none" stroke="blue" stroke-width="1"/>
    <path id="path8056-1-6-0-3" d="M350.542,85.148,280,155.69" transform="translate(-40.475 0)" fill="none" stroke="blue" stroke-width="1"/>
    <path id="path8056-1-6-5-0-4" d="M350.542,325.149,280,395.69" transform="translate(-40.475 -40.475)" fill="none" stroke="blue" stroke-width="1"/>
    <path id="path8056-0-6-6" d="M230.541,85.148,160,155.69" transform="translate(-20.238 0)" fill="none" stroke="blue" stroke-width="1"/>
    <path id="path8056-1-2-1-0" d="M281.951,127.574H82.426" transform="translate(-7.155 -7.155)" fill="none" stroke="blue" stroke-width="1"/>
    <path id="path2898-4-7-0-2-3-6" d="M145.683,155.689c55.1,0,115.554-15.791,135.033-35.271s-9.394-35.271-64.491-35.271S100.671,100.938,81.191,120.418s9.394,35.271,64.492,35.271Z" transform="translate(-5.922 0)" fill="none" stroke="blue" stroke-linecap="round" stroke-linejoin="round" stroke-width="0.79"/>
    <path id="path8056-1-9-9-9-1" d="M324.376,85.148H124.851" transform="translate(-14.31 0)" fill="none" stroke="blue" stroke-width="1"/>
    <path id="path8056-1-6-0-3-8" d="M40,155.69l70.541-70.542" transform="translate(0 0)" fill="none" stroke="blue" stroke-width="1"/>
    <path id="path8056-0-1" d="M490,380h83.135" transform="translate(-75.891 -49.726)" fill="none" stroke="blue" stroke-width="1"/>
    <path id="path8056-0-6-4" d="M420,438.195,478.195,380" transform="translate(-64.086 -49.726)" fill="none" stroke="blue" stroke-width="1"/>
    <path id="path8056-1-2-7-1-8" d="M490,363.135V280" transform="translate(-75.891 -32.861)" fill="none" stroke="blue" stroke-width="1"/>
    <text id="text3764-63-0-7-3-9-0-7-1-14-3-3-8-7-7-1-1-6-88-7-2-6-1-1-2-1-1-1-7" transform="translate(355.914 321.659)" font-size="14" font-family="ArialMT, Arial" opacity="0.922"><tspan x="0" y="0">135ยบ</tspan></text>
    <text id="text3764-63-0-7-3-9-0-7-1-14-3-3-8-7-7-1-1-6-88-7-2-6-1-1-2-1-1-1-7-3" transform="translate(447.363 305.032)" font-size="14" font-family="ArialMT, Arial" opacity="0.922"><tspan x="0" y="0">90ยบ</tspan></text>
    <text id="text3764-63-0-7-3-9-0-7-1-14-3-3-8-7-7-1-1-6-88-7-2-6-1-1-2-1-1-1-7-33" transform="translate(422.422 388.167)" font-size="14" font-family="ArialMT, Arial" opacity="0.922"><tspan x="0" y="0">135ยบ</tspan></text>
    <text id="text3764-63-0-7-3-9-0-7-1-14-3-3-8-7-7-1-1-6-88-7-2-6-1-1-2-1-1-1-7-11" transform="translate(422.422 255.151)" font-size="14" font-family="ArialMT, Arial" opacity="0.922"><tspan x="0" y="0">z</tspan></text>
    <text id="text3764-63-0-7-3-9-0-7-1-14-3-3-8-7-7-1-1-6-88-7-2-6-1-1-2-1-1-1-7-11-2" transform="translate(347.6 379.854)" font-size="14" font-family="ArialMT, Arial" opacity="0.922"><tspan x="0" y="0">x</tspan></text>
    <text id="text3764-63-0-7-3-9-0-7-1-14-3-3-8-7-7-1-1-6-88-7-2-6-1-1-2-1-1-1-7-11-1" transform="translate(488.931 346.599)" font-size="14" font-family="ArialMT, Arial" opacity="0.922"><tspan x="0" y="0">y</tspan></text>
  </g>
</svg>
