<svg xmlns="http://www.w3.org/2000/svg" width="560" height="183" viewBox="0 0 560 183">
  <g id="Grupo_11288" data-name="Grupo 11288" transform="translate(-1154 4098)">
    <path id="Trazado_9974" data-name="Trazado 9974" d="M38.823,17H36.74l-.826-9.9L32.319,17H31L27.423,7.121,26.588,17H24.5l1-12.533h2.927l3.226,8.859L34.9,4.467H37.83ZM48.9,6.339H44.035V9.811h4.307v1.854H44.035v3.454H48.9V17h-7V4.467h7ZM58.475,17l-3.252-5.59H53.87V17h-2.1V4.467H56.12a5.038,5.038,0,0,1,1.753.281,3.09,3.09,0,0,1,1.226.787,3.367,3.367,0,0,1,.7,1.151,4.158,4.158,0,0,1,.233,1.419,3.2,3.2,0,0,1-.721,2.149,3.262,3.262,0,0,1-1.978,1.077L60.945,17ZM53.87,6.242V9.854h1.942a2.443,2.443,0,0,0,1.657-.479,1.665,1.665,0,0,0,.541-1.314,1.7,1.7,0,0,0-.545-1.327,2.4,2.4,0,0,0-1.652-.492Zm14.52,10.925a6.866,6.866,0,0,1-2.509-.453,5.943,5.943,0,0,1-2.008-1.27,5.732,5.732,0,0,1-1.327-2.035,7.214,7.214,0,0,1-.483-2.685,6.831,6.831,0,0,1,.831-3.415,5.638,5.638,0,0,1,2.263-2.246,6.7,6.7,0,0,1,3.234-.773A6.512,6.512,0,0,1,71.9,5.24a5.533,5.533,0,0,1,2.232,2.628l-1.96.747a3.747,3.747,0,0,0-1.49-1.74,4.255,4.255,0,0,0-2.29-.624,4.453,4.453,0,0,0-1.661.308,4,4,0,0,0-1.345.87,3.911,3.911,0,0,0-.9,1.411,5.228,5.228,0,0,0-.325,1.885,5.3,5.3,0,0,0,.325,1.894,3.9,3.9,0,0,0,.9,1.419,3.946,3.946,0,0,0,1.345.866,4.51,4.51,0,0,0,1.661.3,4.271,4.271,0,0,0,2.294-.62,3.73,3.73,0,0,0,1.485-1.736l1.96.747A5.516,5.516,0,0,1,71.9,16.222,6.528,6.528,0,0,1,68.389,17.167ZM84.781,17l-.993-2.786H78.312L77.328,17H75.157L79.771,4.467h2.558L86.943,17Zm-5.827-4.588h4.2l-2.1-5.924ZM89.14,17V4.467h4.289A6.831,6.831,0,0,1,96,4.919,4.772,4.772,0,0,1,97.846,6.2a5.605,5.605,0,0,1,1.1,1.978,8.185,8.185,0,0,1,.374,2.544A7.746,7.746,0,0,1,98.672,14a4.9,4.9,0,0,1-1.986,2.2,6.247,6.247,0,0,1-3.256.8Zm2.1-1.881h2.1a3.448,3.448,0,0,0,2.826-1.147,4.978,4.978,0,0,0,.945-3.248,4.963,4.963,0,0,0-.945-3.239,3.448,3.448,0,0,0-2.826-1.147h-2.1Zm19.534,1.274a7.14,7.14,0,0,1-6.464,0,5.631,5.631,0,0,1-2.263-2.25,6.855,6.855,0,0,1-.831-3.419,6.831,6.831,0,0,1,.831-3.415,5.638,5.638,0,0,1,2.263-2.246,7.14,7.14,0,0,1,6.464,0,5.646,5.646,0,0,1,2.259,2.246,6.831,6.831,0,0,1,.831,3.415,6.855,6.855,0,0,1-.831,3.419A5.639,5.639,0,0,1,110.774,16.394Zm-4.891-1.481a4.7,4.7,0,0,0,3.322,0,3.816,3.816,0,0,0,2.241-2.29,5.29,5.29,0,0,0,.325-1.9,5.228,5.228,0,0,0-.325-1.885,3.911,3.911,0,0,0-.9-1.411,4,4,0,0,0-1.345-.87,4.639,4.639,0,0,0-3.322,0,4,4,0,0,0-1.345.87,3.911,3.911,0,0,0-.9,1.411,5.228,5.228,0,0,0-.325,1.885,5.29,5.29,0,0,0,.325,1.9,3.816,3.816,0,0,0,2.241,2.29Z" transform="translate(1367 -4017)" fill="#00223d"/>
    <path id="Trazado_9923" data-name="Trazado 9923" d="M899.5,406h-1.714l-.072,0h-.08l-.073,0h0l-.074,0h0q-2.252.049-4.476.205l.114,1.62c2.109-.148,4.255-.223,6.379-.223V406Zm-12.953.91q-.732.1-1.46.219h0l-.068.011h-.008l-.02,0-.011,0-.02,0-.024,0-.014,0-.018,0-.012,0-.029,0-.01,0-.023,0-.01,0-.027,0h0l-.033.005h-.005l-.028,0h-.006l-.068.011h0q-1.645.269-3.267.6h0l-.064.013-.008,0-.026.005h-.006l-.03.006-.009,0-.021,0-.013,0-.019,0-.023,0-.015,0-.017,0-.01,0-.066.014h0q-.444.091-.888.186l.342,1.588c2.069-.445,4.182-.822,6.281-1.119l-.228-1.609Zm-12.692,2.733-.009,0-.024.007-.031.009-.023.006-.022.007-.021.006-.035.01-.022.006-.023.007-.018.005-.036.01-.022.006-.024.007-.017.005-.024.007-.015,0-.044.014-.015,0-.026.008-.014,0-.046.014-.014,0-.026.008-.011,0-.054.016-.007,0-.029.008-.01,0-.092.028-.007,0-.1.029h0q-2.691.813-5.308,1.784l.565,1.523c1.986-.736,4.024-1.41,6.057-2l-.454-1.559Zm-12.173,4.514-.508.233h0l-.039.018-.008,0-.042.02,0,0-.035.016-.012.005-.039.018-.011.005-.029.014-.016.007-.03.014-.019.009-.026.012-.018.008-.026.012-.023.011-.026.012-.02.01-.019.009-.032.015-.02.009-.024.011-.014.007-.082.039-.008,0-.087.041-.007,0-.09.043h0q-1.1.52-2.178,1.068l0,0-.087.044-.009,0-.083.042-.01,0-.079.041-.015.008-.022.011-.024.012-.027.014-.02.01-.019.01-.025.013-.025.013-.023.011-.018.009-.025.013-.022.011-.028.014-.015.008-.031.016-.009,0-.038.02-.012.006-.033.017-.007,0-.04.021-.009,0-.036.018-.005,0-.042.022,0,0-.039.02-.005,0-.087.045h0q-.673.352-1.341.714l.775,1.427c1.862-1.012,3.783-1.969,5.71-2.845l-.672-1.479Zm-11.407,6.2h0l-.041.026,0,0q-2.717,1.74-5.3,3.663l.97,1.3c1.7-1.265,3.467-2.485,5.251-3.626l-.875-1.368Zm-10.416,7.75-.305.264,0,0-.075.065,0,0-.075.064,0,0-.074.064,0,0-.073.064,0,0-.073.064,0,0-.074.065,0,0-.074.065,0,0-.074.065,0,0-.075.066h0q-1.824,1.615-3.56,3.325l0,0-.07.069,0,0-.032.032,0,0-.034.033-.005.005-.028.028-.007.007-.031.031,0,0,1.143,1.154c1.5-1.492,3.082-2.948,4.688-4.33l-1.06-1.231Zm-9.221,9.14,0,.006-.025.028-.009.011-.023.026-.009.01-.029.033,0,0-.029.033-.007.008-.061.07,0,.005-.062.071,0,0q-1.978,2.279-3.8,4.687h0l-.03.041,1.295.981c1.279-1.688,2.636-3.352,4.031-4.946l-1.222-1.07ZM822.8,447.595q-1.771,2.717-3.353,5.564l1.42.788c1.028-1.851,2.135-3.69,3.293-5.465l-1.361-.887Zm-6.3,11.352,0,.01-.009.02-.015.032-.009.02-.009.021-.01.021-.013.029-.011.023-.009.02-.01.021-.009.02-.015.033-.008.018-.01.022-.008.018-.016.034-.008.018-.011.023-.008.017-.016.036-.008.016-.011.024-.008.017-.014.03-.009.021-.012.025-.008.017-.013.029-.008.017-.014.03-.008.017-.011.024-.008.018-.016.034-.008.016-.011.025-.007.015-.017.037-.006.014-.012.027-.007.016-.016.036-.007.015-.011.025-.007.017-.017.037-.006.013-.012.027-.008.017-.014.031-.006.015-.014.031-.007.016-.013.028-.006.013-.016.036-.008.016-.011.026-.006.015-.016.036-.007.016-.011.025-.008.016-.016.036-.008.017-.011.024-.007.016-.016.037-.006.014-.011.027-.008.016-.014.033-.007.016-.013.029-.007.016-.012.029-.007.015-.015.034-.007.015-.011.027-.006.015-.016.036-.007.015-.012.028-.006.014-.016.037-.006.015-.011.025-.007.017-.016.037-.006.014-.011.027-.008.017-.016.036-.006.014-.011.026-.008.018-.011.027-.009.02-.013.029-.007.017-.012.027-.006.014-.016.037-.007.016-.011.027-.006.014-.016.037-.007.017-.011.025-.006.016-.016.036-.007.017-.011.024-.007.017-.016.037-.006.014-.011.027-.007.016-.014.031-.007.017-.013.03-.006.016-.012.028-.006.015-.015.035-.006.016-.011.028-.006.014-.016.037-.007.016-.011.026-.007.016-.016.037-.006.015-.011.026-.007.016-.016.037-.005.012-.012.029-.007.016-.015.035-.006.015-.012.029-.007.017-.012.029-.007.016-.014.034-.006.015-.013.031,0,.011-.016.038-.007.015-.012.028-.005.014-.016.038-.006.015-.011.028-.006.015-.015.038-.006.014-.011.027-.007.016-.016.038,0,.011-.013.031-.005.013-.015.036,0,.01-.015.036-.005.014-.013.032,0,.009-.016.039-.006.014-.012.03,0,.012-.016.039-.005.013-.012.03-.005.012-.016.04,0,.011-.012.031-.005.013-.016.04,0,.008-.014.034-.005.012-.016.041,0,.005-.015.036-.005.014-.015.036,0,.006-.016.041,0,.013-.014.035,0,.007-.017.041,0,.012-.014.034,0,.008-.016.042,0,.008-.014.036,0,.009-.017.042,0,.006-.015.038,0,.008-.035.088,0,.005-.035.09,0,.005-.036.09,0,0-.017.043v0l-.018.046v0l-.018.045v0l-.036.093v0l-.036.093h0l-.036.094v0l-.036.094h0l-.109.285,1.518.578c.754-1.978,1.59-3.956,2.483-5.877l-1.473-.685Zm-4.622,12.133q-.4,1.34-.767,2.7h0l-.027.1v0l-.026.1v0l-.026.1v0l-.009.031v.005l-.025.1,0,.008-.024.091,0,.011-.008.028,0,.01-.013.05,0,.014-.007.026,0,.016-.01.04,0,.02-.006.023,0,.019-.006.023-.009.036-.005.02-.006.022,0,.021-.009.033-.005.023-.006.025-.005.019-.007.029-.005.021-.008.031,0,.018-.008.029,0,.015-.01.04,0,.015-.008.031,0,.013-.01.042,0,.01-.009.035,0,.011-.022.089,0,.009-.011.043s0,0,0,0l-.012.047v0l-.011.044v0l-.024.1s0,0,0,0l-.024.1h0q-.218.889-.42,1.785l1.585.356c.465-2.067,1.009-4.143,1.62-6.171l-1.556-.468Zm-2.846,12.668q-.073.485-.141.972v0l-.009.065,0,.012,0,.017,0,.017,0,.019,0,.022,0,.012,0,.023v.008l0,.032v0l0,.029v0l-.009.069h0q-.347,2.547-.552,5.139l1.619.128c.167-2.114.411-4.247.727-6.338l-1.606-.242ZM808,496.689c0,.234,0,.466,0,.7h0v.037h0v1.52l0,.1v.084l0,.141v.076q.038,1.93.155,3.838l1.621-.1c-.113-1.848-.171-3.727-.171-5.586q0-.4,0-.8L808,496.689Zm2.406,12.748-1.61.213q.3,2.268.713,4.5h0l.006.034h0l.006.035h0l.006.032v.005l.012.065v.007l.005.03v0l.006.032,0,.008,0,.025,0,.008.006.031v0l.005.028,0,.01,0,.021,0,.012,0,.027,0,.013,0,.016,0,.015,0,.02,0,.022,0,.015,0,.017,0,.011.006.036v.006l0,.02,0,.009.012.068v0l0,.024h0q.115.6.237,1.188l1.591-.328c-.427-2.073-.784-4.189-1.063-6.29Zm2.573,12.489-1.563.44q.186.661.382,1.318l0,0,.027.091,0,.008.027.089,0,.01.011.036,0,.009.012.042,0,.013.01.031,0,.014.012.041,0,.013.009.03,0,.016.013.04,0,.01.009.031.005.017.009.03.005.019.01.032.006.019.008.025.005.017.011.038.005.018.008.025.005.017.011.037.006.021.007.022.006.021.008.026.009.03.006.021.006.022.007.022.01.031.008.024.006.021.006.021.009.03.009.027.006.022.006.019.008.023.011.034.006.022.007.021.007.022.007.023.011.034.006.019.007.023.006.019.012.037.006.019.008.023.007.02.009.027.009.029.008.023.006.019.007.022.011.035.008.023.006.018.007.023.007.02.012.036.006.02.007.022.006.021.011.034.007.022.006.022.007.021.008.025.01.031.006.019.008.024.006.018.012.037.005.018.008.024.006.019.012.038,0,.013.01.029.005.017.01.031.005.017.011.033.005.017.009.029,0,.014.013.039,0,.015.01.03,0,.013.013.04,0,.012.011.032,0,.012.014.042,0,.005.013.039,0,.01.029.088,0,.008.014.042s0,0,0,0l.016.045,0,.005.014.042v0l.016.047h0l.015.045v0l.032.095h0q.292.863.6,1.72l1.528-.551c-.719-1.992-1.374-4.036-1.949-6.074Zm4.326,11.994-1.485.659q.392.884.8,1.757h0l.042.09,0,0,.041.088,0,.005.018.039,0,.005.02.042,0,.007.017.036,0,.008.02.041,0,.008.016.032.006.013.018.038,0,.01.015.03.007.015.015.031.008.017.014.029.008.016.012.025.01.022.014.028.009.018.01.022.012.024.013.027.01.021.009.018.01.021.016.032.011.023.008.016.011.023,0,.009.023.047,0,.011.013.027v0l.026.055,0,.008.013.028h0l.03.061h0l.015.031h0q.708,1.454,1.465,2.875l1.434-.763c-1-1.871-1.936-3.8-2.794-5.736Zm5.99,11.258-1.376.863q.891,1.42,1.832,2.806v0l.055.081,0,0,.055.08,0,0,.054.079,0,.006.054.078,0,.007.053.076.006.008.023.034,0,0,.026.038.005.008.022.032,0,.007.025.036.007.01.021.03.006.009.025.036.006.009.021.03.006.009.025.036.006.009.02.029.007.01.025.036.006.008.02.029.008.012.024.034.006.01.02.028.008.011.024.035,0,.006.021.03.008.012.021.029.009.014.02.028.009.014.019.028.006.008.024.034.01.015.016.023.011.016.021.03.01.015.016.023.009.013.023.033.01.014.017.023.009.014.023.033.01.014.016.023.01.014.023.033.01.014.016.022.011.015.023.032.008.011.018.025.01.014.023.033.009.012.017.024.011.015.02.028.011.016.017.023.011.015.018.025.014.019.016.023.012.017.016.022.014.019.018.025.011.016.016.023.011.015.021.03.011.015.016.022.01.014.023.032.011.016.016.021.011.015.022.031.011.016.015.021.011.014.023.032.01.014.016.023.011.014.023.032.01.014.016.022.01.015.024.032.009.012.018.024.01.014.022.03,0,0,1.312-.958c-1.25-1.711-2.454-3.488-3.579-5.282Zm7.523,10.3-1.24,1.049.008.009.018.022.01.012.026.031.01.011.02.023.01.011.026.031.01.011.02.024.01.011.028.032.006.007.023.027.009.01.028.033.005.006.025.029.008.009.029.034h0l.029.034.006.007.061.07.006.007.029.034h0l.03.035.006.007.027.032,0,0,.03.035,0,.005.03.034v0l.031.036,0,0,.029.034,0,0,.032.037,0,0,.031.036h0l.032.037,0,0,.029.034,0,0,.032.036h0l.03.036,0,0,.032.037h0l.031.035,0,0,.063.072,0,0,.063.071,0,.005.063.071,0,0,.063.072,0,0,.063.072,0,0,.064.073,0,0,.064.073,0,0,.065.073v0l.066.075h0l.032.036,0,0,.032.036,0,0,.031.035,0,0,.032.037h0l.032.035,0,0,.066.073,0,0,.065.073,0,0,.065.072,0,0,.064.071,0,0,.064.071,0,0,.064.071,0,0,.065.071,0,0,.066.071,0,0,.03.033,0,0,.032.036,0,0,.03.033,0,0,.032.035,0,0,.029.031,0,0,.032.035,0,0,.03.033,0,0,.032.035,0,0,.03.033,0,.005.033.035,0,0,.03.032.005.006.032.035h0l.03.032.007.008.031.034h0l.031.034.007.007.062.067.007.008.063.067.007.008.062.067.008.008.028.03,0,0,.031.034.006.007.028.03,0,0,.031.033.007.008.026.028.006.007.03.032.008.008.025.027.006.007.03.032.009.009.024.025.008.009.03.032.007.008.024.026.009.009.03.031.008.008.024.025.009.009.03.031.006.007.025.027.008.009.03.032.006.006.025.027.009.009.03.032,0,0,.028.029.009.01.029.03,0,0,.029.031.008.008.029.03,0,0,.031.032.009.009.025.026.006.006.03.031.009.009.026.027.006.006.03.031.009.01.024.025.008.008.03.031.009.009.025.025.007.008.03.031.008.009.024.025.009.009.029.03.009.009.024.024.009.009.03.031.007.008.024.025.01.009.03.031.006.006.025.026.009.009.03.031.006.007.025.025.005.005,1.164-1.133c-1.478-1.518-2.921-3.108-4.288-4.726Zm8.9,9.137-1.081,1.212q1.922,1.713,3.937,3.316l0,0,.076.061.006,0,.073.058.01.007.022.018,0,0,.042.033.014.011.019.015.027.021.017.013.021.017.015.011.032.025.009.007.027.021.011.009.035.028h0l.035.027.007.006.075.058,0,0q.24.187.48.372l.992-1.285c-1.677-1.294-3.329-2.665-4.911-4.075Zm10.1,7.793-.9,1.353q2.7,1.8,5.534,3.4l.8-1.413c-1.842-1.044-3.671-2.168-5.436-3.341Zm11.095,6.288-.7,1.466q1.005.479,2.024.933h0l.091.041h0l.045.02h0l.045.02,0,0,.04.018,0,0,.044.019,0,0,.04.018.006,0,.086.038.008,0,.084.037.01,0,.036.016.007,0,.041.017.01,0,.034.015.009,0,.04.017.012,0,.03.013.012.005.039.017.012.005.029.012.015.006.038.017.011,0,.028.012.017.008.032.014.017.007.029.012.016.007.03.013.015.006.034.015.016.006.029.012.012.005.038.016.016.007.026.011.015.006.037.016.017.008.025.01.016.007.037.016.014.006.027.012.016.006.036.015.014.007.028.012.016.006.031.013.017.007.031.014.015.007.029.012.014.006.036.015.016.006.028.011.014.006.037.016.015.007.027.011.015.007.038.016.012.005.029.012.014.006.038.016.011,0,.03.013.015.006.039.016.007,0,.035.015.013.005.037.015,0,0,.041.017.012,0,.036.015.006,0,.042.017.01,0,.036.015.007,0,.042.017.008,0,.037.015.007,0,.044.018,0,0,.042.017,0,0,.091.037h0l.093.038h0q.588.24,1.181.472l.592-1.513c-1.972-.771-3.942-1.624-5.854-2.535Zm11.874,4.645-.482,1.551q.395.123.792.242l.007,0,.09.027.013,0,.026.008.012,0,.045.014.018.005.022.006.026.008.026.008.028.008.018.005.027.008.016,0,.039.012.015,0,.03.009.014,0,.041.012.01,0,.035.01.011,0,.043.013h0l.041.012.01,0,.089.026.007,0,.093.027h0l.047.014h0q1.386.4,2.789.76h0l.094.024.006,0,.092.023.01,0,.038.01.006,0,.044.011.011,0,.034.008.013,0,.042.011.013,0,.03.007.017,0,.029.007.027.007.027.006.021.005.021,0,.04.01.017,0,.025.007.015,0,.091.022.008,0,.1.024h0c.3.074.607.147.909.218l.37-1.581c-2.063-.482-4.134-1.046-6.156-1.675Zm12.416,2.905-.257,1.6q3.188.509,6.447.8l.142-1.618c-2.113-.185-4.244-.449-6.332-.783Zm19.089,1.005c-1.586.083-3.2.126-4.791.126q-.8,0-1.592-.014l-.028,1.624q.593.011,1.188.013h1.351l.459-.006h.191q.878-.015,1.751-.046h.293l.03,0h.077l.035,0h0c.372-.015.747-.033,1.119-.052l-.085-1.622Zm12.656-1.566c-2.076.408-4.2.747-6.3,1.008l.2,1.612q.862-.106,1.717-.229h0l.075-.01h0l.023,0h.007l.067-.009.009,0,.02,0h0l.042-.006.01,0,.019,0,.01,0,.034,0,.01,0,.018,0,.013,0,.017,0,.027,0,.015,0,.015,0,.016,0,.022,0,.015,0,.022,0,.013,0,.021,0,.01,0,.029,0,.012,0,.022,0,.01,0,.03,0h.007l.026,0,.009,0,.027,0h.005l.031,0,.009,0,.025,0h.008l.031,0h.007l.025,0h.01l.063-.01.008,0,.028,0h0l.032,0h.005l.028,0h.006l.067-.011h0l.068-.011h0l.032,0h0l.068-.011h0l.069-.011h0l.069-.011h0l.034-.005h0l.07-.011h0l.105-.017h0l.069-.011h0l.068-.011h0l.033-.005h0l.035-.005h0l.033-.005h0l.067-.011h.005l.029,0h0l.033-.005h0l.029,0h.006l.064-.011.009,0,.028,0h0l.031-.005.009,0,.024,0,.008,0,.031,0,.006,0,.025,0h.01l.025,0,.007,0,.029,0,.012,0,.019,0,.014,0,.028,0,.012,0,.018,0,.014,0,.02,0,.022,0,.015,0,.018,0,.014,0,.016,0,.025,0,.018,0,.012,0,.018,0,.012,0,.031-.005.011,0,.019,0h.009l.043-.008h0l.023,0h0l.071-.012h0q.9-.158,1.788-.334l-.314-1.593Zm12.3-3.349c-2,.7-4.048,1.338-6.091,1.894l.426,1.567q.812-.221,1.617-.456h0l.048-.014h0l.095-.028h0l.094-.028,0,0,.093-.027.006,0,.093-.028h0l.043-.013,0,0,.046-.014h0l.041-.012.007,0,.09-.027.009,0,.044-.013h0l.044-.013.009,0,.04-.012h0l.045-.014.007,0,.039-.012.007,0,.045-.013h0l.042-.013.008,0,.089-.028.009,0,.09-.028.006,0,.045-.014h0l.047-.015,0,0,.043-.013h0l.047-.015h0l.044-.014.005,0,.093-.029,0,0,.094-.029h0l.143-.046h0l.1-.03h0q1.354-.428,2.69-.9l-.538-1.533Zm11.7-5.068c-1.88.979-3.818,1.9-5.76,2.743l.645,1.491c.676-.293,1.345-.593,2.013-.9h0l.092-.043,0,0,.089-.041.006,0,.087-.04.009,0,.027-.013,0,0,.052-.024.013-.005.025-.013.01,0,.045-.021.013-.006.025-.012.011-.005.044-.021.012-.006.025-.012.014-.006.04-.019.015-.007.023-.011.016-.008.037-.018.017-.008.022-.011.018-.008.021-.01.033-.016.021-.01.018-.009.021-.01.028-.014.025-.011.019-.009.02-.01.025-.012.025-.012.023-.011.018-.009.025-.012.024-.012.025-.012.017-.008.027-.013.018-.009.031-.015.016-.008.026-.012.014-.006.036-.018.016-.008.026-.012.015-.007.037-.018.014-.006.026-.013.015-.007.036-.018.013-.006.028-.014.015-.007.037-.018.012-.006.028-.014.016-.008.031-.015.016-.008.03-.015.015-.007.032-.016.007,0,.038-.018.015-.007.029-.014.011-.006.038-.018.013-.006.029-.014.011-.006.038-.018.013-.006.029-.014.013-.007.037-.018.013-.006.028-.014.014-.006.037-.019.011-.005.029-.015.013-.006.037-.018.009,0,.031-.016.015-.008.029-.014.017-.009.03-.015.017-.008.025-.012.014-.007.036-.018.016-.008.025-.012.016-.008.035-.018.016-.008.023-.012.017-.008.035-.017.017-.009.021-.01.019-.01.034-.017.017-.008.022-.011.02-.009.023-.012.029-.015.02-.01.021-.011.018-.009.035-.018.016-.008.022-.011.016-.008.042-.022.01,0,.025-.013.012-.005.08-.042.011,0,.082-.042.009,0,.086-.044,0,0,.422-.218-.75-1.441Zm10.864-6.678c-1.722,1.235-3.51,2.423-5.314,3.532l.851,1.384q1.991-1.225,3.915-2.547h0l.166-.114,0,0,.082-.057h0l.082-.057h0l.041-.029h0l.082-.057,0,0,.081-.056,0,0,.08-.056,0,0,.078-.055,0,0,.078-.055.006,0,.037-.026h0l.038-.027.007,0,.037-.026h0l.038-.027.006,0,.035-.025,0,0,.038-.027.006,0,.034-.024.005,0,.037-.027.007,0,.031-.022.008-.006.038-.026,0,0,.034-.024.007,0,.037-.027,0,0,.033-.023.009-.007.036-.025,0,0,.032-.023.01-.007.036-.026,0,0,.031-.022.006,0-.946-1.32Zm9.814-8.146c-1.531,1.465-3.133,2.894-4.763,4.246l1.037,1.25q1.139-.946,2.25-1.93h0l.076-.067,0,0,.075-.067,0,0,.074-.066,0,0,.074-.065,0,0,.072-.064.006-.006.068-.061.009-.008.022-.02h0l.045-.041.008-.008.021-.019.006-.006.04-.035.009-.009.021-.018.01-.009.035-.032.011-.01.02-.018.011-.01.034-.03.012-.011.019-.017.012-.011.032-.029.013-.012.017-.016.015-.014.028-.025.016-.014.018-.016.013-.012.028-.026.016-.014.017-.016.015-.013.026-.024.018-.016.017-.016.014-.013.026-.024.017-.016.017-.016.015-.014.017-.016.026-.024.016-.015.015-.014.017-.015.026-.024.017-.016.014-.013.018-.016.017-.016.027-.024.013-.012.018-.017.016-.014.026-.025.015-.014.017-.016.015-.014.029-.027.013-.012.019-.017.014-.012.029-.028.014-.012.018-.017.015-.014.028-.026.014-.013.019-.017.012-.012.031-.029.012-.011.019-.017.012-.011.033-.031.01-.01.02-.018.011-.01.039-.037,0,0,.022-.021.008-.007.067-.063.007-.006.069-.064,0,0,.07-.066,0,0,.071-.067,0,0,.346-.33-1.123-1.174ZM970.2,553c-1.309,1.665-2.695,3.305-4.118,4.874l1.2,1.091q.495-.545.98-1.1h0l.032-.037v0l.033-.037h0l.03-.035,0-.005.031-.035,0,0,.027-.031.006-.007.03-.034,0,0,.025-.029.008-.009.029-.033.005-.006.024-.028.009-.01.029-.032,0-.006.024-.027.011-.013.024-.027.009-.011.023-.027.011-.013.02-.023.015-.017.02-.023.013-.016.017-.02.018-.021.018-.021.015-.017.014-.016.024-.028.013-.015.017-.02.011-.012.029-.034.01-.011.017-.02.01-.011.057-.066.01-.012.057-.068.008-.009.06-.07.006-.007.061-.072,0-.005.062-.073,0,0,.063-.074,0,0,.021-.024,0,0,.042-.049v0l.022-.025h0l.043-.051h0l.021-.025,0,0,.041-.049h0l.021-.025,0,0,.063-.075,0,0,.062-.074,0-.005.062-.073,0-.005.061-.074,0-.005.06-.073.006-.008.059-.071.007-.008.018-.022.005-.007.033-.041.009-.011.017-.021.01-.013.027-.032.011-.014.016-.019.012-.015.025-.03.013-.016.016-.019.012-.015.023-.029.014-.017.014-.017.015-.018.019-.024.016-.02.014-.017.015-.018.016-.019.021-.025.012-.016.017-.021.011-.013.025-.031.011-.014.018-.022.01-.012.025-.032.01-.012.021-.025.008-.01.027-.033.008-.009.023-.028.006-.008.028-.035.006-.007.024-.031.005-.006.029-.036,0,0,.028-.035,0,0,.062-.077h0q.334-.415.663-.834l-1.277-1Zm7.152-10.559c-1.06,1.833-2.2,3.651-3.389,5.406l1.345.911.005-.008.014-.021.019-.028.011-.017.013-.019.012-.018.022-.032.009-.014.015-.022.007-.01.03-.044,0-.008.017-.025,0-.007.035-.051h0l.018-.027,0,0,.055-.082,0,0,.056-.083h0q.449-.673.886-1.353l0,0,.054-.083,0,0,.052-.081,0-.006.05-.079.006-.009.049-.076.007-.011.015-.024.005-.008.027-.042.009-.015.013-.021.011-.017.021-.032.011-.018.012-.019.014-.021.017-.027.012-.021.011-.018.014-.022.016-.024.015-.023.01-.016.016-.025.007-.012.022-.034.008-.013.017-.028.006-.01.023-.037.006-.01.02-.032,0-.007.024-.039,0-.006.023-.036,0,0,.025-.041,0,0,.025-.039,0,0,.052-.083,0,0,.053-.085h0q.721-1.165,1.409-2.354l-1.406-.813Zm5.584-11.465c-.789,1.965-1.659,3.927-2.587,5.832l1.461.711q1.078-2.214,2.041-4.5h0l.039-.094,0-.006.025-.06h0l.011-.027,0-.012.034-.081.007-.017.01-.023.01-.025.012-.028.009-.021.008-.019.014-.033.007-.017.011-.028.007-.016.015-.036,0-.007.016-.038.005-.012.015-.037,0,0,.018-.042,0-.009.017-.04v0l.019-.045v0q.135-.329.267-.658l-1.507-.605Zm3.893-12.142c-.5,2.058-1.083,4.125-1.729,6.141l1.547.5c.424-1.324.818-2.656,1.184-4v0l.027-.1v0l.025-.095,0-.009.008-.029,0-.008.015-.055,0-.01.007-.026,0-.015.011-.043,0-.018.006-.023.005-.019.006-.023.01-.036,0-.019.006-.025,0-.019.009-.034,0-.019.008-.029,0-.017.009-.033,0-.009.011-.042,0-.012.01-.037,0-.007.012-.045,0-.008.011-.042v0l.025-.1v0q.159-.616.31-1.234l-1.578-.384Zm2.125-12.574c-.2,2.111-.486,4.239-.839,6.325l1.6.27q.081-.477.156-.956v0l0-.033h0l.005-.034v0l0-.027v-.009l0-.031v-.006l0-.024,0-.013,0-.021,0-.01,0-.028,0-.014,0-.016,0-.016V511.6l.006-.036v-.01l0-.021v0l.007-.044v0l0-.023v0q.277-1.81.483-3.643v-.006l.008-.068v-.007l0-.021V507.7l0-.035v-.011l0-.017,0-.015,0-.016,0-.027,0-.016,0-.017v-.014l0-.023,0-.016,0-.022v-.012l0-.023v-.008l0-.03v-.01l0-.025v-.008l0-.033v0l0-.031v-.006l.007-.068v0q.042-.4.081-.8l-1.617-.156Zm1.957-12.825-1.623.071c.058,1.323.087,2.668.087,4,0,.793-.01,1.6-.031,2.387l1.624.042c0-.168.008-.341.012-.509h0v-.037h0v-.036h0v-.036h0v-.294h0v-.041c0-.093,0-.187,0-.28v-2.782l0-.108v-.113l0-.11h0v-.073h0c0-.074,0-.147,0-.22h0q-.022-.929-.062-1.853Zm-1.481-12.9-1.6.3c.39,2.08.71,4.2.952,6.309l1.613-.185q-.236-2.055-.561-4.081v0l-.012-.072v0l0-.023v0l-.006-.042v-.006l0-.021,0-.009-.007-.043v0l0-.017,0-.014,0-.016,0-.015,0-.026,0-.016,0-.013,0-.02,0-.011,0-.028,0-.013,0-.019,0-.012,0-.029v-.008l0-.025v-.008l-.011-.065v0c-.1-.589-.2-1.17-.311-1.755Zm-3.3-12.557-1.537.524c.683,2,1.3,4.06,1.84,6.108l1.571-.413q-.085-.319-.17-.638v0l-.025-.093,0-.01-.01-.036,0-.01-.011-.042,0-.015-.008-.029,0-.016-.011-.039,0-.016-.007-.025-.005-.021-.007-.023-.009-.035-.005-.019-.007-.024,0-.017-.014-.05,0-.008-.008-.028,0-.011-.026-.094v0c-.341-1.224-.7-2.432-1.095-3.635l0-.009-.019-.057v0l-.009-.026,0-.014-.009-.026-.006-.02-.011-.035-.007-.021-.007-.021-.009-.028-.008-.024-.009-.027-.005-.017-.01-.031,0-.01-.014-.041,0-.014-.011-.034,0-.009-.014-.042,0-.009-.013-.039,0,0-.031-.094h0q-.1-.312-.21-.623Zm-5.054-11.959-1.447.737c.962,1.888,1.867,3.834,2.691,5.784l1.5-.632q-1.035-2.449-2.206-4.823v0l-.045-.09,0,0-.042-.086,0-.009-.013-.026,0-.008-.023-.046-.007-.014-.011-.023-.007-.014-.019-.039-.008-.017-.011-.021-.01-.02-.012-.025-.014-.027-.009-.017-.012-.025-.008-.014-.018-.037-.006-.013-.015-.03-.005-.011-.019-.038,0-.01-.016-.032,0-.01-.021-.041,0,0-.019-.038,0-.007-.043-.086,0,0-.044-.088h0l-.045-.09Zm-6.7-11.12-1.329.935c1.22,1.733,2.393,3.532,3.485,5.345l1.391-.839c-.319-.529-.64-1.05-.969-1.572l0-.005-.034-.053v0l-.016-.025-.007-.011-.031-.049,0,0-.015-.023-.008-.013-.024-.038-.008-.013-.014-.021-.01-.016-.013-.02-.019-.03-.012-.018-.012-.019-.011-.017-.021-.032-.01-.016-.015-.022-.01-.015-.021-.033-.008-.013-.017-.026-.008-.012-.023-.036,0,0-.021-.034-.007-.01-.022-.035,0,0-.023-.036-.006-.01-.023-.036v0l-.025-.039,0-.008-.023-.036,0,0-.026-.04,0-.006-.024-.038h0l-.027-.041,0,0-.026-.04h0l-.055-.085h0l-.055-.085h0q-.526-.807-1.069-1.6h0l-.055-.081,0,0-.054-.079,0-.006-.026-.039h0l-.024-.036-.008-.011-.021-.031-.007-.01-.021-.03-.01-.014-.016-.024-.013-.02-.017-.024-.013-.019-.011-.016-.024-.035-.009-.013-.015-.022-.008-.011-.053-.076,0,0c-.111-.16-.221-.317-.333-.476Zm-8.2-10.063-1.184,1.113c1.452,1.544,2.866,3.159,4.2,4.8l1.259-1.027q-.482-.59-.972-1.172h0l-.064-.076,0,0-.062-.074,0,0-.029-.035v0l-.03-.036-.006-.007-.027-.031,0-.005-.029-.035-.006-.007-.024-.028-.007-.009-.028-.033-.009-.01-.021-.025-.009-.01-.027-.032-.01-.011-.02-.023-.01-.012-.026-.03-.012-.014-.016-.019-.014-.016-.018-.021-.021-.024-.012-.015-.016-.018-.011-.013-.028-.033-.011-.013-.017-.019-.01-.012-.031-.036-.009-.01-.018-.021-.008-.009-.036-.042,0,0-.02-.023,0-.007-.063-.073h0q-1.209-1.394-2.469-2.733Zm-9.539-8.808-1.015,1.268c1.654,1.324,3.282,2.723,4.838,4.161l1.1-1.193h0l-.036-.034,0,0-.034-.032,0,0-.036-.034h0l-.034-.031,0,0-.036-.033,0,0-.033-.03,0,0-.035-.031,0,0-.03-.028-.008-.008-.034-.031h0l-.032-.029-.008-.008-.034-.03,0,0-.031-.029-.009-.008-.033-.03h0l-.033-.03-.009-.008-.03-.028,0,0-.031-.029-.012-.011-.025-.023-.007-.007-.031-.028-.011-.01-.024-.022-.009-.009-.03-.028-.012-.01-.023-.021-.011-.009-.03-.028-.012-.011-.022-.02-.011-.01-.03-.027-.012-.011-.023-.02-.01-.01-.031-.028-.012-.01-.022-.019-.012-.011-.03-.027-.012-.011-.021-.018-.013-.012-.029-.027-.012-.011-.022-.019-.013-.012-.027-.024-.016-.014-.02-.018-.013-.012-.028-.025-.011-.01-.024-.021-.012-.011-.028-.024-.01-.009-.026-.023-.012-.011-.025-.022-.013-.011-.026-.023-.012-.011-.024-.021-.012-.011-.028-.025-.012-.01-.025-.022-.009-.008-.031-.028-.011-.01-.025-.021-.009-.008-.032-.028-.01-.009-.026-.023-.009-.008-.032-.029-.009-.008-.025-.022-.01-.009-.031-.028-.01-.009-.026-.022-.009-.008-.033-.029-.008-.007-.028-.024-.008-.007-.034-.029-.005,0-.03-.027-.007-.006-.035-.03,0,0-.033-.029-.008-.006-.071-.062,0,0-.071-.062-.006,0-.072-.062,0,0-.073-.062,0,0-.074-.063,0,0-.076-.065h0q-1.156-.991-2.346-1.943Zm-10.685-7.376-.826,1.4c1.824,1.076,3.632,2.232,5.376,3.436l.923-1.336-.394-.271h0l-.084-.057,0,0-.082-.056,0,0-.08-.055-.005,0-.079-.053-.008-.005-.024-.016-.007,0-.044-.03-.01-.006-.024-.017-.007,0-.044-.03-.01-.007-.023-.015-.011-.008-.04-.027-.011-.008-.023-.015-.011-.008-.039-.026-.011-.008-.022-.015-.015-.01-.034-.023-.016-.01-.021-.014-.016-.011-.02-.014-.029-.019-.02-.014-.016-.011-.02-.013-.029-.02-.019-.013-.017-.011-.018-.012-.031-.02-.016-.011-.021-.014-.016-.011-.032-.022-.015-.009-.023-.015-.015-.01-.032-.022-.014-.009-.025-.017-.014-.009-.032-.021-.01-.006-.03-.02-.012-.009-.03-.02-.01-.006-.033-.022-.012-.008-.029-.019-.009-.006-.036-.023-.011-.007-.029-.019-.009-.006-.036-.023-.011-.007-.029-.02-.009-.005-.037-.024-.009-.006-.031-.021-.008-.005-.038-.024-.007,0-.033-.022-.008,0-.038-.025,0,0-.034-.022-.008,0-.038-.025,0,0-.035-.023-.008,0-.077-.05-.008,0-.078-.05-.007,0-.08-.051-.005,0-.08-.051-.007,0-.038-.024h0l-.04-.025-.006,0-.038-.024h0l-.041-.025,0,0-.037-.023,0,0-.04-.026,0,0-.037-.024,0,0-.04-.025,0,0-.038-.024,0,0-.041-.025s0,0,0,0l-.038-.024-.006,0-.04-.025h0l-.037-.024-.008,0-.079-.049-.008,0-.038-.024h0l-.04-.024-.008,0-.037-.023,0,0-.039-.024-.008,0-.035-.022,0,0-.039-.024-.008-.005-.032-.02-.008,0-.037-.023-.01-.007-.029-.018-.012-.007-.036-.022-.011-.007-.028-.017-.013-.008-.035-.022-.012-.008-.025-.016-.015-.009-.034-.021-.013-.008-.024-.015-.016-.01-.026-.016-.023-.015-.02-.012-.021-.012-.016-.01-.036-.022-.014-.009-.022-.014-.014-.009-.037-.023-.014-.009-.023-.014-.012-.008-.046-.028-.005,0-.025-.016-.009-.005-.081-.049,0,0c-.341-.208-.68-.41-1.024-.614Zm-11.622-5.788-.618,1.5c1.957.807,3.912,1.695,5.808,2.639l.724-1.454-.272-.135h0l-.09-.044h0l-.041-.021,0,0-.043-.021h0l-.038-.019-.009,0-.041-.02,0,0-.036-.018-.011-.005-.035-.017-.009,0-.034-.017-.015-.007-.027-.014-.017-.008-.032-.016-.017-.008-.024-.011-.016-.008-.035-.017-.019-.009-.02-.009-.021-.01-.032-.016-.02-.01-.018-.009-.022-.01-.018-.009-.036-.017-.016-.008-.023-.011-.012-.006-.044-.021-.011-.005-.026-.012-.01,0-.051-.024-.005,0-.028-.014-.007,0-.088-.042,0,0-.091-.043h0l-.091-.043,0,0q-1.1-.521-2.209-1.012h0l-.095-.042h0l-.093-.041h0l-.093-.041h0l-.03-.014,0,0-.058-.025h0l-.03-.013,0,0-.061-.026h0l-.029-.012-.008,0-.087-.038-.008,0-.086-.037-.011,0-.026-.011-.006,0-.049-.021-.014-.006-.024-.01-.017-.008-.038-.016-.017-.007-.023-.01-.017-.008-.036-.015-.019-.008-.022-.01-.019-.008-.028-.012-.027-.011-.019-.008-.023-.01-.017-.008-.036-.015-.017-.008-.025-.01-.016-.007-.037-.016-.014-.006-.028-.012-.014-.006-.038-.016-.012-.005-.029-.012-.015-.006-.039-.017-.008,0-.034-.015-.013-.005-.038-.016,0,0-.042-.017-.01,0-.037-.016-.005,0-.042-.017-.01,0-.036-.015-.008,0L934.66,413l-.009,0-.037-.016-.006,0-.043-.018-.005,0-.039-.016-.008,0-.044-.018s0,0,0,0l-.043-.018-.006,0-.088-.036,0,0ZM922,408.787l-.4,1.574c2.053.519,4.114,1.12,6.125,1.785l.51-1.542c-.375-.124-.748-.245-1.125-.364h0l-.1-.031,0,0-.094-.029-.008,0-.091-.029-.009,0-.029-.009-.009,0-.051-.016-.011,0-.028-.009-.011,0-.058-.018h0l-.026-.008-.015,0-.025-.008-.008,0-.051-.016-.015,0-.025-.008-.016,0-.043-.013-.015,0-.025-.008-.014,0-.045-.014-.015,0-.024-.008-.017,0-.034-.01-.025-.008-.023-.007-.018-.005-.024-.008-.016,0-.041-.012-.017-.005-.024-.007-.016,0-.043-.013-.016,0-.025-.007-.017-.005-.04-.012-.019-.005-.023-.007-.018-.005-.023-.007-.026-.008-.032-.01-.018-.005-.023-.007-.023-.007-.034-.01-.02-.006-.023-.007-.018-.005-.039-.011-.018-.006-.023-.007-.018-.005-.039-.012-.018,0-.024-.008-.017,0-.025-.007-.009,0-.05-.015-.016,0-.025-.008-.014,0-.045-.013-.014,0-.026-.008-.015,0-.047-.014-.012,0-.027-.008-.014,0-.086-.025-.013,0-.027-.008-.009,0-.05-.015-.015,0-.027-.008-.008,0-.055-.016-.009,0-.028-.008-.011,0-.055-.015-.006,0-.028-.008-.012,0-.088-.025-.012,0-.029-.008h0l-.061-.017-.008,0-.03-.009h-.005l-.059-.017-.006,0-.03-.009-.009,0-.092-.026-.009,0-.093-.026-.008,0-.03-.008h0l-.063-.017-.006,0-.031-.009-.005,0-.1-.027H923.8l-.095-.026-.007,0-.094-.026-.007,0-.1-.026-.005,0-.03-.008-.009,0-.061-.017h0l-.03-.008-.009,0-.09-.024-.012,0-.029-.008h0l-.06-.016-.011,0-.028-.008-.01,0-.051-.014-.012,0-.027-.008-.014,0-.049-.013-.012,0-.025-.006-.018,0-.024-.006-.015,0-.044-.011-.016,0-.025-.006-.019,0-.038-.01-.021,0-.022-.006-.024-.006-.027-.007-.028-.007-.021-.005-.025-.006-.017,0-.039-.01-.016,0-.028-.007-.016,0-.041-.01-.013,0-.033-.009-.013,0-.043-.011-.005,0-.039-.01-.012,0-.04-.01,0,0-.044-.011-.009,0-.041-.01h0l-.047-.012h0l-.043-.011ZM909.22,406.51l-.171,1.616c2.109.223,4.234.524,6.317.894l.285-1.6q-2.231-.4-4.5-.685h0l-.069-.009h0l-.07-.009h0l-.035,0h0l-.07-.009h0l-.07-.009h0l-.035,0h0l-.07-.009h0l-.068-.009h0l-.068-.008h0l-.032,0h0l-.069-.009h0l-.069-.008h0l-.034,0h0l-.07-.008h0l-.069-.008h0l-.071-.008h0l-.107-.012h0c-.276-.032-.547-.062-.823-.091ZM899.5,406v1.624c1.058,0,2.129.018,3.184.055l.056-1.623c-.281-.01-.559-.018-.841-.025h-2.4Z" transform="translate(535 -4504)" fill="#abb7be"/>
    <g id="Grupo_11247" data-name="Grupo 11247" transform="translate(781 -5535)">
      <g id="Elipse_631" data-name="Elipse 631" transform="translate(584 1454)" fill="#fff" stroke="#abb7be" stroke-width="1">
        <circle cx="8" cy="8" r="8" stroke="none"/>
        <circle cx="8" cy="8" r="7.5" fill="none"/>
      </g>
      <circle id="Elipse_632" data-name="Elipse 632" cx="4" cy="4" r="4" transform="translate(588 1458)" fill="#ff8f00"/>
    </g>
    <g id="Grupo_11250" data-name="Grupo 11250" transform="translate(1488 -4081)">
      <g id="Elipse_631-2" data-name="Elipse 631" fill="#fff" stroke="#abb7be" stroke-width="1">
        <circle cx="8" cy="8" r="8" stroke="none"/>
        <circle cx="8" cy="8" r="7.5" fill="none"/>
      </g>
      <circle id="Elipse_632-2" data-name="Elipse 632" cx="4" cy="4" r="4" transform="translate(4 4)" fill="#ff8f00"/>
    </g>
    <g id="Grupo_11248" data-name="Grupo 11248" transform="translate(781 -5402)">
      <g id="Elipse_631-3" data-name="Elipse 631" transform="translate(584 1454)" fill="#fff" stroke="#abb7be" stroke-width="1">
        <circle cx="8" cy="8" r="8" stroke="none"/>
        <circle cx="8" cy="8" r="7.5" fill="none"/>
      </g>
      <circle id="Elipse_632-3" data-name="Elipse 632" cx="4" cy="4" r="4" transform="translate(588 1458)" fill="#ff8f00"/>
    </g>
    <g id="Grupo_11252" data-name="Grupo 11252" transform="translate(1488 -3948)">
      <g id="Elipse_631-4" data-name="Elipse 631" fill="#fff" stroke="#abb7be" stroke-width="1">
        <circle cx="8" cy="8" r="8" stroke="none"/>
        <circle cx="8" cy="8" r="7.5" fill="none"/>
      </g>
      <circle id="Elipse_632-4" data-name="Elipse 632" cx="4" cy="4" r="4" transform="translate(4 4)" fill="#ff8f00"/>
    </g>
    <g id="Grupo_11249" data-name="Grupo 11249" transform="translate(751 -5469)">
      <g id="Elipse_631-5" data-name="Elipse 631" transform="translate(584 1454)" fill="#fff" stroke="#abb7be" stroke-width="1">
        <circle cx="8" cy="8" r="8" stroke="none"/>
        <circle cx="8" cy="8" r="7.5" fill="none"/>
      </g>
      <circle id="Elipse_632-5" data-name="Elipse 632" cx="4" cy="4" r="4" transform="translate(588 1458)" fill="#ff8f00"/>
    </g>
    <g id="Grupo_11251" data-name="Grupo 11251" transform="translate(1518 -4015)">
      <g id="Elipse_631-6" data-name="Elipse 631" fill="#fff" stroke="#abb7be" stroke-width="1">
        <circle cx="8" cy="8" r="8" stroke="none"/>
        <circle cx="8" cy="8" r="7.5" fill="none"/>
      </g>
      <circle id="Elipse_632-6" data-name="Elipse 632" cx="4" cy="4" r="4" transform="translate(4 4)" fill="#ff8f00"/>
    </g>
    <rect id="Rectángulo_2758" data-name="Rectángulo 2758" width="157" height="39" rx="19.5" transform="translate(1154 -4093)" fill="#e6eef3"/>
    <rect id="Rectángulo_2762" data-name="Rectángulo 2762" width="157" height="39" rx="19.5" transform="translate(1556 -4093)" fill="#e6eef3"/>
    <rect id="Rectángulo_2759" data-name="Rectángulo 2759" width="157" height="39" rx="19.5" transform="translate(1154 -4026)" fill="#e6eef3"/>
    <rect id="Rectángulo_2763" data-name="Rectángulo 2763" width="157" height="39" rx="19.5" transform="translate(1556 -4026)" fill="#e6eef3"/>
    <rect id="Rectángulo_2760" data-name="Rectángulo 2760" width="157" height="39" rx="19.5" transform="translate(1155 -3959)" fill="#e6eef3"/>
    <rect id="Rectángulo_2761" data-name="Rectángulo 2761" width="157" height="39" rx="19.5" transform="translate(1557 -3959)" fill="#e6eef3"/>
    <path id="Trazado_9969" data-name="Trazado 9969" d="M13.871,16V4.859h3.813a6.072,6.072,0,0,1,2.281.4A4.242,4.242,0,0,1,21.609,6.4a4.983,4.983,0,0,1,.977,1.758,7.276,7.276,0,0,1,.332,2.262,6.886,6.886,0,0,1-.574,2.914,4.359,4.359,0,0,1-1.766,1.953A5.553,5.553,0,0,1,17.684,16Zm1.867-1.672h1.867a3.065,3.065,0,0,0,2.512-1.02,4.425,4.425,0,0,0,.84-2.887,4.411,4.411,0,0,0-.84-2.879,3.065,3.065,0,0,0-2.512-1.02H15.738ZM31.6,6.523H27.27V9.609H31.1v1.648H27.27v3.07H31.6V16H25.379V4.859H31.6ZM34.145,16V4.859h3.813a6.072,6.072,0,0,1,2.281.4A4.242,4.242,0,0,1,41.883,6.4a4.983,4.983,0,0,1,.977,1.758,7.276,7.276,0,0,1,.332,2.262,6.886,6.886,0,0,1-.574,2.914,4.359,4.359,0,0,1-1.766,1.953A5.553,5.553,0,0,1,37.957,16Zm1.867-1.672h1.867a3.065,3.065,0,0,0,2.512-1.02,4.425,4.425,0,0,0,.84-2.887,4.411,4.411,0,0,0-.84-2.879,3.065,3.065,0,0,0-2.512-1.02H36.012Zm15.766,1.391a5.576,5.576,0,0,1-4.293,0,3.436,3.436,0,0,1-1.5-1.336,4.031,4.031,0,0,1-.566-2.18V4.859h1.875v7.086a2.55,2.55,0,0,0,.645,1.9,2.311,2.311,0,0,0,1.691.633,2.338,2.338,0,0,0,1.7-.633,2.531,2.531,0,0,0,.652-1.9V4.859h1.867V12.2a4.031,4.031,0,0,1-.566,2.18A3.432,3.432,0,0,1,51.777,15.719Zm9.875.43a6.1,6.1,0,0,1-2.23-.4,5.283,5.283,0,0,1-1.785-1.129,5.1,5.1,0,0,1-1.18-1.809,6.412,6.412,0,0,1-.43-2.387,6.072,6.072,0,0,1,.738-3.035,5.012,5.012,0,0,1,2.012-2A5.954,5.954,0,0,1,61.652,4.7a5.788,5.788,0,0,1,3.117.844,4.918,4.918,0,0,1,1.984,2.336l-1.742.664A3.331,3.331,0,0,0,63.688,7a3.782,3.782,0,0,0-2.035-.555,3.959,3.959,0,0,0-1.477.273,3.557,3.557,0,0,0-1.2.773,3.477,3.477,0,0,0-.8,1.254,4.647,4.647,0,0,0-.289,1.676,4.711,4.711,0,0,0,.289,1.684,3.466,3.466,0,0,0,.8,1.262,3.508,3.508,0,0,0,1.2.77,4.009,4.009,0,0,0,1.477.27,3.8,3.8,0,0,0,2.039-.551,3.315,3.315,0,0,0,1.32-1.543l1.742.664a4.9,4.9,0,0,1-1.98,2.332A5.8,5.8,0,0,1,61.652,16.148ZM75.059,4.859V6.523h-2.75V16H70.449V6.523H67.691V4.859ZM77.027,16V4.859h1.867V16ZM89.059,4.859h1.984L86.934,16H84.926L80.84,4.859h1.977l3.125,8.9Zm11.09,10.6a6.347,6.347,0,0,1-5.746,0,5.006,5.006,0,0,1-2.012-2,6.094,6.094,0,0,1-.738-3.039,6.072,6.072,0,0,1,.738-3.035,5.012,5.012,0,0,1,2.012-2,6.347,6.347,0,0,1,5.746,0,5.019,5.019,0,0,1,2.008,2,6.072,6.072,0,0,1,.738,3.035,6.094,6.094,0,0,1-.738,3.039A5.012,5.012,0,0,1,100.148,15.461ZM95.8,14.145a4.179,4.179,0,0,0,2.953,0,3.392,3.392,0,0,0,1.992-2.035,4.7,4.7,0,0,0,.289-1.687,4.647,4.647,0,0,0-.289-1.676,3.477,3.477,0,0,0-.8-1.254,3.557,3.557,0,0,0-1.2-.773,4.123,4.123,0,0,0-2.953,0,3.557,3.557,0,0,0-1.2.773,3.477,3.477,0,0,0-.8,1.254,4.647,4.647,0,0,0-.289,1.676,4.7,4.7,0,0,0,.289,1.688A3.392,3.392,0,0,0,95.8,14.145Z" transform="translate(1175 -4083)" fill="#00223d"/>
    <path id="Trazado_9968" data-name="Trazado 9968" d="M26.18,16V4.859h1.867V16Zm12.6-11.141h1.867V16H38.555L33.086,7.5V16H31.234V4.859H33.3L38.781,13.3ZM43.836,16V4.859h3.813a6.072,6.072,0,0,1,2.281.4A4.242,4.242,0,0,1,51.574,6.4a4.983,4.983,0,0,1,.977,1.758,7.276,7.276,0,0,1,.332,2.262,6.886,6.886,0,0,1-.574,2.914,4.359,4.359,0,0,1-1.766,1.953A5.553,5.553,0,0,1,47.648,16ZM45.7,14.328H47.57a3.065,3.065,0,0,0,2.512-1.02,4.425,4.425,0,0,0,.84-2.887,4.411,4.411,0,0,0-.84-2.879,3.065,3.065,0,0,0-2.512-1.02H45.7Zm15.766,1.391a5.576,5.576,0,0,1-4.293,0,3.436,3.436,0,0,1-1.5-1.336,4.031,4.031,0,0,1-.566-2.18V4.859h1.875v7.086a2.55,2.55,0,0,0,.645,1.9,2.311,2.311,0,0,0,1.691.633,2.338,2.338,0,0,0,1.7-.633,2.531,2.531,0,0,0,.652-1.9V4.859h1.867V12.2a4.031,4.031,0,0,1-.566,2.18A3.432,3.432,0,0,1,61.469,15.719Zm9.875.43a6.1,6.1,0,0,1-2.23-.4,5.283,5.283,0,0,1-1.785-1.129,5.1,5.1,0,0,1-1.18-1.809,6.412,6.412,0,0,1-.43-2.387,6.072,6.072,0,0,1,.738-3.035,5.012,5.012,0,0,1,2.012-2A5.954,5.954,0,0,1,71.344,4.7a5.788,5.788,0,0,1,3.117.844,4.918,4.918,0,0,1,1.984,2.336L74.7,8.547A3.331,3.331,0,0,0,73.379,7a3.782,3.782,0,0,0-2.035-.555,3.959,3.959,0,0,0-1.477.273,3.557,3.557,0,0,0-1.2.773,3.477,3.477,0,0,0-.8,1.254,4.647,4.647,0,0,0-.289,1.676,4.711,4.711,0,0,0,.289,1.684,3.466,3.466,0,0,0,.8,1.262,3.508,3.508,0,0,0,1.2.77,4.009,4.009,0,0,0,1.477.27,3.8,3.8,0,0,0,2.039-.551,3.315,3.315,0,0,0,1.32-1.543l1.742.664a4.9,4.9,0,0,1-1.98,2.332A5.8,5.8,0,0,1,71.344,16.148ZM84.75,4.859V6.523H82V16H80.141V6.523H77.383V4.859ZM86.719,16V4.859h1.867V16ZM98.75,4.859h1.984L96.625,16H94.617L90.531,4.859h1.977l3.125,8.9Zm11.09,10.6a6.347,6.347,0,0,1-5.746,0,5.006,5.006,0,0,1-2.012-2,6.094,6.094,0,0,1-.738-3.039,6.072,6.072,0,0,1,.738-3.035,5.012,5.012,0,0,1,2.012-2,6.347,6.347,0,0,1,5.746,0,5.019,5.019,0,0,1,2.008,2,6.072,6.072,0,0,1,.738,3.035,6.094,6.094,0,0,1-.738,3.039A5.012,5.012,0,0,1,109.84,15.461Zm-4.348-1.316a4.179,4.179,0,0,0,2.953,0,3.392,3.392,0,0,0,1.992-2.035,4.7,4.7,0,0,0,.289-1.687,4.647,4.647,0,0,0-.289-1.676,3.477,3.477,0,0,0-.8-1.254,3.557,3.557,0,0,0-1.2-.773,4.123,4.123,0,0,0-2.953,0,3.557,3.557,0,0,0-1.2.773,3.477,3.477,0,0,0-.8,1.254,4.647,4.647,0,0,0-.289,1.676,4.7,4.7,0,0,0,.289,1.688,3.392,3.392,0,0,0,1.992,2.035Z" transform="translate(1566 -4083)" fill="#00223d"/>
    <path id="Trazado_9971" data-name="Trazado 9971" d="M30.051,16H28.2l-.734-8.8L24.27,16H23.1l-3.18-8.781L19.176,16H17.316l.891-11.141h2.6l2.867,7.875,2.891-7.875h2.6Zm10.055,0-.883-2.477H34.355L33.48,16h-1.93l4.1-11.141h2.273L42.027,16Zm-5.18-4.078H38.66L36.793,6.656ZM49.215,4.859V6.523h-2.75V16H44.605V6.523H41.848V4.859ZM57.4,6.523H53.074V9.609H56.9v1.648H53.074v3.07H57.4V16H51.184V4.859H57.4ZM72.238,16H70.387l-.734-8.8-3.2,8.8H65.285l-3.18-8.781L61.363,16H59.5l.891-11.141H63l2.867,7.875,2.891-7.875h2.6ZM81.293,1.7,79.535,3.758H78.371l2.008-2.711Zm1,14.3-.883-2.477H76.543L75.668,16h-1.93l4.1-11.141h2.273L84.215,16Zm-5.18-4.078h3.734L78.98,6.656ZM91.4,4.859V6.523h-2.75V16H86.793V6.523H84.035V4.859ZM93.371,16V4.859h1.867V16Zm9.906.148a6.1,6.1,0,0,1-2.23-.4,5.283,5.283,0,0,1-1.785-1.129,5.1,5.1,0,0,1-1.18-1.809,6.412,6.412,0,0,1-.43-2.387,6.072,6.072,0,0,1,.738-3.035,5.012,5.012,0,0,1,2.012-2,5.954,5.954,0,0,1,2.875-.687,5.788,5.788,0,0,1,3.117.844,4.918,4.918,0,0,1,1.984,2.336l-1.742.664A3.331,3.331,0,0,0,105.313,7a3.782,3.782,0,0,0-2.035-.555,3.959,3.959,0,0,0-1.477.273,3.557,3.557,0,0,0-1.2.773,3.477,3.477,0,0,0-.8,1.254,4.647,4.647,0,0,0-.289,1.676,4.711,4.711,0,0,0,.289,1.684,3.466,3.466,0,0,0,.8,1.262,3.508,3.508,0,0,0,1.2.77,4.009,4.009,0,0,0,1.477.27,3.8,3.8,0,0,0,2.039-.551,3.315,3.315,0,0,0,1.32-1.543l1.742.664a4.9,4.9,0,0,1-1.98,2.332A5.8,5.8,0,0,1,103.277,16.148Zm14.98-.687a6.347,6.347,0,0,1-5.746,0,5.006,5.006,0,0,1-2.012-2,6.094,6.094,0,0,1-.738-3.039,6.072,6.072,0,0,1,.738-3.035,5.012,5.012,0,0,1,2.012-2,6.347,6.347,0,0,1,5.746,0,5.019,5.019,0,0,1,2.008,2A6.072,6.072,0,0,1,121,10.422a6.094,6.094,0,0,1-.738,3.039A5.012,5.012,0,0,1,118.258,15.461Zm-4.348-1.316a4.179,4.179,0,0,0,2.953,0,3.392,3.392,0,0,0,1.992-2.035,4.7,4.7,0,0,0,.289-1.687,4.647,4.647,0,0,0-.289-1.676,3.477,3.477,0,0,0-.8-1.254,3.557,3.557,0,0,0-1.2-.773,4.123,4.123,0,0,0-2.953,0,3.557,3.557,0,0,0-1.2.773,3.477,3.477,0,0,0-.8,1.254,4.647,4.647,0,0,0-.289,1.676,4.7,4.7,0,0,0,.289,1.688,3.392,3.392,0,0,0,1.992,2.035Z" transform="translate(1566 -4015)" fill="#00223d"/>
    <path id="Trazado_9972" data-name="Trazado 9972" d="M25.41,6.523H21.082V9.609H24.91v1.648H21.082v3.07H25.41V16H19.191V4.859H25.41Zm6.125,9.625a5.261,5.261,0,0,1-3.008-.816,3.363,3.363,0,0,1-1.477-2.277l1.922-.445a2.14,2.14,0,0,0,.863,1.465,2.93,2.93,0,0,0,1.77.52,2.55,2.55,0,0,0,1.477-.4,1.373,1.373,0,0,0,.578-1.23,1.277,1.277,0,0,0-.172-.625,1.788,1.788,0,0,0-.367-.457,2.417,2.417,0,0,0-.633-.355q-.43-.18-.7-.266t-.844-.25a.983.983,0,0,0-.109-.031q-.445-.133-.727-.223t-.684-.25a4.417,4.417,0,0,1-.652-.312,4.5,4.5,0,0,1-.535-.391,2.033,2.033,0,0,1-.445-.5,2.78,2.78,0,0,1-.379-1.422,2.784,2.784,0,0,1,1.082-2.336A4.347,4.347,0,0,1,31.23,4.7a6.011,6.011,0,0,1,1.43.164,4.912,4.912,0,0,1,1.254.492,3.1,3.1,0,0,1,.988.883,3.321,3.321,0,0,1,.563,1.281l-1.8.453a1.97,1.97,0,0,0-.8-1.285,2.651,2.651,0,0,0-1.535-.426,2.529,2.529,0,0,0-1.441.391A1.333,1.333,0,0,0,29.3,7.844a1.017,1.017,0,0,0,.078.4,1.558,1.558,0,0,0,.18.32,1.162,1.162,0,0,0,.32.273q.219.137.379.219a3.745,3.745,0,0,0,.488.191q.328.109.512.16l.574.16q.367.1.59.168T33,9.926q.359.121.582.223t.523.266a2.874,2.874,0,0,1,.492.328,4.336,4.336,0,0,1,.4.395,1.86,1.86,0,0,1,.32.484,3.371,3.371,0,0,1,.191.574,2.9,2.9,0,0,1,.078.688,3.164,3.164,0,0,1-.332,1.477,2.709,2.709,0,0,1-.9,1.023,4.266,4.266,0,0,1-1.285.574A5.917,5.917,0,0,1,31.535,16.148ZM42.418,4.859a3.458,3.458,0,0,1,1.813.473,3.151,3.151,0,0,1,1.2,1.27,3.771,3.771,0,0,1,.414,1.766,3.461,3.461,0,0,1-.941,2.492,3.284,3.284,0,0,1-2.488.984H39.855V16H37.988V4.859Zm-.3,5.391a1.863,1.863,0,0,0,1.414-.516,1.93,1.93,0,0,0,.492-1.391,1.931,1.931,0,0,0-.5-1.379,1.842,1.842,0,0,0-1.41-.527H39.855V10.25ZM54.277,6.523H49.949V9.609h3.828v1.648H49.949v3.07h4.328V16H48.059V4.859h6.219Zm6.969,9.625a6.1,6.1,0,0,1-2.23-.4,5.283,5.283,0,0,1-1.785-1.129,5.1,5.1,0,0,1-1.18-1.809,6.412,6.412,0,0,1-.43-2.387,6.072,6.072,0,0,1,.738-3.035,5.012,5.012,0,0,1,2.012-2A5.954,5.954,0,0,1,61.246,4.7a5.788,5.788,0,0,1,3.117.844,4.918,4.918,0,0,1,1.984,2.336l-1.742.664A3.331,3.331,0,0,0,63.281,7a3.782,3.782,0,0,0-2.035-.555,3.959,3.959,0,0,0-1.477.273,3.557,3.557,0,0,0-1.2.773,3.477,3.477,0,0,0-.8,1.254,4.647,4.647,0,0,0-.289,1.676,4.711,4.711,0,0,0,.289,1.684,3.466,3.466,0,0,0,.8,1.262,3.508,3.508,0,0,0,1.2.77,4.009,4.009,0,0,0,1.477.27,3.8,3.8,0,0,0,2.039-.551,3.315,3.315,0,0,0,1.32-1.543l1.742.664a4.9,4.9,0,0,1-1.98,2.332A5.8,5.8,0,0,1,61.246,16.148ZM68.824,3.758l2.008-2.711.914.656L69.988,3.758ZM68.5,16V4.859h1.867V16ZM79.863,6.523H75.449V9.6h3.828v1.656H75.449V16H73.559V4.859h6.3ZM82.035,16V4.859H83.9V16Zm9.906.148a6.1,6.1,0,0,1-2.23-.4,5.283,5.283,0,0,1-1.785-1.129,5.1,5.1,0,0,1-1.18-1.809,6.412,6.412,0,0,1-.43-2.387,6.072,6.072,0,0,1,.738-3.035,5.012,5.012,0,0,1,2.012-2A5.954,5.954,0,0,1,91.941,4.7a5.788,5.788,0,0,1,3.117.844,4.918,4.918,0,0,1,1.984,2.336L95.3,8.547A3.331,3.331,0,0,0,93.977,7a3.782,3.782,0,0,0-2.035-.555,3.959,3.959,0,0,0-1.477.273,3.557,3.557,0,0,0-1.2.773,3.477,3.477,0,0,0-.8,1.254,4.647,4.647,0,0,0-.289,1.676,4.711,4.711,0,0,0,.289,1.684,3.466,3.466,0,0,0,.8,1.262,3.508,3.508,0,0,0,1.2.77,4.009,4.009,0,0,0,1.477.27,3.8,3.8,0,0,0,2.039-.551,3.315,3.315,0,0,0,1.32-1.543l1.742.664a4.9,4.9,0,0,1-1.98,2.332A5.8,5.8,0,0,1,91.941,16.148Zm14.98-.687a6.347,6.347,0,0,1-5.746,0,5.006,5.006,0,0,1-2.012-2,6.094,6.094,0,0,1-.738-3.039,6.072,6.072,0,0,1,.738-3.035,5.012,5.012,0,0,1,2.012-2,6.347,6.347,0,0,1,5.746,0,5.019,5.019,0,0,1,2.008,2,6.072,6.072,0,0,1,.738,3.035,6.094,6.094,0,0,1-.738,3.039A5.012,5.012,0,0,1,106.922,15.461Zm-4.348-1.316a4.179,4.179,0,0,0,2.953,0,3.392,3.392,0,0,0,1.992-2.035,4.7,4.7,0,0,0,.289-1.687,4.647,4.647,0,0,0-.289-1.676,3.477,3.477,0,0,0-.8-1.254,3.557,3.557,0,0,0-1.2-.773,4.123,4.123,0,0,0-2.953,0,3.557,3.557,0,0,0-1.2.773,3.477,3.477,0,0,0-.8,1.254,4.647,4.647,0,0,0-.289,1.676,4.7,4.7,0,0,0,.289,1.688,3.392,3.392,0,0,0,1.992,2.035Zm12.969,2a5.261,5.261,0,0,1-3.008-.816,3.363,3.363,0,0,1-1.477-2.277l1.922-.445a2.14,2.14,0,0,0,.863,1.465,2.93,2.93,0,0,0,1.77.52,2.55,2.55,0,0,0,1.477-.4,1.373,1.373,0,0,0,.578-1.23,1.277,1.277,0,0,0-.172-.625,1.789,1.789,0,0,0-.367-.457,2.417,2.417,0,0,0-.633-.355q-.43-.18-.7-.266t-.844-.25a.983.983,0,0,0-.109-.031q-.445-.133-.727-.223t-.684-.25a4.417,4.417,0,0,1-.652-.312,4.5,4.5,0,0,1-.535-.391,2.033,2.033,0,0,1-.445-.5,2.78,2.78,0,0,1-.379-1.422A2.784,2.784,0,0,1,112.5,5.539a4.347,4.347,0,0,1,2.738-.836,6.011,6.011,0,0,1,1.43.164,4.913,4.913,0,0,1,1.254.492,3.1,3.1,0,0,1,.988.883,3.321,3.321,0,0,1,.563,1.281l-1.8.453a1.97,1.97,0,0,0-.8-1.285,2.651,2.651,0,0,0-1.535-.426,2.529,2.529,0,0,0-1.441.391,1.333,1.333,0,0,0-.582,1.188,1.017,1.017,0,0,0,.078.4,1.558,1.558,0,0,0,.18.32,1.162,1.162,0,0,0,.32.273q.219.137.379.219a3.745,3.745,0,0,0,.488.191q.328.109.512.16l.574.16q.367.1.59.168t.582.188q.359.121.582.223t.523.266a2.874,2.874,0,0,1,.492.328,4.337,4.337,0,0,1,.4.395,1.86,1.86,0,0,1,.32.484,3.371,3.371,0,0,1,.191.574,2.9,2.9,0,0,1,.078.688,3.164,3.164,0,0,1-.332,1.477,2.709,2.709,0,0,1-.9,1.023,4.267,4.267,0,0,1-1.285.574A5.917,5.917,0,0,1,115.543,16.148Z" transform="translate(1567 -3949)" fill="#00223d"/>
    <path id="Trazado_9973" data-name="Trazado 9973" d="M22.977,4.859V6.523h-2.75V16H18.367V6.523H15.609V4.859ZM30.906,16l-2.891-4.969h-1.2V16H24.945V4.859h3.867a4.478,4.478,0,0,1,1.559.25,2.747,2.747,0,0,1,1.09.7,2.993,2.993,0,0,1,.621,1.023,3.7,3.7,0,0,1,.207,1.262A2.847,2.847,0,0,1,31.648,10a2.9,2.9,0,0,1-1.758.957L33.1,16ZM26.813,6.438V9.648h1.727a2.171,2.171,0,0,0,1.473-.426,1.48,1.48,0,0,0,.48-1.168,1.511,1.511,0,0,0-.484-1.18,2.134,2.134,0,0,0-1.469-.437ZM42.547,16l-.883-2.477H36.8L35.922,16h-1.93l4.1-11.141h2.273L44.469,16Zm-5.18-4.078H41.1L39.234,6.656ZM46.422,16V4.859h3.813a6.072,6.072,0,0,1,2.281.4A4.242,4.242,0,0,1,54.16,6.4a4.983,4.983,0,0,1,.977,1.758,7.276,7.276,0,0,1,.332,2.262,6.886,6.886,0,0,1-.574,2.914,4.359,4.359,0,0,1-1.766,1.953A5.553,5.553,0,0,1,50.234,16Zm1.867-1.672h1.867a3.065,3.065,0,0,0,2.512-1.02,4.425,4.425,0,0,0,.84-2.887,4.411,4.411,0,0,0-.84-2.879,3.065,3.065,0,0,0-2.512-1.02H48.289ZM57.93,16V4.859H59.8V16Zm9.906.148a6.1,6.1,0,0,1-2.23-.4,5.283,5.283,0,0,1-1.785-1.129,5.1,5.1,0,0,1-1.18-1.809,6.412,6.412,0,0,1-.43-2.387,6.072,6.072,0,0,1,.738-3.035,5.012,5.012,0,0,1,2.012-2A5.954,5.954,0,0,1,67.836,4.7a5.788,5.788,0,0,1,3.117.844,4.918,4.918,0,0,1,1.984,2.336L71.2,8.547A3.331,3.331,0,0,0,69.871,7a3.782,3.782,0,0,0-2.035-.555,3.959,3.959,0,0,0-1.477.273,3.557,3.557,0,0,0-1.2.773,3.477,3.477,0,0,0-.8,1.254,4.647,4.647,0,0,0-.289,1.676,4.711,4.711,0,0,0,.289,1.684,3.466,3.466,0,0,0,.8,1.262,3.508,3.508,0,0,0,1.2.77,4.009,4.009,0,0,0,1.477.27,3.8,3.8,0,0,0,2.039-.551,3.315,3.315,0,0,0,1.32-1.543l1.742.664a4.9,4.9,0,0,1-1.98,2.332A5.8,5.8,0,0,1,67.836,16.148ZM75.094,16V4.859h1.867V16Zm12.777-.539a6.347,6.347,0,0,1-5.746,0,5.006,5.006,0,0,1-2.012-2,6.094,6.094,0,0,1-.738-3.039,6.072,6.072,0,0,1,.738-3.035,5.012,5.012,0,0,1,2.012-2,6.347,6.347,0,0,1,5.746,0,5.019,5.019,0,0,1,2.008,2,6.072,6.072,0,0,1,.738,3.035,6.094,6.094,0,0,1-.738,3.039A5.012,5.012,0,0,1,87.871,15.461Zm-4.348-1.316a4.179,4.179,0,0,0,2.953,0,3.392,3.392,0,0,0,1.992-2.035,4.7,4.7,0,0,0,.289-1.687,4.647,4.647,0,0,0-.289-1.676,3.477,3.477,0,0,0-.8-1.254,3.557,3.557,0,0,0-1.2-.773,4.123,4.123,0,0,0-2.953,0,3.557,3.557,0,0,0-1.2.773,3.477,3.477,0,0,0-.8,1.254,4.647,4.647,0,0,0-.289,1.676,4.7,4.7,0,0,0,.289,1.688,3.392,3.392,0,0,0,1.992,2.035Zm17.063-9.285h1.867V16h-2.094L94.891,7.5V16H93.039V4.859h2.07l5.477,8.445ZM112.953,16l-.883-2.477H107.2L106.328,16H104.4l4.1-11.141h2.273L114.875,16Zm-5.18-4.078h3.734l-1.867-5.266ZM118.7,14.328h3.68V16h-5.547V4.859H118.7Z" transform="translate(1165 -3949)" fill="#00223d"/>
    <path id="Trazado_9970" data-name="Trazado 9970" d="M21.2,4.859a3.458,3.458,0,0,1,1.813.473,3.151,3.151,0,0,1,1.2,1.27,3.771,3.771,0,0,1,.414,1.766,3.461,3.461,0,0,1-.941,2.492,3.284,3.284,0,0,1-2.488.984H18.637V16H16.77V4.859Zm-.3,5.391a1.863,1.863,0,0,0,1.414-.516,1.93,1.93,0,0,0,.492-1.391,1.931,1.931,0,0,0-.5-1.379,1.842,1.842,0,0,0-1.41-.527H18.637V10.25Zm12.063,5.469a5.576,5.576,0,0,1-4.293,0,3.436,3.436,0,0,1-1.5-1.336,4.031,4.031,0,0,1-.566-2.18V4.859H28.48v7.086a2.55,2.55,0,0,0,.645,1.9,2.311,2.311,0,0,0,1.691.633,2.338,2.338,0,0,0,1.7-.633,2.531,2.531,0,0,0,.652-1.9V4.859h1.867V12.2a4.031,4.031,0,0,1-.566,2.18A3.432,3.432,0,0,1,32.965,15.719Zm10.656-5.57a3.007,3.007,0,0,1,1.586.961,2.759,2.759,0,0,1,.57,1.82,2.946,2.946,0,0,1-.875,2.234A3.408,3.408,0,0,1,42.449,16H37.988V4.859H41.48a3.76,3.76,0,0,1,2.566.813,2.763,2.763,0,0,1,.926,2.188,2.671,2.671,0,0,1-.348,1.375A2.3,2.3,0,0,1,43.621,10.148ZM41.488,6.438h-1.7V9.57h1.883a1.48,1.48,0,0,0,1.145-.453,1.617,1.617,0,0,0,.418-1.141,1.448,1.448,0,0,0-.461-1.109A1.818,1.818,0,0,0,41.488,6.438Zm.625,7.938a1.871,1.871,0,0,0,1.375-.473,1.589,1.589,0,0,0,.477-1.176,1.607,1.607,0,0,0-.488-1.207,1.983,1.983,0,0,0-1.434-.473h-2.25v3.328Zm7.875-.047h3.68V16H48.121V4.859h1.867ZM55.652,16V4.859H57.52V16Zm9.906.148a6.1,6.1,0,0,1-2.23-.4,5.283,5.283,0,0,1-1.785-1.129,5.1,5.1,0,0,1-1.18-1.809,6.412,6.412,0,0,1-.43-2.387,6.072,6.072,0,0,1,.738-3.035,5.012,5.012,0,0,1,2.012-2A5.954,5.954,0,0,1,65.559,4.7a5.788,5.788,0,0,1,3.117.844A4.918,4.918,0,0,1,70.66,7.883l-1.742.664A3.331,3.331,0,0,0,67.594,7a3.782,3.782,0,0,0-2.035-.555,3.959,3.959,0,0,0-1.477.273,3.557,3.557,0,0,0-1.2.773,3.477,3.477,0,0,0-.8,1.254,4.647,4.647,0,0,0-.289,1.676,4.711,4.711,0,0,0,.289,1.684,3.466,3.466,0,0,0,.8,1.262,3.508,3.508,0,0,0,1.2.77,4.009,4.009,0,0,0,1.477.27,3.8,3.8,0,0,0,2.039-.551,3.315,3.315,0,0,0,1.32-1.543l1.742.664a4.9,4.9,0,0,1-1.98,2.332A5.8,5.8,0,0,1,65.559,16.148ZM72.816,16V4.859h1.867V16ZM84.02,4.859V6.523H81.27V16H79.41V6.523H76.652V4.859ZM92.387,16,91.5,13.523H86.637L85.762,16h-1.93l4.1-11.141h2.273L94.309,16Zm-5.18-4.078h3.734L89.074,6.656ZM102.223,16l-2.891-4.969h-1.2V16H96.262V4.859h3.867a4.478,4.478,0,0,1,1.559.25,2.747,2.747,0,0,1,1.09.7,2.993,2.993,0,0,1,.621,1.023,3.7,3.7,0,0,1,.207,1.262,2.847,2.847,0,0,1-.641,1.91,2.9,2.9,0,0,1-1.758.957L104.418,16ZM98.129,6.438V9.648h1.727a2.171,2.171,0,0,0,1.473-.426,1.48,1.48,0,0,0,.48-1.168,1.511,1.511,0,0,0-.484-1.18,2.134,2.134,0,0,0-1.469-.437ZM106.473,16V4.859h1.867V16Zm12.777-.539a6.347,6.347,0,0,1-5.746,0,5.006,5.006,0,0,1-2.012-2,6.094,6.094,0,0,1-.738-3.039,6.072,6.072,0,0,1,.738-3.035,5.012,5.012,0,0,1,2.012-2,6.347,6.347,0,0,1,5.746,0,5.019,5.019,0,0,1,2.008,2A6.072,6.072,0,0,1,122,10.422a6.094,6.094,0,0,1-.738,3.039A5.012,5.012,0,0,1,119.25,15.461ZM114.9,14.145a4.179,4.179,0,0,0,2.953,0,3.392,3.392,0,0,0,1.992-2.035,4.7,4.7,0,0,0,.289-1.687,4.647,4.647,0,0,0-.289-1.676,3.477,3.477,0,0,0-.8-1.254,3.557,3.557,0,0,0-1.2-.773,4.123,4.123,0,0,0-2.953,0,3.557,3.557,0,0,0-1.2.773,3.477,3.477,0,0,0-.8,1.254,4.647,4.647,0,0,0-.289,1.676,4.7,4.7,0,0,0,.289,1.688,3.392,3.392,0,0,0,1.992,2.035Z" transform="translate(1164 -4016)" fill="#00223d"/>
    <line id="Línea_82" data-name="Línea 82" x1="53.5" transform="translate(1503.5 -4073.5)" fill="none" stroke="#abb7be" stroke-width="1"/>
    <line id="Línea_81" data-name="Línea 81" x1="53.5" transform="translate(1503.5 -3939.5)" fill="none" stroke="#abb7be" stroke-width="1"/>
    <line id="Línea_83" data-name="Línea 83" x1="24" transform="translate(1533.5 -4006.5)" fill="none" stroke="#abb7be" stroke-width="1"/>
    <line id="Línea_82-2" data-name="Línea 82" x2="53.5" transform="translate(1312 -4073.5)" fill="none" stroke="#abb7be" stroke-width="1"/>
    <line id="Línea_81-2" data-name="Línea 81" x2="53.5" transform="translate(1312 -3939.5)" fill="none" stroke="#abb7be" stroke-width="1"/>
    <line id="Línea_83-2" data-name="Línea 83" x2="24" transform="translate(1311.5 -4006.5)" fill="none" stroke="#abb7be" stroke-width="1"/>
  </g>
</svg>
