<svg xmlns="http://www.w3.org/2000/svg" width="402.283" height="397.082" viewBox="0 0 402.283 397.082">
  <g id="Grupo_11185" data-name="Grupo 11185" transform="translate(-188.64 -507.9)">
    <path id="Trazado_9763" data-name="Trazado 9763" d="M198.914,830.35s-21.436-31.2-2.382-63.7,42.872-44.2,39.3-89.7-11.908-92.3,36.917-115.7,72.644,0,108.37-24.7,79.787-41.6,126.231-15.6,26.2,111.8,50.013,132.6,41.68,44.2,29.772,79.3-20.246,40.3-13.1,68.9-17.863,62.4-64.307,76.7S264.412,918.752,198.914,830.35Z" transform="translate(0 0)" fill="#e6eef3"/>
    <g id="Grupo_11140" data-name="Grupo 11140" transform="translate(247.523 764.921)">
      <rect id="Rectángulo_2745" data-name="Rectángulo 2745" width="80.508" height="116.419" fill="#7875d0"/>
    </g>
    <g id="Grupo_11141" data-name="Grupo 11141" transform="translate(349.356 590.192)">
      <rect id="Rectángulo_2746" data-name="Rectángulo 2746" width="80.508" height="291.148" fill="#fba60b"/>
    </g>
    <g id="Grupo_11142" data-name="Grupo 11142" transform="translate(451.189 703.719)">
      <rect id="Rectángulo_2747" data-name="Rectángulo 2747" width="80.508" height="177.62" fill="#29266b"/>
    </g>
    <path id="Trazado_9844" data-name="Trazado 9844" d="M303.151,694.629a7.872,7.872,0,0,0-7.323-4.785H266.294a7.911,7.911,0,0,0-7.009,4.119c-5.954,8.13-13.818,29.041-10.706,34.645,2.034,3.661,8.915,7.644,14.938,10.583-.371,3.344-.713,6.02-.713,6.02h36.522s-.3-2.768-.614-6.146c5.962-2.925,12.678-6.848,14.684-10.457C316.429,723.148,309.041,703.176,303.151,694.629Zm-44.073,27.065a54.725,54.725,0,0,1,3.379-7.2,80.918,80.918,0,0,1,2,13.091v.038C261.311,725.7,258.548,723.457,259.077,721.694Zm38.958,5.611a104.59,104.59,0,0,1,1.816-12.183,49.6,49.6,0,0,1,3.047,6.572C303.4,723.36,300.958,725.461,298.035,727.3Z" transform="translate(6.452 19.818)" fill="#ff645f"/>
    <g id="Grupo_11144" data-name="Grupo 11144" transform="translate(262.78 738.672)">
      <g id="Grupo_11143" data-name="Grupo 11143">
        <rect id="Rectángulo_2748" data-name="Rectángulo 2748" width="49.477" height="29.496" fill="#666"/>
      </g>
    </g>
    <g id="Grupo_11147" data-name="Grupo 11147" transform="translate(282.969 748.365)">
      <g id="Grupo_11146" data-name="Grupo 11146">
        <g id="Grupo_11145" data-name="Grupo 11145">
          <path id="Trazado_9845" data-name="Trazado 9845" d="M282.8,729.294a4.549,4.549,0,1,1-4.549-4.549A4.55,4.55,0,0,1,282.8,729.294Z" transform="translate(-273.703 -724.745)" fill="#ccc"/>
        </g>
      </g>
    </g>
    <g id="Grupo_11150" data-name="Grupo 11150" transform="translate(273.572 783.905)">
      <g id="Grupo_11149" data-name="Grupo 11149">
        <g id="Grupo_11148" data-name="Grupo 11148">
          <path id="Trazado_9846" data-name="Trazado 9846" d="M275.864,756.794a12.48,12.48,0,0,1-3.45,1.916c-2.65,1.114-7.891,3.187-7.1,5.473,1.056,3.073,4.752,2.848,7.2,2.113a47.194,47.194,0,0,0,10.836-5.342Z" transform="translate(-265.229 -756.794)" fill="#29266b"/>
        </g>
      </g>
    </g>
    <g id="Grupo_11153" data-name="Grupo 11153" transform="translate(284.376 757.055)">
      <g id="Grupo_11152" data-name="Grupo 11152">
        <g id="Grupo_11151" data-name="Grupo 11151">
          <path id="Trazado_9847" data-name="Trazado 9847" d="M281.153,751.413c8.981-6.557,13.676-11.4,23.759-17.528,2.4-1.458,4.042-1.893,8.2-.261,3.544,1.39,3.164,7.486,1.229,10.028-5.8,7.625-28.155,18.154-32.674,19.749-1.948.688-8.837-5.113-6.039-7.889A51.69,51.69,0,0,1,281.153,751.413Z" transform="translate(-274.972 -732.581)" fill="#254da1"/>
        </g>
      </g>
    </g>
    <g id="Grupo_11156" data-name="Grupo 11156" transform="translate(286.414 781.562)">
      <g id="Grupo_11155" data-name="Grupo 11155">
        <g id="Grupo_11154" data-name="Grupo 11154">
          <path id="Trazado_9848" data-name="Trazado 9848" d="M276.81,761.634a29.969,29.969,0,0,0,4.737,4.865c3.044,2.353,5.144,3.133,7.617,1.985,3.584-1.664.288-5.185-2.5-7.97a39.064,39.064,0,0,0-7.074-5.833Z" transform="translate(-276.81 -754.681)" fill="#29266b"/>
        </g>
      </g>
    </g>
    <path id="Trazado_9849" data-name="Trazado 9849" d="M287.868,684.063c-.711-.271-5.9-2.272-8.043-3.9-4.416-3.36-5.023-6.625-6.048-3.552S269.552,684,269.552,684l-.02-.033c.554,3.511,2.618,7.563,5.4,9.645v3.582s.264,2.766,3.883,2.939a3.384,3.384,0,0,0,3.674-2.939v-3.581C285.239,691.549,287.291,687.551,287.868,684.063Z" transform="translate(8.811 18.243)" fill="#fcc198"/>
    <path id="Trazado_9850" data-name="Trazado 9850" d="M287.306,675.763c-4.9-7.1-14.913-6.64-17.956,1.663a8.458,8.458,0,0,0,.268,7.041l.02.033s3.2-4.322,4.225-7.393,1.632.192,6.048,3.552c2.146,1.632,7.332,3.634,8.043,3.9l.086.032S289.371,678.759,287.306,675.763Z" transform="translate(8.724 17.743)" fill="#29266b"/>
    <g id="Grupo_11159" data-name="Grupo 11159" transform="translate(281.534 779.903)">
      <g id="Grupo_11158" data-name="Grupo 11158">
        <g id="Grupo_11157" data-name="Grupo 11157">
          <path id="Trazado_9851" data-name="Trazado 9851" d="M277.745,753.185l3.836,3.168a9.164,9.164,0,0,1,2,2.334c1.251,2.334-3.066,7.068-5.868,4.285s-5.3-5.786-5.3-5.786Z" transform="translate(-272.409 -753.185)" fill="#fcc198"/>
        </g>
      </g>
    </g>
    <g id="Grupo_11162" data-name="Grupo 11162" transform="translate(249.917 756.751)">
      <g id="Grupo_11161" data-name="Grupo 11161">
        <g id="Grupo_11160" data-name="Grupo 11160">
          <path id="Trazado_9852" data-name="Trazado 9852" d="M269.429,760.461c-10.443-5.255-16.841-7.145-23.55-16.6-1.708-2.407-2.394-6.392-1.731-8.357.818-2.423,4.354-3.873,8.514-2.881,3.5.834,26.947,19.207,30.606,22.669,1.578,1.493-3.23,8.956-7.17,7.67A39.151,39.151,0,0,1,269.429,760.461Z" transform="translate(-243.898 -732.307)" fill="#254da1"/>
        </g>
      </g>
    </g>
    <path id="Trazado_9853" data-name="Trazado 9853" d="M459.882,633.161c2.5-.013,4.414-1.052,5.343-4.2a18.6,18.6,0,0,0-1.347-12.533l-9.953.923s0,3.623-.5,3.623-2.374-.75-3.748,1,.125,3.5,1.75,3.872c1.366.315.778,3.365-1.75,3.878a10.426,10.426,0,0,0,1.754,1.277,2.857,2.857,0,0,0-.044.5v4.926c0,.055.011.106.014.16h-4.313a8.466,8.466,0,1,0,16.494,0h-3.716c0-.053.014-.1.014-.16Z" transform="translate(28.128 11.822)" fill="#fcc198"/>
    <path id="Trazado_9854" data-name="Trazado 9854" d="M485.185,659.112l-11.894-20.449a5.854,5.854,0,0,0-5.567-4.051H465.8a8.466,8.466,0,1,1-16.494,0h-2.074a5.856,5.856,0,0,0-5.3,3.371l-15.119,21.8c-.744,1.594-.171,4.134,1.5,4.684l15.731,7.853.57,6.762h25.734l1.829-21.7,3.509,5.763Zm-46.193-.827,3.569-3.567.571,6.779Z" transform="translate(25.908 13.802)" fill="#61b3db"/>
    <g id="Grupo_11165" data-name="Grupo 11165" transform="translate(477.119 685.35)">
      <g id="Grupo_11164" data-name="Grupo 11164">
        <g id="Grupo_11163" data-name="Grupo 11163">
          <path id="Trazado_9855" data-name="Trazado 9855" d="M448.783,672.417h10.243l.75-4.5h-7.733a2.965,2.965,0,0,0-2.924,2.476Z" transform="translate(-448.783 -667.92)" fill="#fcc198"/>
        </g>
      </g>
    </g>
    <g id="Grupo_11168" data-name="Grupo 11168" transform="translate(476.747 669.921)">
      <path id="Trazado_9856" data-name="Trazado 9856" d="M493.012,654.006H460.758l-4.394,19.829h-7.918v3.4h40.168v-3.39Z" transform="translate(-448.447 -654.006)" fill="#29266b"/>
      <g id="Grupo_11167" data-name="Grupo 11167" transform="translate(24.733 8.399)">
        <g id="Grupo_11166" data-name="Grupo 11166">
          <path id="Trazado_9857" data-name="Trazado 9857" d="M470.751,663.7a2.124,2.124,0,1,0,2.125-2.124A2.124,2.124,0,0,0,470.751,663.7Z" transform="translate(-470.751 -661.58)" fill="#0071bc"/>
        </g>
      </g>
    </g>
    <g id="Grupo_11170" data-name="Grupo 11170" transform="translate(491.008 746.652)">
      <g id="Grupo_11169" data-name="Grupo 11169">
        <path id="Trazado_9858" data-name="Trazado 9858" d="M467.428,723.2h-6.121v4.7h12.414c.819,0,1.1-1.841.384-2.238Z" transform="translate(-461.307 -723.2)" fill="#ff645f"/>
      </g>
    </g>
    <g id="Grupo_11172" data-name="Grupo 11172" transform="translate(510.46 746.652)">
      <g id="Grupo_11171" data-name="Grupo 11171">
        <path id="Trazado_9859" data-name="Trazado 9859" d="M484.97,723.2h-6.121v4.7h12.416c.818,0,1.1-1.841.383-2.238Z" transform="translate(-478.849 -723.2)" fill="#ff645f"/>
      </g>
    </g>
    <path id="Trazado_9860" data-name="Trazado 9860" d="M479.84,726.075h6.247l-2.63-29.27H471.22C474.481,709.568,479.84,726.075,479.84,726.075Z" transform="translate(30.78 20.577)" fill="#fcc198"/>
    <path id="Trazado_9861" data-name="Trazado 9861" d="M462.042,726.075h6.245l-2.629-29.27H453.422C456.683,709.568,462.042,726.075,462.042,726.075Z" transform="translate(28.842 20.577)" fill="#fcc198"/>
    <g id="Grupo_11174" data-name="Grupo 11174" transform="translate(380.93 827.377)">
      <g id="Grupo_11173" data-name="Grupo 11173">
        <path id="Trazado_9862" data-name="Trazado 9862" d="M402.1,796H362.042l1.069,72.635h7.649s5.791-36.54,7.973-56.737h5.3l1.595,56.737h7.651s9.028-56.968,8.786-67.951A36.153,36.153,0,0,0,402.1,796Z" transform="translate(-362.042 -795.996)" fill="#29266b"/>
      </g>
    </g>
    <g id="Grupo_11176" data-name="Grupo 11176" transform="translate(404.485 899.919)">
      <g id="Grupo_11175" data-name="Grupo 11175">
        <path id="Trazado_9863" data-name="Trazado 9863" d="M391,861.412h-7.716v5.063h13.389c.885,0,1.188-1.985.415-2.413Z" transform="translate(-383.283 -861.412)" fill="#112256"/>
      </g>
    </g>
    <g id="Grupo_11178" data-name="Grupo 11178" transform="translate(375.365 899.919)">
      <g id="Grupo_11177" data-name="Grupo 11177">
        <path id="Trazado_9864" data-name="Trazado 9864" d="M363.555,861.412h7.716v5.063H357.881c-.885,0-1.189-1.985-.415-2.413Z" transform="translate(-357.023 -861.412)" fill="#112256"/>
      </g>
    </g>
    <g id="Grupo_11180" data-name="Grupo 11180" transform="translate(371.391 746.167)">
      <g id="Grupo_11179" data-name="Grupo 11179">
        <path id="Trazado_9865" data-name="Trazado 9865" d="M353.44,730.631l10.491-7.868,1.651,1.846-6.9,10.1Z" transform="translate(-353.44 -722.763)" fill="#fcc198"/>
      </g>
    </g>
    <path id="Trazado_9866" data-name="Trazado 9866" d="M422.9,782.02c.258-2.335-6.12-15.153-10.492-22.438-3.353-5.59-4.658-7.059-8.082-7.809a12.555,12.555,0,0,0-3.811-.579H368.625c-.152,0-.3.011-.449.016-6.712-.892-16.96-2.41-16.96-2.41l9.034-14.862-5.245-4.08s-14.032,15.915-15.736,20.981c-.786,2.336.864,5.933,3.2,6.7l17.7,6.23,4.366,39.429h26.41l.184,1.258s.845-.466,2.241-1.258H404.6l.787-7.11C413.688,790.937,422.593,784.8,422.9,782.02Zm-15.915-.388.75-6.771,2.635,4.245Z" transform="translate(16.386 24.177)" fill="#2b79e6"/>
    <g id="Grupo_11182" data-name="Grupo 11182" transform="translate(388.875 800.368)">
      <g id="Grupo_11181" data-name="Grupo 11181">
        <rect id="Rectángulo_2749" data-name="Rectángulo 2749" width="20.981" height="31.472" fill="#fff"/>
      </g>
    </g>
    <g id="Grupo_11184" data-name="Grupo 11184" transform="translate(403.299 814.939)">
      <g id="Grupo_11183" data-name="Grupo 11183">
        <path id="Trazado_9867" data-name="Trazado 9867" d="M388.771,785.945l.291,9.762-6.848-3.06.729-7.868Z" transform="translate(-382.214 -784.779)" fill="#fcc198"/>
      </g>
    </g>
    <path id="Trazado_9868" data-name="Trazado 9868" d="M462.538,612.744a10.257,10.257,0,0,0-11.822,4.778c-3.681-3.676-13.3-9.316-22.836-.945-9.618,8.446-3.985,14.881-4.252,17.273s-4.783,5.315-5.049,9.833,10.179,6.261,11.426-3.72c.532-4.252,7.341-3.38,13.244-8.4a30.988,30.988,0,0,0,6.207-7.815,10.306,10.306,0,0,0,3.3,6.436c2.528-.513,3.116-3.563,1.75-3.878-1.625-.375-3.124-2.124-1.75-3.872s3.249-1,3.748-1,.5-3.623.5-3.623l9.953-.923A7.715,7.715,0,0,0,462.538,612.744Z" transform="translate(25.046 11.364)" fill="#29266b"/>
    <path id="Trazado_9869" data-name="Trazado 9869" d="M488.583,699.2s-1.989-12.078-3.191-17.049a8.11,8.11,0,0,0-8.073-7.346H442.833v8.276a8.111,8.111,0,0,0,8.112,8.111h.889l1.627,8.008Z" transform="translate(27.688 18.181)" fill="#6486ce"/>
    <path id="Trazado_9870" data-name="Trazado 9870" d="M387.648,743.621c-2.726-.554-3.361-3.842-1.886-4.183,1.751-.4,3.369-2.29,1.886-4.176s-3.5-1.078-4.042-1.078-.539-3.908-.539-3.908l-11.231.069a20.174,20.174,0,0,0-.955,12.454c.733,2.484,2.042,3.745,3.745,4.252v3.8c-.376.489,1.163,5.478,5.243,5.186,6.983-.5,6.25-4.694,6.25-5.186v-6.088A11.224,11.224,0,0,0,387.648,743.621Z" transform="translate(19.787 24.223)" fill="#fcc198"/>
    <path id="Trazado_9871" data-name="Trazado 9871" d="M390.7,732.866a11.063,11.063,0,0,0-13.746-7.475c-2.383.7-4.133,2.852-5.265,5.536l11.231-.069s0,3.908.539,3.908,2.561-.808,4.042,1.078-.135,3.773-1.886,4.176c-1.475.34-.839,3.628,1.886,4.183A11.053,11.053,0,0,0,390.7,732.866Z" transform="translate(19.938 23.641)" fill="#29266b"/>
  </g>
</svg>
