<svg xmlns="http://www.w3.org/2000/svg" width="402.283" height="385.482" viewBox="0 0 402.283 385.482">
  <g id="Grupo_11245" data-name="Grupo 11245" transform="translate(-1427.64 -495.9)">
    <path id="Trazado_9763" data-name="Trazado 9763" d="M1437.914,818.35s-21.436-31.2-2.382-63.7,42.872-44.2,39.3-89.7-11.907-92.3,36.917-115.7,72.644,0,108.37-24.7,79.787-41.6,126.231-15.6,26.2,111.8,50.013,132.6,41.68,44.2,29.772,79.3-20.246,40.3-13.1,68.9-17.863,62.4-64.307,76.7S1503.412,906.752,1437.914,818.35Z" transform="translate(0 0)" fill="#e6eef3"/>
    <g id="Grupo_11187" data-name="Grupo 11187" transform="translate(1772.418 855.344)">
      <g id="Grupo_11186" data-name="Grupo 11186">
        <path id="Trazado_9872" data-name="Trazado 9872" d="M1740.059,824.695l3.095-4.657,3.573,2.374-6.278,9.445c-.415.624-1.957-.093-1.9-.839Z" transform="translate(-1738.552 -820.037)" fill="#29266b"/>
      </g>
    </g>
    <g id="Grupo_11244" data-name="Grupo 11244" transform="translate(1477.572 561.57)">
      <g id="Grupo_11190" data-name="Grupo 11190" transform="translate(225.75 194.818)">
        <g id="Grupo_11189" data-name="Grupo 11189">
          <g id="Grupo_11188" data-name="Grupo 11188">
            <path id="Trazado_9873" data-name="Trazado 9873" d="M1723.854,731.1c-6.272,2.645-18.98,18.926-18.98,18.926l-28.631,8.639.741,5.924,34.308-6.911s13.574-11.6,15.3-17.524S1727.492,729.561,1723.854,731.1Z" transform="translate(-1676.242 -730.801)" fill="#efcfa0"/>
          </g>
        </g>
      </g>
      <g id="Grupo_11193" data-name="Grupo 11193" transform="translate(26.054 194.818)">
        <g id="Grupo_11192" data-name="Grupo 11192">
          <g id="Grupo_11191" data-name="Grupo 11191">
            <path id="Trazado_9874" data-name="Trazado 9874" d="M1499.767,731.1c6.272,2.645,18.982,18.926,18.982,18.926l28.63,8.639-.741,5.924-34.307-6.911s-13.576-11.6-15.3-17.524S1496.129,729.561,1499.767,731.1Z" transform="translate(-1496.162 -730.801)" fill="#cdeefc"/>
          </g>
        </g>
      </g>
      <g id="Grupo_11196" data-name="Grupo 11196" transform="translate(59.894)">
        <g id="Grupo_11194" data-name="Grupo 11194">
          <path id="Trazado_9875" data-name="Trazado 9875" d="M1710.5,832.47H1526.678V555.119H1671.8l38.7,40.044Z" transform="translate(-1526.678 -555.119)" fill="#fff"/>
        </g>
        <g id="Grupo_11195" data-name="Grupo 11195" transform="translate(145.125)">
          <path id="Trazado_9876" data-name="Trazado 9876" d="M1657.548,555.119l38.7,40.044h-38.431Z" transform="translate(-1657.548 -555.119)" fill="#e6e6e6"/>
        </g>
      </g>
      <g id="Grupo_11200" data-name="Grupo 11200" transform="translate(78.418 35.472)">
        <g id="Grupo_11197" data-name="Grupo 11197" transform="translate(0.538 76.816)">
          <path id="Trazado_9877" data-name="Trazado 9877" d="M1605.419,675.22a24.961,24.961,0,0,1-13.444-18.842l-48.107,5.349a73.329,73.329,0,0,0,42.125,57.84Z" transform="translate(-1543.868 -656.378)" fill="#29266b"/>
        </g>
        <g id="Grupo_11198" data-name="Grupo 11198" transform="translate(45.248 7.22)">
          <path id="Trazado_9878" data-name="Trazado 9878" d="M1624.572,638.015a24.976,24.976,0,0,1-20.961,45.173l-19.425,44.348a73.364,73.364,0,0,0,59.834-133.918Z" transform="translate(-1584.186 -593.618)" fill="#fba60b"/>
        </g>
        <g id="Grupo_11199" data-name="Grupo 11199">
          <path id="Trazado_9879" data-name="Trazado 9879" d="M1591.8,661.11a24.973,24.973,0,0,1,34.68-23.623l19.418-44.33a73.389,73.389,0,0,0-102.266,73.31Z" transform="translate(-1543.383 -587.107)" fill="#7875d0"/>
        </g>
      </g>
      <g id="Grupo_11201" data-name="Grupo 11201" transform="translate(78.438 229.067)">
        <rect id="Rectángulo_2750" data-name="Rectángulo 2750" width="15.232" height="22.189" fill="#7875d0"/>
      </g>
      <g id="Grupo_11202" data-name="Grupo 11202" transform="translate(97.224 219.679)">
        <rect id="Rectángulo_2751" data-name="Rectángulo 2751" width="15.232" height="31.578" fill="#fba60b"/>
      </g>
      <g id="Grupo_11203" data-name="Grupo 11203" transform="translate(116.011 210.785)">
        <rect id="Rectángulo_2752" data-name="Rectángulo 2752" width="15.232" height="40.472" fill="#29266b"/>
      </g>
      <g id="Grupo_11204" data-name="Grupo 11204" transform="translate(134.797 218.197)">
        <rect id="Rectángulo_2753" data-name="Rectángulo 2753" width="15.232" height="33.06" fill="#7875d0"/>
      </g>
      <g id="Grupo_11205" data-name="Grupo 11205" transform="translate(153.584 214.244)">
        <rect id="Rectángulo_2754" data-name="Rectángulo 2754" width="15.232" height="37.013" fill="#29266b"/>
      </g>
      <g id="Grupo_11206" data-name="Grupo 11206" transform="translate(172.37 205.844)">
        <rect id="Rectángulo_2755" data-name="Rectángulo 2755" width="15.232" height="45.413" fill="#7875d0"/>
      </g>
      <g id="Grupo_11207" data-name="Grupo 11207" transform="translate(191.157 197.938)">
        <rect id="Rectángulo_2756" data-name="Rectángulo 2756" width="15.232" height="53.319" fill="#fba60b"/>
      </g>
      <g id="Grupo_11208" data-name="Grupo 11208" transform="translate(209.943 190.032)">
        <rect id="Rectángulo_2757" data-name="Rectángulo 2757" width="15.232" height="61.225" fill="#29266b"/>
      </g>
      <g id="Grupo_11210" data-name="Grupo 11210" transform="translate(2.72 194.662)">
        <g id="Grupo_11209" data-name="Grupo 11209">
          <path id="Trazado_9880" data-name="Trazado 9880" d="M1488.352,776.246l27.752-.045-7.729-35.951c-1.477-6.316-6.385-10.366-9.384-9.464l-20.063,5.87a5.349,5.349,0,0,0-3.431,7.089Z" transform="translate(-1475.12 -730.66)" fill="#61b3db"/>
        </g>
      </g>
      <g id="Grupo_11213" data-name="Grupo 11213" transform="translate(10.651 190.589)">
        <g id="Grupo_11212" data-name="Grupo 11212">
          <g id="Grupo_11211" data-name="Grupo 11211">
            <path id="Trazado_9881" data-name="Trazado 9881" d="M1486.314,736.86l3.5-1.054a2.2,2.2,0,0,0,1.3-2.808l-1.3-4.309a2.2,2.2,0,0,0-2.635-1.623l-3.5,1.052a2.2,2.2,0,0,0-1.3,2.809l1.3,4.309A2.2,2.2,0,0,0,1486.314,736.86Z" transform="translate(-1482.271 -726.987)" fill="#fcc198"/>
          </g>
        </g>
      </g>
      <g id="Grupo_11215" data-name="Grupo 11215" transform="translate(3.572 240.202)">
        <g id="Grupo_11214" data-name="Grupo 11214">
          <path id="Trazado_9882" data-name="Trazado 9882" d="M1488.268,771.773l27.752-.045,0,62.737h-5.5s-4.163-30.95-5.732-48.056h-3.812l.252,24.345-22.353,19.568-2.989-5.022,14.846-19.234s-2.8-24.865-2.72-29.155A48.439,48.439,0,0,1,1488.268,771.773Z" transform="translate(-1475.888 -771.727)" fill="#254da1"/>
        </g>
      </g>
      <g id="Grupo_11217" data-name="Grupo 11217" transform="translate(38.191 302.861)">
        <g id="Grupo_11216" data-name="Grupo 11216">
          <path id="Trazado_9883" data-name="Trazado 9883" d="M1512.7,828.231h-5.591v4.288h11.341c.749,0,1.006-1.681.35-2.044Z" transform="translate(-1507.107 -828.231)" fill="#29266b"/>
        </g>
      </g>
      <g id="Grupo_11219" data-name="Grupo 11219" transform="translate(0 293.774)">
        <g id="Grupo_11218" data-name="Grupo 11218">
          <path id="Trazado_9884" data-name="Trazado 9884" d="M1479.334,824.695l-3.1-4.657-3.572,2.374,6.278,9.445c.415.624,1.957-.093,1.9-.839Z" transform="translate(-1472.667 -820.037)" fill="#29266b"/>
        </g>
      </g>
      <g id="Grupo_11222" data-name="Grupo 11222" transform="translate(2.621 200.756)">
        <g id="Grupo_11221" data-name="Grupo 11221">
          <g id="Grupo_11220" data-name="Grupo 11220">
            <path id="Trazado_9885" data-name="Trazado 9885" d="M1479.495,736.156l23.048,22.146,24.924,6.686-.74,5.924-29.629-3.447s-18.012-16.412-20.828-21.9C1473.582,740.322,1475.546,736.156,1479.495,736.156Z" transform="translate(-1475.031 -736.156)" fill="#cdeefc"/>
          </g>
        </g>
      </g>
      <g id="Grupo_11225" data-name="Grupo 11225" transform="translate(54.317 229.132)">
        <g id="Grupo_11224" data-name="Grupo 11224">
          <g id="Grupo_11223" data-name="Grupo 11223">
            <path id="Trazado_9886" data-name="Trazado 9886" d="M1522.389,762.2l-.74,5.924s7.523.709,8.6-.692c2.016-2.62,2.1-4.392,1.026-5.108C1529.425,761.1,1522.389,762.2,1522.389,762.2Z" transform="translate(-1521.649 -761.744)" fill="#fcc198"/>
          </g>
        </g>
      </g>
      <g id="Grupo_11227" data-name="Grupo 11227" transform="translate(259.317 194.662)">
        <g id="Grupo_11226" data-name="Grupo 11226">
          <path id="Trazado_9887" data-name="Trazado 9887" d="M1734.264,776.246l-27.752-.045,7.729-35.951c1.478-6.316,6.385-10.366,9.384-9.464l20.064,5.87a5.35,5.35,0,0,1,3.431,7.089Z" transform="translate(-1706.512 -730.66)" fill="#fba60b"/>
        </g>
      </g>
      <g id="Grupo_11230" data-name="Grupo 11230" transform="translate(283.421 190.589)">
        <g id="Grupo_11229" data-name="Grupo 11229">
          <g id="Grupo_11228" data-name="Grupo 11228">
            <path id="Trazado_9888" data-name="Trazado 9888" d="M1733.155,736.86l-3.5-1.054a2.2,2.2,0,0,1-1.3-2.808l1.3-4.309a2.2,2.2,0,0,1,2.635-1.623l3.5,1.052a2.2,2.2,0,0,1,1.3,2.809l-1.3,4.309A2.2,2.2,0,0,1,1733.155,736.86Z" transform="translate(-1728.248 -726.987)" fill="#fcc198"/>
          </g>
        </g>
      </g>
      <g id="Grupo_11232" data-name="Grupo 11232" transform="translate(259.316 240.202)">
        <g id="Grupo_11231" data-name="Grupo 11231">
          <path id="Trazado_9889" data-name="Trazado 9889" d="M1734.264,771.773l-27.752-.045v62.737h5.5s4.163-30.95,5.732-48.056h3.813l-.253,24.345,22.354,19.568,2.987-5.022L1731.8,806.065s2.8-24.865,2.719-29.155A48.4,48.4,0,0,0,1734.264,771.773Z" transform="translate(-1706.511 -771.727)" fill="#254da1"/>
        </g>
      </g>
      <g id="Grupo_11234" data-name="Grupo 11234" transform="translate(252.763 302.861)">
        <g id="Grupo_11233" data-name="Grupo 11233">
          <path id="Trazado_9890" data-name="Trazado 9890" d="M1707.077,828.231h5.592v4.288h-11.341c-.748,0-1.006-1.681-.35-2.044Z" transform="translate(-1700.603 -828.231)" fill="#29266b"/>
        </g>
      </g>
      <g id="Grupo_11237" data-name="Grupo 11237" transform="translate(247.964 200.756)">
        <g id="Grupo_11236" data-name="Grupo 11236">
          <g id="Grupo_11235" data-name="Grupo 11235">
            <path id="Trazado_9891" data-name="Trazado 9891" d="M1744.247,736.156,1721.2,758.3l-24.924,6.686.741,5.924,29.628-3.447s18.013-16.412,20.829-21.9C1750.159,740.322,1748.2,736.156,1744.247,736.156Z" transform="translate(-1696.274 -736.156)" fill="#efcfa0"/>
          </g>
        </g>
      </g>
      <g id="Grupo_11240" data-name="Grupo 11240" transform="translate(238.393 229.132)">
        <g id="Grupo_11239" data-name="Grupo 11239">
          <g id="Grupo_11238" data-name="Grupo 11238">
            <path id="Trazado_9892" data-name="Trazado 9892" d="M1697.214,762.2l.741,5.924s-7.523.709-8.6-.692c-2.016-2.62-2.1-4.392-1.026-5.108C1690.179,761.1,1697.214,762.2,1697.214,762.2Z" transform="translate(-1687.644 -761.744)" fill="#fcc198"/>
          </g>
        </g>
      </g>
      <path id="Trazado_9893" data-name="Trazado 9893" d="M1487.031,716.825c4.071-.453,5.2,2.488,5.88,8.142.593,4.94-.067,7.4-4.975,7.463s-12.213-2.487-11.534-8.594S1487.031,716.825,1487.031,716.825Z" transform="translate(-1472.265 -537.51)" fill="#fcc198"/>
      <path id="Trazado_9894" data-name="Trazado 9894" d="M1732.242,715.806c-4.071-.452-5.2,2.487-5.88,8.141-.593,4.94.067,7.4,4.975,7.463s12.213-2.487,11.534-8.593S1732.242,715.806,1732.242,715.806Z" transform="translate(-1445.053 -537.621)" fill="#fcc198"/>
      <g id="Grupo_11241" data-name="Grupo 11241" transform="translate(2.148 170.729)">
        <path id="Trazado_9895" data-name="Trazado 9895" d="M1478.6,729.968c-.6,1.812-6.718-6.987-2.553-12.362s8.921-4.081,10.482-4.569c4.3-1.344,2.822-3.225,3.359-3.9s6.189,4.215,3.36,8.6c-2.688,4.166-6.45,3.359-10.75,3.763-2.514.236-.941,2.553.672,3.9s2.015,2.016,1.209,2.554-1.747.537-3.9-1.076S1478.735,729.565,1478.6,729.968Z" transform="translate(-1474.604 -709.078)" fill="#0d1b4a"/>
      </g>
      <g id="Grupo_11242" data-name="Grupo 11242" transform="translate(282.211 171.475)">
        <path id="Trazado_9896" data-name="Trazado 9896" d="M1728.575,717.868c-1.423-.786-2.62-4.837.806-7.256s7.257.906,8.264,2.015c.825.907,2.947-3.252,7.156-.806,4.334,2.52.705,6.45.907,7.055s4.473,1.163,3.225,5.845c-.806,3.023-4.736,2.822-5.342,3.427s.907,4.938-3.124,5.443a3.788,3.788,0,0,1-3.93-5.644c1.537-2.251,3.728-1.612,3.728-2.419s-3.225-1.109-4.132-3.225c-1.064-2.486.5-4.233-.5-4.435S1732.406,719.984,1728.575,717.868Z" transform="translate(-1727.157 -709.75)" fill="#705053"/>
      </g>
      <g id="Grupo_11243" data-name="Grupo 11243" transform="translate(280.392 188.155)">
        <path id="Trazado_9897" data-name="Trazado 9897" d="M1726.134,724.8c-.684-.171-1.31,4.938,1.109,6.148s8.039,1.06,8.051.025-1.3-1.84-4.826-3.15C1727.833,726.841,1727.343,725.1,1726.134,724.8Z" transform="translate(-1725.517 -724.792)" fill="#705053"/>
      </g>
    </g>
  </g>
</svg>
