<svg xmlns="http://www.w3.org/2000/svg" width="368.656" height="350.074" viewBox="0 0 368.656 350.074">
  <g id="Grupo_11139" data-name="Grupo 11139" transform="translate(-416.282 -354.843)">
    <path id="Trazado_9763" data-name="Trazado 9763" d="M431.435,645.62s-19.33-28.137-2.148-57.444,38.661-39.86,35.438-80.892-10.738-83.235,33.291-104.338,65.508,0,97.725-22.274,71.95-37.516,113.832-14.068,23.626,100.821,45.1,119.578,37.586,39.86,26.848,71.513-18.257,36.342-11.813,62.133S753.6,676.1,711.718,689,490.5,725.338,431.435,645.62Z" fill="#e6eef3"/>
    <path id="Trazado_9819" data-name="Trazado 9819" d="M702.218,409.011l1.176,7.3,36.466-5.877-73.568,71.338L587.905,434l-70.393,46.929L466.83,456.205l-49.854,39.628,4.6,5.785,46.2-36.727,50.3,24.538,70-46.667,79.248,48.292,78.356-75.982-2.26,32.733,7.372.51,3.289-47.665Z" fill="#fba60b"/>
    <g id="Grupo_11100" data-name="Grupo 11100">
      <path id="Trazado_9820" data-name="Trazado 9820" d="M520.8,552.358c.829-4,4.216-8.314,8.834-6.159s-3.079,11.084-3.079,11.084Z" fill="#fcc198"/>
    </g>
    <g id="Grupo_11102" data-name="Grupo 11102">
      <g id="Grupo_11101" data-name="Grupo 11101">
        <path id="Trazado_9821" data-name="Trazado 9821" d="M727.967,541.4c-9.107,3.841-25.851,21.361-25.851,21.361l-33.1-6.138,1.075,8.6,39.593,15.6s19.712-16.844,22.22-25.446S733.251,539.175,727.967,541.4Z" fill="#0cf"/>
      </g>
    </g>
    <g id="Grupo_11104" data-name="Grupo 11104">
      <g id="Grupo_11103" data-name="Grupo 11103">
        <path id="Trazado_9822" data-name="Trazado 9822" d="M747.836,607.771l-40.3-.065L719.724,551.8c.941-4.449,8.31-11.347,12.663-10.035l29.134,8.522a7.767,7.767,0,0,1,4.982,10.294Z" fill="#92ddef"/>
      </g>
    </g>
    <path id="Trazado_9823" data-name="Trazado 9823" d="M757.487,534.186c2.206.145,4.779-1.5,3.7-4.25s-3.743-2.511-4.377-2.7.751-4.792.751-4.792l-13.193-4a24.836,24.836,0,0,0-5.6,14.421c-.023,4.347,2.012,6.4,5.18,7.373l-1.252,4.155a3.189,3.189,0,0,0,1.887,4.078L749.663,550a3.188,3.188,0,0,0,3.826-2.357l1.884-6.258a3.7,3.7,0,0,0,.135-.653,13.707,13.707,0,0,0,2.717-.952C755.211,538.161,755.63,534.064,757.487,534.186Z" fill="#fcc198"/>
    <path id="Trazado_9824" data-name="Trazado 9824" d="M766.014,527.565a13.607,13.607,0,0,0-13.536-13.679c-3.027-.016-5.832,1.843-8.107,4.558l13.193,4s-1.386,4.6-.751,4.792,3.3-.043,4.377,2.7-1.5,4.4-3.7,4.25c-1.857-.122-2.276,3.975.738,5.594A13.594,13.594,0,0,0,766.014,527.565Z" fill="#0d1b4a"/>
    <path id="Trazado_9825" data-name="Trazado 9825" d="M746.6,530.588a6.6,6.6,0,0,0-8.035,3.888c-1.273,2.264-7.98,15.017.626,18.121,10,3.605,12.1-14.7,12.1-14.7l-.072-.022A6.6,6.6,0,0,0,746.6,530.588Zm-.68,2.257a4.24,4.24,0,0,1,3,4.342l-7.9-2.38A4.239,4.239,0,0,1,745.923,532.845Z" fill="#0d1b4a"/>
    <g id="Grupo_11106" data-name="Grupo 11106">
      <g id="Grupo_11105" data-name="Grupo 11105">
        <path id="Trazado_9826" data-name="Trazado 9826" d="M747.836,607.771l-40.3-.065,0,91.1h7.986s6.046-44.941,8.324-69.78h5.536l-.366,35.351,32.458,28.413,4.34-7.293-21.558-27.929s4.065-36.107,3.949-42.334A70.181,70.181,0,0,0,747.836,607.771Z" fill="#254da1"/>
      </g>
    </g>
    <g id="Grupo_11108" data-name="Grupo 11108">
      <g id="Grupo_11107" data-name="Grupo 11107">
        <path id="Trazado_9827" data-name="Trazado 9827" d="M707.425,698.69h8.119v6.227H699.076c-1.087,0-1.46-2.441-.509-2.967Z" fill="#29266b"/>
      </g>
    </g>
    <g id="Grupo_11110" data-name="Grupo 11110">
      <g id="Grupo_11109" data-name="Grupo 11109">
        <path id="Trazado_9828" data-name="Trazado 9828" d="M761.319,692.258l4.5-6.762L771,688.944l-9.115,13.714c-.6.906-2.843-.135-2.754-1.219Z" fill="#29266b"/>
      </g>
    </g>
    <g id="Grupo_11112" data-name="Grupo 11112">
      <g id="Grupo_11111" data-name="Grupo 11111">
        <path id="Trazado_9829" data-name="Trazado 9829" d="M445.984,608.6H488.04l-1.122,89.846h-8.032s-6.08-45.2-8.372-70.18h-5.567l-1.675,70.18H455.24s-9.478-70.466-9.225-84.051A52.781,52.781,0,0,1,445.984,608.6Z" fill="#2b79e6"/>
      </g>
    </g>
    <g id="Grupo_11114" data-name="Grupo 11114">
      <g id="Grupo_11113" data-name="Grupo 11113">
        <path id="Trazado_9830" data-name="Trazado 9830" d="M445.984,608.6H488.04l5.251-55.86c.47-4.557-3.934-8.468-9.536-8.468H450.269c-5.6,0-10.005,3.911-9.535,8.468Z" fill="#fba60b"/>
      </g>
    </g>
    <g id="Grupo_11116" data-name="Grupo 11116">
      <g id="Grupo_11115" data-name="Grupo 11115">
        <path id="Trazado_9831" data-name="Trazado 9831" d="M467.215,550.2c-7.449,0-7.406-5.065-7.406-6.283v-8.243c0-1.867,2.785-1.709,4.442-1.709h5.333c1.657,0,4.441,1.513,4.441,3.38v6.572A6.343,6.343,0,0,1,467.215,550.2Z" fill="#fcc198"/>
      </g>
    </g>
    <path id="Trazado_9832" data-name="Trazado 9832" d="M463.584,518.461s0,4.833-.667,4.833-3.166-1-5,1.333.167,4.667,2.333,5.167c1.824.42,1.039,4.488-2.334,5.172a13.618,13.618,0,0,0,5.289,2.981c7.249,2.142,13.31,3.252,15.452-4a24.982,24.982,0,0,0-1.163-15.4Z" fill="#fcc198"/>
    <path id="Trazado_9833" data-name="Trazado 9833" d="M460.251,529.794c-2.166-.5-4.166-2.834-2.333-5.167s4.333-1.333,5-1.333.667-4.833.667-4.833l13.911.085c-1.4-3.325-3.58-5.976-6.532-6.848a13.677,13.677,0,0,0-13.046,23.268C461.29,534.282,462.075,530.214,460.251,529.794Z" fill="#0d1b4a"/>
    <g id="Grupo_11118" data-name="Grupo 11118">
      <g id="Grupo_11117" data-name="Grupo 11117">
        <path id="Trazado_9834" data-name="Trazado 9834" d="M493.5,550.946l10.723,20.636,16.58-19.224c0-.721,7.69,2.162,6.729,3.845-1.559,2.727-12.255,24.51-20.666,33.4-4.694,4.962-18.474-13.169-19.224-14.418-1.2-1.995-2.819-14.355-3.044-21.252a3.031,3.031,0,0,1,2.723-3.113l2.484-4.471C491.179,546.209,493.016,549.649,493.5,550.946Z" fill="#fba60b"/>
      </g>
    </g>
    <g id="Grupo_11120" data-name="Grupo 11120">
      <g id="Grupo_11119" data-name="Grupo 11119">
        <path id="Trazado_9835" data-name="Trazado 9835" d="M444.2,546.111s-19.445,20.74-26.3,27.273c-3.785,3.6,0,6.308,2.163,9.011,6,7.5,25.411,20.906,25.411,20.906l-1.081-11.354-11.715-13.7s16.477-12.724,17.027-13.641c1.5-2.5.25-13.5.25-13.5Z" fill="#fba60b"/>
      </g>
    </g>
    <g id="Grupo_11122" data-name="Grupo 11122">
      <g id="Grupo_11121" data-name="Grupo 11121">
        <path id="Trazado_9836" data-name="Trazado 9836" d="M487.029,698.335h-8.166V704.6h16.562c1.094,0,1.47-2.456.513-2.985Z" fill="#29266b"/>
      </g>
    </g>
    <g id="Grupo_11124" data-name="Grupo 11124">
      <g id="Grupo_11123" data-name="Grupo 11123">
        <path id="Trazado_9837" data-name="Trazado 9837" d="M463.031,698.335h-8.166V704.6h16.563c1.093,0,1.469-2.456.512-2.985Z" fill="#29266b"/>
      </g>
    </g>
    <g id="Grupo_11126" data-name="Grupo 11126">
      <g id="Grupo_11125" data-name="Grupo 11125">
        <path id="Trazado_9838" data-name="Trazado 9838" d="M448.712,602.76a3.736,3.736,0,0,0,3.116-4.3l-.683-6.6c-.072-1.266-2.069-.884-3.334-.811l-3.424.9,1.081,11.354S447.893,602.83,448.712,602.76Z" fill="#fcc198"/>
      </g>
    </g>
    <path id="Trazado_9839" data-name="Trazado 9839" d="M742.112,589.482,667.3,517.773a89.27,89.27,0,1,0-18.182,18.392l74.706,71.606a12.932,12.932,0,0,0,18.289-18.289ZM528.661,464.859a66.724,66.724,0,1,1,66.724,66.724A66.724,66.724,0,0,1,528.661,464.859Z" fill="#29266b"/>
    <g id="Grupo_11128" data-name="Grupo 11128">
      <g id="Grupo_11127" data-name="Grupo 11127">
        <path id="Trazado_9840" data-name="Trazado 9840" d="M695.568,579.159l1.075,11.064s-13.618-3.458-14.694-6.454.717-4.38.717-4.38Z" fill="#fcc198"/>
      </g>
    </g>
    <g id="Grupo_11130" data-name="Grupo 11130">
      <g id="Grupo_11129" data-name="Grupo 11129">
        <path id="Trazado_9841" data-name="Trazado 9841" d="M673.757,558.062,671,565.8s-10.859-8.917-10.559-12.086,2.51-3.66,2.51-3.66l9.128,4.087A3.141,3.141,0,0,1,673.757,558.062Z" fill="#fcc198"/>
      </g>
    </g>
    <g id="Grupo_11131" data-name="Grupo 11131">
      <path id="Trazado_9842" data-name="Trazado 9842" d="M477.158,460.24a8.929,8.929,0,1,1-8.929-8.929A8.929,8.929,0,0,1,477.158,460.24Z" fill="#29266b"/>
    </g>
    <g id="Grupo_11132" data-name="Grupo 11132">
      <rect id="Rectángulo_2739" data-name="Rectángulo 2739" width="21.598" height="30.085" transform="translate(528.239 673.196)" fill="#7875d0"/>
    </g>
    <g id="Grupo_11133" data-name="Grupo 11133">
      <rect id="Rectángulo_2740" data-name="Rectángulo 2740" width="21.597" height="61.295" transform="translate(554.876 641.986)" fill="#fba60b"/>
    </g>
    <g id="Grupo_11134" data-name="Grupo 11134">
      <rect id="Rectángulo_2741" data-name="Rectángulo 2741" width="21.597" height="103.261" transform="translate(581.513 600.02)" fill="#7875d0"/>
    </g>
    <g id="Grupo_11135" data-name="Grupo 11135">
      <rect id="Rectángulo_2742" data-name="Rectángulo 2742" width="21.597" height="80.715" transform="translate(608.15 622.566)" fill="#fba60b"/>
    </g>
    <g id="Grupo_11136" data-name="Grupo 11136">
      <rect id="Rectángulo_2743" data-name="Rectángulo 2743" width="21.598" height="55.484" transform="translate(634.786 647.797)" fill="#7875d0"/>
    </g>
    <g id="Grupo_11138" data-name="Grupo 11138">
      <g id="Grupo_11137" data-name="Grupo 11137">
        <path id="Trazado_9843" data-name="Trazado 9843" d="M760.223,551.438l-27.6,28.313-38.31-.566.821,11.083,47.166,5.611s19.353-21.862,21.862-30.464S765.957,551.438,760.223,551.438Z" fill="#0cf"/>
      </g>
    </g>
    <g id="Grupo_11071" data-name="Grupo 11071">
      <circle id="Elipse_630" data-name="Elipse 630" cx="27.421" cy="27.421" r="27.421" transform="translate(562.58 410.58)" fill="#d3d5ff"/>
      <path id="Trazado_9772" data-name="Trazado 9772" d="M590,438l15.77-22.425a27.421,27.421,0,0,0-27.548-2.341Z" fill="#c4c3fc"/>
      <path id="Trazado_9773" data-name="Trazado 9773" d="M590,410.58A27.42,27.42,0,0,0,562.58,438H590Z" fill="#7875d0"/>
    </g>
  </g>
</svg>
