<svg xmlns="http://www.w3.org/2000/svg" width="576.906" height="404.049" viewBox="0 0 576.906 404.049">
  <g id="Grupo_13572" data-name="Grupo 13572" transform="translate(1932.406 3376.698)">
    <path id="Trazado_12657" data-name="Trazado 12657" d="M27.3,17H25.773L24.947,6.787,20.992,17h-.94L16.123,6.822,15.288,17H13.75l.94-12.375h2.074l3.753,9.65,3.762-9.65h2.092Zm4.9.167a2.94,2.94,0,0,1-1.894-.593,2.13,2.13,0,0,1-.743-1.771,2.517,2.517,0,0,1,.237-1.129,1.991,1.991,0,0,1,.7-.787,4.218,4.218,0,0,1,1.015-.488,9.384,9.384,0,0,1,1.314-.312l1.4-.229q.765-.141.765-.8a1.51,1.51,0,0,0-.541-1.288,2.2,2.2,0,0,0-1.367-.409,2.243,2.243,0,0,0-1.354.4,1.655,1.655,0,0,0-.642,1.213l-1.371-.29A2.639,2.639,0,0,1,30.8,8.831a4.039,4.039,0,0,1,2.355-.62,4.777,4.777,0,0,1,1.252.154,3.4,3.4,0,0,1,1.046.483,2.168,2.168,0,0,1,.747.932,3.466,3.466,0,0,1,.268,1.419v3.568a1.46,1.46,0,0,0,.2.9.854.854,0,0,0,.681.233h.141V17h-.756A1.442,1.442,0,0,1,35.1,15.831h-.07A3.3,3.3,0,0,1,32.2,17.167Zm.352-1.23A2.305,2.305,0,0,0,34.4,15.1a3.438,3.438,0,0,0,.7-2.285l-2.285.439a3.076,3.076,0,0,0-1.34.479,1.114,1.114,0,0,0-.435.945,1.1,1.1,0,0,0,.417.949A1.785,1.785,0,0,0,32.549,15.937ZM42.34,17a2.271,2.271,0,0,1-1.687-.62,2.344,2.344,0,0,1-.615-1.727V9.573H38.271V8.36h.65a1.249,1.249,0,0,0,.954-.3,1.492,1.492,0,0,0,.277-1.015V5.478h1.415V8.36h1.986V9.573H41.567V14.5a1.31,1.31,0,0,0,.33.954,1.154,1.154,0,0,0,.866.338h.791V17ZM53.2,12.509l-.018.413h-6.75a3.053,3.053,0,0,0,.826,2.21,2.713,2.713,0,0,0,1.969.769,2.59,2.59,0,0,0,1.433-.413,2.68,2.68,0,0,0,.984-1.143l1.371.29a3.9,3.9,0,0,1-1.477,1.854,4.028,4.028,0,0,1-2.294.677,4.174,4.174,0,0,1-3.111-1.2,4.479,4.479,0,0,1-1.187-3.287A4.458,4.458,0,0,1,46.142,9.4a4.122,4.122,0,0,1,3.063-1.2,3.9,3.9,0,0,1,2.9,1.107A4.376,4.376,0,0,1,53.2,12.509Zm-4-3.146a2.694,2.694,0,0,0-1.8.611,2.8,2.8,0,0,0-.91,1.78h5.177a2.567,2.567,0,0,0-.756-1.78A2.441,2.441,0,0,0,49.2,9.362Zm7.866.519a2.612,2.612,0,0,1,1.072-1.16A3.229,3.229,0,0,1,59.8,8.264V9.7a2.846,2.846,0,0,0-2.008.642,2.68,2.68,0,0,0-.69,2.048V17H55.585V8.36h1.485ZM62.362,6.33A1.035,1.035,0,0,1,61.333,5.3a.975.975,0,0,1,.3-.721,1,1,0,0,1,.725-.3.987.987,0,0,1,.716.3.975.975,0,0,1,.3.721.989.989,0,0,1-.3.725A.979.979,0,0,1,62.362,6.33ZM61.588,17V8.36h1.529V17Zm6.618.167a2.94,2.94,0,0,1-1.894-.593A2.13,2.13,0,0,1,65.57,14.8a2.517,2.517,0,0,1,.237-1.129,1.991,1.991,0,0,1,.7-.787,4.218,4.218,0,0,1,1.015-.488,9.384,9.384,0,0,1,1.314-.312l1.4-.229q.765-.141.765-.8a1.51,1.51,0,0,0-.541-1.288,2.2,2.2,0,0,0-1.367-.409,2.243,2.243,0,0,0-1.354.4,1.655,1.655,0,0,0-.642,1.213l-1.371-.29a2.639,2.639,0,0,1,1.081-1.85,4.039,4.039,0,0,1,2.355-.62,4.777,4.777,0,0,1,1.252.154,3.4,3.4,0,0,1,1.046.483,2.168,2.168,0,0,1,.747.932,3.466,3.466,0,0,1,.268,1.419v3.568a1.46,1.46,0,0,0,.2.9.854.854,0,0,0,.681.233H73.5V17h-.756a1.442,1.442,0,0,1-1.635-1.169h-.07A3.3,3.3,0,0,1,68.207,17.167Zm.352-1.23a2.305,2.305,0,0,0,1.854-.835,3.438,3.438,0,0,0,.7-2.285l-2.285.439a3.076,3.076,0,0,0-1.34.479,1.114,1.114,0,0,0-.435.945,1.1,1.1,0,0,0,.417.949A1.785,1.785,0,0,0,68.558,15.937ZM75.642,17V3.5H77.18V17ZM18.61,23.5H20.13V37H18.663l-.035-1.679a3.179,3.179,0,0,1-1.23,1.362,3.429,3.429,0,0,1-1.828.5,3.926,3.926,0,0,1-2.852-1.217,4.16,4.16,0,0,1-.87-1.428,5.225,5.225,0,0,1-.321-1.854A4.543,4.543,0,0,1,12.7,29.441a3.788,3.788,0,0,1,2.87-1.248,3.443,3.443,0,0,1,1.806.488A3.2,3.2,0,0,1,18.61,30ZM15.885,35.866a2.587,2.587,0,0,0,2.008-.91,3.568,3.568,0,0,0,0-4.54,2.586,2.586,0,0,0-2-.914,2.644,2.644,0,0,0-2.021.883,3.64,3.64,0,0,0,0,4.6A2.644,2.644,0,0,0,15.885,35.866Zm14.9-3.357-.018.413h-6.75a3.053,3.053,0,0,0,.826,2.21,2.713,2.713,0,0,0,1.969.769,2.59,2.59,0,0,0,1.433-.413,2.68,2.68,0,0,0,.984-1.143l1.371.29a3.9,3.9,0,0,1-1.477,1.854,4.028,4.028,0,0,1-2.294.677,4.174,4.174,0,0,1-3.111-1.2,4.479,4.479,0,0,1-1.187-3.287A4.458,4.458,0,0,1,23.721,29.4a4.122,4.122,0,0,1,3.063-1.2,3.9,3.9,0,0,1,2.9,1.107A4.376,4.376,0,0,1,30.783,32.509Zm-4-3.146a2.694,2.694,0,0,0-1.8.611,2.8,2.8,0,0,0-.91,1.78h5.177a2.567,2.567,0,0,0-.756-1.78A2.441,2.441,0,0,0,26.784,29.362Zm11.83-3.032A1.035,1.035,0,0,1,37.585,25.3a.975.975,0,0,1,.3-.721,1,1,0,0,1,.725-.3.987.987,0,0,1,.716.3.975.975,0,0,1,.3.721.989.989,0,0,1-.3.725A.979.979,0,0,1,38.614,26.33ZM37.84,37V28.36H39.37V37Zm8.7-8.807a3.005,3.005,0,0,1,2.175.782,2.918,2.918,0,0,1,.813,2.206V37H48.009V31.524a2.043,2.043,0,0,0-.527-1.547,1.885,1.885,0,0,0-1.354-.5,2.09,2.09,0,0,0-1.538.593,2.407,2.407,0,0,0-.606,1.762V37H42.463V28.36h1.521v1.107A2.885,2.885,0,0,1,46.542,28.193Zm6.7-1.863A1.035,1.035,0,0,1,52.21,25.3a.975.975,0,0,1,.3-.721,1,1,0,0,1,.725-.3.987.987,0,0,1,.716.3.975.975,0,0,1,.3.721.989.989,0,0,1-.3.725A.979.979,0,0,1,53.239,26.33ZM52.465,37V28.36h1.529V37Zm8.209.158a4.161,4.161,0,0,1-3.094-1.239,4.421,4.421,0,0,1-1.222-3.243,4.43,4.43,0,0,1,1.217-3.243,4.5,4.5,0,0,1,5.6-.483,3.815,3.815,0,0,1,1.455,2.1l-1.424.229a2.63,2.63,0,0,0-.976-1.345,2.656,2.656,0,0,0-1.564-.475,2.554,2.554,0,0,0-2,.888,3.835,3.835,0,0,0,0,4.654,2.56,2.56,0,0,0,2,.883,2.656,2.656,0,0,0,1.564-.475,2.63,2.63,0,0,0,.976-1.345l1.424.237a3.819,3.819,0,0,1-1.463,2.1A4.185,4.185,0,0,1,60.674,37.158Zm6.97-10.828A1.035,1.035,0,0,1,66.616,25.3a.975.975,0,0,1,.3-.721,1,1,0,0,1,.725-.3.987.987,0,0,1,.716.3.975.975,0,0,1,.3.721.989.989,0,0,1-.3.725A.979.979,0,0,1,67.644,26.33ZM66.871,37V28.36H68.4V37Zm8.262.167a4.554,4.554,0,0,1-2.215-.536,3.9,3.9,0,0,1-1.56-1.569,4.819,4.819,0,0,1-.576-2.386,4.4,4.4,0,0,1,1.226-3.256,4.6,4.6,0,0,1,6.253,0,4.41,4.41,0,0,1,1.222,3.256,4.413,4.413,0,0,1-1.226,3.265A4.232,4.232,0,0,1,75.132,37.167ZM75.124,35.9a2.654,2.654,0,0,0,2.043-.888,3.755,3.755,0,0,0,0-4.667,2.654,2.654,0,0,0-2.043-.888,2.617,2.617,0,0,0-2.026.888,3.788,3.788,0,0,0,0,4.667A2.617,2.617,0,0,0,75.124,35.9Z" transform="translate(-1927 -3241)" fill="#00223d"/>
    <path id="Trazado_10469" data-name="Trazado 10469" d="M375.355,672.243h57l22-14v-18h-60l-19,14Z" transform="translate(-2294.355 -3922.243)" fill="#e6e6e6"/>
    <g id="Grupo_11102" data-name="Grupo 11102" transform="translate(-2294.355 -3922.243)">
      <path id="Trazado_10470" data-name="Trazado 10470" d="M432.646,673.243H374.355V653.737l19.672-14.494h61.328v19.549Zm-56.291-2h55.709l21.291-13.549V641.243H394.684l-18.329,13.505Z" fill="#4d4d4d"/>
      <path id="Trazado_10471" data-name="Trazado 10471" d="M433.29,672.243h-2v-17H375.355v-2H433.29Z" fill="#4d4d4d"/>
      <rect id="Rectángulo_2716" data-name="Rectángulo 2716" width="26.132" height="2" transform="translate(431.755 653.398) rotate(-32.394)" fill="#4d4d4d"/>
    </g>
    <path id="Trazado_10472" data-name="Trazado 10472" d="M489.616,672.243h57l22-14v-18h-60l-19,14Z" transform="translate(-2075.355 -3922.243)" fill="#e6e6e6"/>
    <g id="Grupo_11104" data-name="Grupo 11104" transform="translate(-2075.355 -3922.243)">
      <path id="Trazado_10473" data-name="Trazado 10473" d="M546.907,673.243H488.616V653.737l19.672-14.494h61.328v19.549Zm-56.291-2h55.709l21.291-13.549V641.243H508.945l-18.329,13.505Z" fill="#4d4d4d"/>
      <path id="Trazado_10474" data-name="Trazado 10474" d="M547.551,672.243h-2v-17H489.616v-2h57.935Z" fill="#4d4d4d"/>
      <rect id="Rectángulo_2717" data-name="Rectángulo 2717" width="26.132" height="2" transform="translate(546.016 653.398) rotate(-32.394)" fill="#4d4d4d"/>
    </g>
    <path id="Trazado_10475" data-name="Trazado 10475" d="M517.048,650.743c-4,0-7.137-1.538-7.137-3.5s3.135-3.5,7.137-3.5,7.138,1.537,7.138,3.5S521.051,650.743,517.048,650.743Zm0-6c-3.617,0-6.137,1.317-6.137,2.5s2.52,2.5,6.137,2.5,6.138-1.318,6.138-2.5S520.666,644.743,517.048,644.743Z" transform="translate(-2075.355 -3922.243)" fill="#4d4d4d"/>
    <path id="Trazado_10476" data-name="Trazado 10476" d="M538.878,650.743c-4,0-7.137-1.538-7.137-3.5s3.135-3.5,7.137-3.5,7.138,1.537,7.138,3.5S542.88,650.743,538.878,650.743Zm0-6c-3.617,0-6.137,1.317-6.137,2.5s2.52,2.5,6.137,2.5,6.138-1.318,6.138-2.5S542.495,644.743,538.878,644.743Z" transform="translate(-2075.355 -3922.243)" fill="#4d4d4d"/>
    <path id="Trazado_10477" data-name="Trazado 10477" d="M581.848,644.7v23.087c0,1.675,3.416,3.033,7.63,3.033s7.631-1.358,7.631-3.033V644.7Z" transform="translate(-2167.355 -3873.243)" fill="#dfdedc" stroke="#4d4d4d" stroke-miterlimit="10" stroke-width="2"/>
    <ellipse id="Elipse_632" data-name="Elipse 632" cx="7.63" cy="3.033" rx="7.63" ry="3.033" transform="translate(-1585.507 -3231.577)" fill="#dfdedc" stroke="#4d4d4d" stroke-miterlimit="10" stroke-width="2"/>
    <path id="Trazado_10478" data-name="Trazado 10478" d="M605.587,644.7v23.087c0,1.675,3.416,3.033,7.63,3.033s7.631-1.358,7.631-3.033V644.7Z" transform="translate(-2167.355 -3873.243)" fill="#dfdedc" stroke="#4d4d4d" stroke-miterlimit="10" stroke-width="2"/>
    <ellipse id="Elipse_633" data-name="Elipse 633" cx="7.63" cy="3.033" rx="7.63" ry="3.033" transform="translate(-1561.768 -3231.577)" fill="#dfdedc" stroke="#4d4d4d" stroke-miterlimit="10" stroke-width="2"/>
    <rect id="Rectángulo_2718" data-name="Rectángulo 2718" width="144" height="65" transform="translate(-1782 -3277)" fill="#e6eef3"/>
    <path id="Trazado_12662" data-name="Trazado 12662" d="M23.919,4.625a3.664,3.664,0,0,1,1.938.514,3.473,3.473,0,0,1,1.3,1.375,4.036,4.036,0,0,1,.453,1.907,3.755,3.755,0,0,1-1.024,2.694,3.514,3.514,0,0,1-2.667,1.077H20.808V17H19.235V4.625Zm-.229,6.2a2.25,2.25,0,0,0,1.723-.664A2.455,2.455,0,0,0,26.038,8.4a2.463,2.463,0,0,0-.624-1.745,2.234,2.234,0,0,0-1.723-.672H20.808v4.834Zm7.77-.94a2.612,2.612,0,0,1,1.072-1.16,3.229,3.229,0,0,1,1.661-.457V9.7a2.846,2.846,0,0,0-2.008.642,2.68,2.68,0,0,0-.69,2.048V17H29.975V8.36H31.46Zm8.051,7.286a4.554,4.554,0,0,1-2.215-.536,3.9,3.9,0,0,1-1.56-1.569,4.819,4.819,0,0,1-.576-2.386,4.4,4.4,0,0,1,1.226-3.256,4.6,4.6,0,0,1,6.253,0,4.41,4.41,0,0,1,1.222,3.256,4.413,4.413,0,0,1-1.226,3.265A4.232,4.232,0,0,1,39.511,17.167ZM39.5,15.9a2.654,2.654,0,0,0,2.043-.888,3.326,3.326,0,0,0,.813-2.338,3.314,3.314,0,0,0-.813-2.329A2.654,2.654,0,0,0,39.5,9.459a2.617,2.617,0,0,0-2.026.888,3.336,3.336,0,0,0-.8,2.329,3.348,3.348,0,0,0,.8,2.338A2.617,2.617,0,0,0,39.5,15.9ZM49.83,17.158a4.161,4.161,0,0,1-3.094-1.239,4.421,4.421,0,0,1-1.222-3.243,4.43,4.43,0,0,1,1.217-3.243,4.5,4.5,0,0,1,5.6-.483,3.815,3.815,0,0,1,1.455,2.1l-1.424.229a2.63,2.63,0,0,0-.976-1.345,2.656,2.656,0,0,0-1.564-.475,2.554,2.554,0,0,0-2,.888,3.382,3.382,0,0,0-.787,2.329A3.365,3.365,0,0,0,47.821,15a2.56,2.56,0,0,0,2,.883,2.656,2.656,0,0,0,1.564-.475,2.63,2.63,0,0,0,.976-1.345l1.424.237a3.819,3.819,0,0,1-1.463,2.1A4.185,4.185,0,0,1,49.83,17.158Zm13.755-4.649-.018.413h-6.75a3.053,3.053,0,0,0,.826,2.21,2.713,2.713,0,0,0,1.969.769,2.59,2.59,0,0,0,1.433-.413,2.68,2.68,0,0,0,.984-1.143l1.371.29a3.9,3.9,0,0,1-1.477,1.854,4.028,4.028,0,0,1-2.294.677,4.174,4.174,0,0,1-3.111-1.2,4.479,4.479,0,0,1-1.187-3.287A4.458,4.458,0,0,1,56.522,9.4a4.122,4.122,0,0,1,3.063-1.2A3.9,3.9,0,0,1,62.49,9.3,4.376,4.376,0,0,1,63.584,12.509Zm-4-3.146a2.694,2.694,0,0,0-1.8.611,2.8,2.8,0,0,0-.91,1.78h5.177a2.567,2.567,0,0,0-.756-1.78A2.441,2.441,0,0,0,59.585,9.362Zm9.114,7.8a4.1,4.1,0,0,1-2.329-.624,2.581,2.581,0,0,1-1.134-1.775l1.327-.378a1.851,1.851,0,0,0,.708,1.2,2.3,2.3,0,0,0,1.419.426,2.832,2.832,0,0,0,.831-.114,1.331,1.331,0,0,0,.637-.426,1.189,1.189,0,0,0,.185-1.143,1.526,1.526,0,0,0-.141-.286.87.87,0,0,0-.246-.237,3.245,3.245,0,0,0-.3-.185,3.067,3.067,0,0,0-.391-.163q-.259-.092-.417-.141t-.483-.141q-.325-.092-.5-.145a9.372,9.372,0,0,1-.9-.316,3.932,3.932,0,0,1-.729-.417,1.679,1.679,0,0,1-.567-.681,2.3,2.3,0,0,1-.189-.967,2.234,2.234,0,0,1,.422-1.38A2.374,2.374,0,0,1,67,8.461a4.374,4.374,0,0,1,1.534-.25,3.754,3.754,0,0,1,2.1.563,2.4,2.4,0,0,1,1.05,1.688l-1.248.316a1.655,1.655,0,0,0-.659-1.094,2.1,2.1,0,0,0-1.239-.365,2.139,2.139,0,0,0-1.16.3,1.019,1.019,0,0,0-.483.927.923.923,0,0,0,.127.479,1.521,1.521,0,0,0,.259.338,1.594,1.594,0,0,0,.475.259q.343.136.51.185t.633.163q.088.026.132.035.51.132.831.233a5.105,5.105,0,0,1,.747.316,2.484,2.484,0,0,1,.672.47,2.178,2.178,0,0,1,.422.668,2.358,2.358,0,0,1,.176.932,2.516,2.516,0,0,1-.259,1.165,2.028,2.028,0,0,1-.708.8,3.422,3.422,0,0,1-1.006.435A4.8,4.8,0,0,1,68.7,17.167Zm9.211,0a4.554,4.554,0,0,1-2.215-.536,3.9,3.9,0,0,1-1.56-1.569,4.819,4.819,0,0,1-.576-2.386,4.4,4.4,0,0,1,1.226-3.256,4.6,4.6,0,0,1,6.253,0,4.41,4.41,0,0,1,1.222,3.256,4.413,4.413,0,0,1-1.226,3.265A4.232,4.232,0,0,1,77.911,17.167ZM77.9,15.9a2.654,2.654,0,0,0,2.043-.888,3.326,3.326,0,0,0,.813-2.338,3.314,3.314,0,0,0-.813-2.329A2.654,2.654,0,0,0,77.9,9.459a2.617,2.617,0,0,0-2.026.888,3.336,3.336,0,0,0-.8,2.329,3.348,3.348,0,0,0,.8,2.338A2.617,2.617,0,0,0,77.9,15.9ZM95.7,3.5H97.22V17H95.752l-.035-1.679a3.179,3.179,0,0,1-1.23,1.362,3.429,3.429,0,0,1-1.828.5,3.926,3.926,0,0,1-2.852-1.217,4.16,4.16,0,0,1-.87-1.428,5.225,5.225,0,0,1-.321-1.854,4.543,4.543,0,0,1,1.173-3.243,3.788,3.788,0,0,1,2.87-1.248,3.443,3.443,0,0,1,1.806.488A3.2,3.2,0,0,1,95.7,10ZM92.975,15.866a2.587,2.587,0,0,0,2.008-.91,3.283,3.283,0,0,0,.813-2.272,3.277,3.277,0,0,0-.817-2.268,2.586,2.586,0,0,0-2-.914,2.644,2.644,0,0,0-2.021.883,3.25,3.25,0,0,0-.817,2.3,3.25,3.25,0,0,0,.817,2.3A2.644,2.644,0,0,0,92.975,15.866Zm14.9-3.357-.018.413H101.1a3.053,3.053,0,0,0,.826,2.21,2.713,2.713,0,0,0,1.969.769,2.59,2.59,0,0,0,1.433-.413,2.68,2.68,0,0,0,.984-1.143l1.371.29a3.9,3.9,0,0,1-1.477,1.854,4.028,4.028,0,0,1-2.294.677,4.174,4.174,0,0,1-3.111-1.2,4.479,4.479,0,0,1-1.187-3.287A4.458,4.458,0,0,1,100.811,9.4a4.122,4.122,0,0,1,3.063-1.2,3.9,3.9,0,0,1,2.9,1.107A4.376,4.376,0,0,1,107.873,12.509Zm-4-3.146a2.694,2.694,0,0,0-1.8.611,2.8,2.8,0,0,0-.91,1.78h5.177a2.567,2.567,0,0,0-.756-1.78A2.441,2.441,0,0,0,103.874,9.362ZM23.317,28.193a2.785,2.785,0,0,1,2.013.734,2.722,2.722,0,0,1,.765,2.061V37H24.574V31.384A1.952,1.952,0,0,0,24.1,29.96a1.616,1.616,0,0,0-1.2-.483,1.706,1.706,0,0,0-1.318.545,2.343,2.343,0,0,0-.5,1.635V37H19.529V31.445a2.042,2.042,0,0,0-.479-1.472,1.629,1.629,0,0,0-1.226-.5,1.69,1.69,0,0,0-1.314.558A2.424,2.424,0,0,0,16,31.709V37H14.484V28.36H16v1.116a2.625,2.625,0,0,1,.989-.949,2.82,2.82,0,0,1,1.375-.334,2.935,2.935,0,0,1,1.477.365,2.271,2.271,0,0,1,.958,1.05,2.689,2.689,0,0,1,1.037-1.05A2.966,2.966,0,0,1,23.317,28.193Zm7.717,8.974a2.94,2.94,0,0,1-1.894-.593A2.13,2.13,0,0,1,28.4,34.8a2.517,2.517,0,0,1,.237-1.129,1.991,1.991,0,0,1,.7-.787,4.218,4.218,0,0,1,1.015-.488,9.384,9.384,0,0,1,1.314-.312l1.4-.229q.765-.141.765-.8a1.51,1.51,0,0,0-.541-1.288,2.2,2.2,0,0,0-1.367-.409,2.243,2.243,0,0,0-1.354.4,1.655,1.655,0,0,0-.642,1.213l-1.371-.29a2.639,2.639,0,0,1,1.081-1.85,4.039,4.039,0,0,1,2.355-.62,4.777,4.777,0,0,1,1.252.154,3.4,3.4,0,0,1,1.046.483,2.168,2.168,0,0,1,.747.932,3.466,3.466,0,0,1,.268,1.419v3.568a1.46,1.46,0,0,0,.2.9.854.854,0,0,0,.681.233h.141V37h-.756a1.442,1.442,0,0,1-1.635-1.169h-.07A3.3,3.3,0,0,1,31.034,37.167Zm.352-1.23A2.305,2.305,0,0,0,33.24,35.1a3.438,3.438,0,0,0,.7-2.285l-2.285.439a3.076,3.076,0,0,0-1.34.479,1.114,1.114,0,0,0-.435.945,1.1,1.1,0,0,0,.417.949A1.785,1.785,0,0,0,31.386,35.937Zm11.162-7.743a3.005,3.005,0,0,1,2.175.782,2.918,2.918,0,0,1,.813,2.206V37H44.016V31.524a2.043,2.043,0,0,0-.527-1.547,1.885,1.885,0,0,0-1.354-.5,2.09,2.09,0,0,0-1.538.593,2.407,2.407,0,0,0-.606,1.762V37H38.47V28.36H39.99v1.107A2.885,2.885,0,0,1,42.548,28.193Zm11.3.167h1.521V37H53.912l-.035-1.143a2.7,2.7,0,0,1-1.072.971,3.3,3.3,0,0,1-1.512.338,3.005,3.005,0,0,1-2.175-.782,2.918,2.918,0,0,1-.813-2.206V28.36h1.521v5.476a2.05,2.05,0,0,0,.532,1.547,1.882,1.882,0,0,0,1.358.51,2.067,2.067,0,0,0,1.534-.6,2.434,2.434,0,0,0,.6-1.767Zm8.578-3.586H62.1q-.1,0-.316.018a2.028,2.028,0,0,0-.316.044q-.1.026-.272.088a.7.7,0,0,0-.259.149q-.088.088-.2.224a.918.918,0,0,0-.171.316,3.025,3.025,0,0,0-.1.422,3.364,3.364,0,0,0-.04.541V28.36h2v1.213h-2V37H58.913V29.573h-1.67V28.36h1.67V26.55a4.969,4.969,0,0,1,.092-1.006,3.264,3.264,0,0,1,.246-.76,1.806,1.806,0,0,1,.409-.549,2.4,2.4,0,0,1,.532-.374,2.639,2.639,0,0,1,.655-.22,6.146,6.146,0,0,1,.743-.11q.365-.031.839-.031Zm3.647,12.393a2.94,2.94,0,0,1-1.894-.593,2.13,2.13,0,0,1-.743-1.771,2.517,2.517,0,0,1,.237-1.129,1.991,1.991,0,0,1,.7-.787A4.218,4.218,0,0,1,65.4,32.4a9.384,9.384,0,0,1,1.314-.312l1.4-.229q.765-.141.765-.8a1.51,1.51,0,0,0-.541-1.288,2.2,2.2,0,0,0-1.367-.409,2.243,2.243,0,0,0-1.354.4,1.655,1.655,0,0,0-.642,1.213l-1.371-.29a2.639,2.639,0,0,1,1.081-1.85,4.039,4.039,0,0,1,2.355-.62,4.777,4.777,0,0,1,1.252.154,3.4,3.4,0,0,1,1.046.483,2.168,2.168,0,0,1,.747.932,3.466,3.466,0,0,1,.268,1.419v3.568a1.46,1.46,0,0,0,.2.9.854.854,0,0,0,.681.233h.141V37h-.756a1.442,1.442,0,0,1-1.635-1.169h-.07A3.3,3.3,0,0,1,66.076,37.167Zm.352-1.23a2.305,2.305,0,0,0,1.854-.835,3.438,3.438,0,0,0,.7-2.285l-2.285.439a3.076,3.076,0,0,0-1.34.479,1.114,1.114,0,0,0-.435.945,1.1,1.1,0,0,0,.417.949A1.785,1.785,0,0,0,66.428,35.937Zm10.494,1.222a4.161,4.161,0,0,1-3.094-1.239,4.421,4.421,0,0,1-1.222-3.243,4.43,4.43,0,0,1,1.217-3.243,4.5,4.5,0,0,1,5.6-.483,3.815,3.815,0,0,1,1.455,2.1l-1.424.229a2.63,2.63,0,0,0-.976-1.345,2.656,2.656,0,0,0-1.564-.475,2.554,2.554,0,0,0-2,.888,3.835,3.835,0,0,0,0,4.654,2.56,2.56,0,0,0,2,.883,2.656,2.656,0,0,0,1.564-.475,2.63,2.63,0,0,0,.976-1.345l1.424.237a3.819,3.819,0,0,1-1.463,2.1A4.185,4.185,0,0,1,76.922,37.158ZM85.878,37a2.271,2.271,0,0,1-1.687-.62,2.344,2.344,0,0,1-.615-1.727v-5.08H81.809V28.36h.65a1.249,1.249,0,0,0,.954-.3,1.492,1.492,0,0,0,.277-1.015V25.478H85.1V28.36h1.986v1.213H85.1V34.5a1.31,1.31,0,0,0,.33.954,1.154,1.154,0,0,0,.866.338h.791V37Zm8.789-8.64h1.521V37H94.729l-.035-1.143a2.7,2.7,0,0,1-1.072.971,3.3,3.3,0,0,1-1.512.338,3.005,3.005,0,0,1-2.175-.782,2.918,2.918,0,0,1-.813-2.206V28.36h1.521v5.476a2.05,2.05,0,0,0,.532,1.547,1.882,1.882,0,0,0,1.358.51,2.067,2.067,0,0,0,1.534-.6,2.434,2.434,0,0,0,.6-1.767Zm6.1,1.521a2.612,2.612,0,0,1,1.072-1.16,3.229,3.229,0,0,1,1.661-.457V29.7a2.846,2.846,0,0,0-2.008.642,2.68,2.68,0,0,0-.69,2.048V37H99.281V28.36h1.485Zm6.407,7.286a2.94,2.94,0,0,1-1.894-.593,2.13,2.13,0,0,1-.743-1.771,2.517,2.517,0,0,1,.237-1.129,1.991,1.991,0,0,1,.7-.787,4.218,4.218,0,0,1,1.015-.488,9.384,9.384,0,0,1,1.314-.312l1.4-.229q.765-.141.765-.8a1.51,1.51,0,0,0-.541-1.288,2.2,2.2,0,0,0-1.367-.409,2.243,2.243,0,0,0-1.354.4,1.655,1.655,0,0,0-.642,1.213l-1.371-.29a2.639,2.639,0,0,1,1.081-1.85,4.039,4.039,0,0,1,2.355-.62,4.777,4.777,0,0,1,1.252.154,3.4,3.4,0,0,1,1.046.483,2.168,2.168,0,0,1,.747.932,3.466,3.466,0,0,1,.268,1.419v3.568a1.46,1.46,0,0,0,.2.9.854.854,0,0,0,.681.233h.141V37h-.756a1.442,1.442,0,0,1-1.635-1.169H110A3.3,3.3,0,0,1,107.174,37.167Zm.352-1.23a2.305,2.305,0,0,0,1.854-.835,3.438,3.438,0,0,0,.7-2.285l-2.285.439a3.076,3.076,0,0,0-1.34.479,1.114,1.114,0,0,0-.435.945,1.1,1.1,0,0,0,.417.949A1.785,1.785,0,0,0,107.525,35.937Z" transform="translate(-1773 -3269)" fill="#00223d"/>
    <path id="Trazado_12658" data-name="Trazado 12658" d="M11.689,14H10.5L9.857,6.057,6.781,14H6.05L2.994,6.084,2.345,14h-1.2L1.88,4.375H3.493l2.919,7.506L9.338,4.375h1.627Zm3.808.13a2.287,2.287,0,0,1-1.473-.461,1.657,1.657,0,0,1-.578-1.377,1.957,1.957,0,0,1,.185-.878,1.549,1.549,0,0,1,.547-.612,3.281,3.281,0,0,1,.79-.379,7.3,7.3,0,0,1,1.022-.243L17.076,10q.595-.109.595-.622a1.174,1.174,0,0,0-.42-1,1.713,1.713,0,0,0-1.063-.318,1.745,1.745,0,0,0-1.053.308,1.287,1.287,0,0,0-.5.943l-1.066-.226a2.052,2.052,0,0,1,.841-1.439,3.141,3.141,0,0,1,1.832-.482,3.716,3.716,0,0,1,.974.12,2.647,2.647,0,0,1,.813.376,1.686,1.686,0,0,1,.581.725,2.7,2.7,0,0,1,.208,1.1v2.775a1.136,1.136,0,0,0,.154.7.664.664,0,0,0,.53.181h.109V14h-.588a1.121,1.121,0,0,1-1.271-.909H17.7A2.568,2.568,0,0,1,15.5,14.13Zm.273-.957a1.793,1.793,0,0,0,1.442-.649,2.674,2.674,0,0,0,.547-1.777l-1.777.342a2.392,2.392,0,0,0-1.042.373.867.867,0,0,0-.338.735.857.857,0,0,0,.325.738A1.388,1.388,0,0,0,15.771,13.173ZM26.134,7.28h1.142v10.1H26.093V12.749a2.455,2.455,0,0,1-.957,1.015,2.671,2.671,0,0,1-1.395.379A2.949,2.949,0,0,1,21.5,13.18a3.553,3.553,0,0,1-.906-2.536,4.084,4.084,0,0,1,.25-1.449,3.2,3.2,0,0,1,.677-1.107,3.062,3.062,0,0,1,2.218-.937,2.678,2.678,0,0,1,1.408.383,2.457,2.457,0,0,1,.957,1.032Zm-2.167,5.838a2.037,2.037,0,0,0,1.579-.708,2.546,2.546,0,0,0,.636-1.767,2.528,2.528,0,0,0-.639-1.76,2.117,2.117,0,0,0-3.131-.031,2.518,2.518,0,0,0-.632,1.791,2.527,2.527,0,0,0,.632,1.8A2.045,2.045,0,0,0,23.967,13.118ZM33.872,7.28h1.183V14H33.92l-.027-.889a2.1,2.1,0,0,1-.834.755,2.565,2.565,0,0,1-1.176.263,2.337,2.337,0,0,1-1.692-.608,2.269,2.269,0,0,1-.632-1.716V7.28h1.183v4.259a1.6,1.6,0,0,0,.414,1.2,1.464,1.464,0,0,0,1.056.4,1.608,1.608,0,0,0,1.193-.465,1.893,1.893,0,0,0,.468-1.374ZM38.063,5.7a.805.805,0,0,1-.8-.8.758.758,0,0,1,.236-.561.775.775,0,0,1,.564-.232.767.767,0,0,1,.557.232.758.758,0,0,1,.236.561.77.77,0,0,1-.236.564A.762.762,0,0,1,38.063,5.7Zm-.6,8.3V7.28H38.65V14Zm6.768-6.85a2.337,2.337,0,0,1,1.692.608,2.269,2.269,0,0,1,.632,1.716V14H45.37V9.741a1.589,1.589,0,0,0-.41-1.2,1.466,1.466,0,0,0-1.053-.39,1.626,1.626,0,0,0-1.2.461,1.872,1.872,0,0,0-.472,1.371V14H41.057V7.28h1.183v.861A2.244,2.244,0,0,1,44.229,7.15Zm6.159,6.979a2.287,2.287,0,0,1-1.473-.461,1.657,1.657,0,0,1-.578-1.377,1.957,1.957,0,0,1,.185-.878,1.549,1.549,0,0,1,.547-.612,3.281,3.281,0,0,1,.79-.379,7.3,7.3,0,0,1,1.022-.243L51.967,10q.595-.109.595-.622a1.174,1.174,0,0,0-.42-1,1.713,1.713,0,0,0-1.063-.318,1.745,1.745,0,0,0-1.053.308,1.287,1.287,0,0,0-.5.943L48.46,9.085A2.052,2.052,0,0,1,49.3,7.646a3.141,3.141,0,0,1,1.832-.482,3.716,3.716,0,0,1,.974.12,2.647,2.647,0,0,1,.813.376,1.686,1.686,0,0,1,.581.725,2.7,2.7,0,0,1,.208,1.1v2.775a1.136,1.136,0,0,0,.154.7.664.664,0,0,0,.53.181H54.5V14h-.588a1.121,1.121,0,0,1-1.271-.909h-.055A2.568,2.568,0,0,1,50.388,14.13Zm.273-.957a1.793,1.793,0,0,0,1.442-.649,2.674,2.674,0,0,0,.547-1.777l-1.777.342a2.392,2.392,0,0,0-1.042.373.867.867,0,0,0-.338.735.857.857,0,0,0,.325.738A1.388,1.388,0,0,0,50.661,13.173Zm6.665-4.71a2.032,2.032,0,0,1,.834-.9,2.512,2.512,0,0,1,1.292-.355V8.319a2.214,2.214,0,0,0-1.562.5,2.084,2.084,0,0,0-.537,1.593V14H56.171V7.28h1.155ZM61.441,5.7a.805.805,0,0,1-.8-.8.758.758,0,0,1,.236-.561.775.775,0,0,1,.564-.232A.767.767,0,0,1,62,4.341a.758.758,0,0,1,.236.561A.77.77,0,0,1,62,5.465.762.762,0,0,1,61.441,5.7Zm-.6,8.3V7.28h1.189V14Zm5.147.13a2.287,2.287,0,0,1-1.473-.461,1.657,1.657,0,0,1-.578-1.377,1.957,1.957,0,0,1,.185-.878,1.549,1.549,0,0,1,.547-.612,3.281,3.281,0,0,1,.79-.379,7.3,7.3,0,0,1,1.022-.243L67.566,10q.595-.109.595-.622a1.174,1.174,0,0,0-.42-1,1.713,1.713,0,0,0-1.063-.318,1.745,1.745,0,0,0-1.053.308,1.287,1.287,0,0,0-.5.943L64.06,9.085A2.052,2.052,0,0,1,64.9,7.646a3.141,3.141,0,0,1,1.832-.482,3.716,3.716,0,0,1,.974.12,2.647,2.647,0,0,1,.813.376,1.686,1.686,0,0,1,.581.725,2.7,2.7,0,0,1,.208,1.1v2.775a1.136,1.136,0,0,0,.154.7.664.664,0,0,0,.53.181H70.1V14h-.588a1.121,1.121,0,0,1-1.271-.909h-.055A2.568,2.568,0,0,1,65.987,14.13Zm.273-.957a1.793,1.793,0,0,0,1.442-.649,2.674,2.674,0,0,0,.547-1.777l-1.777.342a2.392,2.392,0,0,0-1.042.373.867.867,0,0,0-.338.735.857.857,0,0,0,.325.738A1.388,1.388,0,0,0,66.261,13.173Z" transform="matrix(0.602, -0.799, 0.799, 0.602, -1764.303, -3313.264)" fill="#00223d"/>
    <path id="Trazado_12659" data-name="Trazado 12659" d="M7.615,4.375H8.839V14H7.615V9.728H2.741V14H1.511V4.375h1.23V8.627H7.615Zm9.721,6.132-.014.321h-5.25a2.375,2.375,0,0,0,.643,1.719,2.11,2.11,0,0,0,1.531.6,2.015,2.015,0,0,0,1.114-.321,2.085,2.085,0,0,0,.766-.889l1.066.226A3.031,3.031,0,0,1,16.044,13.6a3.133,3.133,0,0,1-1.784.526,3.246,3.246,0,0,1-2.42-.937,3.484,3.484,0,0,1-.923-2.557,3.467,3.467,0,0,1,.926-2.55,3.206,3.206,0,0,1,2.382-.937,3.034,3.034,0,0,1,2.259.861A3.4,3.4,0,0,1,17.336,10.507ZM14.226,8.06a2.1,2.1,0,0,0-1.4.475,2.177,2.177,0,0,0-.708,1.384h4.026a2,2,0,0,0-.588-1.384A1.9,1.9,0,0,0,14.226,8.06Zm6.118.4a2.032,2.032,0,0,1,.834-.9,2.512,2.512,0,0,1,1.292-.355V8.319a2.214,2.214,0,0,0-1.562.5,2.084,2.084,0,0,0-.537,1.593V14H19.188V7.28h1.155Zm4.669,0a2.032,2.032,0,0,1,.834-.9,2.512,2.512,0,0,1,1.292-.355V8.319a2.214,2.214,0,0,0-1.562.5,2.084,2.084,0,0,0-.537,1.593V14H23.857V7.28h1.155ZM30,14.13a2.287,2.287,0,0,1-1.473-.461,1.657,1.657,0,0,1-.578-1.377,1.957,1.957,0,0,1,.185-.878,1.549,1.549,0,0,1,.547-.612,3.281,3.281,0,0,1,.79-.379,7.3,7.3,0,0,1,1.022-.243L31.575,10q.595-.109.595-.622a1.174,1.174,0,0,0-.42-1,1.713,1.713,0,0,0-1.063-.318,1.745,1.745,0,0,0-1.053.308,1.287,1.287,0,0,0-.5.943l-1.066-.226a2.052,2.052,0,0,1,.841-1.439,3.141,3.141,0,0,1,1.832-.482,3.716,3.716,0,0,1,.974.12,2.647,2.647,0,0,1,.813.376,1.686,1.686,0,0,1,.581.725,2.7,2.7,0,0,1,.208,1.1v2.775a1.136,1.136,0,0,0,.154.7.664.664,0,0,0,.53.181h.109V14h-.588a1.121,1.121,0,0,1-1.271-.909H32.2A2.568,2.568,0,0,1,30,14.13Zm.273-.957a1.793,1.793,0,0,0,1.442-.649,2.674,2.674,0,0,0,.547-1.777l-1.777.342a2.392,2.392,0,0,0-1.042.373.867.867,0,0,0-.338.735.857.857,0,0,0,.325.738A1.388,1.388,0,0,0,30.27,13.173ZM42.649,7.15a2.166,2.166,0,0,1,1.565.571,2.117,2.117,0,0,1,.595,1.6V14H43.627V9.632a1.518,1.518,0,0,0-.369-1.107,1.257,1.257,0,0,0-.937-.376,1.327,1.327,0,0,0-1.025.424,1.822,1.822,0,0,0-.39,1.271V14H39.7V9.68a1.589,1.589,0,0,0-.373-1.145,1.267,1.267,0,0,0-.954-.386,1.315,1.315,0,0,0-1.022.434,1.885,1.885,0,0,0-.393,1.3V14H35.779V7.28h1.183v.868a2.041,2.041,0,0,1,.769-.738,2.193,2.193,0,0,1,1.07-.26,2.283,2.283,0,0,1,1.148.284,1.766,1.766,0,0,1,.745.817,2.091,2.091,0,0,1,.807-.817A2.307,2.307,0,0,1,42.649,7.15ZM47.7,5.7a.805.805,0,0,1-.8-.8.758.758,0,0,1,.236-.561.775.775,0,0,1,.564-.232.767.767,0,0,1,.557.232.758.758,0,0,1,.236.561.77.77,0,0,1-.236.564A.762.762,0,0,1,47.7,5.7ZM47.1,14V7.28h1.189V14Zm9.475-3.493-.014.321h-5.25a2.375,2.375,0,0,0,.643,1.719,2.11,2.11,0,0,0,1.531.6,2.015,2.015,0,0,0,1.114-.321,2.085,2.085,0,0,0,.766-.889l1.066.226A3.031,3.031,0,0,1,55.282,13.6a3.133,3.133,0,0,1-1.784.526,3.246,3.246,0,0,1-2.42-.937,3.484,3.484,0,0,1-.923-2.557,3.467,3.467,0,0,1,.926-2.55,3.206,3.206,0,0,1,2.382-.937,3.034,3.034,0,0,1,2.259.861A3.4,3.4,0,0,1,56.574,10.507ZM53.464,8.06a2.1,2.1,0,0,0-1.4.475,2.177,2.177,0,0,0-.708,1.384h4.026A2,2,0,0,0,54.8,8.535,1.9,1.9,0,0,0,53.464,8.06ZM61.6,7.15a2.337,2.337,0,0,1,1.692.608,2.269,2.269,0,0,1,.632,1.716V14H62.74V9.741a1.589,1.589,0,0,0-.41-1.2,1.466,1.466,0,0,0-1.053-.39,1.626,1.626,0,0,0-1.2.461,1.872,1.872,0,0,0-.472,1.371V14H58.427V7.28h1.183v.861A2.244,2.244,0,0,1,61.6,7.15ZM68.353,14a1.766,1.766,0,0,1-1.312-.482,1.823,1.823,0,0,1-.479-1.343V8.224H65.188V7.28h.506a.971.971,0,0,0,.742-.236,1.161,1.161,0,0,0,.215-.79V5.038h1.1V7.28H69.3v.943H67.751v3.828a1.019,1.019,0,0,0,.256.742.9.9,0,0,0,.673.263H69.3V14Zm4.122.13A2.287,2.287,0,0,1,71,13.668a1.657,1.657,0,0,1-.578-1.377,1.957,1.957,0,0,1,.185-.878,1.549,1.549,0,0,1,.547-.612,3.281,3.281,0,0,1,.79-.379,7.3,7.3,0,0,1,1.022-.243L74.054,10q.595-.109.595-.622a1.174,1.174,0,0,0-.42-1,1.713,1.713,0,0,0-1.063-.318,1.745,1.745,0,0,0-1.053.308,1.287,1.287,0,0,0-.5.943l-1.066-.226a2.052,2.052,0,0,1,.841-1.439,3.141,3.141,0,0,1,1.832-.482,3.716,3.716,0,0,1,.974.12,2.647,2.647,0,0,1,.813.376,1.686,1.686,0,0,1,.581.725,2.7,2.7,0,0,1,.208,1.1v2.775a1.136,1.136,0,0,0,.154.7.664.664,0,0,0,.53.181h.109V14H76a1.121,1.121,0,0,1-1.271-.909h-.055A2.568,2.568,0,0,1,72.475,14.13Zm.273-.957a1.793,1.793,0,0,0,1.442-.649,2.674,2.674,0,0,0,.547-1.777l-1.777.342a2.392,2.392,0,0,0-1.042.373.867.867,0,0,0-.338.735.857.857,0,0,0,.325.738A1.388,1.388,0,0,0,72.748,13.173Zm7.636.957a3.186,3.186,0,0,1-1.812-.485,2.007,2.007,0,0,1-.882-1.381l1.032-.294a1.44,1.44,0,0,0,.55.933,1.785,1.785,0,0,0,1.1.332,2.2,2.2,0,0,0,.646-.089,1.036,1.036,0,0,0,.5-.332.925.925,0,0,0,.144-.889,1.187,1.187,0,0,0-.109-.222.677.677,0,0,0-.191-.185,2.523,2.523,0,0,0-.232-.144,2.386,2.386,0,0,0-.3-.126q-.2-.072-.325-.109t-.376-.109l-.39-.113a7.289,7.289,0,0,1-.7-.246,3.058,3.058,0,0,1-.567-.325,1.306,1.306,0,0,1-.441-.53,1.792,1.792,0,0,1-.147-.752,1.738,1.738,0,0,1,.328-1.073,1.846,1.846,0,0,1,.851-.632,3.4,3.4,0,0,1,1.193-.195,2.92,2.92,0,0,1,1.637.438,1.867,1.867,0,0,1,.817,1.313l-.971.246a1.287,1.287,0,0,0-.513-.851,1.632,1.632,0,0,0-.964-.284,1.664,1.664,0,0,0-.9.236.793.793,0,0,0-.376.721.718.718,0,0,0,.1.373,1.183,1.183,0,0,0,.2.263,1.24,1.24,0,0,0,.369.2q.267.106.4.144t.492.126q.068.021.1.027.4.1.646.181a3.971,3.971,0,0,1,.581.246,1.932,1.932,0,0,1,.523.366,1.694,1.694,0,0,1,.328.52,1.834,1.834,0,0,1,.137.725,1.957,1.957,0,0,1-.2.906,1.577,1.577,0,0,1-.55.619,2.661,2.661,0,0,1-.783.338A3.729,3.729,0,0,1,80.384,14.13Z" transform="matrix(0.602, -0.799, 0.799, 0.602, -1734.753, -3312.997)" fill="#00223d"/>
    <path id="Trazado_12660" data-name="Trazado 12660" d="M6.672,5.489H2.762V8.641H6.207v1.1H2.762v3.145h3.91V14H1.511V4.375H6.672ZM11.881,7.15a2.337,2.337,0,0,1,1.692.608,2.269,2.269,0,0,1,.632,1.716V14H13.022V9.741a1.589,1.589,0,0,0-.41-1.2,1.466,1.466,0,0,0-1.053-.39,1.626,1.626,0,0,0-1.2.461A1.872,1.872,0,0,0,9.892,9.98V14H8.709V7.28H9.892v.861A2.244,2.244,0,0,1,11.881,7.15Zm10.486,3.356-.014.321H17.1a2.375,2.375,0,0,0,.643,1.719,2.11,2.11,0,0,0,1.531.6,2.015,2.015,0,0,0,1.114-.321,2.085,2.085,0,0,0,.766-.889l1.066.226A3.031,3.031,0,0,1,21.075,13.6a3.133,3.133,0,0,1-1.784.526,3.246,3.246,0,0,1-2.42-.937,3.484,3.484,0,0,1-.923-2.557,3.467,3.467,0,0,1,.926-2.55,3.206,3.206,0,0,1,2.382-.937,3.034,3.034,0,0,1,2.259.861A3.4,3.4,0,0,1,22.367,10.507ZM19.257,8.06a2.1,2.1,0,0,0-1.4.475,2.177,2.177,0,0,0-.708,1.384h4.026a2,2,0,0,0-.588-1.384A1.9,1.9,0,0,0,19.257,8.06Zm6.118.4a2.032,2.032,0,0,1,.834-.9A2.512,2.512,0,0,1,27.5,7.205V8.319a2.214,2.214,0,0,0-1.562.5,2.084,2.084,0,0,0-.537,1.593V14H24.22V7.28h1.155Zm8.3-1.183h1.148v6.378a3.66,3.66,0,0,1-.868,2.618,3.156,3.156,0,0,1-2.406.916,3.176,3.176,0,0,1-3.261-2.058l.978-.479a2.222,2.222,0,0,0,2.249,1.552,1.929,1.929,0,0,0,1.576-.656,2.793,2.793,0,0,0,.543-1.832V12.476a2.368,2.368,0,0,1-.957.967,2.785,2.785,0,0,1-1.4.366,2.881,2.881,0,0,1-2.174-.947,3.339,3.339,0,0,1-.9-2.389,3.308,3.308,0,0,1,.9-2.382,2.909,2.909,0,0,1,2.184-.94,2.715,2.715,0,0,1,1.408.376,2.42,2.42,0,0,1,.95.991ZM31.541,12.8a2.033,2.033,0,0,0,1.548-.69,2.439,2.439,0,0,0,0-3.288,2.106,2.106,0,0,0-3.1-.021,2.336,2.336,0,0,0-.632,1.668A2.316,2.316,0,0,0,30,12.13,2.049,2.049,0,0,0,31.541,12.8Zm5.838-6.686L39.095,3.89l.629.458L38.192,6.118ZM37.229,14V7.28h1.189V14Zm5.147.13a2.287,2.287,0,0,1-1.473-.461,1.657,1.657,0,0,1-.578-1.377,1.957,1.957,0,0,1,.185-.878,1.549,1.549,0,0,1,.547-.612,3.281,3.281,0,0,1,.79-.379,7.3,7.3,0,0,1,1.022-.243L43.955,10q.595-.109.595-.622a1.174,1.174,0,0,0-.42-1,1.713,1.713,0,0,0-1.063-.318,1.745,1.745,0,0,0-1.053.308,1.287,1.287,0,0,0-.5.943l-1.066-.226a2.052,2.052,0,0,1,.841-1.439,3.141,3.141,0,0,1,1.832-.482,3.716,3.716,0,0,1,.974.12,2.647,2.647,0,0,1,.813.376,1.686,1.686,0,0,1,.581.725,2.7,2.7,0,0,1,.208,1.1v2.775a1.136,1.136,0,0,0,.154.7.664.664,0,0,0,.53.181h.109V14H45.9a1.121,1.121,0,0,1-1.271-.909h-.055A2.568,2.568,0,0,1,42.376,14.13Zm.273-.957a1.793,1.793,0,0,0,1.442-.649,2.674,2.674,0,0,0,.547-1.777l-1.777.342a2.392,2.392,0,0,0-1.042.373.867.867,0,0,0-.338.735.857.857,0,0,0,.325.738A1.388,1.388,0,0,0,42.649,13.173Z" transform="matrix(0.602, -0.799, 0.799, 0.602, -1707.593, -3313.544)" fill="#00223d"/>
    <path id="Trazado_12661" data-name="Trazado 12661" d="M6.542,4.375V5.489H4.074V14H2.857V5.489H.383V4.375Zm1.9,4.088a2.032,2.032,0,0,1,.834-.9,2.512,2.512,0,0,1,1.292-.355V8.319a2.214,2.214,0,0,0-1.562.5,2.084,2.084,0,0,0-.537,1.593V14H7.287V7.28H8.442Zm4.983,5.667a2.287,2.287,0,0,1-1.473-.461,1.657,1.657,0,0,1-.578-1.377,1.957,1.957,0,0,1,.185-.878,1.549,1.549,0,0,1,.547-.612,3.281,3.281,0,0,1,.79-.379,7.3,7.3,0,0,1,1.022-.243L15,10q.595-.109.595-.622a1.174,1.174,0,0,0-.42-1,1.713,1.713,0,0,0-1.063-.318,1.745,1.745,0,0,0-1.053.308,1.287,1.287,0,0,0-.5.943L11.5,9.085a2.052,2.052,0,0,1,.841-1.439,3.141,3.141,0,0,1,1.832-.482,3.716,3.716,0,0,1,.974.12,2.647,2.647,0,0,1,.813.376,1.686,1.686,0,0,1,.581.725,2.7,2.7,0,0,1,.208,1.1v2.775a1.136,1.136,0,0,0,.154.7.664.664,0,0,0,.53.181h.109V14h-.588a1.121,1.121,0,0,1-1.271-.909h-.055A2.568,2.568,0,0,1,13.426,14.13Zm.273-.957a1.793,1.793,0,0,0,1.442-.649,2.674,2.674,0,0,0,.547-1.777l-1.777.342a2.392,2.392,0,0,0-1.042.373.867.867,0,0,0-.338.735.857.857,0,0,0,.325.738A1.388,1.388,0,0,0,13.7,13.173ZM22.771,7.15a2.928,2.928,0,0,1,2.222.971,3.541,3.541,0,0,1,.909,2.522,3.567,3.567,0,0,1-.9,2.529,2.922,2.922,0,0,1-2.229.971,2.7,2.7,0,0,1-1.432-.39,2.466,2.466,0,0,1-.96-1.06L20.351,14H19.209V3.5h1.176l.007,5.065a2.477,2.477,0,0,1,.96-1.036A2.7,2.7,0,0,1,22.771,7.15Zm-.26,5.968a2.056,2.056,0,0,0,1.572-.687,2.528,2.528,0,0,0,.636-1.788,2.528,2.528,0,0,0-.636-1.788,2.056,2.056,0,0,0-1.572-.687,2.011,2.011,0,0,0-1.559.711,2.549,2.549,0,0,0-.636,1.764,2.554,2.554,0,0,0,.632,1.767A2.012,2.012,0,0,0,22.511,13.118Zm6.8,1.012a2.287,2.287,0,0,1-1.473-.461,1.657,1.657,0,0,1-.578-1.377,1.957,1.957,0,0,1,.185-.878,1.549,1.549,0,0,1,.547-.612,3.281,3.281,0,0,1,.79-.379,7.3,7.3,0,0,1,1.022-.243L30.892,10q.595-.109.595-.622a1.174,1.174,0,0,0-.42-1A1.713,1.713,0,0,0,30,8.06a1.745,1.745,0,0,0-1.053.308,1.287,1.287,0,0,0-.5.943l-1.066-.226a2.052,2.052,0,0,1,.841-1.439,3.141,3.141,0,0,1,1.832-.482,3.716,3.716,0,0,1,.974.12,2.647,2.647,0,0,1,.813.376,1.686,1.686,0,0,1,.581.725,2.7,2.7,0,0,1,.208,1.1v2.775a1.136,1.136,0,0,0,.154.7.664.664,0,0,0,.53.181h.109V14H32.84a1.121,1.121,0,0,1-1.271-.909h-.055A2.568,2.568,0,0,1,29.313,14.13Zm.273-.957a1.793,1.793,0,0,0,1.442-.649,2.674,2.674,0,0,0,.547-1.777l-1.777.342a2.392,2.392,0,0,0-1.042.373.867.867,0,0,0-.338.735.857.857,0,0,0,.325.738A1.388,1.388,0,0,0,29.586,13.173ZM35.7,5.7a.805.805,0,0,1-.8-.8.758.758,0,0,1,.236-.561.775.775,0,0,1,.564-.232.767.767,0,0,1,.557.232A.758.758,0,0,1,36.5,4.9a.77.77,0,0,1-.236.564A.762.762,0,0,1,35.7,5.7ZM33.551,17.145v-1a1.923,1.923,0,0,0,.964-.191,1.048,1.048,0,0,0,.451-.656A5.526,5.526,0,0,0,35.1,13.9V7.28h1.2V13.9a3.908,3.908,0,0,1-.622,2.509A2.654,2.654,0,0,1,33.551,17.145Zm7.984-3.015a3.542,3.542,0,0,1-1.723-.417,3.036,3.036,0,0,1-1.213-1.22,3.748,3.748,0,0,1-.448-1.856A3.423,3.423,0,0,1,39.1,8.1a3.578,3.578,0,0,1,4.864,0,3.43,3.43,0,0,1,.95,2.533,3.432,3.432,0,0,1-.954,2.54A3.292,3.292,0,0,1,41.535,14.13Zm-.007-.984a2.064,2.064,0,0,0,1.589-.69,2.587,2.587,0,0,0,.632-1.818,2.577,2.577,0,0,0-.632-1.812,2.064,2.064,0,0,0-1.589-.69,2.035,2.035,0,0,0-1.576.69,2.594,2.594,0,0,0-.625,1.812,2.6,2.6,0,0,0,.625,1.818A2.035,2.035,0,0,0,41.528,13.146Z" transform="matrix(0.602, -0.799, 0.799, 0.602, -1680.433, -3311.092)" fill="#00223d"/>
    <path id="Trazado_12663" data-name="Trazado 12663" d="M12.168,5a3.257,3.257,0,0,1,1.723.457A3.087,3.087,0,0,1,15.047,6.68a3.588,3.588,0,0,1,.4,1.7,3.338,3.338,0,0,1-.91,2.395,3.123,3.123,0,0,1-2.371.957H9.4V16H8V5Zm-.2,5.508a2,2,0,0,0,1.531-.59,2.183,2.183,0,0,0,.555-1.559A2.189,2.189,0,0,0,13.5,6.809a1.986,1.986,0,0,0-1.531-.6H9.4v4.3Zm6.273-3.992a.92.92,0,0,1-.914-.914.867.867,0,0,1,.27-.641.886.886,0,0,1,.645-.266.877.877,0,0,1,.637.266.867.867,0,0,1,.27.641.88.88,0,0,1-.27.645A.871.871,0,0,1,18.238,6.516ZM17.551,16V8.32H18.91V16Zm10.828-3.992-.016.367h-6A2.714,2.714,0,0,0,23.1,14.34a2.411,2.411,0,0,0,1.75.684,2.3,2.3,0,0,0,1.273-.367A2.383,2.383,0,0,0,27,13.641l1.219.258A3.464,3.464,0,0,1,26.9,15.547a3.581,3.581,0,0,1-2.039.6,3.71,3.71,0,0,1-2.766-1.07,3.982,3.982,0,0,1-1.055-2.922A3.962,3.962,0,0,1,22.1,9.242a3.664,3.664,0,0,1,2.723-1.07,3.467,3.467,0,0,1,2.582.984A3.889,3.889,0,0,1,28.379,12.008Zm-3.555-2.8a2.4,2.4,0,0,0-1.6.543,2.488,2.488,0,0,0-.809,1.582h4.6a2.282,2.282,0,0,0-.672-1.582A2.17,2.17,0,0,0,24.824,9.211Zm6.508,5.7h4.094V16H29.3l4.047-6.578H29.535V8.32h5.883ZM38.8,16.148a2.613,2.613,0,0,1-1.684-.527,1.894,1.894,0,0,1-.66-1.574,2.237,2.237,0,0,1,.211-1,1.77,1.77,0,0,1,.625-.7,3.749,3.749,0,0,1,.9-.434,8.341,8.341,0,0,1,1.168-.277l1.242-.2q.68-.125.68-.711a1.342,1.342,0,0,0-.48-1.145,1.958,1.958,0,0,0-1.215-.363,1.994,1.994,0,0,0-1.2.352,1.471,1.471,0,0,0-.57,1.078L36.6,10.383a2.346,2.346,0,0,1,.961-1.645,3.59,3.59,0,0,1,2.094-.551,4.247,4.247,0,0,1,1.113.137,3.025,3.025,0,0,1,.93.43,1.927,1.927,0,0,1,.664.828,3.081,3.081,0,0,1,.238,1.262v3.172a1.3,1.3,0,0,0,.176.8.759.759,0,0,0,.605.207H43.5V16h-.672a1.281,1.281,0,0,1-1.453-1.039h-.062A2.935,2.935,0,0,1,38.8,16.148Zm.313-1.094a2.049,2.049,0,0,0,1.648-.742,3.056,3.056,0,0,0,.625-2.031l-2.031.391a2.734,2.734,0,0,0-1.191.426.99.99,0,0,0-.387.84.979.979,0,0,0,.371.844A1.586,1.586,0,0,0,39.113,15.055ZM53.621,8.172a3.493,3.493,0,0,1,1.391.281,3.421,3.421,0,0,1,1.141.789,3.688,3.688,0,0,1,.77,1.266,4.667,4.667,0,0,1,.285,1.656,4.061,4.061,0,0,1-1.035,2.9,3.362,3.362,0,0,1-2.551,1.1,3.04,3.04,0,0,1-1.605-.437,2.867,2.867,0,0,1-1.1-1.18v5.32H49.566V8.32h1.3L50.9,9.813A2.811,2.811,0,0,1,52,8.613,3.068,3.068,0,0,1,53.621,8.172Zm-.266,6.82a2.332,2.332,0,0,0,1.777-.777,2.892,2.892,0,0,0,.723-2.051,2.877,2.877,0,0,0-.723-2.047,2.423,2.423,0,0,0-3.582.035,2.88,2.88,0,0,0-.734,2.012,2.891,2.891,0,0,0,.734,2.02A2.343,2.343,0,0,0,53.355,14.992Zm7.3-5.32a2.322,2.322,0,0,1,.953-1.031,2.87,2.87,0,0,1,1.477-.406V9.508a2.53,2.53,0,0,0-1.785.57,2.382,2.382,0,0,0-.613,1.82V16H59.34V8.32h1.32Zm7.156,6.477a4.048,4.048,0,0,1-1.969-.477,3.47,3.47,0,0,1-1.387-1.395,4.283,4.283,0,0,1-.512-2.121,3.912,3.912,0,0,1,1.09-2.895,4.089,4.089,0,0,1,5.559,0,3.92,3.92,0,0,1,1.086,2.895,3.923,3.923,0,0,1-1.09,2.9A3.762,3.762,0,0,1,67.816,16.148Zm-.008-1.125a2.359,2.359,0,0,0,1.816-.789,2.957,2.957,0,0,0,.723-2.078,2.945,2.945,0,0,0-.723-2.07A2.359,2.359,0,0,0,67.809,9.3a2.326,2.326,0,0,0-1.8.789,2.965,2.965,0,0,0-.715,2.07,2.976,2.976,0,0,0,.715,2.078A2.326,2.326,0,0,0,67.809,15.023Zm9.18,1.117a3.7,3.7,0,0,1-2.75-1.1,3.929,3.929,0,0,1-1.086-2.883,3.937,3.937,0,0,1,1.082-2.883,4,4,0,0,1,4.977-.43A3.391,3.391,0,0,1,80.5,10.711l-1.266.2a2.337,2.337,0,0,0-.867-1.2A2.361,2.361,0,0,0,76.98,9.3a2.27,2.27,0,0,0-1.777.789,3.006,3.006,0,0,0-.7,2.07,2.991,2.991,0,0,0,.7,2.066,2.275,2.275,0,0,0,1.777.785,2.361,2.361,0,0,0,1.391-.422,2.337,2.337,0,0,0,.867-1.2L80.5,13.6a3.4,3.4,0,0,1-1.3,1.863A3.72,3.72,0,0,1,76.988,16.141Zm12.227-4.133-.016.367h-6a2.714,2.714,0,0,0,.734,1.965,2.411,2.411,0,0,0,1.75.684,2.3,2.3,0,0,0,1.273-.367,2.383,2.383,0,0,0,.875-1.016l1.219.258a3.464,3.464,0,0,1-1.312,1.648,3.581,3.581,0,0,1-2.039.6,3.71,3.71,0,0,1-2.766-1.07,3.982,3.982,0,0,1-1.055-2.922,3.962,3.962,0,0,1,1.059-2.914,3.664,3.664,0,0,1,2.723-1.07,3.467,3.467,0,0,1,2.582.984A3.889,3.889,0,0,1,89.215,12.008Zm-3.555-2.8a2.4,2.4,0,0,0-1.6.543,2.488,2.488,0,0,0-.809,1.582h4.6a2.282,2.282,0,0,0-.672-1.582A2.17,2.17,0,0,0,85.66,9.211Zm8.1,6.938a3.641,3.641,0,0,1-2.07-.555,2.294,2.294,0,0,1-1.008-1.578l1.18-.336a1.645,1.645,0,0,0,.629,1.066,2.04,2.04,0,0,0,1.262.379,2.518,2.518,0,0,0,.738-.1,1.184,1.184,0,0,0,.566-.379,1.057,1.057,0,0,0,.164-1.016,1.357,1.357,0,0,0-.125-.254.774.774,0,0,0-.219-.211A2.885,2.885,0,0,0,94.613,13a2.726,2.726,0,0,0-.348-.145q-.23-.082-.371-.125t-.43-.125q-.289-.082-.445-.129a8.331,8.331,0,0,1-.8-.281,3.5,3.5,0,0,1-.648-.371,1.493,1.493,0,0,1-.5-.605,2.049,2.049,0,0,1-.168-.859,1.986,1.986,0,0,1,.375-1.227,2.11,2.11,0,0,1,.973-.723,3.888,3.888,0,0,1,1.363-.223,3.337,3.337,0,0,1,1.871.5,2.134,2.134,0,0,1,.934,1.5l-1.109.281a1.471,1.471,0,0,0-.586-.973,1.865,1.865,0,0,0-1.1-.324,1.9,1.9,0,0,0-1.031.27.906.906,0,0,0-.43.824.82.82,0,0,0,.113.426,1.352,1.352,0,0,0,.23.3,1.417,1.417,0,0,0,.422.23q.3.121.453.164t.563.145q.078.023.117.031.453.117.738.207a4.538,4.538,0,0,1,.664.281,2.208,2.208,0,0,1,.6.418,1.936,1.936,0,0,1,.375.594,2.1,2.1,0,0,1,.156.828,2.237,2.237,0,0,1-.23,1.035,1.8,1.8,0,0,1-.629.707,3.042,3.042,0,0,1-.895.387A4.262,4.262,0,0,1,93.762,16.148Zm6.727,0a2.613,2.613,0,0,1-1.684-.527,1.894,1.894,0,0,1-.66-1.574,2.237,2.237,0,0,1,.211-1,1.77,1.77,0,0,1,.625-.7,3.749,3.749,0,0,1,.9-.434,8.341,8.341,0,0,1,1.168-.277l1.242-.2q.68-.125.68-.711a1.342,1.342,0,0,0-.48-1.145,1.958,1.958,0,0,0-1.215-.363,1.994,1.994,0,0,0-1.2.352,1.471,1.471,0,0,0-.57,1.078l-1.219-.258a2.346,2.346,0,0,1,.961-1.645,3.59,3.59,0,0,1,2.094-.551,4.247,4.247,0,0,1,1.113.137,3.025,3.025,0,0,1,.93.43,1.927,1.927,0,0,1,.664.828,3.081,3.081,0,0,1,.238,1.262v3.172a1.3,1.3,0,0,0,.176.8.759.759,0,0,0,.605.207h.125V16h-.672a1.281,1.281,0,0,1-1.453-1.039H103A2.935,2.935,0,0,1,100.488,16.148Zm.313-1.094a2.049,2.049,0,0,0,1.648-.742,3.056,3.056,0,0,0,.625-2.031l-2.031.391a2.734,2.734,0,0,0-1.191.426.99.99,0,0,0-.387.84.979.979,0,0,0,.371.844A1.586,1.586,0,0,0,100.8,15.055ZM112.613,4h1.352V16h-1.3l-.031-1.492a2.826,2.826,0,0,1-1.094,1.211,3.048,3.048,0,0,1-1.625.445,3.49,3.49,0,0,1-2.535-1.082,3.7,3.7,0,0,1-.773-1.27,4.644,4.644,0,0,1-.285-1.648,4.038,4.038,0,0,1,1.043-2.883,3.367,3.367,0,0,1,2.551-1.109,3.061,3.061,0,0,1,1.605.434,2.842,2.842,0,0,1,1.1,1.176Zm-2.422,10.992a2.3,2.3,0,0,0,1.785-.809,2.919,2.919,0,0,0,.723-2.02,2.913,2.913,0,0,0-.727-2.016,2.3,2.3,0,0,0-1.781-.812,2.35,2.35,0,0,0-1.8.785,2.889,2.889,0,0,0-.727,2.043,2.889,2.889,0,0,0,.727,2.043A2.35,2.35,0,0,0,110.191,14.992Zm8.3,1.156a2.613,2.613,0,0,1-1.684-.527,1.894,1.894,0,0,1-.66-1.574,2.237,2.237,0,0,1,.211-1,1.77,1.77,0,0,1,.625-.7,3.749,3.749,0,0,1,.9-.434,8.341,8.341,0,0,1,1.168-.277l1.242-.2q.68-.125.68-.711a1.342,1.342,0,0,0-.48-1.145,1.958,1.958,0,0,0-1.215-.363,1.994,1.994,0,0,0-1.2.352,1.471,1.471,0,0,0-.57,1.078l-1.219-.258a2.346,2.346,0,0,1,.961-1.645,3.59,3.59,0,0,1,2.094-.551,4.247,4.247,0,0,1,1.113.137,3.025,3.025,0,0,1,.93.43,1.927,1.927,0,0,1,.664.828,3.081,3.081,0,0,1,.238,1.262v3.172a1.3,1.3,0,0,0,.176.8.759.759,0,0,0,.605.207h.125V16h-.672a1.281,1.281,0,0,1-1.453-1.039H121A2.935,2.935,0,0,1,118.488,16.148Zm.313-1.094a2.049,2.049,0,0,0,1.648-.742,3.056,3.056,0,0,0,.625-2.031l-2.031.391a2.734,2.734,0,0,0-1.191.426.99.99,0,0,0-.387.84.979.979,0,0,0,.371.844A1.586,1.586,0,0,0,118.8,15.055Z" transform="translate(-1496 -3277)" fill="#00223d"/>
    <path id="Trazado_12664" data-name="Trazado 12664" d="M9.676,16.148A5.021,5.021,0,0,1,6.8,15.371a3.291,3.291,0,0,1-1.434-2.137L6.785,12.9a2.319,2.319,0,0,0,.992,1.5,3.355,3.355,0,0,0,1.945.547,4.058,4.058,0,0,0,.727-.062,2.779,2.779,0,0,0,.66-.207,2.021,2.021,0,0,0,.543-.355,1.484,1.484,0,0,0,.359-.539,1.845,1.845,0,0,0,.125-.734,1.588,1.588,0,0,0-.1-.52,1.649,1.649,0,0,0-.219-.41,1.473,1.473,0,0,0-.371-.332A4.973,4.973,0,0,0,11,11.52a4.025,4.025,0,0,0-.551-.223q-.348-.117-.582-.184l-.633-.176q-.078-.023-.117-.031-.453-.117-.738-.2T7.7,10.465a4.5,4.5,0,0,1-.652-.3,4.416,4.416,0,0,1-.535-.375A1.921,1.921,0,0,1,6.07,9.3,2.577,2.577,0,0,1,5.8,8.68,2.764,2.764,0,0,1,5.7,7.9a2.79,2.79,0,0,1,.512-1.687A2.994,2.994,0,0,1,7.531,5.18a4.793,4.793,0,0,1,1.816-.328,4.973,4.973,0,0,1,2.645.676,3.011,3.011,0,0,1,1.4,2l-1.359.344a2.069,2.069,0,0,0-.914-1.352A3.132,3.132,0,0,0,9.4,6.063a3.4,3.4,0,0,0-.844.1,2.507,2.507,0,0,0-.73.313,1.517,1.517,0,0,0-.527.574,1.746,1.746,0,0,0-.2.84,1.35,1.35,0,0,0,.078.465,1.427,1.427,0,0,0,.2.371,1.391,1.391,0,0,0,.336.3,3.412,3.412,0,0,0,.41.242,4.157,4.157,0,0,0,.512.2q.32.105.547.172t.6.16a12.727,12.727,0,0,1,2.117.7,2.679,2.679,0,0,1,1.633,2.023,3.488,3.488,0,0,1,.031.477,3.074,3.074,0,0,1-.316,1.422,2.565,2.565,0,0,1-.867.984,4.146,4.146,0,0,1-1.234.551A5.661,5.661,0,0,1,9.676,16.148Zm9.414,0a4.048,4.048,0,0,1-1.969-.477,3.47,3.47,0,0,1-1.387-1.395,4.283,4.283,0,0,1-.512-2.121,3.912,3.912,0,0,1,1.09-2.895,3.762,3.762,0,0,1,2.777-1.09,3.759,3.759,0,0,1,2.781,1.09,3.92,3.92,0,0,1,1.086,2.895,3.923,3.923,0,0,1-1.09,2.9A3.762,3.762,0,0,1,19.09,16.148Zm-.008-1.125a2.359,2.359,0,0,0,1.816-.789,2.957,2.957,0,0,0,.723-2.078,2.945,2.945,0,0,0-.723-2.07A2.359,2.359,0,0,0,19.082,9.3a2.326,2.326,0,0,0-1.8.789,2.965,2.965,0,0,0-.715,2.07,2.976,2.976,0,0,0,.715,2.078A2.326,2.326,0,0,0,19.082,15.023ZM29.145,8.172a3.346,3.346,0,0,1,2.539,1.109,4.047,4.047,0,0,1,1.039,2.883,4.076,4.076,0,0,1-1.031,2.891,3.339,3.339,0,0,1-2.547,1.109,3.082,3.082,0,0,1-1.637-.445,2.818,2.818,0,0,1-1.1-1.211L26.379,16h-1.3V4h1.344l.008,5.789a2.83,2.83,0,0,1,1.1-1.184A3.09,3.09,0,0,1,29.145,8.172Zm-.3,6.82a2.35,2.35,0,0,0,1.8-.785,2.889,2.889,0,0,0,.727-2.043,2.889,2.889,0,0,0-.727-2.043,2.35,2.35,0,0,0-1.8-.785,2.3,2.3,0,0,0-1.781.813,2.913,2.913,0,0,0-.727,2.016,2.919,2.919,0,0,0,.723,2.02A2.3,2.3,0,0,0,28.848,14.992Zm7.32-5.32a2.322,2.322,0,0,1,.953-1.031A2.87,2.87,0,0,1,38.6,8.234V9.508a2.53,2.53,0,0,0-1.785.57A2.382,2.382,0,0,0,36.2,11.9V16H34.848V8.32h1.32Zm5.7,6.477a2.613,2.613,0,0,1-1.684-.527,1.894,1.894,0,0,1-.66-1.574,2.237,2.237,0,0,1,.211-1,1.77,1.77,0,0,1,.625-.7,3.749,3.749,0,0,1,.9-.434,8.341,8.341,0,0,1,1.168-.277l1.242-.2q.68-.125.68-.711a1.342,1.342,0,0,0-.48-1.145,1.958,1.958,0,0,0-1.215-.363,1.994,1.994,0,0,0-1.2.352,1.471,1.471,0,0,0-.57,1.078l-1.219-.258a2.346,2.346,0,0,1,.961-1.645,3.59,3.59,0,0,1,2.094-.551,4.247,4.247,0,0,1,1.113.137,3.025,3.025,0,0,1,.93.43,1.927,1.927,0,0,1,.664.828,3.081,3.081,0,0,1,.238,1.262v3.172a1.3,1.3,0,0,0,.176.8.759.759,0,0,0,.605.207h.125V16h-.672a1.281,1.281,0,0,1-1.453-1.039h-.062A2.935,2.935,0,0,1,41.863,16.148Zm.313-1.094a2.049,2.049,0,0,0,1.648-.742,3.056,3.056,0,0,0,.625-2.031l-2.031.391a2.734,2.734,0,0,0-1.191.426.99.99,0,0,0-.387.84.979.979,0,0,0,.371.844A1.586,1.586,0,0,0,42.176,15.055ZM52.1,8.172a2.671,2.671,0,0,1,1.934.7,2.594,2.594,0,0,1,.723,1.961V16H53.4V11.133a1.816,1.816,0,0,0-.469-1.375,1.676,1.676,0,0,0-1.2-.445,1.858,1.858,0,0,0-1.367.527,2.14,2.14,0,0,0-.539,1.566V16H48.473V8.32h1.352V9.3A2.565,2.565,0,0,1,52.1,8.172ZM59.816,16a2.019,2.019,0,0,1-1.5-.551,2.084,2.084,0,0,1-.547-1.535V9.4H56.2V8.32h.578a1.11,1.11,0,0,0,.848-.27,1.326,1.326,0,0,0,.246-.9V5.758h1.258V8.32h1.766V9.4H59.129v4.375a1.164,1.164,0,0,0,.293.848,1.026,1.026,0,0,0,.77.3h.7V16Zm9.656-3.992-.016.367h-6a2.714,2.714,0,0,0,.734,1.965,2.411,2.411,0,0,0,1.75.684,2.3,2.3,0,0,0,1.273-.367,2.383,2.383,0,0,0,.875-1.016l1.219.258A3.464,3.464,0,0,1,68,15.547a3.581,3.581,0,0,1-2.039.6,3.71,3.71,0,0,1-2.766-1.07,3.982,3.982,0,0,1-1.055-2.922A3.962,3.962,0,0,1,63.2,9.242a3.664,3.664,0,0,1,2.723-1.07,3.467,3.467,0,0,1,2.582.984A3.889,3.889,0,0,1,69.473,12.008Zm-3.555-2.8a2.4,2.4,0,0,0-1.6.543,2.488,2.488,0,0,0-.809,1.582h4.6a2.282,2.282,0,0,0-.672-1.582A2.17,2.17,0,0,0,65.918,9.211ZM80.48,8.32h1.43l-4.445,11.3h-1.4l1.539-3.8L74.621,8.32h1.5L78.285,14.3ZM93.363,4h1.352V16h-1.3l-.031-1.492a2.826,2.826,0,0,1-1.094,1.211,3.048,3.048,0,0,1-1.625.445,3.49,3.49,0,0,1-2.535-1.082,3.7,3.7,0,0,1-.773-1.27,4.644,4.644,0,0,1-.285-1.648,4.038,4.038,0,0,1,1.043-2.883A3.367,3.367,0,0,1,90.66,8.172a3.061,3.061,0,0,1,1.605.434,2.842,2.842,0,0,1,1.1,1.176ZM90.941,14.992a2.3,2.3,0,0,0,1.785-.809,2.919,2.919,0,0,0,.723-2.02,2.913,2.913,0,0,0-.727-2.016,2.3,2.3,0,0,0-1.781-.812,2.35,2.35,0,0,0-1.8.785,2.889,2.889,0,0,0-.727,2.043,2.889,2.889,0,0,0,.727,2.043A2.35,2.35,0,0,0,90.941,14.992Zm13.242-2.984-.016.367h-6A2.714,2.714,0,0,0,98.9,14.34a2.411,2.411,0,0,0,1.75.684,2.3,2.3,0,0,0,1.273-.367,2.383,2.383,0,0,0,.875-1.016l1.219.258a3.464,3.464,0,0,1-1.312,1.648,3.581,3.581,0,0,1-2.039.6,3.71,3.71,0,0,1-2.766-1.07,3.982,3.982,0,0,1-1.055-2.922,3.962,3.962,0,0,1,1.059-2.914,3.664,3.664,0,0,1,2.723-1.07,3.467,3.467,0,0,1,2.582.984A3.889,3.889,0,0,1,104.184,12.008Zm-3.555-2.8a2.4,2.4,0,0,0-1.6.543,2.488,2.488,0,0,0-.809,1.582h4.6a2.282,2.282,0,0,0-.672-1.582A2.17,2.17,0,0,0,100.629,9.211Zm8.1,6.938a3.641,3.641,0,0,1-2.07-.555,2.294,2.294,0,0,1-1.008-1.578l1.18-.336a1.645,1.645,0,0,0,.629,1.066,2.04,2.04,0,0,0,1.262.379,2.518,2.518,0,0,0,.738-.1,1.184,1.184,0,0,0,.566-.379,1.057,1.057,0,0,0,.164-1.016,1.357,1.357,0,0,0-.125-.254.774.774,0,0,0-.219-.211,2.885,2.885,0,0,0-.266-.164,2.726,2.726,0,0,0-.348-.145q-.23-.082-.371-.125t-.43-.125q-.289-.082-.445-.129a8.331,8.331,0,0,1-.8-.281,3.5,3.5,0,0,1-.648-.371,1.493,1.493,0,0,1-.5-.605,2.049,2.049,0,0,1-.168-.859,1.986,1.986,0,0,1,.375-1.227,2.11,2.11,0,0,1,.973-.723,3.888,3.888,0,0,1,1.363-.223,3.337,3.337,0,0,1,1.871.5,2.134,2.134,0,0,1,.934,1.5l-1.109.281a1.471,1.471,0,0,0-.586-.973,1.865,1.865,0,0,0-1.1-.324,1.9,1.9,0,0,0-1.031.27.906.906,0,0,0-.43.824.82.82,0,0,0,.113.426,1.352,1.352,0,0,0,.23.3,1.417,1.417,0,0,0,.422.23q.3.121.453.164t.563.145q.078.023.117.031.453.117.738.207a4.538,4.538,0,0,1,.664.281,2.208,2.208,0,0,1,.6.418,1.936,1.936,0,0,1,.375.594,2.1,2.1,0,0,1,.156.828,2.237,2.237,0,0,1-.23,1.035,1.8,1.8,0,0,1-.629.707,3.042,3.042,0,0,1-.895.387A4.262,4.262,0,0,1,108.73,16.148Zm9.008-7.977a3.493,3.493,0,0,1,1.391.281,3.421,3.421,0,0,1,1.141.789,3.688,3.688,0,0,1,.77,1.266,4.667,4.667,0,0,1,.285,1.656,4.061,4.061,0,0,1-1.035,2.9,3.362,3.362,0,0,1-2.551,1.1,3.04,3.04,0,0,1-1.605-.437,2.867,2.867,0,0,1-1.1-1.18v5.32h-1.352V8.32h1.3l.031,1.492a2.811,2.811,0,0,1,1.094-1.2A3.068,3.068,0,0,1,117.738,8.172Zm-.266,6.82a2.332,2.332,0,0,0,1.777-.777,2.891,2.891,0,0,0,.723-2.051,2.877,2.877,0,0,0-.723-2.047,2.423,2.423,0,0,0-3.582.035,2.88,2.88,0,0,0-.734,2.012,2.891,2.891,0,0,0,.734,2.02A2.343,2.343,0,0,0,117.473,14.992Zm12.7-2.984-.016.367h-6a2.714,2.714,0,0,0,.734,1.965,2.411,2.411,0,0,0,1.75.684,2.3,2.3,0,0,0,1.273-.367,2.383,2.383,0,0,0,.875-1.016l1.219.258a3.464,3.464,0,0,1-1.312,1.648,3.581,3.581,0,0,1-2.039.6,3.71,3.71,0,0,1-2.766-1.07,3.982,3.982,0,0,1-1.055-2.922A3.962,3.962,0,0,1,123.9,9.242a3.664,3.664,0,0,1,2.723-1.07,3.467,3.467,0,0,1,2.582.984A3.889,3.889,0,0,1,130.176,12.008Zm-3.555-2.8a2.4,2.4,0,0,0-1.6.543,2.488,2.488,0,0,0-.809,1.582h4.6a2.282,2.282,0,0,0-.672-1.582A2.17,2.17,0,0,0,126.621,9.211Zm6.992.461a2.322,2.322,0,0,1,.953-1.031,2.87,2.87,0,0,1,1.477-.406V9.508a2.53,2.53,0,0,0-1.785.57,2.382,2.382,0,0,0-.613,1.82V16h-1.352V8.32h1.32ZM143.207,4h1.352V16h-1.3l-.031-1.492a2.826,2.826,0,0,1-1.094,1.211,3.048,3.048,0,0,1-1.625.445,3.49,3.49,0,0,1-2.535-1.082,3.7,3.7,0,0,1-.773-1.27,4.644,4.644,0,0,1-.285-1.648,4.038,4.038,0,0,1,1.043-2.883A3.367,3.367,0,0,1,140.5,8.172a3.061,3.061,0,0,1,1.605.434,2.842,2.842,0,0,1,1.1,1.176Zm-2.422,10.992a2.3,2.3,0,0,0,1.785-.809,2.919,2.919,0,0,0,.723-2.02,2.913,2.913,0,0,0-.727-2.016,2.3,2.3,0,0,0-1.781-.812,2.35,2.35,0,0,0-1.8.785,2.889,2.889,0,0,0-.727,2.043,2.889,2.889,0,0,0,.727,2.043A2.35,2.35,0,0,0,140.785,14.992ZM148,6.516a.92.92,0,0,1-.914-.914.867.867,0,0,1,.27-.641A.886.886,0,0,1,148,4.7a.877.877,0,0,1,.637.266.867.867,0,0,1,.27.641.88.88,0,0,1-.27.645A.871.871,0,0,1,148,6.516ZM147.309,16V8.32h1.359V16Zm7.3.141a3.7,3.7,0,0,1-2.75-1.1,3.929,3.929,0,0,1-1.086-2.883,3.937,3.937,0,0,1,1.082-2.883,4,4,0,0,1,4.977-.43,3.391,3.391,0,0,1,1.293,1.867l-1.266.2a2.337,2.337,0,0,0-.867-1.2A2.361,2.361,0,0,0,154.6,9.3a2.27,2.27,0,0,0-1.777.789,3.006,3.006,0,0,0-.7,2.07,2.991,2.991,0,0,0,.7,2.066,2.275,2.275,0,0,0,1.777.785,2.361,2.361,0,0,0,1.391-.422,2.337,2.337,0,0,0,.867-1.2l1.266.211a3.4,3.4,0,0,1-1.3,1.863A3.72,3.72,0,0,1,154.605,16.141Zm6.2-9.625a.92.92,0,0,1-.914-.914.867.867,0,0,1,.27-.641A.886.886,0,0,1,160.8,4.7a.877.877,0,0,1,.637.266.867.867,0,0,1,.27.641.88.88,0,0,1-.27.645A.871.871,0,0,1,160.8,6.516ZM160.113,16V8.32h1.359V16Zm7.344.148a4.048,4.048,0,0,1-1.969-.477,3.47,3.47,0,0,1-1.387-1.395,4.284,4.284,0,0,1-.512-2.121,3.912,3.912,0,0,1,1.09-2.895,4.089,4.089,0,0,1,5.559,0,3.92,3.92,0,0,1,1.086,2.895,3.923,3.923,0,0,1-1.09,2.9A3.762,3.762,0,0,1,167.457,16.148Zm-.008-1.125a2.359,2.359,0,0,0,1.816-.789,2.957,2.957,0,0,0,.723-2.078,2.945,2.945,0,0,0-.723-2.07,2.359,2.359,0,0,0-1.816-.789,2.326,2.326,0,0,0-1.8.789,2.965,2.965,0,0,0-.715,2.07,2.976,2.976,0,0,0,.715,2.078A2.326,2.326,0,0,0,167.449,15.023Zm8.422,1.125a3.641,3.641,0,0,1-2.07-.555,2.294,2.294,0,0,1-1.008-1.578l1.18-.336a1.645,1.645,0,0,0,.629,1.066,2.04,2.04,0,0,0,1.262.379,2.518,2.518,0,0,0,.738-.1,1.183,1.183,0,0,0,.566-.379,1.057,1.057,0,0,0,.164-1.016,1.356,1.356,0,0,0-.125-.254.774.774,0,0,0-.219-.211,2.884,2.884,0,0,0-.266-.164,2.727,2.727,0,0,0-.348-.145q-.23-.082-.371-.125t-.43-.125q-.289-.082-.445-.129a8.329,8.329,0,0,1-.8-.281,3.5,3.5,0,0,1-.648-.371,1.493,1.493,0,0,1-.5-.605,2.048,2.048,0,0,1-.168-.859,1.986,1.986,0,0,1,.375-1.227,2.11,2.11,0,0,1,.973-.723,3.888,3.888,0,0,1,1.363-.223,3.337,3.337,0,0,1,1.871.5,2.134,2.134,0,0,1,.934,1.5l-1.109.281a1.471,1.471,0,0,0-.586-.973,1.866,1.866,0,0,0-1.1-.324,1.9,1.9,0,0,0-1.031.27.906.906,0,0,0-.43.824.82.82,0,0,0,.113.426,1.352,1.352,0,0,0,.23.3,1.417,1.417,0,0,0,.422.23q.3.121.453.164t.563.145q.078.023.117.031.453.117.738.207a4.538,4.538,0,0,1,.664.281,2.208,2.208,0,0,1,.6.418,1.937,1.937,0,0,1,.375.594,2.1,2.1,0,0,1,.156.828,2.237,2.237,0,0,1-.23,1.035,1.8,1.8,0,0,1-.629.707,3.042,3.042,0,0,1-.895.387A4.262,4.262,0,0,1,175.871,16.148Z" transform="translate(-1536 -3228)" fill="#00223d"/>
    <line id="Línea_75" data-name="Línea 75" x2="22" transform="translate(-1627.5 -3265.5)" fill="none" stroke="#f2bb27" stroke-width="4"/>
    <path id="Polígono_5" data-name="Polígono 5" d="M6.5,0,13,9H0Z" transform="translate(-1596.5 -3272) rotate(90)" fill="#f2bb27"/>
    <line id="Línea_75-2" data-name="Línea 75" x2="22" transform="translate(-1627.5 -3221.5)" fill="none" stroke="#f2bb27" stroke-width="4"/>
    <path id="Polígono_5-2" data-name="Polígono 5" d="M6.5,0,13,9H0Z" transform="translate(-1596.5 -3228) rotate(90)" fill="#f2bb27"/>
    <line id="Línea_75-3" data-name="Línea 75" x2="22" transform="translate(-1825.5 -3245.5)" fill="none" stroke="#f2bb27" stroke-width="4"/>
    <path id="Polígono_5-3" data-name="Polígono 5" d="M6.5,0,13,9H0Z" transform="translate(-1794.5 -3252) rotate(90)" fill="#f2bb27"/>
    <line id="Línea_75-4" data-name="Línea 75" x2="9" transform="translate(-1752 -3300) rotate(90)" fill="none" stroke="#f2bb27" stroke-width="4"/>
    <path id="Polígono_5-4" data-name="Polígono 5" d="M6.5,0,13,9H0Z" transform="translate(-1745.5 -3282) rotate(180)" fill="#f2bb27"/>
    <line id="Línea_75-5" data-name="Línea 75" x2="9" transform="translate(-1725 -3300) rotate(90)" fill="none" stroke="#f2bb27" stroke-width="4"/>
    <path id="Polígono_5-5" data-name="Polígono 5" d="M6.5,0,13,9H0Z" transform="translate(-1718.5 -3282) rotate(180)" fill="#f2bb27"/>
    <line id="Línea_75-6" data-name="Línea 75" x2="9" transform="translate(-1698 -3300) rotate(90)" fill="none" stroke="#f2bb27" stroke-width="4"/>
    <path id="Polígono_5-6" data-name="Polígono 5" d="M6.5,0,13,9H0Z" transform="translate(-1691.5 -3282) rotate(180)" fill="#f2bb27"/>
    <line id="Línea_75-7" data-name="Línea 75" x2="9" transform="translate(-1671 -3300) rotate(90)" fill="none" stroke="#f2bb27" stroke-width="4"/>
    <path id="Polígono_5-7" data-name="Polígono 5" d="M6.5,0,13,9H0Z" transform="translate(-1664.5 -3282) rotate(180)" fill="#f2bb27"/>
    <path id="Trazado_12667" data-name="Trazado 12667" d="M15.146,17H13.617L12.791,6.787,8.836,17H7.9L3.967,6.822,3.132,17H1.594l.94-12.375H4.608l3.753,9.65,3.762-9.65h2.092Zm4.9.167a2.94,2.94,0,0,1-1.894-.593,2.13,2.13,0,0,1-.743-1.771,2.517,2.517,0,0,1,.237-1.129,1.991,1.991,0,0,1,.7-.787,4.218,4.218,0,0,1,1.015-.488,9.384,9.384,0,0,1,1.314-.312l1.4-.229q.765-.141.765-.8A1.51,1.51,0,0,0,22.3,9.771a2.2,2.2,0,0,0-1.367-.409,2.243,2.243,0,0,0-1.354.4,1.655,1.655,0,0,0-.642,1.213l-1.371-.29a2.639,2.639,0,0,1,1.081-1.85A4.039,4.039,0,0,1,21,8.211a4.777,4.777,0,0,1,1.252.154,3.4,3.4,0,0,1,1.046.483,2.168,2.168,0,0,1,.747.932,3.466,3.466,0,0,1,.268,1.419v3.568a1.46,1.46,0,0,0,.2.9.854.854,0,0,0,.681.233h.141V17h-.756a1.442,1.442,0,0,1-1.635-1.169h-.07A3.3,3.3,0,0,1,20.042,17.167Zm.352-1.23a2.305,2.305,0,0,0,1.854-.835,3.438,3.438,0,0,0,.7-2.285l-2.285.439a3.076,3.076,0,0,0-1.34.479,1.114,1.114,0,0,0-.435.945,1.1,1.1,0,0,0,.417.949A1.785,1.785,0,0,0,20.394,15.937ZM30.185,17a2.271,2.271,0,0,1-1.687-.62,2.344,2.344,0,0,1-.615-1.727V9.573H26.115V8.36h.65a1.249,1.249,0,0,0,.954-.3A1.492,1.492,0,0,0,28,7.042V5.478h1.415V8.36H31.4V9.573H29.411V14.5a1.31,1.31,0,0,0,.33.954,1.154,1.154,0,0,0,.866.338H31.4V17Zm10.863-4.491-.018.413H34.28a3.053,3.053,0,0,0,.826,2.21,2.713,2.713,0,0,0,1.969.769,2.59,2.59,0,0,0,1.433-.413,2.68,2.68,0,0,0,.984-1.143l1.371.29a3.9,3.9,0,0,1-1.477,1.854,4.028,4.028,0,0,1-2.294.677,4.174,4.174,0,0,1-3.111-1.2,4.479,4.479,0,0,1-1.187-3.287A4.458,4.458,0,0,1,33.986,9.4a4.122,4.122,0,0,1,3.063-1.2,3.9,3.9,0,0,1,2.9,1.107A4.376,4.376,0,0,1,41.048,12.509Zm-4-3.146a2.694,2.694,0,0,0-1.8.611,2.8,2.8,0,0,0-.91,1.78h5.177a2.567,2.567,0,0,0-.756-1.78A2.441,2.441,0,0,0,37.049,9.362Zm7.866.519a2.612,2.612,0,0,1,1.072-1.16,3.229,3.229,0,0,1,1.661-.457V9.7a2.846,2.846,0,0,0-2.008.642,2.68,2.68,0,0,0-.69,2.048V17H43.43V8.36h1.485ZM50.206,6.33A1.035,1.035,0,0,1,49.178,5.3a.975.975,0,0,1,.3-.721,1,1,0,0,1,.725-.3.987.987,0,0,1,.716.3.975.975,0,0,1,.3.721.989.989,0,0,1-.3.725A.979.979,0,0,1,50.206,6.33ZM49.433,17V8.36h1.529V17Zm6.618.167a2.94,2.94,0,0,1-1.894-.593,2.13,2.13,0,0,1-.743-1.771,2.517,2.517,0,0,1,.237-1.129,1.991,1.991,0,0,1,.7-.787A4.218,4.218,0,0,1,55.37,12.4a9.384,9.384,0,0,1,1.314-.312l1.4-.229q.765-.141.765-.8a1.51,1.51,0,0,0-.541-1.288,2.2,2.2,0,0,0-1.367-.409,2.243,2.243,0,0,0-1.354.4,1.655,1.655,0,0,0-.642,1.213l-1.371-.29a2.639,2.639,0,0,1,1.081-1.85,4.039,4.039,0,0,1,2.355-.62,4.777,4.777,0,0,1,1.252.154,3.4,3.4,0,0,1,1.046.483,2.168,2.168,0,0,1,.747.932,3.466,3.466,0,0,1,.268,1.419v3.568a1.46,1.46,0,0,0,.2.9.854.854,0,0,0,.681.233h.141V17h-.756a1.442,1.442,0,0,1-1.635-1.169h-.07A3.3,3.3,0,0,1,56.051,17.167Zm.352-1.23a2.305,2.305,0,0,0,1.854-.835,3.438,3.438,0,0,0,.7-2.285l-2.285.439a3.076,3.076,0,0,0-1.34.479,1.114,1.114,0,0,0-.435.945,1.1,1.1,0,0,0,.417.949A1.785,1.785,0,0,0,56.4,15.937ZM63.486,17V3.5h1.538V17ZM79.175,3.5H80.7V17H79.228l-.035-1.679a3.179,3.179,0,0,1-1.23,1.362,3.429,3.429,0,0,1-1.828.5,3.926,3.926,0,0,1-2.852-1.217,4.16,4.16,0,0,1-.87-1.428,5.225,5.225,0,0,1-.321-1.854,4.543,4.543,0,0,1,1.173-3.243,3.788,3.788,0,0,1,2.87-1.248,3.443,3.443,0,0,1,1.806.488A3.2,3.2,0,0,1,79.175,10ZM76.45,15.866a2.587,2.587,0,0,0,2.008-.91,3.283,3.283,0,0,0,.813-2.272,3.277,3.277,0,0,0-.817-2.268,2.586,2.586,0,0,0-2-.914,2.644,2.644,0,0,0-2.021.883,3.25,3.25,0,0,0-.817,2.3,3.25,3.25,0,0,0,.817,2.3A2.644,2.644,0,0,0,76.45,15.866Zm14.9-3.357-.018.413H84.58a3.053,3.053,0,0,0,.826,2.21,2.713,2.713,0,0,0,1.969.769,2.59,2.59,0,0,0,1.433-.413,2.68,2.68,0,0,0,.984-1.143l1.371.29a3.9,3.9,0,0,1-1.477,1.854,4.028,4.028,0,0,1-2.294.677,4.174,4.174,0,0,1-3.111-1.2,4.479,4.479,0,0,1-1.187-3.287A4.458,4.458,0,0,1,84.286,9.4a4.122,4.122,0,0,1,3.063-1.2,3.9,3.9,0,0,1,2.9,1.107A4.376,4.376,0,0,1,91.348,12.509Zm-4-3.146a2.694,2.694,0,0,0-1.8.611,2.8,2.8,0,0,0-.91,1.78h5.177a2.567,2.567,0,0,0-.756-1.78A2.441,2.441,0,0,0,87.349,9.362ZM99.179,6.33A1.035,1.035,0,0,1,98.15,5.3a.975.975,0,0,1,.3-.721,1,1,0,0,1,.725-.3.987.987,0,0,1,.716.3.975.975,0,0,1,.3.721.989.989,0,0,1-.3.725A.979.979,0,0,1,99.179,6.33ZM98.405,17V8.36h1.529V17Zm8.7-8.807a3.005,3.005,0,0,1,2.175.782,2.918,2.918,0,0,1,.813,2.206V17h-1.521V11.524a2.043,2.043,0,0,0-.527-1.547,1.885,1.885,0,0,0-1.354-.5,2.09,2.09,0,0,0-1.538.593,2.407,2.407,0,0,0-.606,1.762V17h-1.521V8.36h1.521V9.468A2.885,2.885,0,0,1,107.106,8.193Zm6.7-1.863A1.035,1.035,0,0,1,112.775,5.3a.975.975,0,0,1,.3-.721,1,1,0,0,1,.725-.3.987.987,0,0,1,.716.3.975.975,0,0,1,.3.721.989.989,0,0,1-.3.725A.979.979,0,0,1,113.8,6.33ZM113.03,17V8.36h1.529V17Zm8.209.158a4.161,4.161,0,0,1-3.094-1.239,4.421,4.421,0,0,1-1.222-3.243,4.43,4.43,0,0,1,1.217-3.243,4.5,4.5,0,0,1,5.6-.483,3.815,3.815,0,0,1,1.455,2.1l-1.424.229a2.63,2.63,0,0,0-.976-1.345,2.656,2.656,0,0,0-1.564-.475,2.554,2.554,0,0,0-2,.888,3.382,3.382,0,0,0-.787,2.329A3.365,3.365,0,0,0,119.231,15a2.56,2.56,0,0,0,2,.883,2.656,2.656,0,0,0,1.564-.475,2.63,2.63,0,0,0,.976-1.345l1.424.237a3.819,3.819,0,0,1-1.463,2.1A4.185,4.185,0,0,1,121.239,17.158Zm6.97-10.828A1.035,1.035,0,0,1,127.181,5.3a.975.975,0,0,1,.3-.721,1,1,0,0,1,.725-.3.987.987,0,0,1,.716.3.975.975,0,0,1,.3.721.989.989,0,0,1-.3.725A.979.979,0,0,1,128.209,6.33ZM127.436,17V8.36h1.529V17Zm8.262.167a4.554,4.554,0,0,1-2.215-.536,3.9,3.9,0,0,1-1.56-1.569,4.819,4.819,0,0,1-.576-2.386,4.4,4.4,0,0,1,1.226-3.256,4.6,4.6,0,0,1,6.253,0,4.41,4.41,0,0,1,1.222,3.256,4.413,4.413,0,0,1-1.226,3.265A4.232,4.232,0,0,1,135.7,17.167Zm-.009-1.266a2.654,2.654,0,0,0,2.043-.888,3.326,3.326,0,0,0,.813-2.338,3.314,3.314,0,0,0-.813-2.329,2.654,2.654,0,0,0-2.043-.888,2.617,2.617,0,0,0-2.026.888,3.336,3.336,0,0,0-.8,2.329,3.348,3.348,0,0,0,.8,2.338A2.617,2.617,0,0,0,135.688,15.9Z" transform="translate(-1934 -2994)" fill="#00223d"/>
    <path id="Trazado_12668" data-name="Trazado 12668" d="M22.824,17H21.294L20.468,6.787,16.513,17h-.94L11.644,6.822,10.809,17H9.271l.94-12.375h2.074l3.753,9.65L19.8,4.625h2.092Zm4.9.167a2.94,2.94,0,0,1-1.894-.593,2.13,2.13,0,0,1-.743-1.771,2.517,2.517,0,0,1,.237-1.129,1.991,1.991,0,0,1,.7-.787,4.218,4.218,0,0,1,1.015-.488,9.384,9.384,0,0,1,1.314-.312l1.4-.229q.765-.141.765-.8a1.51,1.51,0,0,0-.541-1.288,2.2,2.2,0,0,0-1.367-.409,2.243,2.243,0,0,0-1.354.4,1.655,1.655,0,0,0-.642,1.213l-1.371-.29a2.639,2.639,0,0,1,1.081-1.85,4.039,4.039,0,0,1,2.355-.62,4.777,4.777,0,0,1,1.252.154,3.4,3.4,0,0,1,1.046.483,2.168,2.168,0,0,1,.747.932,3.466,3.466,0,0,1,.268,1.419v3.568a1.46,1.46,0,0,0,.2.9.854.854,0,0,0,.681.233h.141V17h-.756a1.442,1.442,0,0,1-1.635-1.169h-.07A3.3,3.3,0,0,1,27.719,17.167Zm.352-1.23a2.305,2.305,0,0,0,1.854-.835,3.438,3.438,0,0,0,.7-2.285l-2.285.439a3.076,3.076,0,0,0-1.34.479,1.114,1.114,0,0,0-.435.945,1.1,1.1,0,0,0,.417.949A1.785,1.785,0,0,0,28.071,15.937ZM37.862,17a2.271,2.271,0,0,1-1.687-.62,2.344,2.344,0,0,1-.615-1.727V9.573H33.792V8.36h.65a1.249,1.249,0,0,0,.954-.3,1.492,1.492,0,0,0,.277-1.015V5.478h1.415V8.36h1.986V9.573H37.088V14.5a1.31,1.31,0,0,0,.33.954,1.154,1.154,0,0,0,.866.338h.791V17Zm10.863-4.491-.018.413h-6.75a3.053,3.053,0,0,0,.826,2.21,2.713,2.713,0,0,0,1.969.769,2.59,2.59,0,0,0,1.433-.413,2.68,2.68,0,0,0,.984-1.143l1.371.29a3.9,3.9,0,0,1-1.477,1.854,4.028,4.028,0,0,1-2.294.677,4.174,4.174,0,0,1-3.111-1.2,4.479,4.479,0,0,1-1.187-3.287A4.458,4.458,0,0,1,41.663,9.4a4.122,4.122,0,0,1,3.063-1.2,3.9,3.9,0,0,1,2.9,1.107A4.376,4.376,0,0,1,48.725,12.509Zm-4-3.146a2.694,2.694,0,0,0-1.8.611,2.8,2.8,0,0,0-.91,1.78H47.2a2.567,2.567,0,0,0-.756-1.78A2.441,2.441,0,0,0,44.726,9.362Zm7.866.519a2.612,2.612,0,0,1,1.072-1.16,3.229,3.229,0,0,1,1.661-.457V9.7a2.846,2.846,0,0,0-2.008.642,2.68,2.68,0,0,0-.69,2.048V17H51.107V8.36h1.485ZM57.883,6.33A1.035,1.035,0,0,1,56.855,5.3a.975.975,0,0,1,.3-.721,1,1,0,0,1,.725-.3.987.987,0,0,1,.716.3.975.975,0,0,1,.3.721.989.989,0,0,1-.3.725A.979.979,0,0,1,57.883,6.33ZM57.11,17V8.36h1.529V17Zm6.618.167a2.94,2.94,0,0,1-1.894-.593,2.13,2.13,0,0,1-.743-1.771,2.517,2.517,0,0,1,.237-1.129,1.991,1.991,0,0,1,.7-.787,4.218,4.218,0,0,1,1.015-.488,9.384,9.384,0,0,1,1.314-.312l1.4-.229q.765-.141.765-.8a1.51,1.51,0,0,0-.541-1.288,2.2,2.2,0,0,0-1.367-.409,2.243,2.243,0,0,0-1.354.4,1.655,1.655,0,0,0-.642,1.213l-1.371-.29a2.639,2.639,0,0,1,1.081-1.85,4.039,4.039,0,0,1,2.355-.62,4.777,4.777,0,0,1,1.252.154,3.4,3.4,0,0,1,1.046.483,2.168,2.168,0,0,1,.747.932A3.466,3.466,0,0,1,68,11.2v3.568a1.46,1.46,0,0,0,.2.9.854.854,0,0,0,.681.233h.141V17h-.756a1.442,1.442,0,0,1-1.635-1.169h-.07A3.3,3.3,0,0,1,63.728,17.167Zm.352-1.23a2.305,2.305,0,0,0,1.854-.835,3.438,3.438,0,0,0,.7-2.285l-2.285.439a3.076,3.076,0,0,0-1.34.479,1.114,1.114,0,0,0-.435.945,1.1,1.1,0,0,0,.417.949A1.785,1.785,0,0,0,64.08,15.937ZM71.164,17V3.5H72.7V17ZM88.03,12.509l-.018.413h-6.75a3.053,3.053,0,0,0,.826,2.21,2.713,2.713,0,0,0,1.969.769,2.59,2.59,0,0,0,1.433-.413,2.68,2.68,0,0,0,.984-1.143l1.371.29a3.9,3.9,0,0,1-1.477,1.854,4.028,4.028,0,0,1-2.294.677,4.174,4.174,0,0,1-3.111-1.2,4.479,4.479,0,0,1-1.187-3.287A4.458,4.458,0,0,1,80.968,9.4a4.122,4.122,0,0,1,3.063-1.2,3.9,3.9,0,0,1,2.9,1.107A4.376,4.376,0,0,1,88.03,12.509Zm-4-3.146a2.694,2.694,0,0,0-1.8.611,2.8,2.8,0,0,0-.91,1.78H86.5a2.567,2.567,0,0,0-.756-1.78A2.441,2.441,0,0,0,84.031,9.362ZM94.49,8.193a3.005,3.005,0,0,1,2.175.782,2.918,2.918,0,0,1,.813,2.206V17H95.958V11.524a2.043,2.043,0,0,0-.527-1.547,1.885,1.885,0,0,0-1.354-.5,2.09,2.09,0,0,0-1.538.593,2.407,2.407,0,0,0-.606,1.762V17H90.412V8.36h1.521V9.468A2.885,2.885,0,0,1,94.49,8.193Zm15.161,0a3.93,3.93,0,0,1,1.564.316A3.849,3.849,0,0,1,112.5,9.4a4.149,4.149,0,0,1,.866,1.424,5.25,5.25,0,0,1,.321,1.863,4.568,4.568,0,0,1-1.165,3.261,3.782,3.782,0,0,1-2.87,1.239,3.42,3.42,0,0,1-1.806-.492,3.226,3.226,0,0,1-1.235-1.327v5.985h-1.521V8.36h1.468l.035,1.679a3.163,3.163,0,0,1,1.23-1.349A3.452,3.452,0,0,1,109.651,8.193Zm-.3,7.673a2.623,2.623,0,0,0,2-.875,3.253,3.253,0,0,0,.813-2.307,3.237,3.237,0,0,0-.813-2.3,2.726,2.726,0,0,0-4.03.04,3.24,3.24,0,0,0-.826,2.263,3.252,3.252,0,0,0,.826,2.272A2.636,2.636,0,0,0,109.352,15.866Zm8.218-5.985a2.612,2.612,0,0,1,1.072-1.16,3.229,3.229,0,0,1,1.661-.457V9.7a2.846,2.846,0,0,0-2.008.642,2.68,2.68,0,0,0-.69,2.048V17h-1.521V8.36h1.485Zm8.051,7.286a4.554,4.554,0,0,1-2.215-.536,3.9,3.9,0,0,1-1.56-1.569,4.819,4.819,0,0,1-.576-2.386A4.4,4.4,0,0,1,122.5,9.419a4.6,4.6,0,0,1,6.253,0,4.41,4.41,0,0,1,1.222,3.256,4.413,4.413,0,0,1-1.226,3.265A4.232,4.232,0,0,1,125.621,17.167Zm-.009-1.266a2.654,2.654,0,0,0,2.043-.888,3.326,3.326,0,0,0,.813-2.338,3.314,3.314,0,0,0-.813-2.329,2.654,2.654,0,0,0-2.043-.888,2.617,2.617,0,0,0-2.026.888,3.336,3.336,0,0,0-.8,2.329,3.348,3.348,0,0,0,.8,2.338A2.617,2.617,0,0,0,125.612,15.9Zm10.327,1.257a4.161,4.161,0,0,1-3.094-1.239,4.421,4.421,0,0,1-1.222-3.243,4.43,4.43,0,0,1,1.217-3.243,4.5,4.5,0,0,1,5.6-.483,3.815,3.815,0,0,1,1.455,2.1l-1.424.229a2.63,2.63,0,0,0-.976-1.345,2.656,2.656,0,0,0-1.564-.475,2.554,2.554,0,0,0-2,.888,3.382,3.382,0,0,0-.787,2.329A3.365,3.365,0,0,0,133.931,15a2.56,2.56,0,0,0,2,.883,2.656,2.656,0,0,0,1.564-.475,2.63,2.63,0,0,0,.976-1.345l1.424.237a3.819,3.819,0,0,1-1.463,2.1A4.185,4.185,0,0,1,135.939,17.158Zm13.755-4.649-.018.413h-6.75a3.053,3.053,0,0,0,.826,2.21,2.713,2.713,0,0,0,1.969.769,2.59,2.59,0,0,0,1.433-.413,2.68,2.68,0,0,0,.984-1.143l1.371.29a3.9,3.9,0,0,1-1.477,1.854,4.028,4.028,0,0,1-2.294.677,4.174,4.174,0,0,1-3.111-1.2,4.479,4.479,0,0,1-1.187-3.287A4.458,4.458,0,0,1,142.632,9.4a4.122,4.122,0,0,1,3.063-1.2A3.9,3.9,0,0,1,148.6,9.3,4.376,4.376,0,0,1,149.694,12.509Zm-4-3.146a2.694,2.694,0,0,0-1.8.611,2.8,2.8,0,0,0-.91,1.78h5.177a2.567,2.567,0,0,0-.756-1.78A2.441,2.441,0,0,0,145.695,9.362Zm9.114,7.8a4.1,4.1,0,0,1-2.329-.624,2.581,2.581,0,0,1-1.134-1.775l1.327-.378a1.851,1.851,0,0,0,.708,1.2,2.3,2.3,0,0,0,1.419.426,2.832,2.832,0,0,0,.831-.114,1.331,1.331,0,0,0,.637-.426,1.189,1.189,0,0,0,.185-1.143,1.526,1.526,0,0,0-.141-.286.87.87,0,0,0-.246-.237,3.245,3.245,0,0,0-.3-.185,3.067,3.067,0,0,0-.391-.163q-.259-.092-.417-.141t-.483-.141q-.325-.092-.5-.145a9.372,9.372,0,0,1-.9-.316,3.932,3.932,0,0,1-.729-.417,1.679,1.679,0,0,1-.567-.681,2.3,2.3,0,0,1-.189-.967,2.234,2.234,0,0,1,.422-1.38,2.374,2.374,0,0,1,1.094-.813,4.374,4.374,0,0,1,1.534-.25,3.754,3.754,0,0,1,2.1.563,2.4,2.4,0,0,1,1.05,1.688l-1.248.316a1.655,1.655,0,0,0-.659-1.094,2.1,2.1,0,0,0-1.239-.365,2.139,2.139,0,0,0-1.16.3,1.019,1.019,0,0,0-.483.927.923.923,0,0,0,.127.479,1.521,1.521,0,0,0,.259.338,1.594,1.594,0,0,0,.475.259q.343.136.51.185t.633.163q.088.026.132.035.51.132.831.233a5.105,5.105,0,0,1,.747.316,2.484,2.484,0,0,1,.672.47,2.178,2.178,0,0,1,.422.668,2.358,2.358,0,0,1,.176.932,2.516,2.516,0,0,1-.259,1.165,2.028,2.028,0,0,1-.708.8,3.422,3.422,0,0,1-1.006.435A4.8,4.8,0,0,1,154.809,17.167Zm9.211,0a4.554,4.554,0,0,1-2.215-.536,3.9,3.9,0,0,1-1.56-1.569,4.819,4.819,0,0,1-.576-2.386A4.4,4.4,0,0,1,160.9,9.419a4.6,4.6,0,0,1,6.253,0,4.41,4.41,0,0,1,1.222,3.256,4.413,4.413,0,0,1-1.226,3.265A4.232,4.232,0,0,1,164.02,17.167Zm-.009-1.266a2.654,2.654,0,0,0,2.043-.888,3.326,3.326,0,0,0,.813-2.338,3.314,3.314,0,0,0-.813-2.329,2.654,2.654,0,0,0-2.043-.888,2.617,2.617,0,0,0-2.026.888,3.336,3.336,0,0,0-.8,2.329,3.348,3.348,0,0,0,.8,2.338A2.617,2.617,0,0,0,164.011,15.9Z" transform="translate(-1743 -2994)" fill="#00223d"/>
    <path id="Trazado_10469-2" data-name="Trazado 10469" d="M375.355,672.243h57l22-14v-18h-60l-19,14Z" transform="translate(-2278.355 -3675.243)" fill="#e6e6e6"/>
    <g id="Grupo_11102-2" data-name="Grupo 11102" transform="translate(-2278.355 -3675.243)">
      <path id="Trazado_10470-2" data-name="Trazado 10470" d="M432.646,673.243H374.355V653.737l19.672-14.494h61.328v19.549Zm-56.291-2h55.709l21.291-13.549V641.243H394.684l-18.329,13.505Z" fill="#4d4d4d"/>
      <path id="Trazado_10471-2" data-name="Trazado 10471" d="M433.29,672.243h-2v-17H375.355v-2H433.29Z" fill="#4d4d4d"/>
      <rect id="Rectángulo_2716-2" data-name="Rectángulo 2716" width="26.132" height="2" transform="translate(431.755 653.398) rotate(-32.394)" fill="#4d4d4d"/>
    </g>
    <path id="Trazado_10469-3" data-name="Trazado 10469" d="M375.355,672.243h57l22-14v-18h-60l-19,14Z" transform="translate(-2069.355 -3675.243)" fill="#e6e6e6"/>
    <g id="Grupo_11102-3" data-name="Grupo 11102" transform="translate(-2069.355 -3675.243)">
      <path id="Trazado_10470-3" data-name="Trazado 10470" d="M432.646,673.243H374.355V653.737l19.672-14.494h61.328v19.549Zm-56.291-2h55.709l21.291-13.549V641.243H394.684l-18.329,13.505Z" fill="#4d4d4d"/>
      <path id="Trazado_10471-3" data-name="Trazado 10471" d="M433.29,672.243h-2v-17H375.355v-2H433.29Z" fill="#4d4d4d"/>
      <rect id="Rectángulo_2716-3" data-name="Rectángulo 2716" width="26.132" height="2" transform="translate(431.755 653.398) rotate(-32.394)" fill="#4d4d4d"/>
    </g>
    <path id="Trazado_10472-2" data-name="Trazado 10472" d="M489.616,672.243h57l22-14v-18h-60l-19,14Z" transform="translate(-1998.616 -3675.243)" fill="#e6e6e6"/>
    <g id="Grupo_11104-2" data-name="Grupo 11104" transform="translate(-1998.616 -3675.243)">
      <path id="Trazado_10473-2" data-name="Trazado 10473" d="M546.907,673.243H488.616V653.737l19.672-14.494h61.328v19.549Zm-56.291-2h55.709l21.291-13.549V641.243H508.945l-18.329,13.505Z" fill="#4d4d4d"/>
      <path id="Trazado_10474-2" data-name="Trazado 10474" d="M547.551,672.243h-2v-17H489.616v-2h57.935Z" fill="#4d4d4d"/>
      <rect id="Rectángulo_2717-2" data-name="Rectángulo 2717" width="26.132" height="2" transform="translate(546.016 653.398) rotate(-32.394)" fill="#4d4d4d"/>
    </g>
    <path id="Trazado_10475-2" data-name="Trazado 10475" d="M517.048,650.743c-4,0-7.137-1.538-7.137-3.5s3.135-3.5,7.137-3.5,7.138,1.537,7.138,3.5S521.051,650.743,517.048,650.743Zm0-6c-3.617,0-6.137,1.317-6.137,2.5s2.52,2.5,6.137,2.5,6.138-1.318,6.138-2.5S520.666,644.743,517.048,644.743Z" transform="translate(-1998.616 -3675.243)" fill="#4d4d4d"/>
    <path id="Trazado_10476-2" data-name="Trazado 10476" d="M538.878,650.743c-4,0-7.137-1.538-7.137-3.5s3.135-3.5,7.137-3.5,7.138,1.537,7.138,3.5S542.88,650.743,538.878,650.743Zm0-6c-3.617,0-6.137,1.317-6.137,2.5s2.52,2.5,6.137,2.5,6.138-1.318,6.138-2.5S542.495,644.743,538.878,644.743Z" transform="translate(-1998.616 -3675.243)" fill="#4d4d4d"/>
    <rect id="Rectángulo_2719" data-name="Rectángulo 2719" width="235" height="46" transform="translate(-1761 -3131)" fill="#e6eef3"/>
    <path id="Trazado_12665" data-name="Trazado 12665" d="M16.519,4.625a3.664,3.664,0,0,1,1.938.514,3.473,3.473,0,0,1,1.3,1.375,4.036,4.036,0,0,1,.453,1.907,3.755,3.755,0,0,1-1.024,2.694,3.514,3.514,0,0,1-2.667,1.077H13.408V17H11.834V4.625Zm-.229,6.2a2.25,2.25,0,0,0,1.723-.664A2.455,2.455,0,0,0,18.637,8.4a2.463,2.463,0,0,0-.624-1.745,2.234,2.234,0,0,0-1.723-.672H13.408v4.834Zm7.77-.94a2.612,2.612,0,0,1,1.072-1.16,3.229,3.229,0,0,1,1.661-.457V9.7a2.846,2.846,0,0,0-2.008.642,2.68,2.68,0,0,0-.69,2.048V17H22.575V8.36H24.06Zm8.051,7.286a4.554,4.554,0,0,1-2.215-.536,3.9,3.9,0,0,1-1.56-1.569,4.819,4.819,0,0,1-.576-2.386,4.4,4.4,0,0,1,1.226-3.256,4.6,4.6,0,0,1,6.253,0,4.41,4.41,0,0,1,1.222,3.256,4.413,4.413,0,0,1-1.226,3.265A4.232,4.232,0,0,1,32.111,17.167ZM32.1,15.9a2.654,2.654,0,0,0,2.043-.888,3.326,3.326,0,0,0,.813-2.338,3.314,3.314,0,0,0-.813-2.329A2.654,2.654,0,0,0,32.1,9.459a2.617,2.617,0,0,0-2.026.888,3.336,3.336,0,0,0-.8,2.329,3.348,3.348,0,0,0,.8,2.338A2.617,2.617,0,0,0,32.1,15.9Zm10.327,1.257a4.161,4.161,0,0,1-3.094-1.239,4.421,4.421,0,0,1-1.222-3.243,4.43,4.43,0,0,1,1.217-3.243,4.5,4.5,0,0,1,5.6-.483,3.815,3.815,0,0,1,1.455,2.1l-1.424.229a2.63,2.63,0,0,0-.976-1.345,2.656,2.656,0,0,0-1.564-.475,2.554,2.554,0,0,0-2,.888,3.382,3.382,0,0,0-.787,2.329A3.365,3.365,0,0,0,40.421,15a2.56,2.56,0,0,0,2,.883,2.656,2.656,0,0,0,1.564-.475,2.63,2.63,0,0,0,.976-1.345l1.424.237a3.819,3.819,0,0,1-1.463,2.1A4.185,4.185,0,0,1,42.429,17.158Zm13.755-4.649-.018.413h-6.75a3.053,3.053,0,0,0,.826,2.21,2.713,2.713,0,0,0,1.969.769,2.59,2.59,0,0,0,1.433-.413,2.68,2.68,0,0,0,.984-1.143l1.371.29a3.9,3.9,0,0,1-1.477,1.854,4.028,4.028,0,0,1-2.294.677,4.174,4.174,0,0,1-3.111-1.2,4.479,4.479,0,0,1-1.187-3.287A4.458,4.458,0,0,1,49.122,9.4a4.122,4.122,0,0,1,3.063-1.2A3.9,3.9,0,0,1,55.09,9.3,4.376,4.376,0,0,1,56.184,12.509Zm-4-3.146a2.694,2.694,0,0,0-1.8.611,2.8,2.8,0,0,0-.91,1.78h5.177a2.567,2.567,0,0,0-.756-1.78A2.441,2.441,0,0,0,52.185,9.362Zm9.114,7.8a4.1,4.1,0,0,1-2.329-.624,2.581,2.581,0,0,1-1.134-1.775l1.327-.378a1.851,1.851,0,0,0,.708,1.2,2.3,2.3,0,0,0,1.419.426,2.832,2.832,0,0,0,.831-.114,1.331,1.331,0,0,0,.637-.426,1.189,1.189,0,0,0,.185-1.143,1.526,1.526,0,0,0-.141-.286.87.87,0,0,0-.246-.237,3.245,3.245,0,0,0-.3-.185,3.067,3.067,0,0,0-.391-.163q-.259-.092-.417-.141t-.483-.141q-.325-.092-.5-.145a9.372,9.372,0,0,1-.9-.316,3.932,3.932,0,0,1-.729-.417,1.679,1.679,0,0,1-.567-.681,2.3,2.3,0,0,1-.189-.967,2.234,2.234,0,0,1,.422-1.38A2.374,2.374,0,0,1,59.6,8.461a4.374,4.374,0,0,1,1.534-.25,3.754,3.754,0,0,1,2.1.563,2.4,2.4,0,0,1,1.05,1.688l-1.248.316a1.655,1.655,0,0,0-.659-1.094,2.1,2.1,0,0,0-1.239-.365,2.139,2.139,0,0,0-1.16.3,1.019,1.019,0,0,0-.483.927.923.923,0,0,0,.127.479,1.521,1.521,0,0,0,.259.338,1.594,1.594,0,0,0,.475.259q.343.136.51.185t.633.163q.088.026.132.035.51.132.831.233a5.105,5.105,0,0,1,.747.316,2.484,2.484,0,0,1,.672.47,2.178,2.178,0,0,1,.422.668,2.358,2.358,0,0,1,.176.932,2.516,2.516,0,0,1-.259,1.165,2.028,2.028,0,0,1-.708.8,3.422,3.422,0,0,1-1.006.435A4.8,4.8,0,0,1,61.3,17.167Zm9.211,0a4.554,4.554,0,0,1-2.215-.536,3.9,3.9,0,0,1-1.56-1.569,4.819,4.819,0,0,1-.576-2.386,4.4,4.4,0,0,1,1.226-3.256,4.6,4.6,0,0,1,6.253,0,4.41,4.41,0,0,1,1.222,3.256,4.413,4.413,0,0,1-1.226,3.265A4.232,4.232,0,0,1,70.51,17.167ZM70.5,15.9a2.654,2.654,0,0,0,2.043-.888,3.326,3.326,0,0,0,.813-2.338,3.314,3.314,0,0,0-.813-2.329A2.654,2.654,0,0,0,70.5,9.459a2.617,2.617,0,0,0-2.026.888,3.336,3.336,0,0,0-.8,2.329,3.348,3.348,0,0,0,.8,2.338A2.617,2.617,0,0,0,70.5,15.9ZM88.3,3.5H89.82V17H88.352l-.035-1.679a3.179,3.179,0,0,1-1.23,1.362,3.429,3.429,0,0,1-1.828.5,3.926,3.926,0,0,1-2.852-1.217,4.16,4.16,0,0,1-.87-1.428,5.225,5.225,0,0,1-.321-1.854,4.543,4.543,0,0,1,1.173-3.243,3.788,3.788,0,0,1,2.87-1.248,3.443,3.443,0,0,1,1.806.488A3.2,3.2,0,0,1,88.3,10ZM85.575,15.866a2.587,2.587,0,0,0,2.008-.91,3.283,3.283,0,0,0,.813-2.272,3.277,3.277,0,0,0-.817-2.268,2.586,2.586,0,0,0-2-.914,2.644,2.644,0,0,0-2.021.883,3.25,3.25,0,0,0-.817,2.3,3.25,3.25,0,0,0,.817,2.3A2.644,2.644,0,0,0,85.575,15.866Zm14.9-3.357-.018.413H93.7a3.053,3.053,0,0,0,.826,2.21A2.713,2.713,0,0,0,96.5,15.9a2.59,2.59,0,0,0,1.433-.413,2.68,2.68,0,0,0,.984-1.143l1.371.29a3.9,3.9,0,0,1-1.477,1.854,4.028,4.028,0,0,1-2.294.677,4.174,4.174,0,0,1-3.111-1.2,4.479,4.479,0,0,1-1.187-3.287A4.458,4.458,0,0,1,93.41,9.4a4.122,4.122,0,0,1,3.063-1.2,3.9,3.9,0,0,1,2.9,1.107A4.376,4.376,0,0,1,100.472,12.509Zm-4-3.146a2.694,2.694,0,0,0-1.8.611,2.8,2.8,0,0,0-.91,1.78h5.177a2.567,2.567,0,0,0-.756-1.78A2.441,2.441,0,0,0,96.473,9.362Zm19.89-1.169a2.785,2.785,0,0,1,2.013.734,2.722,2.722,0,0,1,.765,2.061V17H117.62V11.384a1.952,1.952,0,0,0-.475-1.424,1.616,1.616,0,0,0-1.2-.483,1.706,1.706,0,0,0-1.318.545,2.343,2.343,0,0,0-.5,1.635V17h-1.547V11.445a2.042,2.042,0,0,0-.479-1.472,1.629,1.629,0,0,0-1.226-.5,1.69,1.69,0,0,0-1.314.558,2.424,2.424,0,0,0-.505,1.674V17H107.53V8.36h1.521V9.477a2.625,2.625,0,0,1,.989-.949,2.82,2.82,0,0,1,1.375-.334,2.935,2.935,0,0,1,1.477.365,2.271,2.271,0,0,1,.958,1.05,2.689,2.689,0,0,1,1.037-1.05A2.966,2.966,0,0,1,116.363,8.193Zm7.717,8.974a2.94,2.94,0,0,1-1.894-.593,2.13,2.13,0,0,1-.743-1.771,2.517,2.517,0,0,1,.237-1.129,1.991,1.991,0,0,1,.7-.787A4.218,4.218,0,0,1,123.4,12.4a9.384,9.384,0,0,1,1.314-.312l1.4-.229q.765-.141.765-.8a1.51,1.51,0,0,0-.541-1.288,2.2,2.2,0,0,0-1.367-.409,2.243,2.243,0,0,0-1.354.4,1.655,1.655,0,0,0-.642,1.213l-1.371-.29a2.639,2.639,0,0,1,1.081-1.85,4.039,4.039,0,0,1,2.355-.62,4.777,4.777,0,0,1,1.252.154,3.4,3.4,0,0,1,1.046.483,2.168,2.168,0,0,1,.747.932,3.466,3.466,0,0,1,.268,1.419v3.568a1.46,1.46,0,0,0,.2.9.854.854,0,0,0,.681.233h.141V17h-.756a1.442,1.442,0,0,1-1.635-1.169h-.07A3.3,3.3,0,0,1,124.08,17.167Zm.352-1.23a2.305,2.305,0,0,0,1.854-.835,3.438,3.438,0,0,0,.7-2.285l-2.285.439a3.076,3.076,0,0,0-1.34.479,1.114,1.114,0,0,0-.435.945,1.1,1.1,0,0,0,.417.949A1.785,1.785,0,0,0,124.431,15.937Zm11.162-7.743a3.005,3.005,0,0,1,2.175.782,2.918,2.918,0,0,1,.813,2.206V17h-1.521V11.524a2.043,2.043,0,0,0-.527-1.547,1.885,1.885,0,0,0-1.354-.5,2.09,2.09,0,0,0-1.538.593,2.407,2.407,0,0,0-.606,1.762V17h-1.521V8.36h1.521V9.468A2.885,2.885,0,0,1,135.593,8.193Zm11.3.167h1.521V17h-1.459l-.035-1.143a2.7,2.7,0,0,1-1.072.971,3.3,3.3,0,0,1-1.512.338,3.005,3.005,0,0,1-2.175-.782,2.918,2.918,0,0,1-.813-2.206V8.36h1.521v5.476a2.05,2.05,0,0,0,.532,1.547,1.882,1.882,0,0,0,1.358.51,2.067,2.067,0,0,0,1.534-.6,2.434,2.434,0,0,0,.6-1.767Zm8.578-3.586h-.33q-.1,0-.316.018a2.028,2.028,0,0,0-.316.044q-.1.026-.272.088a.7.7,0,0,0-.259.149q-.088.088-.2.224a.918.918,0,0,0-.171.316,3.025,3.025,0,0,0-.1.422,3.364,3.364,0,0,0-.04.541V8.36h2V9.573h-2V17h-1.512V9.573h-1.67V8.36h1.67V6.55a4.969,4.969,0,0,1,.092-1.006,3.264,3.264,0,0,1,.246-.76,1.806,1.806,0,0,1,.409-.549,2.4,2.4,0,0,1,.532-.374,2.639,2.639,0,0,1,.655-.22,6.146,6.146,0,0,1,.743-.11q.365-.031.839-.031Zm3.647,12.393a2.94,2.94,0,0,1-1.894-.593,2.13,2.13,0,0,1-.743-1.771,2.517,2.517,0,0,1,.237-1.129,1.991,1.991,0,0,1,.7-.787,4.218,4.218,0,0,1,1.015-.488,9.384,9.384,0,0,1,1.314-.312l1.4-.229q.765-.141.765-.8a1.51,1.51,0,0,0-.541-1.288,2.2,2.2,0,0,0-1.367-.409,2.243,2.243,0,0,0-1.354.4,1.655,1.655,0,0,0-.642,1.213l-1.371-.29a2.639,2.639,0,0,1,1.081-1.85,4.039,4.039,0,0,1,2.355-.62,4.777,4.777,0,0,1,1.252.154,3.4,3.4,0,0,1,1.046.483,2.168,2.168,0,0,1,.747.932,3.466,3.466,0,0,1,.268,1.419v3.568a1.46,1.46,0,0,0,.2.9.854.854,0,0,0,.681.233h.141V17h-.756a1.442,1.442,0,0,1-1.635-1.169h-.07A3.3,3.3,0,0,1,159.122,17.167Zm.352-1.23a2.305,2.305,0,0,0,1.854-.835,3.438,3.438,0,0,0,.7-2.285l-2.285.439a3.076,3.076,0,0,0-1.34.479,1.114,1.114,0,0,0-.435.945,1.1,1.1,0,0,0,.417.949A1.785,1.785,0,0,0,159.473,15.937Zm10.494,1.222a4.161,4.161,0,0,1-3.094-1.239,4.421,4.421,0,0,1-1.222-3.243,4.43,4.43,0,0,1,1.217-3.243,4.5,4.5,0,0,1,5.6-.483,3.815,3.815,0,0,1,1.455,2.1l-1.424.229a2.63,2.63,0,0,0-.976-1.345,2.656,2.656,0,0,0-1.564-.475,2.554,2.554,0,0,0-2,.888,3.382,3.382,0,0,0-.787,2.329A3.365,3.365,0,0,0,167.959,15a2.56,2.56,0,0,0,2,.883,2.656,2.656,0,0,0,1.564-.475,2.63,2.63,0,0,0,.976-1.345l1.424.237a3.819,3.819,0,0,1-1.463,2.1A4.185,4.185,0,0,1,169.967,17.158ZM178.923,17a2.271,2.271,0,0,1-1.687-.62,2.344,2.344,0,0,1-.615-1.727V9.573h-1.767V8.36h.65a1.249,1.249,0,0,0,.954-.3,1.492,1.492,0,0,0,.277-1.015V5.478h1.415V8.36h1.986V9.573H178.15V14.5a1.31,1.31,0,0,0,.33.954,1.154,1.154,0,0,0,.866.338h.791V17Zm8.789-8.64h1.521V17h-1.459l-.035-1.143a2.7,2.7,0,0,1-1.072.971,3.3,3.3,0,0,1-1.512.338,3.005,3.005,0,0,1-2.175-.782,2.918,2.918,0,0,1-.813-2.206V8.36h1.521v5.476a2.05,2.05,0,0,0,.532,1.547,1.882,1.882,0,0,0,1.358.51,2.067,2.067,0,0,0,1.534-.6,2.434,2.434,0,0,0,.6-1.767Zm6.1,1.521a2.612,2.612,0,0,1,1.072-1.16,3.229,3.229,0,0,1,1.661-.457V9.7a2.846,2.846,0,0,0-2.008.642,2.68,2.68,0,0,0-.69,2.048V17h-1.521V8.36h1.485Zm6.407,7.286a2.94,2.94,0,0,1-1.894-.593,2.13,2.13,0,0,1-.743-1.771,2.517,2.517,0,0,1,.237-1.129,1.991,1.991,0,0,1,.7-.787,4.218,4.218,0,0,1,1.015-.488,9.384,9.384,0,0,1,1.314-.312l1.4-.229q.765-.141.765-.8a1.51,1.51,0,0,0-.541-1.288,2.2,2.2,0,0,0-1.367-.409,2.243,2.243,0,0,0-1.354.4,1.655,1.655,0,0,0-.642,1.213l-1.371-.29a2.639,2.639,0,0,1,1.081-1.85,4.039,4.039,0,0,1,2.355-.62,4.777,4.777,0,0,1,1.252.154,3.4,3.4,0,0,1,1.046.483,2.168,2.168,0,0,1,.747.932,3.466,3.466,0,0,1,.268,1.419v3.568a1.46,1.46,0,0,0,.2.9.854.854,0,0,0,.681.233h.141V17h-.756a1.442,1.442,0,0,1-1.635-1.169h-.07A3.3,3.3,0,0,1,200.219,17.167Zm.352-1.23a2.305,2.305,0,0,0,1.854-.835,3.438,3.438,0,0,0,.7-2.285l-2.285.439a3.076,3.076,0,0,0-1.34.479,1.114,1.114,0,0,0-.435.945,1.1,1.1,0,0,0,.417.949A1.785,1.785,0,0,0,200.571,15.937Z" transform="translate(-1752 -3120)" fill="#00223d"/>
    <path id="Trazado_12666" data-name="Trazado 12666" d="M41.572,4.625h1.661L38.7,17H37.081L32.546,4.625H34.2L37.89,15.031Zm4.834,12.542a2.94,2.94,0,0,1-1.894-.593A2.13,2.13,0,0,1,43.77,14.8a2.517,2.517,0,0,1,.237-1.129,1.991,1.991,0,0,1,.7-.787,4.218,4.218,0,0,1,1.015-.488,9.384,9.384,0,0,1,1.314-.312l1.4-.229q.765-.141.765-.8a1.51,1.51,0,0,0-.541-1.288,2.2,2.2,0,0,0-1.367-.409,2.243,2.243,0,0,0-1.354.4,1.655,1.655,0,0,0-.642,1.213l-1.371-.29a2.639,2.639,0,0,1,1.081-1.85,4.039,4.039,0,0,1,2.355-.62,4.777,4.777,0,0,1,1.252.154,3.4,3.4,0,0,1,1.046.483,2.168,2.168,0,0,1,.747.932,3.466,3.466,0,0,1,.268,1.419v3.568a1.46,1.46,0,0,0,.2.9.854.854,0,0,0,.681.233H51.7V17h-.756a1.442,1.442,0,0,1-1.635-1.169h-.07A3.3,3.3,0,0,1,46.406,17.167Zm.352-1.23a2.305,2.305,0,0,0,1.854-.835,3.438,3.438,0,0,0,.7-2.285l-2.285.439a3.076,3.076,0,0,0-1.34.479,1.114,1.114,0,0,0-.435.945,1.1,1.1,0,0,0,.417.949A1.785,1.785,0,0,0,46.758,15.937ZM53.842,17V3.5H55.38V17Zm8.271.167a4.554,4.554,0,0,1-2.215-.536,3.9,3.9,0,0,1-1.56-1.569,4.819,4.819,0,0,1-.576-2.386,4.4,4.4,0,0,1,1.226-3.256,4.6,4.6,0,0,1,6.253,0,4.41,4.41,0,0,1,1.222,3.256,4.413,4.413,0,0,1-1.226,3.265A4.232,4.232,0,0,1,62.112,17.167ZM62.1,15.9a2.654,2.654,0,0,0,2.043-.888,3.326,3.326,0,0,0,.813-2.338,3.314,3.314,0,0,0-.813-2.329A2.654,2.654,0,0,0,62.1,9.459a2.617,2.617,0,0,0-2.026.888,3.336,3.336,0,0,0-.8,2.329,3.348,3.348,0,0,0,.8,2.338A2.617,2.617,0,0,0,62.1,15.9ZM70.33,9.881A2.612,2.612,0,0,1,71.4,8.721a3.229,3.229,0,0,1,1.661-.457V9.7a2.846,2.846,0,0,0-2.008.642,2.68,2.68,0,0,0-.69,2.048V17H68.845V8.36H70.33Zm11.188,7.286a2.94,2.94,0,0,1-1.894-.593,2.13,2.13,0,0,1-.743-1.771,2.517,2.517,0,0,1,.237-1.129,1.991,1.991,0,0,1,.7-.787,4.218,4.218,0,0,1,1.015-.488,9.384,9.384,0,0,1,1.314-.312l1.4-.229q.765-.141.765-.8a1.51,1.51,0,0,0-.541-1.288,2.2,2.2,0,0,0-1.367-.409,2.243,2.243,0,0,0-1.354.4,1.655,1.655,0,0,0-.642,1.213l-1.371-.29a2.639,2.639,0,0,1,1.081-1.85,4.039,4.039,0,0,1,2.355-.62,4.777,4.777,0,0,1,1.252.154,3.4,3.4,0,0,1,1.046.483,2.168,2.168,0,0,1,.747.932A3.466,3.466,0,0,1,85.79,11.2v3.568a1.46,1.46,0,0,0,.2.9.854.854,0,0,0,.681.233h.141V17h-.756a1.442,1.442,0,0,1-1.635-1.169h-.07A3.3,3.3,0,0,1,81.519,17.167Zm.352-1.23a2.305,2.305,0,0,0,1.854-.835,3.438,3.438,0,0,0,.7-2.285l-2.285.439a3.076,3.076,0,0,0-1.34.479,1.114,1.114,0,0,0-.435.945,1.1,1.1,0,0,0,.417.949A1.785,1.785,0,0,0,81.87,15.937ZM95.036,8.36h1.477v8.2A4.706,4.706,0,0,1,95.4,19.927a4.648,4.648,0,0,1-7.286-1.468l1.257-.615a2.856,2.856,0,0,0,2.892,2A2.48,2.48,0,0,0,94.285,19a3.591,3.591,0,0,0,.7-2.355v-1.6a3.045,3.045,0,0,1-1.23,1.244,3.58,3.58,0,0,1-1.8.47,3.7,3.7,0,0,1-2.795-1.217A4.293,4.293,0,0,1,88,12.465,4.253,4.253,0,0,1,89.161,9.4a3.74,3.74,0,0,1,2.808-1.208,3.49,3.49,0,0,1,1.811.483A3.112,3.112,0,0,1,95,9.951Zm-2.742,7.1a2.614,2.614,0,0,0,1.991-.888,3.136,3.136,0,0,0,0-4.228A2.708,2.708,0,0,0,90.3,10.32a3,3,0,0,0-.813,2.145,2.978,2.978,0,0,0,.822,2.131A2.634,2.634,0,0,0,92.294,15.462Zm8.8-5.581a2.612,2.612,0,0,1,1.072-1.16,3.229,3.229,0,0,1,1.661-.457V9.7a2.846,2.846,0,0,0-2.008.642,2.68,2.68,0,0,0-.69,2.048V17H99.606V8.36h1.485Zm11.971,2.628-.018.413h-6.75a3.053,3.053,0,0,0,.826,2.21,2.713,2.713,0,0,0,1.969.769,2.59,2.59,0,0,0,1.433-.413,2.68,2.68,0,0,0,.984-1.143l1.371.29A3.9,3.9,0,0,1,111.4,16.49a4.028,4.028,0,0,1-2.294.677,4.174,4.174,0,0,1-3.111-1.2,4.479,4.479,0,0,1-1.187-3.287A4.458,4.458,0,0,1,106,9.4a4.122,4.122,0,0,1,3.063-1.2,3.9,3.9,0,0,1,2.9,1.107A4.376,4.376,0,0,1,113.063,12.509Zm-4-3.146a2.694,2.694,0,0,0-1.8.611,2.8,2.8,0,0,0-.91,1.78h5.177a2.567,2.567,0,0,0-.756-1.78A2.441,2.441,0,0,0,109.063,9.362Zm12.639-1h1.477v8.2a4.706,4.706,0,0,1-1.116,3.366,4.648,4.648,0,0,1-7.286-1.468l1.257-.615a2.856,2.856,0,0,0,2.892,2A2.48,2.48,0,0,0,120.951,19a3.591,3.591,0,0,0,.7-2.355v-1.6a3.045,3.045,0,0,1-1.23,1.244,3.58,3.58,0,0,1-1.8.47,3.7,3.7,0,0,1-2.795-1.217,4.293,4.293,0,0,1-1.151-3.072A4.253,4.253,0,0,1,115.827,9.4a3.74,3.74,0,0,1,2.808-1.208,3.49,3.49,0,0,1,1.811.483,3.112,3.112,0,0,1,1.222,1.274Zm-2.742,7.1a2.614,2.614,0,0,0,1.991-.888,3.136,3.136,0,0,0,0-4.228,2.708,2.708,0,0,0-3.986-.026,3,3,0,0,0-.813,2.145,2.978,2.978,0,0,0,.822,2.131A2.634,2.634,0,0,0,118.96,15.462Zm9.308,1.705a2.94,2.94,0,0,1-1.894-.593,2.13,2.13,0,0,1-.743-1.771,2.517,2.517,0,0,1,.237-1.129,1.991,1.991,0,0,1,.7-.787,4.218,4.218,0,0,1,1.015-.488,9.384,9.384,0,0,1,1.314-.312l1.4-.229q.765-.141.765-.8a1.51,1.51,0,0,0-.541-1.288,2.2,2.2,0,0,0-1.367-.409,2.243,2.243,0,0,0-1.354.4,1.655,1.655,0,0,0-.642,1.213l-1.371-.29a2.639,2.639,0,0,1,1.081-1.85,4.039,4.039,0,0,1,2.355-.62,4.777,4.777,0,0,1,1.252.154,3.4,3.4,0,0,1,1.046.483,2.168,2.168,0,0,1,.747.932,3.466,3.466,0,0,1,.268,1.419v3.568a1.46,1.46,0,0,0,.2.9.854.854,0,0,0,.681.233h.141V17H132.8a1.442,1.442,0,0,1-1.635-1.169h-.07A3.3,3.3,0,0,1,128.268,17.167Zm.352-1.23a2.305,2.305,0,0,0,1.854-.835,3.438,3.438,0,0,0,.7-2.285l-2.285.439a3.076,3.076,0,0,0-1.34.479,1.114,1.114,0,0,0-.435.945,1.1,1.1,0,0,0,.417.949A1.785,1.785,0,0,0,128.619,15.937ZM141.908,3.5h1.521V17h-1.468l-.035-1.679a3.179,3.179,0,0,1-1.23,1.362,3.429,3.429,0,0,1-1.828.5,3.926,3.926,0,0,1-2.852-1.217,4.16,4.16,0,0,1-.87-1.428,5.225,5.225,0,0,1-.321-1.854A4.543,4.543,0,0,1,136,9.441a3.788,3.788,0,0,1,2.87-1.248,3.443,3.443,0,0,1,1.806.488A3.2,3.2,0,0,1,141.908,10Zm-2.725,12.366a2.587,2.587,0,0,0,2.008-.91A3.283,3.283,0,0,0,142,12.685a3.277,3.277,0,0,0-.817-2.268,2.586,2.586,0,0,0-2-.914,2.644,2.644,0,0,0-2.021.883,3.25,3.25,0,0,0-.817,2.3,3.25,3.25,0,0,0,.817,2.3A2.644,2.644,0,0,0,139.184,15.866Zm10.978,1.3a4.554,4.554,0,0,1-2.215-.536,3.9,3.9,0,0,1-1.56-1.569,4.819,4.819,0,0,1-.576-2.386,4.4,4.4,0,0,1,1.226-3.256,4.6,4.6,0,0,1,6.253,0,4.41,4.41,0,0,1,1.222,3.256,4.413,4.413,0,0,1-1.226,3.265A4.232,4.232,0,0,1,150.161,17.167Zm-.009-1.266a2.654,2.654,0,0,0,2.043-.888,3.326,3.326,0,0,0,.813-2.338,3.314,3.314,0,0,0-.813-2.329,2.654,2.654,0,0,0-2.043-.888,2.617,2.617,0,0,0-2.026.888,3.336,3.336,0,0,0-.8,2.329,3.348,3.348,0,0,0,.8,2.338A2.617,2.617,0,0,0,150.152,15.9Zm20.426-2.259a3.482,3.482,0,0,1-.316,1.516,2.866,2.866,0,0,1-.883,1.085,4.319,4.319,0,0,1-1.292.65,6.34,6.34,0,0,1-1.586.272v1.125h-.826V17.167a5.154,5.154,0,0,1-2.861-.967,3.7,3.7,0,0,1-1.455-2.3l1.6-.387a2.6,2.6,0,0,0,.932,1.564,3.345,3.345,0,0,0,1.784.712V11.3l-.088-.026q-.51-.141-.831-.237t-.773-.268a4.781,4.781,0,0,1-.734-.338,5.472,5.472,0,0,1-.6-.422,2.129,2.129,0,0,1-.5-.549,2.915,2.915,0,0,1-.3-.694,3.064,3.064,0,0,1-.119-.875,3.34,3.34,0,0,1,.316-1.472,2.9,2.9,0,0,1,.861-1.068,4.181,4.181,0,0,1,1.252-.642,5.282,5.282,0,0,1,1.516-.246V3.3h.826v1.2a5.107,5.107,0,0,1,2.54.888,3.363,3.363,0,0,1,1.345,2.083l-1.521.4a2.389,2.389,0,0,0-.826-1.371,3.053,3.053,0,0,0-1.538-.624v4.219q.4.105.659.18t.637.2a5.953,5.953,0,0,1,.633.237q.25.114.571.286a2.835,2.835,0,0,1,.523.347,4.765,4.765,0,0,1,.422.422,2.109,2.109,0,0,1,.347.523,3.181,3.181,0,0,1,.207.624A3.337,3.337,0,0,1,170.578,13.643ZM163.31,7.877a1.546,1.546,0,0,0,.176.747,1.53,1.53,0,0,0,.527.554,4.108,4.108,0,0,0,.729.378q.378.149.932.308V5.829a3,3,0,0,0-1.683.563A1.741,1.741,0,0,0,163.31,7.877ZM166.5,15.8a3.263,3.263,0,0,0,1.8-.589,1.756,1.756,0,0,0,.668-1.529,1.79,1.79,0,0,0-.193-.809,1.662,1.662,0,0,0-.554-.6,4.427,4.427,0,0,0-.765-.417,9.313,9.313,0,0,0-.958-.334Zm16.058-2.162a3.482,3.482,0,0,1-.316,1.516,2.866,2.866,0,0,1-.883,1.085,4.319,4.319,0,0,1-1.292.65,6.34,6.34,0,0,1-1.586.272v1.125h-.826V17.167a5.154,5.154,0,0,1-2.861-.967,3.7,3.7,0,0,1-1.455-2.3l1.6-.387a2.6,2.6,0,0,0,.932,1.564,3.345,3.345,0,0,0,1.784.712V11.3l-.088-.026q-.51-.141-.831-.237t-.773-.268a4.781,4.781,0,0,1-.734-.338,5.472,5.472,0,0,1-.6-.422,2.129,2.129,0,0,1-.5-.549,2.915,2.915,0,0,1-.3-.694,3.064,3.064,0,0,1-.119-.875,3.34,3.34,0,0,1,.316-1.472,2.9,2.9,0,0,1,.861-1.068,4.181,4.181,0,0,1,1.252-.642,5.282,5.282,0,0,1,1.516-.246V3.3h.826v1.2a5.107,5.107,0,0,1,2.54.888,3.363,3.363,0,0,1,1.345,2.083l-1.521.4a2.389,2.389,0,0,0-.826-1.371,3.053,3.053,0,0,0-1.538-.624v4.219q.4.105.659.18t.637.2a5.953,5.953,0,0,1,.633.237q.25.114.571.286a2.835,2.835,0,0,1,.523.347,4.765,4.765,0,0,1,.422.422,2.109,2.109,0,0,1,.347.523,3.181,3.181,0,0,1,.207.624A3.337,3.337,0,0,1,182.558,13.643Zm-7.269-5.766a1.546,1.546,0,0,0,.176.747,1.53,1.53,0,0,0,.527.554,4.108,4.108,0,0,0,.729.378q.378.149.932.308V5.829a3,3,0,0,0-1.683.563A1.741,1.741,0,0,0,175.289,7.877Zm3.19,7.928a3.263,3.263,0,0,0,1.8-.589,1.756,1.756,0,0,0,.668-1.529,1.79,1.79,0,0,0-.193-.809,1.662,1.662,0,0,0-.554-.6,4.427,4.427,0,0,0-.765-.417,9.313,9.313,0,0,0-.958-.334Z" transform="translate(-1756 -3073)" fill="#00223d"/>
    <path id="Trazado_12670" data-name="Trazado 12670" d="M20.586,13.643a3.482,3.482,0,0,1-.316,1.516,2.866,2.866,0,0,1-.883,1.085,4.319,4.319,0,0,1-1.292.65,6.34,6.34,0,0,1-1.586.272v1.125h-.826V17.167a5.154,5.154,0,0,1-2.861-.967,3.7,3.7,0,0,1-1.455-2.3l1.6-.387a2.6,2.6,0,0,0,.932,1.564,3.345,3.345,0,0,0,1.784.712V11.3l-.088-.026q-.51-.141-.831-.237t-.773-.268a4.781,4.781,0,0,1-.734-.338,5.472,5.472,0,0,1-.6-.422,2.129,2.129,0,0,1-.5-.549,2.915,2.915,0,0,1-.3-.694,3.064,3.064,0,0,1-.119-.875,3.34,3.34,0,0,1,.316-1.472,2.9,2.9,0,0,1,.861-1.068,4.181,4.181,0,0,1,1.252-.642,5.282,5.282,0,0,1,1.516-.246V3.3h.826v1.2a5.107,5.107,0,0,1,2.54.888,3.363,3.363,0,0,1,1.345,2.083l-1.521.4a2.389,2.389,0,0,0-.826-1.371,3.053,3.053,0,0,0-1.538-.624v4.219q.4.105.659.18t.637.2a5.953,5.953,0,0,1,.633.237q.25.114.571.286a2.835,2.835,0,0,1,.523.347,4.765,4.765,0,0,1,.422.422,2.109,2.109,0,0,1,.347.523,3.181,3.181,0,0,1,.207.624A3.337,3.337,0,0,1,20.586,13.643ZM13.318,7.877a1.546,1.546,0,0,0,.176.747,1.53,1.53,0,0,0,.527.554,4.108,4.108,0,0,0,.729.378q.378.149.932.308V5.829A3,3,0,0,0,14,6.392,1.741,1.741,0,0,0,13.318,7.877Zm3.19,7.928a3.263,3.263,0,0,0,1.8-.589,1.756,1.756,0,0,0,.668-1.529,1.79,1.79,0,0,0-.193-.809,1.662,1.662,0,0,0-.554-.6,4.427,4.427,0,0,0-.765-.417,9.313,9.313,0,0,0-.958-.334Zm16.058-2.162a3.482,3.482,0,0,1-.316,1.516,2.866,2.866,0,0,1-.883,1.085,4.319,4.319,0,0,1-1.292.65,6.34,6.34,0,0,1-1.586.272v1.125h-.826V17.167A5.154,5.154,0,0,1,24.8,16.2a3.7,3.7,0,0,1-1.455-2.3l1.6-.387a2.6,2.6,0,0,0,.932,1.564,3.345,3.345,0,0,0,1.784.712V11.3l-.088-.026q-.51-.141-.831-.237t-.773-.268a4.781,4.781,0,0,1-.734-.338,5.472,5.472,0,0,1-.6-.422,2.129,2.129,0,0,1-.5-.549,2.915,2.915,0,0,1-.3-.694,3.064,3.064,0,0,1-.119-.875,3.34,3.34,0,0,1,.316-1.472,2.9,2.9,0,0,1,.861-1.068,4.181,4.181,0,0,1,1.252-.642,5.282,5.282,0,0,1,1.516-.246V3.3h.826v1.2a5.107,5.107,0,0,1,2.54.888,3.363,3.363,0,0,1,1.345,2.083l-1.521.4a2.389,2.389,0,0,0-.826-1.371,3.053,3.053,0,0,0-1.538-.624v4.219q.4.105.659.18t.637.2a5.953,5.953,0,0,1,.633.237q.25.114.571.286a2.835,2.835,0,0,1,.523.347,4.765,4.765,0,0,1,.422.422,2.109,2.109,0,0,1,.347.523,3.181,3.181,0,0,1,.207.624A3.337,3.337,0,0,1,32.566,13.643ZM25.3,7.877a1.546,1.546,0,0,0,.176.747A1.53,1.53,0,0,0,26,9.178a4.108,4.108,0,0,0,.729.378q.378.149.932.308V5.829a3,3,0,0,0-1.683.563A1.741,1.741,0,0,0,25.3,7.877Zm3.19,7.928a3.263,3.263,0,0,0,1.8-.589,1.756,1.756,0,0,0,.668-1.529,1.79,1.79,0,0,0-.193-.809,1.662,1.662,0,0,0-.554-.6,4.427,4.427,0,0,0-.765-.417,9.313,9.313,0,0,0-.958-.334Zm16.058-2.162a3.482,3.482,0,0,1-.316,1.516,2.866,2.866,0,0,1-.883,1.085,4.319,4.319,0,0,1-1.292.65,6.34,6.34,0,0,1-1.586.272v1.125h-.826V17.167A5.154,5.154,0,0,1,36.78,16.2a3.7,3.7,0,0,1-1.455-2.3l1.6-.387a2.6,2.6,0,0,0,.932,1.564,3.345,3.345,0,0,0,1.784.712V11.3l-.088-.026q-.51-.141-.831-.237t-.773-.268a4.781,4.781,0,0,1-.734-.338,5.472,5.472,0,0,1-.6-.422,2.129,2.129,0,0,1-.5-.549,2.915,2.915,0,0,1-.3-.694,3.064,3.064,0,0,1-.119-.875,3.34,3.34,0,0,1,.316-1.472,2.9,2.9,0,0,1,.861-1.068,4.181,4.181,0,0,1,1.252-.642,5.282,5.282,0,0,1,1.516-.246V3.3h.826v1.2a5.107,5.107,0,0,1,2.54.888,3.363,3.363,0,0,1,1.345,2.083l-1.521.4a2.389,2.389,0,0,0-.826-1.371,3.053,3.053,0,0,0-1.538-.624v4.219q.4.105.659.18t.637.2a5.953,5.953,0,0,1,.633.237q.25.114.571.286a2.835,2.835,0,0,1,.523.347,4.765,4.765,0,0,1,.422.422,2.109,2.109,0,0,1,.347.523,3.181,3.181,0,0,1,.207.624A3.337,3.337,0,0,1,44.545,13.643ZM37.277,7.877a1.546,1.546,0,0,0,.176.747,1.53,1.53,0,0,0,.527.554,4.108,4.108,0,0,0,.729.378q.378.149.932.308V5.829a3,3,0,0,0-1.683.563A1.741,1.741,0,0,0,37.277,7.877Zm3.19,7.928a3.263,3.263,0,0,0,1.8-.589,1.756,1.756,0,0,0,.668-1.529,1.79,1.79,0,0,0-.193-.809,1.662,1.662,0,0,0-.554-.6,4.427,4.427,0,0,0-.765-.417,9.313,9.313,0,0,0-.958-.334Z" transform="translate(-1494 -3073)" fill="#00223d"/>
    <path id="Trazado_12669" data-name="Trazado 12669" d="M11.668,5a3.257,3.257,0,0,1,1.723.457A3.087,3.087,0,0,1,14.547,6.68a3.588,3.588,0,0,1,.4,1.7,3.338,3.338,0,0,1-.91,2.395,3.123,3.123,0,0,1-2.371.957H8.9V16H7.5V5Zm-.2,5.508A2,2,0,0,0,13,9.918a2.183,2.183,0,0,0,.555-1.559A2.189,2.189,0,0,0,13,6.809a1.986,1.986,0,0,0-1.531-.6H8.9v4.3Zm6.273-3.992a.92.92,0,0,1-.914-.914.867.867,0,0,1,.27-.641.886.886,0,0,1,.645-.266.877.877,0,0,1,.637.266.867.867,0,0,1,.27.641.88.88,0,0,1-.27.645A.871.871,0,0,1,17.738,6.516ZM17.051,16V8.32H18.41V16Zm10.828-3.992-.016.367h-6A2.714,2.714,0,0,0,22.6,14.34a2.411,2.411,0,0,0,1.75.684,2.3,2.3,0,0,0,1.273-.367,2.383,2.383,0,0,0,.875-1.016l1.219.258A3.464,3.464,0,0,1,26.4,15.547a3.581,3.581,0,0,1-2.039.6,3.71,3.71,0,0,1-2.766-1.07,3.982,3.982,0,0,1-1.055-2.922A3.962,3.962,0,0,1,21.6,9.242a3.664,3.664,0,0,1,2.723-1.07,3.467,3.467,0,0,1,2.582.984A3.889,3.889,0,0,1,27.879,12.008Zm-3.555-2.8a2.4,2.4,0,0,0-1.6.543,2.488,2.488,0,0,0-.809,1.582h4.6a2.282,2.282,0,0,0-.672-1.582A2.17,2.17,0,0,0,24.324,9.211Zm6.508,5.7h4.094V16H28.8l4.047-6.578H29.035V8.32h5.883ZM38.3,16.148a2.613,2.613,0,0,1-1.684-.527,1.894,1.894,0,0,1-.66-1.574,2.237,2.237,0,0,1,.211-1,1.77,1.77,0,0,1,.625-.7,3.749,3.749,0,0,1,.9-.434,8.341,8.341,0,0,1,1.168-.277l1.242-.2q.68-.125.68-.711a1.342,1.342,0,0,0-.48-1.145,1.958,1.958,0,0,0-1.215-.363,1.994,1.994,0,0,0-1.2.352,1.471,1.471,0,0,0-.57,1.078L36.1,10.383a2.346,2.346,0,0,1,.961-1.645,3.59,3.59,0,0,1,2.094-.551,4.247,4.247,0,0,1,1.113.137,3.025,3.025,0,0,1,.93.43,1.927,1.927,0,0,1,.664.828,3.081,3.081,0,0,1,.238,1.262v3.172a1.3,1.3,0,0,0,.176.8.759.759,0,0,0,.605.207H43V16h-.672a1.281,1.281,0,0,1-1.453-1.039h-.062A2.935,2.935,0,0,1,38.3,16.148Zm.313-1.094a2.049,2.049,0,0,0,1.648-.742,3.056,3.056,0,0,0,.625-2.031l-2.031.391a2.734,2.734,0,0,0-1.191.426.99.99,0,0,0-.387.84.979.979,0,0,0,.371.844A1.586,1.586,0,0,0,38.613,15.055ZM53.121,8.172a3.493,3.493,0,0,1,1.391.281,3.421,3.421,0,0,1,1.141.789,3.688,3.688,0,0,1,.77,1.266,4.667,4.667,0,0,1,.285,1.656,4.061,4.061,0,0,1-1.035,2.9,3.362,3.362,0,0,1-2.551,1.1,3.04,3.04,0,0,1-1.605-.437,2.867,2.867,0,0,1-1.1-1.18v5.32H49.066V8.32h1.3L50.4,9.813a2.811,2.811,0,0,1,1.094-1.2A3.068,3.068,0,0,1,53.121,8.172Zm-.266,6.82a2.332,2.332,0,0,0,1.777-.777,2.892,2.892,0,0,0,.723-2.051,2.877,2.877,0,0,0-.723-2.047,2.423,2.423,0,0,0-3.582.035,2.88,2.88,0,0,0-.734,2.012,2.891,2.891,0,0,0,.734,2.02A2.343,2.343,0,0,0,52.855,14.992Zm7.3-5.32a2.322,2.322,0,0,1,.953-1.031,2.87,2.87,0,0,1,1.477-.406V9.508a2.53,2.53,0,0,0-1.785.57,2.382,2.382,0,0,0-.613,1.82V16H58.84V8.32h1.32Zm7.156,6.477a4.048,4.048,0,0,1-1.969-.477,3.47,3.47,0,0,1-1.387-1.395,4.283,4.283,0,0,1-.512-2.121,3.912,3.912,0,0,1,1.09-2.895,4.089,4.089,0,0,1,5.559,0,3.92,3.92,0,0,1,1.086,2.895,3.923,3.923,0,0,1-1.09,2.9A3.762,3.762,0,0,1,67.316,16.148Zm-.008-1.125a2.359,2.359,0,0,0,1.816-.789,2.957,2.957,0,0,0,.723-2.078,2.945,2.945,0,0,0-.723-2.07A2.359,2.359,0,0,0,67.309,9.3a2.326,2.326,0,0,0-1.8.789,2.965,2.965,0,0,0-.715,2.07,2.976,2.976,0,0,0,.715,2.078A2.326,2.326,0,0,0,67.309,15.023Zm9.18,1.117a3.7,3.7,0,0,1-2.75-1.1,3.929,3.929,0,0,1-1.086-2.883,3.937,3.937,0,0,1,1.082-2.883,4,4,0,0,1,4.977-.43A3.391,3.391,0,0,1,80,10.711l-1.266.2a2.337,2.337,0,0,0-.867-1.2A2.361,2.361,0,0,0,76.48,9.3a2.27,2.27,0,0,0-1.777.789,3.006,3.006,0,0,0-.7,2.07,2.991,2.991,0,0,0,.7,2.066,2.275,2.275,0,0,0,1.777.785,2.361,2.361,0,0,0,1.391-.422,2.337,2.337,0,0,0,.867-1.2L80,13.6a3.4,3.4,0,0,1-1.3,1.863A3.72,3.72,0,0,1,76.488,16.141Zm12.227-4.133-.016.367h-6a2.714,2.714,0,0,0,.734,1.965,2.411,2.411,0,0,0,1.75.684,2.3,2.3,0,0,0,1.273-.367,2.383,2.383,0,0,0,.875-1.016l1.219.258a3.464,3.464,0,0,1-1.312,1.648,3.581,3.581,0,0,1-2.039.6,3.71,3.71,0,0,1-2.766-1.07,3.982,3.982,0,0,1-1.055-2.922,3.962,3.962,0,0,1,1.059-2.914,3.664,3.664,0,0,1,2.723-1.07,3.467,3.467,0,0,1,2.582.984A3.889,3.889,0,0,1,88.715,12.008Zm-3.555-2.8a2.4,2.4,0,0,0-1.6.543,2.488,2.488,0,0,0-.809,1.582h4.6a2.282,2.282,0,0,0-.672-1.582A2.17,2.17,0,0,0,85.16,9.211Zm8.1,6.938a3.641,3.641,0,0,1-2.07-.555,2.294,2.294,0,0,1-1.008-1.578l1.18-.336a1.645,1.645,0,0,0,.629,1.066,2.04,2.04,0,0,0,1.262.379,2.518,2.518,0,0,0,.738-.1,1.184,1.184,0,0,0,.566-.379,1.057,1.057,0,0,0,.164-1.016,1.357,1.357,0,0,0-.125-.254.774.774,0,0,0-.219-.211A2.885,2.885,0,0,0,94.113,13a2.726,2.726,0,0,0-.348-.145q-.23-.082-.371-.125t-.43-.125q-.289-.082-.445-.129a8.331,8.331,0,0,1-.8-.281,3.5,3.5,0,0,1-.648-.371,1.493,1.493,0,0,1-.5-.605,2.049,2.049,0,0,1-.168-.859,1.986,1.986,0,0,1,.375-1.227,2.11,2.11,0,0,1,.973-.723,3.888,3.888,0,0,1,1.363-.223,3.337,3.337,0,0,1,1.871.5,2.134,2.134,0,0,1,.934,1.5l-1.109.281a1.471,1.471,0,0,0-.586-.973,1.865,1.865,0,0,0-1.1-.324,1.9,1.9,0,0,0-1.031.27.906.906,0,0,0-.43.824.82.82,0,0,0,.113.426,1.352,1.352,0,0,0,.23.3,1.417,1.417,0,0,0,.422.23q.3.121.453.164t.563.145q.078.023.117.031.453.117.738.207a4.538,4.538,0,0,1,.664.281,2.208,2.208,0,0,1,.6.418,1.936,1.936,0,0,1,.375.594,2.1,2.1,0,0,1,.156.828,2.237,2.237,0,0,1-.23,1.035,1.8,1.8,0,0,1-.629.707,3.042,3.042,0,0,1-.895.387A4.262,4.262,0,0,1,93.262,16.148Zm6.727,0a2.613,2.613,0,0,1-1.684-.527,1.894,1.894,0,0,1-.66-1.574,2.237,2.237,0,0,1,.211-1,1.77,1.77,0,0,1,.625-.7,3.749,3.749,0,0,1,.9-.434,8.341,8.341,0,0,1,1.168-.277l1.242-.2q.68-.125.68-.711a1.342,1.342,0,0,0-.48-1.145,1.958,1.958,0,0,0-1.215-.363,1.994,1.994,0,0,0-1.2.352A1.471,1.471,0,0,0,99,10.641l-1.219-.258a2.346,2.346,0,0,1,.961-1.645,3.59,3.59,0,0,1,2.094-.551,4.247,4.247,0,0,1,1.113.137,3.025,3.025,0,0,1,.93.43,1.927,1.927,0,0,1,.664.828,3.081,3.081,0,0,1,.238,1.262v3.172a1.3,1.3,0,0,0,.176.8.759.759,0,0,0,.605.207h.125V16h-.672a1.281,1.281,0,0,1-1.453-1.039H102.5A2.935,2.935,0,0,1,99.988,16.148Zm.313-1.094a2.049,2.049,0,0,0,1.648-.742,3.056,3.056,0,0,0,.625-2.031l-2.031.391a2.734,2.734,0,0,0-1.191.426.99.99,0,0,0-.387.84.979.979,0,0,0,.371.844A1.586,1.586,0,0,0,100.3,15.055ZM112.113,4h1.352V16h-1.3l-.031-1.492a2.826,2.826,0,0,1-1.094,1.211,3.048,3.048,0,0,1-1.625.445,3.49,3.49,0,0,1-2.535-1.082,3.7,3.7,0,0,1-.773-1.27,4.644,4.644,0,0,1-.285-1.648,4.038,4.038,0,0,1,1.043-2.883,3.367,3.367,0,0,1,2.551-1.109,3.061,3.061,0,0,1,1.605.434,2.842,2.842,0,0,1,1.1,1.176Zm-2.422,10.992a2.3,2.3,0,0,0,1.785-.809,2.919,2.919,0,0,0,.723-2.02,2.913,2.913,0,0,0-.727-2.016,2.3,2.3,0,0,0-1.781-.812,2.35,2.35,0,0,0-1.8.785,2.889,2.889,0,0,0-.727,2.043,2.889,2.889,0,0,0,.727,2.043A2.35,2.35,0,0,0,109.691,14.992Zm8.3,1.156a2.613,2.613,0,0,1-1.684-.527,1.894,1.894,0,0,1-.66-1.574,2.237,2.237,0,0,1,.211-1,1.77,1.77,0,0,1,.625-.7,3.749,3.749,0,0,1,.9-.434,8.341,8.341,0,0,1,1.168-.277l1.242-.2q.68-.125.68-.711a1.342,1.342,0,0,0-.48-1.145,1.958,1.958,0,0,0-1.215-.363,1.994,1.994,0,0,0-1.2.352,1.471,1.471,0,0,0-.57,1.078l-1.219-.258a2.346,2.346,0,0,1,.961-1.645,3.59,3.59,0,0,1,2.094-.551,4.247,4.247,0,0,1,1.113.137,3.025,3.025,0,0,1,.93.43,1.927,1.927,0,0,1,.664.828,3.081,3.081,0,0,1,.238,1.262v3.172a1.3,1.3,0,0,0,.176.8.759.759,0,0,0,.605.207h.125V16h-.672a1.281,1.281,0,0,1-1.453-1.039H120.5A2.935,2.935,0,0,1,117.988,16.148Zm.313-1.094a2.049,2.049,0,0,0,1.648-.742,3.056,3.056,0,0,0,.625-2.031l-2.031.391a2.734,2.734,0,0,0-1.191.426.99.99,0,0,0-.387.84.979.979,0,0,0,.371.844A1.586,1.586,0,0,0,118.3,15.055Z" transform="translate(-1534 -2993)" fill="#00223d"/>
    <line id="Línea_75-8" data-name="Línea 75" x2="22" transform="translate(-1779.5 -3012.5)" fill="none" stroke="#f2bb27" stroke-width="4"/>
    <path id="Polígono_5-8" data-name="Polígono 5" d="M6.5,0,13,9H0Z" transform="translate(-1748.5 -3019) rotate(90)" fill="#f2bb27"/>
    <line id="Línea_75-9" data-name="Línea 75" x2="22" transform="translate(-1570.5 -3012.5)" fill="none" stroke="#f2bb27" stroke-width="4"/>
    <path id="Polígono_5-9" data-name="Polígono 5" d="M6.5,0,13,9H0Z" transform="translate(-1539.5 -3019) rotate(90)" fill="#f2bb27"/>
    <line id="Línea_76" data-name="Línea 76" x2="571" transform="translate(-1926.5 -3155.5)" fill="none" stroke="#cbd9e4" stroke-width="3"/>
  </g>
</svg>
