<svg xmlns="http://www.w3.org/2000/svg" width="39.366" height="36.827" viewBox="0 0 39.366 36.827">
  <g id="robot" transform="translate(0 1.168)">
    <path id="Trazado_12515" data-name="Trazado 12515" d="M.635,14.705H4.157a9.443,9.443,0,0,0,.894,2.151L2.559,19.349a.635.635,0,0,0,0,.9l2.694,2.694a.636.636,0,0,0,.9,0l2.493-2.494a9.436,9.436,0,0,0,2.151.894v3.522a.635.635,0,0,0,.635.635h3.81a.635.635,0,0,0,.635-.635V21.342a9.437,9.437,0,0,0,2.151-.894l2.493,2.494a.654.654,0,0,0,.9,0l2.694-2.694a.635.635,0,0,0,0-.9l-2.494-2.492a9.443,9.443,0,0,0,.894-2.151h3.522a.635.635,0,0,0,.635-.635v-3.81a.635.635,0,0,0-.635-.635H22.51a9.446,9.446,0,0,0-.894-2.151l2.493-2.492a.635.635,0,0,0,0-.9L21.415,1.39a.635.635,0,0,0-.9,0L18.024,3.884a9.463,9.463,0,0,0-2.151-.894V-.533a.635.635,0,0,0-.635-.635h-3.81a.635.635,0,0,0-.635.635V2.99a9.464,9.464,0,0,0-2.151.894L6.15,1.39a.654.654,0,0,0-.9,0L2.558,4.084a.635.635,0,0,0,0,.9L5.052,7.475a9.445,9.445,0,0,0-.894,2.151H.635A.635.635,0,0,0,0,10.261v3.81a.635.635,0,0,0,.635.635ZM1.27,10.9H4.654a.635.635,0,0,0,.62-.5A8.169,8.169,0,0,1,6.387,7.721.635.635,0,0,0,6.3,6.929l-2.4-2.4,1.8-1.8,2.4,2.4a.635.635,0,0,0,.792.086,8.182,8.182,0,0,1,2.676-1.112.636.636,0,0,0,.5-.621V.1H14.6V3.486a.636.636,0,0,0,.5.621,8.182,8.182,0,0,1,2.676,1.112.635.635,0,0,0,.792-.086l2.4-2.4,1.8,1.8-2.4,2.4a.635.635,0,0,0-.086.792A8.167,8.167,0,0,1,21.392,10.4a.635.635,0,0,0,.62.5H25.4v2.54H22.012a.635.635,0,0,0-.62.5,8.159,8.159,0,0,1-1.112,2.675.635.635,0,0,0,.086.792l2.4,2.4-1.8,1.8-2.4-2.4a.635.635,0,0,0-.792-.086A8.163,8.163,0,0,1,15.1,20.225a.635.635,0,0,0-.5.62v3.384h-2.54V20.845a.635.635,0,0,0-.5-.62,8.163,8.163,0,0,1-2.675-1.112A.635.635,0,0,0,8.1,19.2l-2.4,2.4-1.8-1.8,2.4-2.4a.635.635,0,0,0,.086-.792,8.171,8.171,0,0,1-1.112-2.676.635.635,0,0,0-.62-.5H1.27Zm0,0" transform="translate(0)" fill="#ff8f00"/>
    <path id="Trazado_12516" data-name="Trazado 12516" d="M135.079,138.991A5.079,5.079,0,1,0,130,133.911,5.079,5.079,0,0,0,135.079,138.991Zm0-8.889a3.81,3.81,0,1,1-3.81,3.81A3.81,3.81,0,0,1,135.079,130.1Zm0,0" transform="translate(-121.746 -121.746)" fill="#ff8f00"/>
    <path id="Trazado_12517" data-name="Trazado 12517" d="M106.984,112.8A6.984,6.984,0,1,0,100,105.816,6.984,6.984,0,0,0,106.984,112.8Zm0-12.7a5.714,5.714,0,1,1-5.714,5.714A5.714,5.714,0,0,1,106.984,100.1Zm0,0" transform="translate(-93.651 -93.651)" fill="#ff8f00"/>
    <path id="Trazado_12518" data-name="Trazado 12518" d="M36.191,290.261v-5.079a.635.635,0,0,0-.635-.635h-1.27v-5.079a.635.635,0,0,0-.635-.635H27.937a.635.635,0,0,0-.635.635v5.079H24.128a.635.635,0,0,0-.635.635v5.079H3.175A3.179,3.179,0,0,0,0,293.436v1.27a3.178,3.178,0,0,0,3.175,3.175H36.191a3.178,3.178,0,0,0,3.175-3.175v-1.27a3.179,3.179,0,0,0-3.175-3.175Zm-1.27,0H30.477v-4.445h4.445ZM28.572,280.1h4.445v4.445H28.572Zm-3.81,5.714h4.445v4.445H24.763ZM38.1,294.705a1.9,1.9,0,0,1-1.9,1.9H3.175a1.9,1.9,0,0,1-1.9-1.9v-1.27a1.9,1.9,0,0,1,1.9-1.9H36.191a1.9,1.9,0,0,1,1.9,1.9Zm0,0" transform="translate(0 -262.222)" fill="#ff8f00"/>
    <path id="Trazado_12519" data-name="Trazado 12519" d="M281.9,488.832a1.9,1.9,0,1,0,1.9,1.9A1.9,1.9,0,0,0,281.9,488.832Zm0,2.54a.635.635,0,1,1,.635-.635A.635.635,0,0,1,281.9,491.372Zm0,0" transform="translate(-262.222 -458.888)" fill="#ff8f00"/>
    <path id="Trazado_12520" data-name="Trazado 12520" d="M181.9,488.832a1.9,1.9,0,1,0,1.9,1.9A1.9,1.9,0,0,0,181.9,488.832Zm0,2.54a.635.635,0,1,1,.635-.635A.635.635,0,0,1,181.9,491.372Zm0,0" transform="translate(-168.571 -458.888)" fill="#ff8f00"/>
    <path id="Trazado_12521" data-name="Trazado 12521" d="M381.9,488.832a1.9,1.9,0,1,0,1.9,1.9A1.905,1.905,0,0,0,381.9,488.832Zm0,2.54a.635.635,0,1,1,.635-.635A.635.635,0,0,1,381.9,491.372Zm0,0" transform="translate(-355.872 -458.888)" fill="#ff8f00"/>
    <path id="Trazado_12522" data-name="Trazado 12522" d="M81.9,488.832a1.9,1.9,0,1,0,1.9,1.9A1.9,1.9,0,0,0,81.9,488.832Zm0,2.54a.635.635,0,1,1,.635-.635A.635.635,0,0,1,81.9,491.372Zm0,0" transform="translate(-74.921 -458.888)" fill="#ff8f00"/>
    <path id="Trazado_12523" data-name="Trazado 12523" d="M481.9,488.832a1.9,1.9,0,1,0,1.9,1.9A1.905,1.905,0,0,0,481.9,488.832Zm0,2.54a.635.635,0,1,1,.635-.635A.635.635,0,0,1,481.9,491.372Zm0,0" transform="translate(-449.523 -458.888)" fill="#ff8f00"/>
  </g>
</svg>
