<svg id="report" xmlns="http://www.w3.org/2000/svg" width="83.394" height="83.394" viewBox="0 0 83.394 83.394">
  <path id="Trazado_9750" data-name="Trazado 9750" d="M48,448h2.69v2.69H48Zm0,0" transform="translate(-39.93 -372.676)" fill="#abb7be"/>
  <path id="Trazado_9751" data-name="Trazado 9751" d="M80,448h2.69v2.69H80Zm0,0" transform="translate(-66.549 -372.676)" fill="#abb7be"/>
  <path id="Trazado_9752" data-name="Trazado 9752" d="M112,448h2.69v2.69H112Zm0,0" transform="translate(-93.169 -372.676)" fill="#abb7be"/>
  <path id="Trazado_9753" data-name="Trazado 9753" d="M384,448h10.76v2.69H384Zm0,0" transform="translate(-319.437 -372.676)" fill="#abb7be"/>
  <path id="Trazado_9754" data-name="Trazado 9754" d="M80.7,69.943V25.556a6.733,6.733,0,0,0-6.725-6.725H69.943a18.831,18.831,0,0,0-37.662,0H9.415A6.733,6.733,0,0,0,2.69,25.556V69.943H0v6.725a6.733,6.733,0,0,0,6.725,6.725H76.669a6.733,6.733,0,0,0,6.725-6.725V69.943ZM73.979,21.521a4.04,4.04,0,0,1,4.035,4.035V69.943h-2.69V26.9a2.693,2.693,0,0,0-2.69-2.69H69.15a18.7,18.7,0,0,0,.578-2.69ZM35.753,13.888l14.276,5.949L54.918,34.5A16.115,16.115,0,0,1,35.753,13.888ZM57.473,33.66,52.651,19.194,63.425,8.42a16.11,16.11,0,0,1-5.952,25.24ZM51.112,2.69A16.066,16.066,0,0,1,61.525,6.517L50.8,17.242l-14-5.833A16.144,16.144,0,0,1,51.112,2.69ZM5.38,25.556a4.04,4.04,0,0,1,4.035-4.035H32.5a18.522,18.522,0,0,0,.578,2.69H10.76A2.693,2.693,0,0,0,8.07,26.9V69.943H5.38ZM80.7,76.669A4.04,4.04,0,0,1,76.669,80.7H6.725A4.04,4.04,0,0,1,2.69,76.669V72.634H30.4a10.452,10.452,0,0,0,7.031,2.69h8.531a10.452,10.452,0,0,0,7.031-2.69H69.943v-2.69H51.9l-.394.394a7.787,7.787,0,0,1-5.544,2.3H37.431a7.789,7.789,0,0,1-5.544-2.3l-.393-.394H10.76V26.9H34.124a18.79,18.79,0,0,0,33.976,0h4.533V72.634H80.7Zm0,0" fill="#abb7be"/>
  <path id="Trazado_9755" data-name="Trazado 9755" d="M132.457,296.07a4.012,4.012,0,0,0-2.234.679l-4.693-3.518a3.974,3.974,0,0,0,.2-1.2,4.035,4.035,0,0,0-8.07,0,3.994,3.994,0,0,0,.238,1.315l-7.533,6.027a3.955,3.955,0,0,0-4.526.2l-5.8-3.867a3.946,3.946,0,0,0,.136-.983,4.035,4.035,0,0,0-8.07,0,3.946,3.946,0,0,0,.136.983l-5.8,3.867a3.993,3.993,0,0,0-2.406-.815A4.035,4.035,0,1,0,88.07,302.8a3.946,3.946,0,0,0-.136-.983l5.8-3.867a3.96,3.96,0,0,0,4.813,0l5.8,3.867a3.955,3.955,0,0,0-.136.983,4.035,4.035,0,1,0,8.07,0,3.994,3.994,0,0,0-.238-1.315l7.533-6.027a3.983,3.983,0,0,0,4.354-.062l4.693,3.518a3.974,3.974,0,0,0-.2,1.2,4.035,4.035,0,1,0,4.035-4.035Zm-48.422,8.07A1.345,1.345,0,1,1,85.38,302.8,1.348,1.348,0,0,1,84.035,304.141Zm12.106-8.07a1.345,1.345,0,1,1,1.345-1.345A1.348,1.348,0,0,1,96.141,296.07Zm12.106,8.07a1.345,1.345,0,1,1,1.345-1.345A1.348,1.348,0,0,1,108.246,304.141ZM121.7,293.38a1.345,1.345,0,1,1,1.345-1.345A1.348,1.348,0,0,1,121.7,293.38Zm10.761,8.07a1.345,1.345,0,1,1,1.345-1.345A1.348,1.348,0,0,1,132.457,301.451Zm0,0" transform="translate(-66.549 -239.578)" fill="#abb7be"/>
  <path id="Trazado_9756" data-name="Trazado 9756" d="M101.521,176H80v18.831h21.521Zm-2.69,16.141H82.69V178.69H98.831Zm0,0" transform="translate(-66.549 -146.409)" fill="#abb7be"/>
  <path id="Trazado_9757" data-name="Trazado 9757" d="M112,208h10.761v2.69H112Zm0,0" transform="translate(-93.169 -173.028)" fill="#abb7be"/>
  <path id="Trazado_9758" data-name="Trazado 9758" d="M112,240h10.761v2.69H112Zm0,0" transform="translate(-93.169 -199.648)" fill="#abb7be"/>
  <path id="Trazado_9759" data-name="Trazado 9759" d="M224,256h2.69v2.69H224Zm0,0" transform="translate(-186.338 -212.958)" fill="#abb7be"/>
  <path id="Trazado_9760" data-name="Trazado 9760" d="M256,256h26.9v2.69H256Zm0,0" transform="translate(-212.958 -212.958)" fill="#abb7be"/>
</svg>
