<svg xmlns="http://www.w3.org/2000/svg" width="72.72" height="72.72" viewBox="0 0 72.72 72.72">
  <g id="factory" transform="translate(-16 -16)">
    <path id="Trazado_10479" data-name="Trazado 10479" d="M97.212,359.272h4.848a1.212,1.212,0,0,0,1.212-1.212v-4.848A1.212,1.212,0,0,0,102.06,352H97.212A1.212,1.212,0,0,0,96,353.212v4.848A1.212,1.212,0,0,0,97.212,359.272Zm1.212-4.848h2.424v2.424H98.424Z" transform="translate(-67.88 -285.096)" fill="#abb7be"/>
    <path id="Trazado_10480" data-name="Trazado 10480" d="M161.212,359.272h4.848a1.212,1.212,0,0,0,1.212-1.212v-4.848A1.212,1.212,0,0,0,166.06,352h-4.848A1.212,1.212,0,0,0,160,353.212v4.848A1.212,1.212,0,0,0,161.212,359.272Zm1.212-4.848h2.424v2.424h-2.424Z" transform="translate(-122.184 -285.096)" fill="#abb7be"/>
    <path id="Trazado_10481" data-name="Trazado 10481" d="M161.212,423.272h4.848a1.212,1.212,0,0,0,1.212-1.212v-4.848A1.212,1.212,0,0,0,166.06,416h-4.848A1.212,1.212,0,0,0,160,417.212v4.848A1.212,1.212,0,0,0,161.212,423.272Zm1.212-4.848h2.424v2.424h-2.424Z" transform="translate(-122.184 -339.4)" fill="#abb7be"/>
    <path id="Trazado_10482" data-name="Trazado 10482" d="M225.212,423.272h4.848a1.212,1.212,0,0,0,1.212-1.212v-4.848A1.212,1.212,0,0,0,230.06,416h-4.848A1.212,1.212,0,0,0,224,417.212v4.848A1.212,1.212,0,0,0,225.212,423.272Zm1.212-4.848h2.424v2.424h-2.424Z" transform="translate(-176.488 -339.4)" fill="#abb7be"/>
    <path id="Trazado_10483" data-name="Trazado 10483" d="M225.212,359.272h4.848a1.212,1.212,0,0,0,1.212-1.212v-4.848A1.212,1.212,0,0,0,230.06,352h-4.848A1.212,1.212,0,0,0,224,353.212v4.848A1.212,1.212,0,0,0,225.212,359.272Zm1.212-4.848h2.424v2.424h-2.424Z" transform="translate(-176.488 -285.096)" fill="#abb7be"/>
    <path id="Trazado_10484" data-name="Trazado 10484" d="M289.212,359.272h4.848a1.212,1.212,0,0,0,1.212-1.212v-4.848A1.212,1.212,0,0,0,294.06,352h-4.848A1.212,1.212,0,0,0,288,353.212v4.848A1.212,1.212,0,0,0,289.212,359.272Zm1.212-4.848h2.424v2.424h-2.424Z" transform="translate(-230.792 -285.096)" fill="#abb7be"/>
    <path id="Trazado_10485" data-name="Trazado 10485" d="M353.212,359.272h4.848a1.212,1.212,0,0,0,1.212-1.212v-4.848A1.212,1.212,0,0,0,358.06,352h-4.848A1.212,1.212,0,0,0,352,353.212v4.848A1.212,1.212,0,0,0,353.212,359.272Zm1.212-4.848h2.424v2.424h-2.424Z" transform="translate(-285.096 -285.096)" fill="#abb7be"/>
    <path id="Trazado_10486" data-name="Trazado 10486" d="M417.212,359.272h4.848a1.212,1.212,0,0,0,1.212-1.212v-4.848A1.212,1.212,0,0,0,422.06,352h-4.848A1.212,1.212,0,0,0,416,353.212v4.848A1.212,1.212,0,0,0,417.212,359.272Zm1.212-4.848h2.424v2.424h-2.424Z" transform="translate(-339.4 -285.096)" fill="#abb7be"/>
    <path id="Trazado_10487" data-name="Trazado 10487" d="M417.212,423.272h4.848a1.212,1.212,0,0,0,1.212-1.212v-4.848A1.212,1.212,0,0,0,422.06,416h-4.848A1.212,1.212,0,0,0,416,417.212v4.848A1.212,1.212,0,0,0,417.212,423.272Zm1.212-4.848h2.424v2.424h-2.424Z" transform="translate(-339.4 -339.4)" fill="#abb7be"/>
    <path id="Trazado_10488" data-name="Trazado 10488" d="M97.212,423.272h4.848a1.212,1.212,0,0,0,1.212-1.212v-4.848A1.212,1.212,0,0,0,102.06,416H97.212A1.212,1.212,0,0,0,96,417.212v4.848A1.212,1.212,0,0,0,97.212,423.272Zm1.212-4.848h2.424v2.424H98.424Z" transform="translate(-67.88 -339.4)" fill="#abb7be"/>
    <path id="Trazado_10489" data-name="Trazado 10489" d="M87.508,62.056H83.872V53.572a1.212,1.212,0,0,0-.72-1.108l-21.816-9.7a1.212,1.212,0,0,0-1.7,1.108v7.831l-2.687-1.194L56,22.04V17.212A1.212,1.212,0,0,0,54.784,16H49.936a1.212,1.212,0,0,0-1.212,1.212V22.04L47.909,46.5,39.52,42.769a1.212,1.212,0,0,0-1.7,1.107v7.831l-2.687-1.194L34.18,22.04V17.212A1.212,1.212,0,0,0,32.968,16H28.12a1.212,1.212,0,0,0-1.212,1.212V22.04L26.093,46.5,17.7,42.769A1.212,1.212,0,0,0,16,43.876V87.508a1.212,1.212,0,0,0,1.212,1.212h70.3a1.212,1.212,0,0,0,1.212-1.212V63.268A1.212,1.212,0,0,0,87.508,62.056ZM62.056,45.741,81.448,54.36v7.7H62.056ZM51.148,18.424h2.424v2.424H51.148Zm-.04,4.848h2.5l.872,26.147L50.3,47.559ZM40.24,45.741,59.632,54.36v7.7H40.24ZM29.332,18.424h2.424v2.424H29.332Zm-.04,4.848h2.5l.872,26.147-4.185-1.86Zm-6.02,40V86.3H18.424V45.741L37.816,54.36v7.7H24.484A1.212,1.212,0,0,0,23.272,63.268ZM71.752,86.3H59.632V79.024h12.12Zm14.544,0H74.176V77.812A1.212,1.212,0,0,0,72.964,76.6H58.42a1.212,1.212,0,0,0-1.212,1.212V86.3H25.7V64.48H86.3Z" fill="#abb7be"/>
  </g>
</svg>
