<svg xmlns="http://www.w3.org/2000/svg" width="943" height="738.871" viewBox="0 0 943 738.871">
  <g id="Grupo_11286" data-name="Grupo 11286" transform="translate(2958 1866)">
    <g id="Grupo_11285" data-name="Grupo 11285">
      <g id="Grupo_11284" data-name="Grupo 11284">
        <rect id="Rectángulo_2773" data-name="Rectángulo 2773" width="194" height="73" transform="translate(-2598 -1866)" fill="#eef0f2"/>
        <path id="Trazado_9949" data-name="Trazado 9949" d="M32.054,17.176a7.089,7.089,0,0,1-2.588-.466,6.087,6.087,0,0,1-2.061-1.3,5.864,5.864,0,0,1-1.354-2.065,7.2,7.2,0,0,1-.492-2.7A6.879,6.879,0,0,1,26.4,7.2a5.744,5.744,0,0,1,2.316-2.281,6.935,6.935,0,0,1,3.335-.791,6.739,6.739,0,0,1,3.727,1.028,5.629,5.629,0,0,1,2.276,2.83l-2.461.9a3.479,3.479,0,0,0-1.362-1.714,3.891,3.891,0,0,0-2.18-.615,3.73,3.73,0,0,0-2.777,1.107,4.075,4.075,0,0,0-1.09,2.988,4.081,4.081,0,0,0,1.094,2.993,3.726,3.726,0,0,0,2.773,1.112,3.876,3.876,0,0,0,2.175-.62A3.5,3.5,0,0,0,35.6,12.412l2.461.9a5.652,5.652,0,0,1-2.276,2.834A6.718,6.718,0,0,1,32.054,17.176Zm13.79,0a6.9,6.9,0,0,1-3.335-.8,5.766,5.766,0,0,1-2.316-2.29,6.886,6.886,0,0,1-.844-3.445,6.879,6.879,0,0,1,.844-3.45,5.744,5.744,0,0,1,2.316-2.281,7.418,7.418,0,0,1,6.667,0A5.752,5.752,0,0,1,51.487,7.2a6.879,6.879,0,0,1,.844,3.45,6.886,6.886,0,0,1-.844,3.445,5.766,5.766,0,0,1-2.316,2.29A6.885,6.885,0,0,1,45.844,17.176Zm-2.777-3.529a4.025,4.025,0,0,0,5.555,0,4.1,4.1,0,0,0,1.09-3,4.075,4.075,0,0,0-1.09-2.988,4.036,4.036,0,0,0-5.555,0,4.075,4.075,0,0,0-1.09,2.988A4.1,4.1,0,0,0,43.067,13.647ZM69.311,17H66.683l-.835-9.571L62.631,17H60.926L57.709,7.429,56.866,17H54.229L55.292,4.3h3.762l2.707,7.972L64.5,4.3h3.762ZM77.353,4.3A3.822,3.822,0,0,1,80.28,5.482,4.112,4.112,0,0,1,81.387,8.4a4.011,4.011,0,0,1-1.1,2.9,3.891,3.891,0,0,1-2.936,1.138H74.708V17H72.071V4.3Zm-.439,5.941a1.938,1.938,0,0,0,1.45-.5,1.888,1.888,0,0,0,.483-1.375,1.873,1.873,0,0,0-.488-1.358,1.92,1.92,0,0,0-1.446-.505H74.708v3.735ZM90.967,6.62H86.256V9.5h4.175V11.8H86.256v2.874h4.711V17H83.6V4.3h7.365ZM101.048,4.3V6.62H98.034V17h-2.61V6.62H92.391V4.3Zm2,12.7V4.3h2.637V17Zm5.915,0V4.3h4.6a7.166,7.166,0,0,1,2.65.457,4.881,4.881,0,0,1,1.9,1.3,5.64,5.64,0,0,1,1.125,2,8.255,8.255,0,0,1,.382,2.593,8.286,8.286,0,0,1-.382,2.6,5.64,5.64,0,0,1-1.125,2,4.881,4.881,0,0,1-1.9,1.3,7.166,7.166,0,0,1-2.65.457Zm2.637-2.329h1.828a3.12,3.12,0,0,0,2.566-1.033,4.629,4.629,0,0,0,.844-2.993,4.629,4.629,0,0,0-.844-2.993,3.12,3.12,0,0,0-2.566-1.033H111.6Zm16.11,2.5a6.9,6.9,0,0,1-3.335-.8,5.766,5.766,0,0,1-2.316-2.29,6.886,6.886,0,0,1-.844-3.445,6.879,6.879,0,0,1,.844-3.45,5.744,5.744,0,0,1,2.316-2.281,7.418,7.418,0,0,1,6.667,0A5.752,5.752,0,0,1,133.348,7.2a6.879,6.879,0,0,1,.844,3.45,6.886,6.886,0,0,1-.844,3.445,5.766,5.766,0,0,1-2.316,2.29A6.885,6.885,0,0,1,127.706,17.176Zm-2.777-3.529a4.025,4.025,0,0,0,5.555,0,4.1,4.1,0,0,0,1.09-3,4.075,4.075,0,0,0-1.09-2.988,4.036,4.036,0,0,0-5.555,0,4.075,4.075,0,0,0-1.09,2.988A4.1,4.1,0,0,0,124.928,13.647ZM143.324,17l-3.3-5.59h-.765V17h-2.637V4.3h4.605a5.327,5.327,0,0,1,1.846.294,3.191,3.191,0,0,1,1.279.817,3.5,3.5,0,0,1,.721,1.2A4.388,4.388,0,0,1,145.31,8.1a3.1,3.1,0,0,1-.694,2.087,3.5,3.5,0,0,1-2,1.094L146.444,17ZM139.254,6.488V9.521h1.556q1.978,0,1.978-1.512a1.377,1.377,0,0,0-.483-1.116,2.3,2.3,0,0,0-1.494-.4Zm16.488.132h-4.711V9.5h4.175V11.8h-4.175v2.874h4.711V17h-7.365V4.3h7.365Zm6.935,10.556a6.136,6.136,0,0,1-3.524-.971,3.9,3.9,0,0,1-1.714-2.72l2.725-.624a2.314,2.314,0,0,0,.839,1.6,2.785,2.785,0,0,0,1.78.558,2.3,2.3,0,0,0,1.389-.391,1.319,1.319,0,0,0,.527-1.156,1.233,1.233,0,0,0-.448-.94,2.929,2.929,0,0,0-.892-.576q-.444-.171-1.428-.47-.132-.044-.193-.062-.5-.158-.809-.264t-.76-.294a5.063,5.063,0,0,1-.738-.369,5.405,5.405,0,0,1-.611-.457,2.394,2.394,0,0,1-.51-.584A3.1,3.1,0,0,1,158,8.729a3.219,3.219,0,0,1-.123-.905,3.4,3.4,0,0,1,.593-2,3.633,3.633,0,0,1,1.6-1.274,5.822,5.822,0,0,1,2.29-.426,7.233,7.233,0,0,1,1.657.185,5.8,5.8,0,0,1,1.481.567,3.628,3.628,0,0,1,1.182,1.046,3.933,3.933,0,0,1,.672,1.542L164.8,8.1a2.065,2.065,0,0,0-2.285-1.819,2.5,2.5,0,0,0-1.415.369,1.251,1.251,0,0,0-.554,1.116q0,.694.923,1.125a13.752,13.752,0,0,0,1.767.606q.519.158.844.264t.817.308a5.68,5.68,0,0,1,.8.391,5.918,5.918,0,0,1,.668.488,2.627,2.627,0,0,1,.567.633,3.422,3.422,0,0,1,.347.787,3.288,3.288,0,0,1,.141.98,3.85,3.85,0,0,1-.255,1.433,3.118,3.118,0,0,1-.7,1.081,4.058,4.058,0,0,1-1.05.743,5.1,5.1,0,0,1-1.292.439A7.431,7.431,0,0,1,162.677,17.176ZM42.14,28.3a3.822,3.822,0,0,1,2.927,1.182A4.112,4.112,0,0,1,46.174,32.4a4.011,4.011,0,0,1-1.1,2.9,3.891,3.891,0,0,1-2.936,1.138H39.494V41H36.857V28.3ZM41.7,34.241a1.938,1.938,0,0,0,1.45-.5,2.166,2.166,0,0,0,0-2.733,1.92,1.92,0,0,0-1.446-.505H39.494v3.735Zm12.313,6.935a6.9,6.9,0,0,1-3.335-.8,5.766,5.766,0,0,1-2.316-2.29,7.465,7.465,0,0,1,0-6.9,5.744,5.744,0,0,1,2.316-2.281,7.418,7.418,0,0,1,6.667,0A5.752,5.752,0,0,1,59.656,31.2a7.465,7.465,0,0,1,0,6.9,5.766,5.766,0,0,1-2.316,2.29A6.885,6.885,0,0,1,54.014,41.176Zm-2.777-3.529a4.025,4.025,0,0,0,5.555,0,4.1,4.1,0,0,0,1.09-3,4.075,4.075,0,0,0-1.09-2.988,4.036,4.036,0,0,0-5.555,0,4.075,4.075,0,0,0-1.09,2.988A4.1,4.1,0,0,0,51.236,37.647ZM69.843,28.3v2.32H66.828V41h-2.61V30.62H61.186V28.3Zm9.36,2.32H74.492V33.5h4.175V35.8H74.492v2.874H79.2V41H71.838V28.3H79.2ZM90.594,28.3h2.628V41h-3.05l-5.625-9.079V41H81.919V28.3h3.015l5.66,9.026Zm11.54,12.876a7.089,7.089,0,0,1-2.588-.466,6.087,6.087,0,0,1-2.061-1.3,5.864,5.864,0,0,1-1.354-2.065,7.2,7.2,0,0,1-.492-2.7,6.879,6.879,0,0,1,.844-3.45A5.744,5.744,0,0,1,98.8,28.915a6.935,6.935,0,0,1,3.335-.791,6.739,6.739,0,0,1,3.727,1.028,5.629,5.629,0,0,1,2.276,2.83l-2.461.9a3.479,3.479,0,0,0-1.362-1.714,3.891,3.891,0,0,0-2.18-.615,3.73,3.73,0,0,0-2.777,1.107,4.075,4.075,0,0,0-1.09,2.988,4.081,4.081,0,0,0,1.094,2.993,3.726,3.726,0,0,0,2.773,1.112,3.876,3.876,0,0,0,2.175-.62,3.5,3.5,0,0,0,1.367-1.718l2.461.9a5.652,5.652,0,0,1-2.276,2.834A6.718,6.718,0,0,1,102.134,41.176ZM110.3,41V28.3h2.637V41Zm14.414,0-.923-2.619h-5.335L117.532,41h-2.7l4.676-12.7h3.226L127.411,41Zm-5.484-4.825h3.788l-1.89-5.388Zm12.727,2.5h3.981V41h-6.618V28.3h2.637Zm13.359-8.051H140.6V33.5h4.175V35.8H140.6v2.874h4.711V41h-7.365V28.3h7.365Zm6.935,10.556a6.136,6.136,0,0,1-3.524-.971,3.9,3.9,0,0,1-1.714-2.72l2.725-.624a2.314,2.314,0,0,0,.839,1.6,2.785,2.785,0,0,0,1.78.558,2.3,2.3,0,0,0,1.389-.391,1.319,1.319,0,0,0,.527-1.156,1.233,1.233,0,0,0-.448-.94,2.929,2.929,0,0,0-.892-.576q-.444-.171-1.428-.47-.132-.044-.193-.062-.5-.158-.809-.264t-.76-.294A5.063,5.063,0,0,1,149,34.5a5.405,5.405,0,0,1-.611-.457,2.394,2.394,0,0,1-.51-.584,3.1,3.1,0,0,1-.308-.729,3.219,3.219,0,0,1-.123-.905,3.4,3.4,0,0,1,.593-2,3.633,3.633,0,0,1,1.6-1.274,5.822,5.822,0,0,1,2.29-.426,7.233,7.233,0,0,1,1.657.185,5.8,5.8,0,0,1,1.481.567,3.628,3.628,0,0,1,1.182,1.046,3.933,3.933,0,0,1,.672,1.542l-2.549.633a2.065,2.065,0,0,0-2.285-1.819,2.5,2.5,0,0,0-1.415.369,1.251,1.251,0,0,0-.554,1.116q0,.694.923,1.125a13.752,13.752,0,0,0,1.767.606q.519.158.844.264t.817.308a5.68,5.68,0,0,1,.8.391,5.918,5.918,0,0,1,.668.488,2.627,2.627,0,0,1,.567.633,3.422,3.422,0,0,1,.347.787,3.288,3.288,0,0,1,.141.98,3.85,3.85,0,0,1-.255,1.433,3.118,3.118,0,0,1-.7,1.081,4.058,4.058,0,0,1-1.05.743,5.1,5.1,0,0,1-1.292.439A7.431,7.431,0,0,1,152.249,41.176Z" transform="translate(-2598 -1855)" fill="#00223d"/>
        <rect id="Rectángulo_2766" data-name="Rectángulo 2766" width="444" height="226" transform="translate(-2725 -1570)" fill="#cbd9e4"/>
        <path id="Trazado_9944" data-name="Trazado 9944" d="M-3861-1397l127.123-77.016,183.387.016,125.861,77Z" transform="translate(1139.575 53)" fill="#fff" opacity="0.34"/>
        <path id="Trazado_9945" data-name="Trazado 9945" d="M-3416.52-1474.016-3546.006-1397l-186.795-.016-128.2-77Z" transform="translate(1135.52 -96)" fill="#fff" opacity="0.34"/>
        <path id="Trazado_9962" data-name="Trazado 9962" d="M191.554,17.176a7.089,7.089,0,0,1-2.588-.466,6.087,6.087,0,0,1-2.061-1.3,5.864,5.864,0,0,1-1.354-2.065,7.2,7.2,0,0,1-.492-2.7A6.879,6.879,0,0,1,185.9,7.2a5.744,5.744,0,0,1,2.316-2.281,6.935,6.935,0,0,1,3.335-.791,6.739,6.739,0,0,1,3.727,1.028,5.629,5.629,0,0,1,2.276,2.83l-2.461.9a3.479,3.479,0,0,0-1.362-1.714,3.891,3.891,0,0,0-2.18-.615,3.73,3.73,0,0,0-2.777,1.107,4.075,4.075,0,0,0-1.09,2.988,4.081,4.081,0,0,0,1.094,2.993,3.726,3.726,0,0,0,2.773,1.112,3.876,3.876,0,0,0,2.175-.62,3.5,3.5,0,0,0,1.367-1.718l2.461.9a5.652,5.652,0,0,1-2.276,2.834A6.718,6.718,0,0,1,191.554,17.176Zm13.79,0a6.9,6.9,0,0,1-3.335-.8,5.766,5.766,0,0,1-2.316-2.29,6.886,6.886,0,0,1-.844-3.445,6.879,6.879,0,0,1,.844-3.45,5.744,5.744,0,0,1,2.316-2.281,7.418,7.418,0,0,1,6.667,0A5.752,5.752,0,0,1,210.987,7.2a6.879,6.879,0,0,1,.844,3.45,6.886,6.886,0,0,1-.844,3.445,5.766,5.766,0,0,1-2.316,2.29A6.885,6.885,0,0,1,205.344,17.176Zm-2.777-3.529a4.025,4.025,0,0,0,5.555,0,4.1,4.1,0,0,0,1.09-3,4.075,4.075,0,0,0-1.09-2.988,4.036,4.036,0,0,0-5.555,0,4.075,4.075,0,0,0-1.09,2.988A4.1,4.1,0,0,0,202.567,13.647ZM228.811,17h-2.628l-.835-9.571L222.131,17h-1.705l-3.217-9.571L216.366,17h-2.637l1.063-12.7h3.762l2.707,7.972L224,4.3h3.762Zm8.042-12.7a3.822,3.822,0,0,1,2.927,1.182A4.112,4.112,0,0,1,240.887,8.4a4.011,4.011,0,0,1-1.1,2.9,3.891,3.891,0,0,1-2.936,1.138h-2.646V17h-2.637V4.3Zm-.439,5.941a1.938,1.938,0,0,0,1.45-.5,1.888,1.888,0,0,0,.483-1.375,1.873,1.873,0,0,0-.488-1.358,1.92,1.92,0,0,0-1.446-.505h-2.206v3.735ZM250.467,6.62h-4.711V9.5h4.175V11.8h-4.175v2.874h4.711V17H243.1V4.3h7.365ZM260.548,4.3V6.62h-3.015V17h-2.61V6.62h-3.032V4.3Zm2,12.7V4.3h2.637V17Zm5.915,0V4.3h4.6a7.166,7.166,0,0,1,2.65.457,4.881,4.881,0,0,1,1.9,1.3,5.64,5.64,0,0,1,1.125,2,8.255,8.255,0,0,1,.382,2.593,8.286,8.286,0,0,1-.382,2.6,5.64,5.64,0,0,1-1.125,2,4.881,4.881,0,0,1-1.9,1.3,7.166,7.166,0,0,1-2.65.457Zm2.637-2.329h1.828a3.12,3.12,0,0,0,2.566-1.033,4.629,4.629,0,0,0,.844-2.993,4.629,4.629,0,0,0-.844-2.993,3.12,3.12,0,0,0-2.566-1.033H271.1Zm16.11,2.5a6.9,6.9,0,0,1-3.335-.8,5.766,5.766,0,0,1-2.316-2.29,6.886,6.886,0,0,1-.844-3.445,6.879,6.879,0,0,1,.844-3.45,5.744,5.744,0,0,1,2.316-2.281,7.418,7.418,0,0,1,6.667,0A5.752,5.752,0,0,1,292.848,7.2a6.879,6.879,0,0,1,.844,3.45,6.886,6.886,0,0,1-.844,3.445,5.766,5.766,0,0,1-2.316,2.29A6.885,6.885,0,0,1,287.206,17.176Zm-2.777-3.529a4.025,4.025,0,0,0,5.555,0,4.1,4.1,0,0,0,1.09-3,4.075,4.075,0,0,0-1.09-2.988,4.036,4.036,0,0,0-5.555,0,4.075,4.075,0,0,0-1.09,2.988A4.1,4.1,0,0,0,284.428,13.647ZM302.824,17l-3.3-5.59h-.765V17h-2.637V4.3h4.605a5.327,5.327,0,0,1,1.846.294,3.191,3.191,0,0,1,1.279.817,3.5,3.5,0,0,1,.721,1.2A4.388,4.388,0,0,1,304.81,8.1a3.1,3.1,0,0,1-.694,2.087,3.5,3.5,0,0,1-2,1.094L305.944,17ZM298.754,6.488V9.521h1.556q1.978,0,1.978-1.512a1.377,1.377,0,0,0-.483-1.116,2.3,2.3,0,0,0-1.494-.4Zm16.488.132h-4.711V9.5h4.175V11.8h-4.175v2.874h4.711V17h-7.365V4.3h7.365Zm6.935,10.556a6.136,6.136,0,0,1-3.524-.971,3.9,3.9,0,0,1-1.714-2.72l2.725-.624a2.314,2.314,0,0,0,.839,1.6,2.785,2.785,0,0,0,1.78.558,2.3,2.3,0,0,0,1.389-.391,1.319,1.319,0,0,0,.527-1.156,1.233,1.233,0,0,0-.448-.94,2.929,2.929,0,0,0-.892-.576q-.444-.171-1.428-.47-.132-.044-.193-.062-.5-.158-.809-.264t-.76-.294a5.063,5.063,0,0,1-.738-.369,5.405,5.405,0,0,1-.611-.457,2.394,2.394,0,0,1-.51-.584,3.1,3.1,0,0,1-.308-.729,3.219,3.219,0,0,1-.123-.905,3.4,3.4,0,0,1,.593-2,3.633,3.633,0,0,1,1.6-1.274,5.822,5.822,0,0,1,2.29-.426,7.233,7.233,0,0,1,1.657.185A5.8,5.8,0,0,1,325,4.875a3.628,3.628,0,0,1,1.182,1.046,3.933,3.933,0,0,1,.672,1.542L324.3,8.1a2.065,2.065,0,0,0-2.285-1.819,2.5,2.5,0,0,0-1.415.369,1.251,1.251,0,0,0-.554,1.116q0,.694.923,1.125a13.752,13.752,0,0,0,1.767.606q.519.158.844.264t.817.308a5.68,5.68,0,0,1,.8.391,5.918,5.918,0,0,1,.668.488,2.627,2.627,0,0,1,.567.633,3.422,3.422,0,0,1,.347.787,3.288,3.288,0,0,1,.141.98,3.85,3.85,0,0,1-.255,1.433,3.118,3.118,0,0,1-.7,1.081,4.058,4.058,0,0,1-1.05.743,5.1,5.1,0,0,1-1.292.439A7.431,7.431,0,0,1,322.177,17.176Z" transform="translate(-2759 -1292)" fill="#00223d"/>
        <rect id="Rectángulo_2765" data-name="Rectángulo 2765" width="215" height="72" transform="translate(-2610 -1493)" fill="#fff"/>
        <path id="Trazado_9967" data-name="Trazado 9967" d="M14.229,4.3a3.822,3.822,0,0,1,2.927,1.182A4.112,4.112,0,0,1,18.263,8.4a4.011,4.011,0,0,1-1.1,2.9,3.891,3.891,0,0,1-2.936,1.138H11.583V17H8.947V4.3Zm-.439,5.941a1.938,1.938,0,0,0,1.45-.5,1.889,1.889,0,0,0,.483-1.375,1.873,1.873,0,0,0-.488-1.358,1.92,1.92,0,0,0-1.446-.505H11.583v3.735ZM24.4,3.113,26.7-.121l1.248.888-2,2.347Zm.782,14.063a6.572,6.572,0,0,1-1.956-.277,4.6,4.6,0,0,1-1.569-.831,3.717,3.717,0,0,1-1.059-1.45,5.226,5.226,0,0,1-.382-2.065V4.3h2.637v7.893a2.761,2.761,0,0,0,.637,2.013,2.557,2.557,0,0,0,3.393,0,2.739,2.739,0,0,0,.646-2.008V4.3h2.637v8.253a5.226,5.226,0,0,1-.382,2.065,3.7,3.7,0,0,1-1.063,1.45,4.651,4.651,0,0,1-1.573.831A6.6,6.6,0,0,1,25.18,17.176Zm14.827-6.882A2.971,2.971,0,0,1,42.4,13.44a3.41,3.41,0,0,1-1.011,2.606A4.176,4.176,0,0,1,38.417,17H33.187V4.3H37.3a4.66,4.66,0,0,1,3.107.918A3.186,3.186,0,0,1,41.484,7.78a2.988,2.988,0,0,1-.374,1.507A2.46,2.46,0,0,1,40.007,10.294ZM37.327,6.488h-1.6V9.477h1.714a1.606,1.606,0,0,0,1.213-.422,1.534,1.534,0,0,0,.4-1.107,1.363,1.363,0,0,0-.439-1.059A1.859,1.859,0,0,0,37.327,6.488Zm.6,8.253a2.025,2.025,0,0,0,1.455-.448,1.524,1.524,0,0,0,.461-1.143,1.6,1.6,0,0,0-.466-1.178,2.061,2.061,0,0,0-1.5-.466H35.727v3.234Zm9.457-.07h3.981V17H44.745V4.3h2.637ZM53.375,17V4.3h2.637V17Zm11.54.176a7.089,7.089,0,0,1-2.588-.466,6.087,6.087,0,0,1-2.061-1.3,5.864,5.864,0,0,1-1.354-2.065,7.2,7.2,0,0,1-.492-2.7,6.879,6.879,0,0,1,.844-3.45A5.744,5.744,0,0,1,61.58,4.915a6.935,6.935,0,0,1,3.335-.791,6.739,6.739,0,0,1,3.727,1.028,5.629,5.629,0,0,1,2.276,2.83l-2.461.9A3.479,3.479,0,0,0,67.1,7.165a3.891,3.891,0,0,0-2.18-.615,3.73,3.73,0,0,0-2.777,1.107,4.075,4.075,0,0,0-1.09,2.988,4.081,4.081,0,0,0,1.094,2.993,3.726,3.726,0,0,0,2.773,1.112,3.876,3.876,0,0,0,2.175-.62,3.5,3.5,0,0,0,1.367-1.718l2.461.9a5.652,5.652,0,0,1-2.276,2.834A6.718,6.718,0,0,1,64.916,17.176Zm13.79,0a6.9,6.9,0,0,1-3.335-.8,5.766,5.766,0,0,1-2.316-2.29,6.886,6.886,0,0,1-.844-3.445,6.879,6.879,0,0,1,.844-3.45A5.744,5.744,0,0,1,75.37,4.915a7.418,7.418,0,0,1,6.667,0A5.752,5.752,0,0,1,84.348,7.2a6.879,6.879,0,0,1,.844,3.45,6.886,6.886,0,0,1-.844,3.445,5.766,5.766,0,0,1-2.316,2.29A6.885,6.885,0,0,1,78.706,17.176Zm-2.777-3.529a4.025,4.025,0,0,0,5.555,0,4.1,4.1,0,0,0,1.09-3,4.075,4.075,0,0,0-1.09-2.988,4.036,4.036,0,0,0-5.555,0,4.075,4.075,0,0,0-1.09,2.988A4.1,4.1,0,0,0,75.928,13.647Zm21.99,3.529a6.9,6.9,0,0,1-3.335-.8,5.766,5.766,0,0,1-2.316-2.29,6.886,6.886,0,0,1-.844-3.445,6.879,6.879,0,0,1,.844-3.45,5.744,5.744,0,0,1,2.316-2.281,7.418,7.418,0,0,1,6.667,0A5.752,5.752,0,0,1,103.561,7.2a6.879,6.879,0,0,1,.844,3.45,6.886,6.886,0,0,1-.844,3.445,5.766,5.766,0,0,1-2.316,2.29A6.885,6.885,0,0,1,97.918,17.176Zm-2.777-3.529a4.025,4.025,0,0,0,5.555,0,4.1,4.1,0,0,0,1.09-3,4.075,4.075,0,0,0-1.09-2.988,4.036,4.036,0,0,0-5.555,0,4.075,4.075,0,0,0-1.09,2.988A4.1,4.1,0,0,0,95.141,13.647Zm18.51-3.353a2.971,2.971,0,0,1,2.391,3.146,3.41,3.41,0,0,1-1.011,2.606A4.176,4.176,0,0,1,112.06,17h-5.229V4.3h4.113a4.66,4.66,0,0,1,3.107.918,3.186,3.186,0,0,1,1.077,2.562,2.988,2.988,0,0,1-.374,1.507A2.46,2.46,0,0,1,113.651,10.294ZM110.97,6.488h-1.6V9.477h1.714a1.606,1.606,0,0,0,1.213-.422,1.534,1.534,0,0,0,.4-1.107,1.363,1.363,0,0,0-.439-1.059A1.859,1.859,0,0,0,110.97,6.488Zm.6,8.253a2.025,2.025,0,0,0,1.455-.448,1.524,1.524,0,0,0,.461-1.143,1.6,1.6,0,0,0-.466-1.178,2.061,2.061,0,0,0-1.5-.466h-2.145v3.234Zm8.754,2.435a7.182,7.182,0,0,1-3.357-.879l1.116-2.171a3.317,3.317,0,0,0,1.925.677,1.389,1.389,0,0,0,1.178-.505,2.653,2.653,0,0,0,.387-1.6V4.3h2.637v8.886a3.949,3.949,0,0,1-1.059,2.949A3.855,3.855,0,0,1,120.322,17.176ZM134.657,6.62h-4.711V9.5h4.175V11.8h-4.175v2.874h4.711V17h-7.365V4.3h7.365ZM144.738,4.3V6.62h-3.015V17h-2.61V6.62h-3.032V4.3Zm2,12.7V4.3h2.637V17ZM160.725,4.3h2.8L158.835,17h-2.9L151.268,4.3h2.795l3.331,9.624Zm9.7,12.876a6.9,6.9,0,0,1-3.335-.8,5.766,5.766,0,0,1-2.316-2.29,6.886,6.886,0,0,1-.844-3.445,6.879,6.879,0,0,1,.844-3.45,5.744,5.744,0,0,1,2.316-2.281,7.418,7.418,0,0,1,6.667,0A5.752,5.752,0,0,1,176.071,7.2a6.879,6.879,0,0,1,.844,3.45,6.886,6.886,0,0,1-.844,3.445,5.766,5.766,0,0,1-2.316,2.29A6.885,6.885,0,0,1,170.428,17.176Zm-2.777-3.529a4.025,4.025,0,0,0,5.555,0,4.1,4.1,0,0,0,1.09-3,4.075,4.075,0,0,0-1.09-2.988,4.036,4.036,0,0,0-5.555,0,4.075,4.075,0,0,0-1.09,2.988A4.1,4.1,0,0,0,167.651,13.647Z" transform="translate(-2595 -1468)" fill="#00223d"/>
        <path id="Trazado_9965" data-name="Trazado 9965" d="M74.216,4.3a3.822,3.822,0,0,1,2.927,1.182A4.112,4.112,0,0,1,78.25,8.4a4.011,4.011,0,0,1-1.1,2.9,3.891,3.891,0,0,1-2.936,1.138H71.57V17H68.934V4.3Zm-.439,5.941a1.938,1.938,0,0,0,1.45-.5,1.888,1.888,0,0,0,.483-1.375,1.873,1.873,0,0,0-.488-1.358,1.92,1.92,0,0,0-1.446-.505H71.57v3.735Zm8.78-.844a2.933,2.933,0,0,1,1.187-1.085,3.62,3.62,0,0,1,1.767-.453v2.259a3.423,3.423,0,0,0-2.162.545A2.379,2.379,0,0,0,82.68,12.6V17H80.131V7.965h2.426Zm8.6,7.778a5.681,5.681,0,0,1-2.558-.554A4.138,4.138,0,0,1,86.841,15a4.846,4.846,0,0,1-.637-2.522,4.42,4.42,0,0,1,1.371-3.428,5.731,5.731,0,0,1,7.163,0,4.42,4.42,0,0,1,1.371,3.428,4.444,4.444,0,0,1-1.371,3.441A5.088,5.088,0,0,1,91.152,17.176Zm-.026-2.013a2.319,2.319,0,0,0,1.789-.738,2.764,2.764,0,0,0,.681-1.951,2.764,2.764,0,0,0-.681-1.951,2.319,2.319,0,0,0-1.789-.738,2.234,2.234,0,0,0-1.736.743,2.789,2.789,0,0,0-.672,1.947,2.789,2.789,0,0,0,.672,1.947A2.234,2.234,0,0,0,91.126,15.163ZM104.4,3.5h2.531V17h-2.4l-.062-1.178a2.58,2.58,0,0,1-1.147,1.024,3.861,3.861,0,0,1-1.692.365,4.394,4.394,0,0,1-1.687-.325,4.064,4.064,0,0,1-2.32-2.408,5.5,5.5,0,0,1-.343-1.978,5.137,5.137,0,0,1,.6-2.518,4.1,4.1,0,0,1,1.578-1.639,4.345,4.345,0,0,1,2.175-.554,3.957,3.957,0,0,1,1.639.33,2.559,2.559,0,0,1,1.129.936Zm-2.188,11.61a2.253,2.253,0,0,0,1.709-.721,2.638,2.638,0,0,0,.681-1.89,2.644,2.644,0,0,0-.686-1.894,2.251,2.251,0,0,0-1.705-.725,2.277,2.277,0,0,0-1.718.712A2.644,2.644,0,0,0,99.81,12.5a2.631,2.631,0,0,0,.681,1.9A2.277,2.277,0,0,0,102.209,15.11Zm13.324-7.146h2.531V17h-2.4l-.062-1.09a3.45,3.45,0,0,1-2.874,1.266,3.522,3.522,0,0,1-2.5-.813,3.014,3.014,0,0,1-.87-2.316V7.965h2.54V13.5a1.562,1.562,0,0,0,.453,1.239,1.718,1.718,0,0,0,1.173.4,2.038,2.038,0,0,0,1.437-.514,2.209,2.209,0,0,0,.567-1.674Zm9.237,9.2a4.827,4.827,0,0,1-3.489-1.3,4.493,4.493,0,0,1-1.354-3.393,4.483,4.483,0,0,1,1.349-3.393,5.364,5.364,0,0,1,6.42-.422,3.885,3.885,0,0,1,1.512,2.452l-2.338.255a2,2,0,0,0-.756-1.187,2.3,2.3,0,0,0-1.371-.4,2.072,2.072,0,0,0-1.652.738,2.894,2.894,0,0,0-.633,1.951,2.9,2.9,0,0,0,.633,1.947,2.067,2.067,0,0,0,1.652.743,2.278,2.278,0,0,0,1.367-.4,2.05,2.05,0,0,0,.76-1.187l2.338.255a3.9,3.9,0,0,1-1.525,2.452A4.8,4.8,0,0,1,124.771,17.167ZM134.377,17a2.729,2.729,0,0,1-2.039-.734,2.854,2.854,0,0,1-.721-2.087V9.907h-1.775V7.965h.571a1.491,1.491,0,0,0,1.125-.378,1.946,1.946,0,0,0,.36-1.345v-1.2h2.285V7.965h1.863V9.907h-1.863v4q0,1.169,1.046,1.169h.817V17Zm7.8.176a5.681,5.681,0,0,1-2.558-.554A4.138,4.138,0,0,1,137.871,15a4.846,4.846,0,0,1-.637-2.522A4.42,4.42,0,0,1,138.6,9.046a5.731,5.731,0,0,1,7.163,0,4.42,4.42,0,0,1,1.371,3.428,4.444,4.444,0,0,1-1.371,3.441A5.088,5.088,0,0,1,142.182,17.176Zm-.026-2.013a2.319,2.319,0,0,0,1.789-.738,2.764,2.764,0,0,0,.681-1.951,2.764,2.764,0,0,0-.681-1.951,2.319,2.319,0,0,0-1.789-.738,2.234,2.234,0,0,0-1.736.743,2.789,2.789,0,0,0-.672,1.947,2.789,2.789,0,0,0,.672,1.947A2.234,2.234,0,0,0,142.155,15.163Z" transform="translate(-2611 -1544)" fill="#00223d"/>
        <path id="Trazado_9959" data-name="Trazado 9959" d="M216.471,17V4.3h4.6a7.166,7.166,0,0,1,2.65.457,4.881,4.881,0,0,1,1.9,1.3,5.64,5.64,0,0,1,1.125,2,8.255,8.255,0,0,1,.382,2.593,8.286,8.286,0,0,1-.382,2.6,5.64,5.64,0,0,1-1.125,2,4.881,4.881,0,0,1-1.9,1.3,7.166,7.166,0,0,1-2.65.457Zm2.637-2.329h1.828a3.12,3.12,0,0,0,2.566-1.033,4.629,4.629,0,0,0,.844-2.993,4.629,4.629,0,0,0-.844-2.993,3.12,3.12,0,0,0-2.566-1.033h-1.828Zm18.65-2.32-.026.606h-6.7a2.339,2.339,0,0,0,.721,1.652,2.3,2.3,0,0,0,1.591.571,2.221,2.221,0,0,0,1.191-.312,1.918,1.918,0,0,0,.76-.91l2.32.343a3.945,3.945,0,0,1-1.582,2.118,4.7,4.7,0,0,1-2.672.756,4.891,4.891,0,0,1-3.52-1.244,4.538,4.538,0,0,1-1.305-3.45,4.565,4.565,0,0,1,1.31-3.45,4.746,4.746,0,0,1,3.437-1.261,4.536,4.536,0,0,1,3.243,1.151A4.517,4.517,0,0,1,237.758,12.351ZM233.3,9.564a2,2,0,0,0-2.2,1.74h4.148a1.9,1.9,0,0,0-.624-1.292A1.978,1.978,0,0,0,233.3,9.564Zm17.086-1.775a3.452,3.452,0,0,1,2.329.734,2.626,2.626,0,0,1,.853,2.1V17h-2.531V11.349a1.509,1.509,0,0,0-.4-1.143,1.416,1.416,0,0,0-1.02-.387,1.633,1.633,0,0,0-1.23.492,2.235,2.235,0,0,0-.475,1.591V17h-2.558V11.375a1.549,1.549,0,0,0-.4-1.165,1.441,1.441,0,0,0-1.046-.391,1.581,1.581,0,0,0-1.222.519,2.476,2.476,0,0,0-.475,1.7V17h-2.522V7.965h2.522V9.028a3.072,3.072,0,0,1,2.619-1.239,3.863,3.863,0,0,1,1.7.347,2.315,2.315,0,0,1,1.068,1.006A3.2,3.2,0,0,1,250.388,7.789Zm13.052,6.759a8.453,8.453,0,0,0,.22,2.206V17H261.3l-.2-.984a2.938,2.938,0,0,1-1.266.87,4.664,4.664,0,0,1-1.635.29,4.3,4.3,0,0,1-.844-.079,2.868,2.868,0,0,1-.76-.268,2.307,2.307,0,0,1-.628-.47,2.062,2.062,0,0,1-.422-.716,2.853,2.853,0,0,1-.158-.98,2.718,2.718,0,0,1,.167-.98,2.3,2.3,0,0,1,.439-.734,2.666,2.666,0,0,1,.712-.536,5.447,5.447,0,0,1,.9-.387,10.712,10.712,0,0,1,1.072-.281l1.485-.334a1.638,1.638,0,0,0,.672-.286.57.57,0,0,0,.2-.453.932.932,0,0,0-.444-.87,2.073,2.073,0,0,0-1.077-.264,1.549,1.549,0,0,0-1.767,1.38l-2.241-.4a3.034,3.034,0,0,1,1.31-2.061,5.2,5.2,0,0,1,2.839-.664q3.8,0,3.8,3.261Zm-4.456.914a2.036,2.036,0,0,0,1.564-.655,2.759,2.759,0,0,0,.606-1.938l-2.145.606a2.534,2.534,0,0,0-.9.369.758.758,0,0,0-.312.65.842.842,0,0,0,.334.716A1.382,1.382,0,0,0,258.984,15.462Zm12.252-7.673a3.522,3.522,0,0,1,2.5.813,3.014,3.014,0,0,1,.87,2.316V17h-2.54V11.463a1.574,1.574,0,0,0-.453-1.248,1.705,1.705,0,0,0-1.165-.4,2.379,2.379,0,0,0-.756.114,1.942,1.942,0,0,0-.633.356,1.573,1.573,0,0,0-.453.681,3.15,3.15,0,0,0-.171,1.046V17H265.9V7.965h2.531v1A3.481,3.481,0,0,1,271.236,7.789ZM283.461,3.5h2.531V17h-2.4l-.062-1.178a2.58,2.58,0,0,1-1.147,1.024,3.861,3.861,0,0,1-1.692.365,4.394,4.394,0,0,1-1.687-.325,4.064,4.064,0,0,1-2.32-2.408,5.5,5.5,0,0,1-.343-1.978,5.137,5.137,0,0,1,.6-2.518,4.1,4.1,0,0,1,1.578-1.639,4.345,4.345,0,0,1,2.175-.554,3.957,3.957,0,0,1,1.639.33,2.559,2.559,0,0,1,1.129.936Zm-2.188,11.61a2.253,2.253,0,0,0,1.709-.721,2.638,2.638,0,0,0,.681-1.89,2.644,2.644,0,0,0-.686-1.894,2.251,2.251,0,0,0-1.705-.725,2.277,2.277,0,0,0-1.718.712,2.644,2.644,0,0,0-.681,1.907,2.631,2.631,0,0,0,.681,1.9A2.277,2.277,0,0,0,281.273,15.11Zm14.748-.562a8.453,8.453,0,0,0,.22,2.206V17h-2.364l-.2-.984a2.938,2.938,0,0,1-1.266.87,4.664,4.664,0,0,1-1.635.29,4.3,4.3,0,0,1-.844-.079,2.868,2.868,0,0,1-.76-.268,2.307,2.307,0,0,1-.628-.47,2.062,2.062,0,0,1-.422-.716,2.853,2.853,0,0,1-.158-.98,2.718,2.718,0,0,1,.167-.98,2.3,2.3,0,0,1,.439-.734,2.666,2.666,0,0,1,.712-.536,5.447,5.447,0,0,1,.9-.387,10.712,10.712,0,0,1,1.072-.281l1.485-.334a1.638,1.638,0,0,0,.672-.286.57.57,0,0,0,.2-.453.932.932,0,0,0-.444-.87,2.073,2.073,0,0,0-1.077-.264,1.549,1.549,0,0,0-1.767,1.38l-2.241-.4a3.034,3.034,0,0,1,1.31-2.061,5.2,5.2,0,0,1,2.839-.664q3.8,0,3.8,3.261Zm-4.456.914a2.036,2.036,0,0,0,1.564-.655,2.759,2.759,0,0,0,.606-1.938l-2.145.606a2.534,2.534,0,0,0-.9.369.758.758,0,0,0-.312.65.842.842,0,0,0,.334.716A1.382,1.382,0,0,0,291.565,15.462Z" transform="translate(-2759 -1607)" fill="#00223d"/>
        <path id="Trazado_9960" data-name="Trazado 9960" d="M20.882,17.176a7.089,7.089,0,0,1-2.588-.466,6.087,6.087,0,0,1-2.061-1.3,5.864,5.864,0,0,1-1.354-2.065,7.2,7.2,0,0,1-.492-2.7,6.879,6.879,0,0,1,.844-3.45,5.744,5.744,0,0,1,2.316-2.281,6.935,6.935,0,0,1,3.335-.791,6.739,6.739,0,0,1,3.727,1.028,5.629,5.629,0,0,1,2.276,2.83l-2.461.9a3.479,3.479,0,0,0-1.362-1.714,3.891,3.891,0,0,0-2.18-.615A3.73,3.73,0,0,0,18.1,7.657a4.075,4.075,0,0,0-1.09,2.988,4.081,4.081,0,0,0,1.094,2.993,3.726,3.726,0,0,0,2.773,1.112,3.876,3.876,0,0,0,2.175-.62,3.5,3.5,0,0,0,1.367-1.718l2.461.9a5.652,5.652,0,0,1-2.276,2.834A6.718,6.718,0,0,1,20.882,17.176ZM37.546,17l-.923-2.619H31.289L30.366,17h-2.7L32.343,4.3h3.226L40.245,17Zm-5.484-4.825H35.85L33.96,6.787ZM50.827,4.3h2.628V17H50.4L44.78,7.921V17H42.152V4.3h3.015l5.66,9.026ZM65.241,17l-.923-2.619H58.983L58.06,17h-2.7L60.038,4.3h3.226L67.939,17Zm-5.484-4.825h3.788l-1.89-5.388Zm12.727,2.5h3.981V17H69.846V4.3h2.637ZM85.842,6.62H81.131V9.5h4.175V11.8H81.131v2.874h4.711V17H78.477V4.3h7.365Zm6.935,10.556a6.136,6.136,0,0,1-3.524-.971,3.9,3.9,0,0,1-1.714-2.72l2.725-.624a2.314,2.314,0,0,0,.839,1.6,2.785,2.785,0,0,0,1.78.558,2.3,2.3,0,0,0,1.389-.391,1.319,1.319,0,0,0,.527-1.156,1.233,1.233,0,0,0-.448-.94,2.929,2.929,0,0,0-.892-.576q-.444-.171-1.428-.47-.132-.044-.193-.062-.5-.158-.809-.264t-.76-.294a5.063,5.063,0,0,1-.738-.369,5.405,5.405,0,0,1-.611-.457,2.394,2.394,0,0,1-.51-.584,3.1,3.1,0,0,1-.308-.729,3.219,3.219,0,0,1-.123-.905,3.4,3.4,0,0,1,.593-2,3.633,3.633,0,0,1,1.6-1.274,5.822,5.822,0,0,1,2.29-.426,7.233,7.233,0,0,1,1.657.185,5.8,5.8,0,0,1,1.481.567A3.628,3.628,0,0,1,96.78,5.921a3.933,3.933,0,0,1,.672,1.542L94.9,8.1a2.065,2.065,0,0,0-2.285-1.819,2.5,2.5,0,0,0-1.415.369,1.251,1.251,0,0,0-.554,1.116q0,.694.923,1.125a13.752,13.752,0,0,0,1.767.606q.519.158.844.264t.817.308a5.68,5.68,0,0,1,.8.391,5.918,5.918,0,0,1,.668.488,2.627,2.627,0,0,1,.567.633,3.422,3.422,0,0,1,.347.787,3.288,3.288,0,0,1,.141.98,3.85,3.85,0,0,1-.255,1.433,3.118,3.118,0,0,1-.7,1.081,4.058,4.058,0,0,1-1.05.743,5.1,5.1,0,0,1-1.292.439A7.431,7.431,0,0,1,92.777,17.176ZM104.633,17V4.3h4.6a7.166,7.166,0,0,1,2.65.457,4.881,4.881,0,0,1,1.9,1.3,5.64,5.64,0,0,1,1.125,2,8.255,8.255,0,0,1,.382,2.593,8.286,8.286,0,0,1-.382,2.6,5.64,5.64,0,0,1-1.125,2,4.881,4.881,0,0,1-1.9,1.3,7.166,7.166,0,0,1-2.65.457Zm2.637-2.329H109.1a3.12,3.12,0,0,0,2.566-1.033,4.629,4.629,0,0,0,.844-2.993,4.629,4.629,0,0,0-.844-2.993A3.12,3.12,0,0,0,109.1,6.62H107.27ZM125.121,6.62H120.41V9.5h4.175V11.8H120.41v2.874h4.711V17h-7.365V4.3h7.365ZM132.512,17V4.3h4.6a7.166,7.166,0,0,1,2.65.457,4.881,4.881,0,0,1,1.9,1.3,5.64,5.64,0,0,1,1.125,2,8.255,8.255,0,0,1,.382,2.593,8.286,8.286,0,0,1-.382,2.6,5.64,5.64,0,0,1-1.125,2,4.881,4.881,0,0,1-1.9,1.3,7.166,7.166,0,0,1-2.65.457Zm2.637-2.329h1.828a3.12,3.12,0,0,0,2.566-1.033,4.629,4.629,0,0,0,.844-2.993,4.629,4.629,0,0,0-.844-2.993,3.12,3.12,0,0,0-2.566-1.033h-1.828ZM145.634,17V4.3h2.637V17Zm10.134.176a6.136,6.136,0,0,1-3.524-.971,3.9,3.9,0,0,1-1.714-2.72l2.725-.624a2.314,2.314,0,0,0,.839,1.6,2.785,2.785,0,0,0,1.78.558,2.3,2.3,0,0,0,1.389-.391,1.319,1.319,0,0,0,.527-1.156,1.233,1.233,0,0,0-.448-.94,2.929,2.929,0,0,0-.892-.576q-.444-.171-1.428-.47-.132-.044-.193-.062-.5-.158-.809-.264t-.76-.294a5.063,5.063,0,0,1-.738-.369,5.405,5.405,0,0,1-.611-.457,2.394,2.394,0,0,1-.51-.584,3.1,3.1,0,0,1-.308-.729,3.219,3.219,0,0,1-.123-.905,3.4,3.4,0,0,1,.593-2,3.633,3.633,0,0,1,1.6-1.274,5.822,5.822,0,0,1,2.29-.426,7.233,7.233,0,0,1,1.657.185,5.8,5.8,0,0,1,1.481.567,3.628,3.628,0,0,1,1.182,1.046,3.933,3.933,0,0,1,.672,1.542L157.9,8.1a2.065,2.065,0,0,0-2.285-1.819,2.5,2.5,0,0,0-1.415.369,1.251,1.251,0,0,0-.554,1.116q0,.694.923,1.125a13.752,13.752,0,0,0,1.767.606q.519.158.844.264t.817.308a5.68,5.68,0,0,1,.8.391,5.918,5.918,0,0,1,.668.488,2.627,2.627,0,0,1,.567.633,3.422,3.422,0,0,1,.347.787,3.288,3.288,0,0,1,.141.98,3.85,3.85,0,0,1-.255,1.433,3.118,3.118,0,0,1-.7,1.081,4.058,4.058,0,0,1-1.05.743,5.1,5.1,0,0,1-1.292.439A7.431,7.431,0,0,1,155.768,17.176ZM170.261,4.3V6.62h-3.015V17h-2.61V6.62H161.6V4.3Zm8.7,12.7-3.3-5.59h-.765V17h-2.637V4.3h4.605a5.327,5.327,0,0,1,1.846.294,3.191,3.191,0,0,1,1.279.817,3.5,3.5,0,0,1,.721,1.2,4.388,4.388,0,0,1,.242,1.485,3.1,3.1,0,0,1-.694,2.087,3.5,3.5,0,0,1-2,1.094L182.083,17ZM174.893,6.488V9.521h1.556q1.978,0,1.978-1.512a1.377,1.377,0,0,0-.483-1.116,2.3,2.3,0,0,0-1.494-.4ZM184.016,17V4.3h2.637V17Zm12.735-6.706a2.971,2.971,0,0,1,2.391,3.146,3.41,3.41,0,0,1-1.011,2.606,4.176,4.176,0,0,1-2.971.954h-5.229V4.3h4.113a4.66,4.66,0,0,1,3.107.918,3.186,3.186,0,0,1,1.077,2.562,2.988,2.988,0,0,1-.374,1.507A2.46,2.46,0,0,1,196.751,10.294Zm-2.681-3.806h-1.6V9.477h1.714a1.606,1.606,0,0,0,1.213-.422,1.534,1.534,0,0,0,.4-1.107,1.363,1.363,0,0,0-.439-1.059A1.859,1.859,0,0,0,194.071,6.488Zm.6,8.253a2.025,2.025,0,0,0,1.455-.448,1.524,1.524,0,0,0,.461-1.143,1.6,1.6,0,0,0-.466-1.178,2.061,2.061,0,0,0-1.5-.466h-2.145v3.234Zm11.522,2.435a6.572,6.572,0,0,1-1.956-.277,4.6,4.6,0,0,1-1.569-.831,3.717,3.717,0,0,1-1.059-1.45,5.226,5.226,0,0,1-.382-2.065V4.3h2.637v7.893a2.761,2.761,0,0,0,.637,2.013,2.557,2.557,0,0,0,3.393,0,2.739,2.739,0,0,0,.646-2.008V4.3h2.637v8.253a5.226,5.226,0,0,1-.382,2.065,3.7,3.7,0,0,1-1.063,1.45,4.651,4.651,0,0,1-1.573.831A6.6,6.6,0,0,1,206.191,17.176Zm13.632,0a7.089,7.089,0,0,1-2.588-.466,6.087,6.087,0,0,1-2.061-1.3,5.864,5.864,0,0,1-1.354-2.065,7.2,7.2,0,0,1-.492-2.7,6.879,6.879,0,0,1,.844-3.45,5.744,5.744,0,0,1,2.316-2.281,6.935,6.935,0,0,1,3.335-.791,6.739,6.739,0,0,1,3.727,1.028,5.629,5.629,0,0,1,2.276,2.83l-2.461.9A3.479,3.479,0,0,0,222,7.165a3.891,3.891,0,0,0-2.18-.615,3.73,3.73,0,0,0-2.777,1.107,4.075,4.075,0,0,0-1.09,2.988,4.081,4.081,0,0,0,1.094,2.993,3.726,3.726,0,0,0,2.773,1.112A3.876,3.876,0,0,0,222,14.13a3.5,3.5,0,0,0,1.367-1.718l2.461.9a5.652,5.652,0,0,1-2.276,2.834A6.718,6.718,0,0,1,219.823,17.176ZM227.988,17V4.3h2.637V17ZM238.746,3.113l2.3-3.234L242.3.767l-2,2.347Zm.782,14.063a6.9,6.9,0,0,1-3.335-.8,5.766,5.766,0,0,1-2.316-2.29,6.886,6.886,0,0,1-.844-3.445,6.879,6.879,0,0,1,.844-3.45,5.744,5.744,0,0,1,2.316-2.281,7.418,7.418,0,0,1,6.667,0A5.752,5.752,0,0,1,245.17,7.2a6.879,6.879,0,0,1,.844,3.45,6.886,6.886,0,0,1-.844,3.445,5.766,5.766,0,0,1-2.316,2.29A6.885,6.885,0,0,1,239.528,17.176Zm-2.777-3.529a4.025,4.025,0,0,0,5.555,0,4.1,4.1,0,0,0,1.09-3,4.075,4.075,0,0,0-1.09-2.988,4.036,4.036,0,0,0-5.555,0,4.075,4.075,0,0,0-1.09,2.988A4.1,4.1,0,0,0,236.75,13.647ZM257.115,4.3h2.628V17h-3.05l-5.625-9.079V17H248.44V4.3h3.015l5.66,9.026Z" transform="translate(-2643 -1637)" fill="#00223d"/>
        <path id="Trazado_9957" data-name="Trazado 9957" d="M59.7,17.176a6.136,6.136,0,0,1-3.524-.971,3.9,3.9,0,0,1-1.714-2.72l2.725-.624a2.314,2.314,0,0,0,.839,1.6,2.785,2.785,0,0,0,1.78.558,2.3,2.3,0,0,0,1.389-.391,1.319,1.319,0,0,0,.527-1.156,1.233,1.233,0,0,0-.448-.94,2.929,2.929,0,0,0-.892-.576q-.444-.171-1.428-.47-.132-.044-.193-.062-.5-.158-.809-.264t-.76-.294a5.063,5.063,0,0,1-.738-.369,5.405,5.405,0,0,1-.611-.457,2.394,2.394,0,0,1-.51-.584,3.1,3.1,0,0,1-.308-.729,3.219,3.219,0,0,1-.123-.905,3.4,3.4,0,0,1,.593-2,3.633,3.633,0,0,1,1.6-1.274,5.822,5.822,0,0,1,2.29-.426,7.233,7.233,0,0,1,1.657.185,5.8,5.8,0,0,1,1.481.567A3.628,3.628,0,0,1,63.7,5.921a3.933,3.933,0,0,1,.672,1.542L61.823,8.1a2.065,2.065,0,0,0-2.285-1.819,2.5,2.5,0,0,0-1.415.369,1.251,1.251,0,0,0-.554,1.116q0,.694.923,1.125a13.752,13.752,0,0,0,1.767.606q.519.158.844.264t.817.308a5.68,5.68,0,0,1,.8.391,5.918,5.918,0,0,1,.668.488,2.627,2.627,0,0,1,.567.633,3.422,3.422,0,0,1,.347.787,3.288,3.288,0,0,1,.141.98,3.85,3.85,0,0,1-.255,1.433,3.118,3.118,0,0,1-.7,1.081,4.058,4.058,0,0,1-1.05.743,5.1,5.1,0,0,1-1.292.439A7.431,7.431,0,0,1,59.7,17.176Zm15.346-4.825-.026.606h-6.7a2.339,2.339,0,0,0,.721,1.652,2.3,2.3,0,0,0,1.591.571,2.221,2.221,0,0,0,1.191-.312,1.918,1.918,0,0,0,.76-.91l2.32.343a3.945,3.945,0,0,1-1.582,2.118,4.7,4.7,0,0,1-2.672.756,4.891,4.891,0,0,1-3.52-1.244,4.538,4.538,0,0,1-1.305-3.45,4.565,4.565,0,0,1,1.31-3.45,4.746,4.746,0,0,1,3.437-1.261,4.536,4.536,0,0,1,3.243,1.151A4.517,4.517,0,0,1,75.042,12.351ZM70.586,9.564a2,2,0,0,0-2.2,1.74h4.148a1.9,1.9,0,0,0-.624-1.292A1.978,1.978,0,0,0,70.586,9.564Zm12.6-1.6H85.6v8.358a6.759,6.759,0,0,1-.338,2.25,3.711,3.711,0,0,1-.98,1.542,4.085,4.085,0,0,1-1.5.866,6.336,6.336,0,0,1-1.969.281q-3.577,0-4.658-2.8l2.1-.9a3.065,3.065,0,0,0,.976,1.31,2.487,2.487,0,0,0,1.485.422q2.347,0,2.347-2.786V15.453a2.846,2.846,0,0,1-1.138.892,3.784,3.784,0,0,1-1.6.338,4.046,4.046,0,0,1-2.9-1.217,4.174,4.174,0,0,1-.892-1.419,5.247,5.247,0,0,1,0-3.661,4.006,4.006,0,0,1,.9-1.4,4.125,4.125,0,0,1,1.318-.879,4.069,4.069,0,0,1,1.6-.316,3.674,3.674,0,0,1,1.674.374,2.67,2.67,0,0,1,1.121,1Zm-3.88,5.977a2.319,2.319,0,0,0,3.318-.009,2.526,2.526,0,0,0,0-3.437,2.34,2.34,0,0,0-3.331-.013,2.4,2.4,0,0,0-.664,1.736A2.379,2.379,0,0,0,79.309,13.941ZM98.931,7.789a3.452,3.452,0,0,1,2.329.734,2.626,2.626,0,0,1,.853,2.1V17H99.581V11.349a1.509,1.509,0,0,0-.4-1.143,1.416,1.416,0,0,0-1.02-.387,1.633,1.633,0,0,0-1.23.492,2.235,2.235,0,0,0-.475,1.591V17H93.895V11.375a1.549,1.549,0,0,0-.4-1.165,1.441,1.441,0,0,0-1.046-.391,1.581,1.581,0,0,0-1.222.519,2.476,2.476,0,0,0-.475,1.7V17H88.226V7.965h2.522V9.028a3.072,3.072,0,0,1,2.619-1.239,3.863,3.863,0,0,1,1.7.347,2.315,2.315,0,0,1,1.068,1.006A3.2,3.2,0,0,1,98.931,7.789Zm14.142,4.562-.026.606h-6.7a2.339,2.339,0,0,0,.721,1.652,2.3,2.3,0,0,0,1.591.571,2.221,2.221,0,0,0,1.191-.312,1.918,1.918,0,0,0,.76-.91l2.32.343a3.945,3.945,0,0,1-1.582,2.118,4.7,4.7,0,0,1-2.672.756,4.891,4.891,0,0,1-3.52-1.244,4.538,4.538,0,0,1-1.305-3.45,4.565,4.565,0,0,1,1.31-3.45A4.746,4.746,0,0,1,108.6,7.771a4.536,4.536,0,0,1,3.243,1.151A4.517,4.517,0,0,1,113.072,12.351Zm-4.456-2.786a2,2,0,0,0-2.2,1.74h4.148a1.9,1.9,0,0,0-.624-1.292A1.978,1.978,0,0,0,108.616,9.564Zm11.716-1.775a3.522,3.522,0,0,1,2.5.813,3.014,3.014,0,0,1,.87,2.316V17h-2.54V11.463a1.574,1.574,0,0,0-.453-1.248,1.705,1.705,0,0,0-1.165-.4,2.379,2.379,0,0,0-.756.114,1.942,1.942,0,0,0-.633.356,1.573,1.573,0,0,0-.453.681,3.15,3.15,0,0,0-.171,1.046V17H115V7.965h2.531v1A3.481,3.481,0,0,1,120.332,7.789ZM129.517,17a2.729,2.729,0,0,1-2.039-.734,2.854,2.854,0,0,1-.721-2.087V9.907h-1.775V7.965h.571a1.491,1.491,0,0,0,1.125-.378,1.946,1.946,0,0,0,.36-1.345v-1.2h2.285V7.965h1.863V9.907h-1.863v4q0,1.169,1.046,1.169h.817V17Zm11-2.452a8.453,8.453,0,0,0,.22,2.206V17h-2.364l-.2-.984a2.938,2.938,0,0,1-1.266.87,4.664,4.664,0,0,1-1.635.29,4.3,4.3,0,0,1-.844-.079,2.868,2.868,0,0,1-.76-.268,2.307,2.307,0,0,1-.628-.47,2.062,2.062,0,0,1-.422-.716,2.853,2.853,0,0,1-.158-.98,2.718,2.718,0,0,1,.167-.98,2.3,2.3,0,0,1,.439-.734,2.666,2.666,0,0,1,.712-.536,5.447,5.447,0,0,1,.9-.387,10.712,10.712,0,0,1,1.072-.281l1.485-.334a1.638,1.638,0,0,0,.672-.286.57.57,0,0,0,.2-.453.932.932,0,0,0-.444-.87,2.073,2.073,0,0,0-1.077-.264,1.549,1.549,0,0,0-1.767,1.38l-2.241-.4a3.034,3.034,0,0,1,1.31-2.061,5.2,5.2,0,0,1,2.839-.664q3.8,0,3.8,3.261Zm-4.456.914a2.036,2.036,0,0,0,1.564-.655,2.759,2.759,0,0,0,.606-1.938l-2.145.606a2.534,2.534,0,0,0-.9.369.758.758,0,0,0-.312.65.842.842,0,0,0,.334.716A1.382,1.382,0,0,0,136.064,15.462Zm10.8,1.705a4.827,4.827,0,0,1-3.489-1.3,4.493,4.493,0,0,1-1.354-3.393,4.483,4.483,0,0,1,1.349-3.393,5.364,5.364,0,0,1,6.42-.422,3.885,3.885,0,0,1,1.512,2.452l-2.338.255a2,2,0,0,0-.756-1.187,2.3,2.3,0,0,0-1.371-.4,2.072,2.072,0,0,0-1.652.738,2.894,2.894,0,0,0-.633,1.951,2.9,2.9,0,0,0,.633,1.947,2.067,2.067,0,0,0,1.652.743,2.278,2.278,0,0,0,1.367-.4,2.05,2.05,0,0,0,.76-1.187l2.338.255a3.9,3.9,0,0,1-1.525,2.452A4.8,4.8,0,0,1,146.866,17.167ZM154.4,6.611a1.421,1.421,0,0,1-1.037-.426,1.4,1.4,0,0,1-.431-1.033,1.382,1.382,0,0,1,.435-1.024A1.425,1.425,0,0,1,154.4,3.7a1.463,1.463,0,0,1,1.45,1.45,1.463,1.463,0,0,1-1.45,1.459ZM153.106,17V7.965h2.549V17Zm8.6-10.266L164,3.5l1.248.879-2,2.355Zm.782,10.441a5.681,5.681,0,0,1-2.558-.554A4.138,4.138,0,0,1,158.173,15a4.846,4.846,0,0,1-.637-2.522,4.42,4.42,0,0,1,1.371-3.428,5.731,5.731,0,0,1,7.163,0,4.42,4.42,0,0,1,1.371,3.428,4.444,4.444,0,0,1-1.371,3.441A5.088,5.088,0,0,1,162.484,17.176Zm-.026-2.013a2.319,2.319,0,0,0,1.789-.738,2.764,2.764,0,0,0,.681-1.951,2.764,2.764,0,0,0-.681-1.951,2.319,2.319,0,0,0-1.789-.738,2.234,2.234,0,0,0-1.736.743,2.789,2.789,0,0,0-.672,1.947,2.789,2.789,0,0,0,.672,1.947A2.234,2.234,0,0,0,162.458,15.163Zm12.2-7.374a3.522,3.522,0,0,1,2.5.813,3.014,3.014,0,0,1,.87,2.316V17h-2.54V11.463a1.574,1.574,0,0,0-.453-1.248,1.705,1.705,0,0,0-1.165-.4,2.379,2.379,0,0,0-.756.114,1.942,1.942,0,0,0-.633.356,1.573,1.573,0,0,0-.453.681,3.15,3.15,0,0,0-.171,1.046V17h-2.531V7.965h2.531v1A3.481,3.481,0,0,1,174.657,7.789Z" transform="translate(-2238 -1570) rotate(90)" fill="#00223d"/>
        <path id="Trazado_9958" data-name="Trazado 9958" d="M31.426,4.3a3.822,3.822,0,0,1,2.927,1.182A4.112,4.112,0,0,1,35.46,8.4a4.011,4.011,0,0,1-1.1,2.9,3.891,3.891,0,0,1-2.936,1.138H28.78V17H26.144V4.3Zm-.439,5.941a1.938,1.938,0,0,0,1.45-.5,1.888,1.888,0,0,0,.483-1.375,1.873,1.873,0,0,0-.488-1.358,1.92,1.92,0,0,0-1.446-.505H28.78v3.735ZM41.595,3.113,43.9-.121l1.248.888-2,2.347Zm.782,14.063a6.572,6.572,0,0,1-1.956-.277,4.6,4.6,0,0,1-1.569-.831,3.717,3.717,0,0,1-1.059-1.45,5.226,5.226,0,0,1-.382-2.065V4.3h2.637v7.893a2.761,2.761,0,0,0,.637,2.013,2.557,2.557,0,0,0,3.393,0,2.739,2.739,0,0,0,.646-2.008V4.3H47.36v8.253a5.226,5.226,0,0,1-.382,2.065,3.7,3.7,0,0,1-1.063,1.45,4.651,4.651,0,0,1-1.573.831A6.6,6.6,0,0,1,42.377,17.176ZM57.2,10.294a2.971,2.971,0,0,1,2.391,3.146,3.41,3.41,0,0,1-1.011,2.606A4.176,4.176,0,0,1,55.613,17H50.384V4.3H54.5a4.66,4.66,0,0,1,3.107.918A3.186,3.186,0,0,1,58.681,7.78a2.988,2.988,0,0,1-.374,1.507A2.46,2.46,0,0,1,57.2,10.294ZM54.523,6.488h-1.6V9.477h1.714a1.606,1.606,0,0,0,1.213-.422,1.534,1.534,0,0,0,.4-1.107,1.363,1.363,0,0,0-.439-1.059A1.859,1.859,0,0,0,54.523,6.488Zm.6,8.253a2.025,2.025,0,0,0,1.455-.448,1.524,1.524,0,0,0,.461-1.143,1.6,1.6,0,0,0-.466-1.178,2.061,2.061,0,0,0-1.5-.466H52.924v3.234Zm9.457-.07H68.56V17H61.941V4.3h2.637ZM70.572,17V4.3h2.637V17Zm11.54.176a7.089,7.089,0,0,1-2.588-.466,6.087,6.087,0,0,1-2.061-1.3,5.864,5.864,0,0,1-1.354-2.065,7.2,7.2,0,0,1-.492-2.7,6.879,6.879,0,0,1,.844-3.45,5.744,5.744,0,0,1,2.316-2.281,6.935,6.935,0,0,1,3.335-.791,6.739,6.739,0,0,1,3.727,1.028,5.629,5.629,0,0,1,2.276,2.83l-2.461.9a3.479,3.479,0,0,0-1.362-1.714,3.891,3.891,0,0,0-2.18-.615,3.73,3.73,0,0,0-2.777,1.107,4.075,4.075,0,0,0-1.09,2.988,4.081,4.081,0,0,0,1.094,2.993,3.726,3.726,0,0,0,2.773,1.112,3.876,3.876,0,0,0,2.175-.62,3.5,3.5,0,0,0,1.367-1.718l2.461.9a5.652,5.652,0,0,1-2.276,2.834A6.718,6.718,0,0,1,82.112,17.176Zm13.79,0a6.9,6.9,0,0,1-3.335-.8,5.766,5.766,0,0,1-2.316-2.29,6.886,6.886,0,0,1-.844-3.445,6.879,6.879,0,0,1,.844-3.45,5.744,5.744,0,0,1,2.316-2.281,7.418,7.418,0,0,1,6.667,0A5.752,5.752,0,0,1,101.545,7.2a6.879,6.879,0,0,1,.844,3.45,6.886,6.886,0,0,1-.844,3.445,5.766,5.766,0,0,1-2.316,2.29A6.885,6.885,0,0,1,95.9,17.176Zm-2.777-3.529a4.025,4.025,0,0,0,5.555,0,4.1,4.1,0,0,0,1.09-3,4.075,4.075,0,0,0-1.09-2.988,4.036,4.036,0,0,0-5.555,0,4.075,4.075,0,0,0-1.09,2.988A4.1,4.1,0,0,0,93.125,13.647Zm15.838,3.529a6.136,6.136,0,0,1-3.524-.971,3.9,3.9,0,0,1-1.714-2.72l2.725-.624a2.314,2.314,0,0,0,.839,1.6,2.785,2.785,0,0,0,1.78.558,2.3,2.3,0,0,0,1.389-.391,1.319,1.319,0,0,0,.527-1.156,1.233,1.233,0,0,0-.448-.94,2.929,2.929,0,0,0-.892-.576q-.444-.171-1.428-.47-.132-.044-.193-.062-.5-.158-.809-.264t-.76-.294a5.063,5.063,0,0,1-.738-.369,5.405,5.405,0,0,1-.611-.457,2.394,2.394,0,0,1-.51-.584,3.1,3.1,0,0,1-.308-.729,3.219,3.219,0,0,1-.123-.905,3.4,3.4,0,0,1,.593-2,3.633,3.633,0,0,1,1.6-1.274,5.822,5.822,0,0,1,2.29-.426,7.233,7.233,0,0,1,1.657.185,5.8,5.8,0,0,1,1.481.567,3.628,3.628,0,0,1,1.182,1.046,3.933,3.933,0,0,1,.672,1.542L111.09,8.1A2.065,2.065,0,0,0,108.8,6.277a2.5,2.5,0,0,0-1.415.369,1.251,1.251,0,0,0-.554,1.116q0,.694.923,1.125a13.752,13.752,0,0,0,1.767.606q.519.158.844.264t.817.308a5.68,5.68,0,0,1,.8.391,5.918,5.918,0,0,1,.668.488,2.627,2.627,0,0,1,.567.633,3.422,3.422,0,0,1,.347.787,3.288,3.288,0,0,1,.141.98,3.85,3.85,0,0,1-.255,1.433,3.118,3.118,0,0,1-.7,1.081,4.058,4.058,0,0,1-1.05.743,5.1,5.1,0,0,1-1.292.439A7.431,7.431,0,0,1,108.963,17.176Z" transform="translate(-2207 -1523) rotate(90)" fill="#00223d"/>
        <path id="Trazado_9956" data-name="Trazado 9956" d="M11.066,4.3a3.822,3.822,0,0,1,2.927,1.182A4.112,4.112,0,0,1,15.1,8.4a4.011,4.011,0,0,1-1.1,2.9,3.891,3.891,0,0,1-2.936,1.138H8.42V17H5.784V4.3Zm-.439,5.941a1.938,1.938,0,0,0,1.45-.5,1.889,1.889,0,0,0,.483-1.375,1.873,1.873,0,0,0-.488-1.358,1.92,1.92,0,0,0-1.446-.505H8.42v3.735ZM24.021,17l-3.3-5.59h-.765V17H17.315V4.3H21.92a5.327,5.327,0,0,1,1.846.294,3.191,3.191,0,0,1,1.279.817,3.5,3.5,0,0,1,.721,1.2A4.388,4.388,0,0,1,26.007,8.1a3.1,3.1,0,0,1-.694,2.087,3.5,3.5,0,0,1-2,1.094L27.141,17ZM19.952,6.488V9.521h1.556q1.978,0,1.978-1.512A1.377,1.377,0,0,0,23,6.893a2.3,2.3,0,0,0-1.494-.4ZM34.375,17.176a6.9,6.9,0,0,1-3.335-.8,5.766,5.766,0,0,1-2.316-2.29,6.886,6.886,0,0,1-.844-3.445,6.879,6.879,0,0,1,.844-3.45,5.744,5.744,0,0,1,2.316-2.281,7.418,7.418,0,0,1,6.667,0A5.752,5.752,0,0,1,40.017,7.2a6.879,6.879,0,0,1,.844,3.45,6.886,6.886,0,0,1-.844,3.445A5.766,5.766,0,0,1,37.7,16.38,6.885,6.885,0,0,1,34.375,17.176ZM31.6,13.647a4.025,4.025,0,0,0,5.555,0,4.1,4.1,0,0,0,1.09-3,4.075,4.075,0,0,0-1.09-2.988,4.036,4.036,0,0,0-5.555,0,4.075,4.075,0,0,0-1.09,2.988A4.1,4.1,0,0,0,31.6,13.647ZM50.731,4.3h2.8L48.841,17h-2.9L41.274,4.3h2.795L47.4,13.924ZM62.807,6.62H58.1V9.5h4.175V11.8H58.1v2.874h4.711V17H55.442V4.3h7.365Zm10.081,0H68.177V9.5h4.175V11.8H68.177v2.874h4.711V17H65.523V4.3h7.365ZM75.6,17V4.3h4.6a7.166,7.166,0,0,1,2.65.457,4.881,4.881,0,0,1,1.9,1.3,5.64,5.64,0,0,1,1.125,2,8.255,8.255,0,0,1,.382,2.593,8.286,8.286,0,0,1-.382,2.6,5.64,5.64,0,0,1-1.125,2,4.881,4.881,0,0,1-1.9,1.3A7.166,7.166,0,0,1,80.2,17Zm2.637-2.329h1.828a3.12,3.12,0,0,0,2.566-1.033,4.629,4.629,0,0,0,.844-2.993,4.629,4.629,0,0,0-.844-2.993A3.12,3.12,0,0,0,80.069,6.62H78.241Zm16.11,2.5a6.9,6.9,0,0,1-3.335-.8,5.766,5.766,0,0,1-2.316-2.29,6.886,6.886,0,0,1-.844-3.445A6.879,6.879,0,0,1,88.7,7.2a5.744,5.744,0,0,1,2.316-2.281,7.418,7.418,0,0,1,6.667,0A5.752,5.752,0,0,1,99.994,7.2a6.879,6.879,0,0,1,.844,3.45,6.886,6.886,0,0,1-.844,3.445,5.766,5.766,0,0,1-2.316,2.29A6.885,6.885,0,0,1,94.351,17.176Zm-2.777-3.529a4.025,4.025,0,0,0,5.555,0,4.1,4.1,0,0,0,1.09-3,4.075,4.075,0,0,0-1.09-2.988,4.036,4.036,0,0,0-5.555,0,4.075,4.075,0,0,0-1.09,2.988A4.1,4.1,0,0,0,91.574,13.647ZM109.969,17l-3.3-5.59H105.9V17h-2.637V4.3h4.605a5.327,5.327,0,0,1,1.846.294,3.191,3.191,0,0,1,1.279.817,3.5,3.5,0,0,1,.721,1.2,4.388,4.388,0,0,1,.242,1.485,3.1,3.1,0,0,1-.694,2.087,3.5,3.5,0,0,1-2,1.094L113.089,17ZM105.9,6.488V9.521h1.556q1.978,0,1.978-1.512a1.377,1.377,0,0,0-.483-1.116,2.3,2.3,0,0,0-1.494-.4Zm16.488.132h-4.711V9.5h4.175V11.8h-4.175v2.874h4.711V17h-7.365V4.3h7.365Zm6.935,10.556A6.136,6.136,0,0,1,125.8,16.2a3.9,3.9,0,0,1-1.714-2.72l2.725-.624a2.314,2.314,0,0,0,.839,1.6,2.785,2.785,0,0,0,1.78.558,2.3,2.3,0,0,0,1.389-.391,1.319,1.319,0,0,0,.527-1.156,1.233,1.233,0,0,0-.448-.94,2.929,2.929,0,0,0-.892-.576q-.444-.171-1.428-.47-.132-.044-.193-.062-.5-.158-.809-.264t-.76-.294a5.063,5.063,0,0,1-.738-.369,5.405,5.405,0,0,1-.611-.457,2.394,2.394,0,0,1-.51-.584,3.1,3.1,0,0,1-.308-.729,3.219,3.219,0,0,1-.123-.905,3.4,3.4,0,0,1,.593-2,3.633,3.633,0,0,1,1.6-1.274,5.822,5.822,0,0,1,2.29-.426,7.233,7.233,0,0,1,1.657.185,5.8,5.8,0,0,1,1.481.567,3.628,3.628,0,0,1,1.182,1.046A3.933,3.933,0,0,1,134,7.464L131.45,8.1a2.065,2.065,0,0,0-2.285-1.819,2.5,2.5,0,0,0-1.415.369,1.251,1.251,0,0,0-.554,1.116q0,.694.923,1.125a13.752,13.752,0,0,0,1.767.606q.519.158.844.264t.817.308a5.68,5.68,0,0,1,.8.391,5.918,5.918,0,0,1,.668.488,2.627,2.627,0,0,1,.567.633,3.422,3.422,0,0,1,.347.787,3.288,3.288,0,0,1,.141.98,3.85,3.85,0,0,1-.255,1.433,3.118,3.118,0,0,1-.7,1.081,4.058,4.058,0,0,1-1.05.743,5.1,5.1,0,0,1-1.292.439A7.431,7.431,0,0,1,129.323,17.176Z" transform="translate(-2795 -1384) rotate(-90)" fill="#00223d"/>
        <path id="Trazado_9955" data-name="Trazado 9955" d="M35.986,4.3h2.8L34.1,17H31.2L26.529,4.3h2.795l3.331,9.624Zm11.979,8.051-.026.606h-6.7a2.339,2.339,0,0,0,.721,1.652,2.3,2.3,0,0,0,1.591.571,2.221,2.221,0,0,0,1.191-.312,1.918,1.918,0,0,0,.76-.91l2.32.343a3.945,3.945,0,0,1-1.582,2.118,4.7,4.7,0,0,1-2.672.756,4.891,4.891,0,0,1-3.52-1.244,4.538,4.538,0,0,1-1.305-3.45,4.565,4.565,0,0,1,1.31-3.45,4.746,4.746,0,0,1,3.437-1.261,4.536,4.536,0,0,1,3.243,1.151A4.517,4.517,0,0,1,47.965,12.351ZM43.509,9.564a2,2,0,0,0-2.2,1.74H45.46a1.9,1.9,0,0,0-.624-1.292A1.978,1.978,0,0,0,43.509,9.564ZM55.225,7.789a3.522,3.522,0,0,1,2.5.813,3.014,3.014,0,0,1,.87,2.316V17h-2.54V11.463a1.574,1.574,0,0,0-.453-1.248,1.705,1.705,0,0,0-1.165-.4,2.379,2.379,0,0,0-.756.114,1.942,1.942,0,0,0-.633.356,1.573,1.573,0,0,0-.453.681,3.15,3.15,0,0,0-.171,1.046V17H49.89V7.965h2.531v1A3.481,3.481,0,0,1,55.225,7.789ZM64.41,17a2.729,2.729,0,0,1-2.039-.734,2.854,2.854,0,0,1-.721-2.087V9.907H59.875V7.965h.571a1.491,1.491,0,0,0,1.125-.378,1.946,1.946,0,0,0,.36-1.345v-1.2h2.285V7.965H66.08V9.907H64.216v4q0,1.169,1.046,1.169h.817V17Zm11-2.452a8.453,8.453,0,0,0,.22,2.206V17H73.269l-.2-.984a2.938,2.938,0,0,1-1.266.87,4.664,4.664,0,0,1-1.635.29,4.3,4.3,0,0,1-.844-.079,2.868,2.868,0,0,1-.76-.268,2.307,2.307,0,0,1-.628-.47,2.062,2.062,0,0,1-.422-.716,2.853,2.853,0,0,1-.158-.98,2.718,2.718,0,0,1,.167-.98,2.3,2.3,0,0,1,.439-.734,2.666,2.666,0,0,1,.712-.536,5.447,5.447,0,0,1,.9-.387,10.712,10.712,0,0,1,1.072-.281l1.485-.334a1.638,1.638,0,0,0,.672-.286.57.57,0,0,0,.2-.453.932.932,0,0,0-.444-.87,2.073,2.073,0,0,0-1.077-.264,1.549,1.549,0,0,0-1.767,1.38l-2.241-.4a3.034,3.034,0,0,1,1.31-2.061,5.2,5.2,0,0,1,2.839-.664q3.8,0,3.8,3.261Zm-4.456.914a2.036,2.036,0,0,0,1.564-.655,2.759,2.759,0,0,0,.606-1.938l-2.145.606a2.534,2.534,0,0,0-.9.369.758.758,0,0,0-.312.65.842.842,0,0,0,.334.716A1.382,1.382,0,0,0,70.958,15.462Zm8.218-8.851a1.421,1.421,0,0,1-1.037-.426,1.4,1.4,0,0,1-.431-1.033,1.382,1.382,0,0,1,.435-1.024A1.425,1.425,0,0,1,79.175,3.7a1.463,1.463,0,0,1,1.45,1.45,1.463,1.463,0,0,1-1.45,1.459ZM76.029,21.236V19.259a2.912,2.912,0,0,0,.949-.127,1.061,1.061,0,0,0,.563-.453,2,2,0,0,0,.268-.778,8.77,8.77,0,0,0,.066-1.208V7.965h2.566v8.728a4.908,4.908,0,0,1-1.028,3.454A4.487,4.487,0,0,1,76.029,21.236Zm14.449-6.688a8.453,8.453,0,0,0,.22,2.206V17H88.333l-.2-.984a2.938,2.938,0,0,1-1.266.87,4.664,4.664,0,0,1-1.635.29,4.3,4.3,0,0,1-.844-.079,2.868,2.868,0,0,1-.76-.268,2.307,2.307,0,0,1-.628-.47,2.062,2.062,0,0,1-.422-.716,2.853,2.853,0,0,1-.158-.98,2.718,2.718,0,0,1,.167-.98,2.3,2.3,0,0,1,.439-.734,2.666,2.666,0,0,1,.712-.536,5.447,5.447,0,0,1,.9-.387,10.712,10.712,0,0,1,1.072-.281l1.485-.334a1.638,1.638,0,0,0,.672-.286.57.57,0,0,0,.2-.453.932.932,0,0,0-.444-.87,2.073,2.073,0,0,0-1.077-.264,1.549,1.549,0,0,0-1.767,1.38l-2.241-.4a3.034,3.034,0,0,1,1.31-2.061,5.2,5.2,0,0,1,2.839-.664q3.8,0,3.8,3.261Zm-4.456.914a2.036,2.036,0,0,0,1.564-.655,2.759,2.759,0,0,0,.606-1.938l-2.145.606a2.534,2.534,0,0,0-.9.369.758.758,0,0,0-.312.65.842.842,0,0,0,.334.716A1.382,1.382,0,0,0,86.022,15.462Zm15.68,1.705a4.827,4.827,0,0,1-3.489-1.3,4.493,4.493,0,0,1-1.354-3.393,4.483,4.483,0,0,1,1.349-3.393,5.364,5.364,0,0,1,6.42-.422,3.885,3.885,0,0,1,1.512,2.452l-2.338.255a2,2,0,0,0-.756-1.187,2.3,2.3,0,0,0-1.371-.4,2.072,2.072,0,0,0-1.652.738,2.894,2.894,0,0,0-.633,1.951,2.9,2.9,0,0,0,.633,1.947,2.067,2.067,0,0,0,1.652.743,2.278,2.278,0,0,0,1.367-.4,2.05,2.05,0,0,0,.76-1.187l2.338.255a3.9,3.9,0,0,1-1.525,2.452A4.8,4.8,0,0,1,101.7,17.167Zm10.45.009a5.681,5.681,0,0,1-2.558-.554A4.138,4.138,0,0,1,107.841,15a4.846,4.846,0,0,1-.637-2.522,4.42,4.42,0,0,1,1.371-3.428,5.731,5.731,0,0,1,7.163,0,4.42,4.42,0,0,1,1.371,3.428,4.444,4.444,0,0,1-1.371,3.441A5.088,5.088,0,0,1,112.152,17.176Zm-.026-2.013a2.319,2.319,0,0,0,1.789-.738,2.764,2.764,0,0,0,.681-1.951,2.764,2.764,0,0,0-.681-1.951,2.319,2.319,0,0,0-1.789-.738,2.234,2.234,0,0,0-1.736.743,2.789,2.789,0,0,0-.672,1.947,2.789,2.789,0,0,0,.672,1.947A2.234,2.234,0,0,0,112.125,15.163Zm17.569-7.374a3.452,3.452,0,0,1,2.329.734,2.626,2.626,0,0,1,.853,2.1V17h-2.531V11.349a1.509,1.509,0,0,0-.4-1.143,1.416,1.416,0,0,0-1.02-.387,1.633,1.633,0,0,0-1.23.492,2.235,2.235,0,0,0-.475,1.591V17h-2.558V11.375a1.549,1.549,0,0,0-.4-1.165,1.441,1.441,0,0,0-1.046-.391,1.581,1.581,0,0,0-1.222.519,2.476,2.476,0,0,0-.475,1.7V17H118.99V7.965h2.522V9.028a3.072,3.072,0,0,1,2.619-1.239,3.863,3.863,0,0,1,1.7.347A2.315,2.315,0,0,1,126.9,9.143,3.2,3.2,0,0,1,129.695,7.789Zm10.942,0a4.394,4.394,0,0,1,1.688.325,4.223,4.223,0,0,1,1.384.914,4.135,4.135,0,0,1,.936,1.49,5.531,5.531,0,0,1,.343,1.982,5.531,5.531,0,0,1-.343,1.982,4.135,4.135,0,0,1-.936,1.49,4.223,4.223,0,0,1-1.384.914,4.394,4.394,0,0,1-1.687.325A3.921,3.921,0,0,1,139,16.877a2.562,2.562,0,0,1-1.134-.949v5.467h-2.531V7.965h2.4l.07,1.213a2.475,2.475,0,0,1,1.129-1.024A3.881,3.881,0,0,1,140.637,7.789Zm-.571,7.321a2.274,2.274,0,0,0,1.709-.708,2.628,2.628,0,0,0,.681-1.9,2.628,2.628,0,0,0-.681-1.9,2.419,2.419,0,0,0-3.432.013,2.629,2.629,0,0,0-.686,1.89,2.629,2.629,0,0,0,.686,1.89A2.278,2.278,0,0,0,140.066,15.11Zm15.328-2.76-.026.606h-6.7a2.339,2.339,0,0,0,.721,1.652,2.3,2.3,0,0,0,1.591.571,2.221,2.221,0,0,0,1.191-.312,1.918,1.918,0,0,0,.76-.91l2.32.343a3.945,3.945,0,0,1-1.582,2.118,4.7,4.7,0,0,1-2.672.756,4.891,4.891,0,0,1-3.52-1.244,4.538,4.538,0,0,1-1.305-3.45,4.565,4.565,0,0,1,1.31-3.45,4.746,4.746,0,0,1,3.437-1.261,4.536,4.536,0,0,1,3.243,1.151A4.517,4.517,0,0,1,155.394,12.351Zm-4.456-2.786a2,2,0,0,0-2.2,1.74h4.148a1.9,1.9,0,0,0-.624-1.292A1.978,1.978,0,0,0,150.938,9.564ZM160.685,17a2.729,2.729,0,0,1-2.039-.734,2.854,2.854,0,0,1-.721-2.087V9.907H156.15V7.965h.571a1.491,1.491,0,0,0,1.125-.378,1.946,1.946,0,0,0,.36-1.345v-1.2h2.285V7.965h1.863V9.907h-1.863v4q0,1.169,1.046,1.169h.817V17Zm4.922-10.389a1.421,1.421,0,0,1-1.037-.426,1.4,1.4,0,0,1-.431-1.033,1.382,1.382,0,0,1,.435-1.024,1.425,1.425,0,0,1,1.033-.426,1.463,1.463,0,0,1,1.45,1.45,1.463,1.463,0,0,1-1.45,1.459ZM164.315,17V7.965h2.549V17Zm8.534,0a2.729,2.729,0,0,1-2.039-.734,2.854,2.854,0,0,1-.721-2.087V9.907h-1.775V7.965h.571a1.491,1.491,0,0,0,1.125-.378,1.946,1.946,0,0,0,.36-1.345v-1.2h2.285V7.965h1.863V9.907h-1.863v4q0,1.169,1.046,1.169h.817V17Zm4.922-10.389a1.421,1.421,0,0,1-1.037-.426,1.4,1.4,0,0,1-.431-1.033,1.382,1.382,0,0,1,.435-1.024,1.425,1.425,0,0,1,1.033-.426,1.463,1.463,0,0,1,1.45,1.45,1.463,1.463,0,0,1-1.45,1.459ZM176.479,17V7.965h2.549V17Zm11.048-9.035h2.681L186.358,17h-2.2l-3.806-9.035h2.663l2.25,6.179Zm11.057,6.583a8.453,8.453,0,0,0,.22,2.206V17h-2.364l-.2-.984a2.938,2.938,0,0,1-1.266.87,4.664,4.664,0,0,1-1.635.29,4.3,4.3,0,0,1-.844-.079,2.868,2.868,0,0,1-.76-.268,2.307,2.307,0,0,1-.628-.47,2.062,2.062,0,0,1-.422-.716,2.853,2.853,0,0,1-.158-.98,2.718,2.718,0,0,1,.167-.98,2.3,2.3,0,0,1,.439-.734,2.666,2.666,0,0,1,.712-.536,5.447,5.447,0,0,1,.9-.387,10.712,10.712,0,0,1,1.072-.281l1.485-.334a1.638,1.638,0,0,0,.672-.286.57.57,0,0,0,.2-.453.932.932,0,0,0-.444-.87,2.073,2.073,0,0,0-1.077-.264,1.549,1.549,0,0,0-1.767,1.38l-2.241-.4a3.034,3.034,0,0,1,1.31-2.061,5.2,5.2,0,0,1,2.839-.664q3.8,0,3.8,3.261Zm-4.456.914a2.036,2.036,0,0,0,1.564-.655,2.759,2.759,0,0,0,.606-1.938l-2.145.606a2.534,2.534,0,0,0-.9.369.758.758,0,0,0-.312.65.842.842,0,0,0,.334.716A1.382,1.382,0,0,0,194.127,15.462Z" transform="translate(-2764 -1344) rotate(-90)" fill="#00223d"/>
        <path id="Trazado_9961" data-name="Trazado 9961" d="M141.153,4.3a3.822,3.822,0,0,1,2.927,1.182A4.112,4.112,0,0,1,145.188,8.4a4.011,4.011,0,0,1-1.1,2.9,3.891,3.891,0,0,1-2.936,1.138h-2.646V17h-2.637V4.3Zm-.439,5.941a1.938,1.938,0,0,0,1.45-.5,1.888,1.888,0,0,0,.483-1.375,1.873,1.873,0,0,0-.488-1.358,1.92,1.92,0,0,0-1.446-.505h-2.206v3.735Zm10.257,6.935a5.681,5.681,0,0,1-2.558-.554A4.138,4.138,0,0,1,146.66,15a4.846,4.846,0,0,1-.637-2.522,4.42,4.42,0,0,1,1.371-3.428,5.731,5.731,0,0,1,7.163,0,4.42,4.42,0,0,1,1.371,3.428,4.444,4.444,0,0,1-1.371,3.441A5.088,5.088,0,0,1,150.971,17.176Zm-.026-2.013a2.319,2.319,0,0,0,1.789-.738,2.764,2.764,0,0,0,.681-1.951,2.764,2.764,0,0,0-.681-1.951,2.319,2.319,0,0,0-1.789-.738,2.234,2.234,0,0,0-1.736.743,2.789,2.789,0,0,0-.672,1.947,2.789,2.789,0,0,0,.672,1.947A2.234,2.234,0,0,0,150.944,15.163Zm10.046,2.013a5.049,5.049,0,0,1-2.637-.633,2.675,2.675,0,0,1-1.292-1.881l2.118-.6a1.7,1.7,0,0,0,1.811,1.345,1.87,1.87,0,0,0,.923-.207.719.719,0,0,0,.36-.7.739.739,0,0,0-.149-.466,1.183,1.183,0,0,0-.461-.334,5.749,5.749,0,0,0-.615-.237q-.3-.1-.8-.233t-.835-.259a5.593,5.593,0,0,1-.8-.338,3.393,3.393,0,0,1-.659-.466,1.878,1.878,0,0,1-.492-.708,2.552,2.552,0,0,1-.171-.967,2.308,2.308,0,0,1,.98-2.021,4.379,4.379,0,0,1,2.562-.686,4.489,4.489,0,0,1,2.364.58,2.625,2.625,0,0,1,1.213,1.811l-1.96.439a1.535,1.535,0,0,0-1.608-1.143,1.761,1.761,0,0,0-.888.2.649.649,0,0,0-.352.6.685.685,0,0,0,.053.272.539.539,0,0,0,.185.22,2.692,2.692,0,0,0,.255.167,1.923,1.923,0,0,0,.36.145q.237.075.4.114l.461.119.47.123q.483.132.848.264a4.967,4.967,0,0,1,.778.369,2.792,2.792,0,0,1,.681.532,2.372,2.372,0,0,1,.444.747,2.759,2.759,0,0,1,.176,1.006,2.718,2.718,0,0,1-.3,1.31,2.276,2.276,0,0,1-.831.883,4.043,4.043,0,0,1-1.173.475A6.087,6.087,0,0,1,160.99,17.176Zm6.829-10.564a1.421,1.421,0,0,1-1.037-.426,1.4,1.4,0,0,1-.431-1.033,1.382,1.382,0,0,1,.435-1.024,1.425,1.425,0,0,1,1.033-.426,1.463,1.463,0,0,1,1.45,1.45,1.463,1.463,0,0,1-1.45,1.459ZM166.527,17V7.965h2.549V17Zm9.255.167a4.827,4.827,0,0,1-3.489-1.3,4.493,4.493,0,0,1-1.354-3.393,4.483,4.483,0,0,1,1.349-3.393,5.364,5.364,0,0,1,6.42-.422,3.885,3.885,0,0,1,1.512,2.452l-2.338.255a2,2,0,0,0-.756-1.187,2.3,2.3,0,0,0-1.371-.4,2.072,2.072,0,0,0-1.652.738,2.894,2.894,0,0,0-.633,1.951,2.9,2.9,0,0,0,.633,1.947,2.067,2.067,0,0,0,1.652.743,2.278,2.278,0,0,0,1.367-.4,2.05,2.05,0,0,0,.76-1.187l2.338.255a3.9,3.9,0,0,1-1.525,2.452A4.8,4.8,0,0,1,175.782,17.167Zm7.532-10.556a1.421,1.421,0,0,1-1.037-.426,1.4,1.4,0,0,1-.431-1.033,1.382,1.382,0,0,1,.435-1.024,1.425,1.425,0,0,1,1.033-.426,1.463,1.463,0,0,1,1.45,1.45,1.463,1.463,0,0,1-1.45,1.459ZM182.022,17V7.965h2.549V17Zm9.378.176a5.681,5.681,0,0,1-2.558-.554A4.138,4.138,0,0,1,187.089,15a4.846,4.846,0,0,1-.637-2.522,4.42,4.42,0,0,1,1.371-3.428,5.731,5.731,0,0,1,7.163,0,4.42,4.42,0,0,1,1.371,3.428,4.444,4.444,0,0,1-1.371,3.441A5.088,5.088,0,0,1,191.4,17.176Zm-.026-2.013a2.319,2.319,0,0,0,1.789-.738,2.764,2.764,0,0,0,.681-1.951,2.764,2.764,0,0,0-.681-1.951,2.319,2.319,0,0,0-1.789-.738,2.234,2.234,0,0,0-1.736.743,2.789,2.789,0,0,0-.672,1.947,2.789,2.789,0,0,0,.672,1.947A2.234,2.234,0,0,0,191.374,15.163Zm12.2-7.374a3.522,3.522,0,0,1,2.5.813,3.014,3.014,0,0,1,.87,2.316V17H204.4V11.463a1.574,1.574,0,0,0-.453-1.248,1.705,1.705,0,0,0-1.165-.4,2.379,2.379,0,0,0-.756.114,1.942,1.942,0,0,0-.633.356,1.573,1.573,0,0,0-.453.681,3.15,3.15,0,0,0-.171,1.046V17h-2.531V7.965h2.531v1A3.481,3.481,0,0,1,203.573,7.789ZM216.8,14.548a8.453,8.453,0,0,0,.22,2.206V17h-2.364l-.2-.984a2.938,2.938,0,0,1-1.266.87,4.664,4.664,0,0,1-1.635.29,4.3,4.3,0,0,1-.844-.079,2.868,2.868,0,0,1-.76-.268,2.307,2.307,0,0,1-.628-.47,2.062,2.062,0,0,1-.422-.716,2.853,2.853,0,0,1-.158-.98,2.718,2.718,0,0,1,.167-.98,2.3,2.3,0,0,1,.439-.734,2.666,2.666,0,0,1,.712-.536,5.447,5.447,0,0,1,.9-.387,10.712,10.712,0,0,1,1.072-.281l1.485-.334a1.638,1.638,0,0,0,.672-.286.57.57,0,0,0,.2-.453.932.932,0,0,0-.444-.87,2.073,2.073,0,0,0-1.077-.264,1.549,1.549,0,0,0-1.767,1.38l-2.241-.4a3.034,3.034,0,0,1,1.31-2.061A5.2,5.2,0,0,1,213,7.789q3.8,0,3.8,3.261Zm-4.456.914a2.036,2.036,0,0,0,1.564-.655,2.759,2.759,0,0,0,.606-1.938l-2.145.606a2.534,2.534,0,0,0-.9.369.758.758,0,0,0-.312.65.842.842,0,0,0,.334.716A1.382,1.382,0,0,0,212.345,15.462Zm17.622-7.673a3.452,3.452,0,0,1,2.329.734,2.626,2.626,0,0,1,.853,2.1V17h-2.531V11.349a1.509,1.509,0,0,0-.4-1.143,1.416,1.416,0,0,0-1.02-.387,1.633,1.633,0,0,0-1.23.492,2.235,2.235,0,0,0-.475,1.591V17h-2.558V11.375a1.549,1.549,0,0,0-.4-1.165,1.441,1.441,0,0,0-1.046-.391,1.581,1.581,0,0,0-1.222.519,2.476,2.476,0,0,0-.475,1.7V17h-2.522V7.965h2.522V9.028A3.072,3.072,0,0,1,224.4,7.789a3.863,3.863,0,0,1,1.7.347,2.315,2.315,0,0,1,1.068,1.006A3.2,3.2,0,0,1,229.967,7.789ZM236.9,6.611a1.421,1.421,0,0,1-1.037-.426,1.4,1.4,0,0,1-.431-1.033,1.382,1.382,0,0,1,.435-1.024A1.425,1.425,0,0,1,236.9,3.7a1.463,1.463,0,0,1,1.45,1.45,1.463,1.463,0,0,1-1.45,1.459ZM235.609,17V7.965h2.549V17Zm13.667-4.649-.026.606h-6.7a2.339,2.339,0,0,0,.721,1.652,2.3,2.3,0,0,0,1.591.571,2.221,2.221,0,0,0,1.191-.312,1.918,1.918,0,0,0,.76-.91l2.32.343a3.945,3.945,0,0,1-1.582,2.118,4.7,4.7,0,0,1-2.672.756,4.891,4.891,0,0,1-3.52-1.244,4.538,4.538,0,0,1-1.305-3.45,4.565,4.565,0,0,1,1.31-3.45A4.746,4.746,0,0,1,244.8,7.771a4.536,4.536,0,0,1,3.243,1.151A4.517,4.517,0,0,1,249.276,12.351ZM244.82,9.564a2,2,0,0,0-2.2,1.74h4.148a1.9,1.9,0,0,0-.624-1.292A1.978,1.978,0,0,0,244.82,9.564Zm11.716-1.775a3.522,3.522,0,0,1,2.5.813,3.014,3.014,0,0,1,.87,2.316V17h-2.54V11.463a1.574,1.574,0,0,0-.453-1.248,1.705,1.705,0,0,0-1.165-.4,2.379,2.379,0,0,0-.756.114,1.942,1.942,0,0,0-.633.356,1.573,1.573,0,0,0-.453.681,3.15,3.15,0,0,0-.171,1.046V17H251.2V7.965h2.531v1A3.481,3.481,0,0,1,256.536,7.789ZM265.721,17a2.729,2.729,0,0,1-2.039-.734,2.854,2.854,0,0,1-.721-2.087V9.907h-1.775V7.965h.571a1.491,1.491,0,0,0,1.125-.378,1.946,1.946,0,0,0,.36-1.345v-1.2h2.285V7.965h1.863V9.907h-1.863v4q0,1.169,1.046,1.169h.817V17Zm7.8.176a5.681,5.681,0,0,1-2.558-.554A4.138,4.138,0,0,1,269.214,15a4.846,4.846,0,0,1-.637-2.522,4.42,4.42,0,0,1,1.371-3.428,5.731,5.731,0,0,1,7.163,0,4.42,4.42,0,0,1,1.371,3.428,4.444,4.444,0,0,1-1.371,3.441A5.088,5.088,0,0,1,273.525,17.176Zm-.026-2.013a2.319,2.319,0,0,0,1.789-.738,2.764,2.764,0,0,0,.681-1.951,2.764,2.764,0,0,0-.681-1.951,2.319,2.319,0,0,0-1.789-.738,2.234,2.234,0,0,0-1.736.743,2.789,2.789,0,0,0-.672,1.947,2.789,2.789,0,0,0,.672,1.947A2.234,2.234,0,0,0,273.5,15.163Zm11.514-1.784V11.261h6.3v2.118ZM305.922,4.3V6.62h-3.015V17H300.3V6.62h-3.032V4.3Zm7.629,10.248a8.453,8.453,0,0,0,.22,2.206V17h-2.364l-.2-.984a2.938,2.938,0,0,1-1.266.87,4.664,4.664,0,0,1-1.635.29,4.3,4.3,0,0,1-.844-.079,2.868,2.868,0,0,1-.76-.268,2.307,2.307,0,0,1-.628-.47,2.062,2.062,0,0,1-.422-.716,2.853,2.853,0,0,1-.158-.98,2.718,2.718,0,0,1,.167-.98,2.3,2.3,0,0,1,.439-.734,2.666,2.666,0,0,1,.712-.536,5.447,5.447,0,0,1,.9-.387,10.712,10.712,0,0,1,1.072-.281l1.485-.334a1.638,1.638,0,0,0,.672-.286.57.57,0,0,0,.2-.453.932.932,0,0,0-.444-.87,2.073,2.073,0,0,0-1.077-.264,1.549,1.549,0,0,0-1.767,1.38l-2.241-.4a3.034,3.034,0,0,1,1.31-2.061,5.2,5.2,0,0,1,2.839-.664q3.8,0,3.8,3.261Zm-4.456.914a2.036,2.036,0,0,0,1.564-.655,2.759,2.759,0,0,0,.606-1.938l-2.145.606a2.534,2.534,0,0,0-.9.369.758.758,0,0,0-.312.65.842.842,0,0,0,.334.716A1.382,1.382,0,0,0,309.095,15.462ZM318.438,9.4a2.933,2.933,0,0,1,1.187-1.085,3.62,3.62,0,0,1,1.767-.453v2.259a3.423,3.423,0,0,0-2.162.545,2.379,2.379,0,0,0-.668,1.934V17h-2.549V7.965h2.426Zm10.608-1.433h2.408v8.358a6.759,6.759,0,0,1-.338,2.25,3.711,3.711,0,0,1-.98,1.542,4.085,4.085,0,0,1-1.5.866,6.336,6.336,0,0,1-1.969.281q-3.577,0-4.658-2.8l2.1-.9a3.065,3.065,0,0,0,.976,1.31,2.487,2.487,0,0,0,1.485.422q2.347,0,2.347-2.786V15.453a2.846,2.846,0,0,1-1.138.892,3.784,3.784,0,0,1-1.6.338,4.046,4.046,0,0,1-2.9-1.217,4.174,4.174,0,0,1-.892-1.419,5.247,5.247,0,0,1,0-3.661,4.006,4.006,0,0,1,.9-1.4,4.125,4.125,0,0,1,1.318-.879,4.069,4.069,0,0,1,1.6-.316,3.674,3.674,0,0,1,1.674.374,2.67,2.67,0,0,1,1.121,1Zm-3.88,5.977a2.319,2.319,0,0,0,3.318-.009,2.526,2.526,0,0,0,0-3.437,2.34,2.34,0,0,0-3.331-.013,2.4,2.4,0,0,0-.664,1.736A2.379,2.379,0,0,0,325.166,13.941Zm17.416-1.591-.026.606h-6.7a2.339,2.339,0,0,0,.721,1.652,2.3,2.3,0,0,0,1.591.571,2.221,2.221,0,0,0,1.191-.312,1.918,1.918,0,0,0,.76-.91l2.32.343a3.945,3.945,0,0,1-1.582,2.118,4.7,4.7,0,0,1-2.672.756,4.891,4.891,0,0,1-3.52-1.244,4.538,4.538,0,0,1-1.305-3.45,4.565,4.565,0,0,1,1.31-3.45,4.746,4.746,0,0,1,3.437-1.261,4.536,4.536,0,0,1,3.243,1.151A4.517,4.517,0,0,1,342.581,12.351Zm-4.456-2.786a2,2,0,0,0-2.2,1.74h4.148a1.9,1.9,0,0,0-.624-1.292A1.978,1.978,0,0,0,338.125,9.564ZM347.872,17a2.729,2.729,0,0,1-2.039-.734,2.854,2.854,0,0,1-.721-2.087V9.907h-1.775V7.965h.571a1.491,1.491,0,0,0,1.125-.378,1.946,1.946,0,0,0,.36-1.345v-1.2h2.285V7.965h1.863V9.907h-1.863v4q0,1.169,1.046,1.169h.817V17Zm4.922-10.389a1.421,1.421,0,0,1-1.037-.426,1.4,1.4,0,0,1-.431-1.033,1.382,1.382,0,0,1,.435-1.024,1.425,1.425,0,0,1,1.033-.426,1.463,1.463,0,0,1,1.45,1.45,1.463,1.463,0,0,1-1.45,1.459ZM351.5,17V7.965h2.549V17ZM362,7.789a3.522,3.522,0,0,1,2.5.813,3.014,3.014,0,0,1,.87,2.316V17h-2.54V11.463a1.574,1.574,0,0,0-.453-1.248,1.705,1.705,0,0,0-1.165-.4,2.379,2.379,0,0,0-.756.114,1.942,1.942,0,0,0-.633.356,1.573,1.573,0,0,0-.453.681,3.15,3.15,0,0,0-.171,1.046V17H356.67V7.965H359.2v1A3.481,3.481,0,0,1,362,7.789Zm12.041.176h2.408v8.358a6.759,6.759,0,0,1-.338,2.25,3.711,3.711,0,0,1-.98,1.542,4.085,4.085,0,0,1-1.5.866,6.336,6.336,0,0,1-1.969.281q-3.577,0-4.658-2.8l2.1-.9a3.065,3.065,0,0,0,.976,1.31,2.487,2.487,0,0,0,1.485.422q2.347,0,2.347-2.786V15.453a2.846,2.846,0,0,1-1.138.892,3.784,3.784,0,0,1-1.6.338,4.046,4.046,0,0,1-2.9-1.217,4.174,4.174,0,0,1-.892-1.419,5.247,5.247,0,0,1,0-3.661,4.006,4.006,0,0,1,.9-1.4,4.125,4.125,0,0,1,1.318-.879,4.069,4.069,0,0,1,1.6-.316,3.674,3.674,0,0,1,1.674.374,2.67,2.67,0,0,1,1.121,1Zm-3.88,5.977a2.319,2.319,0,0,0,3.318-.009,2.526,2.526,0,0,0,0-3.437,2.34,2.34,0,0,0-3.331-.013,2.4,2.4,0,0,0-.664,1.736A2.379,2.379,0,0,0,370.166,13.941Z" transform="translate(-2759 -1323)" fill="#00223d"/>
        <path id="Trazado_9963" data-name="Trazado 9963" d="M67.185,4.3a3.822,3.822,0,0,1,2.927,1.182A4.112,4.112,0,0,1,71.219,8.4a4.011,4.011,0,0,1-1.1,2.9,3.891,3.891,0,0,1-2.936,1.138H64.539V17H61.9V4.3Zm-.439,5.941a1.938,1.938,0,0,0,1.45-.5,1.888,1.888,0,0,0,.483-1.375,1.873,1.873,0,0,0-.488-1.358,1.92,1.92,0,0,0-1.446-.505H64.539v3.735Zm8.78-.844a2.933,2.933,0,0,1,1.187-1.085,3.62,3.62,0,0,1,1.767-.453v2.259a3.423,3.423,0,0,0-2.162.545,2.379,2.379,0,0,0-.668,1.934V17H73.1V7.965h2.426Zm8.6,7.778a5.681,5.681,0,0,1-2.558-.554A4.138,4.138,0,0,1,79.81,15a4.846,4.846,0,0,1-.637-2.522,4.42,4.42,0,0,1,1.371-3.428,5.731,5.731,0,0,1,7.163,0,4.42,4.42,0,0,1,1.371,3.428,4.444,4.444,0,0,1-1.371,3.441A5.088,5.088,0,0,1,84.121,17.176Zm-.026-2.013a2.319,2.319,0,0,0,1.789-.738,2.764,2.764,0,0,0,.681-1.951,2.764,2.764,0,0,0-.681-1.951,2.319,2.319,0,0,0-1.789-.738,2.234,2.234,0,0,0-1.736.743,2.789,2.789,0,0,0-.672,1.947,2.789,2.789,0,0,0,.672,1.947A2.234,2.234,0,0,0,84.095,15.163Zm17.569-7.374a3.452,3.452,0,0,1,2.329.734,2.626,2.626,0,0,1,.853,2.1V17h-2.531V11.349a1.509,1.509,0,0,0-.4-1.143,1.416,1.416,0,0,0-1.02-.387,1.633,1.633,0,0,0-1.23.492,2.235,2.235,0,0,0-.475,1.591V17H96.628V11.375a1.549,1.549,0,0,0-.4-1.165,1.441,1.441,0,0,0-1.046-.391,1.581,1.581,0,0,0-1.222.519,2.476,2.476,0,0,0-.475,1.7V17H90.959V7.965h2.522V9.028A3.072,3.072,0,0,1,96.1,7.789a3.863,3.863,0,0,1,1.7.347,2.315,2.315,0,0,1,1.068,1.006A3.2,3.2,0,0,1,101.664,7.789Zm9.853,9.387a5.681,5.681,0,0,1-2.558-.554A4.138,4.138,0,0,1,107.206,15a4.846,4.846,0,0,1-.637-2.522,4.42,4.42,0,0,1,1.371-3.428,5.731,5.731,0,0,1,7.163,0,4.42,4.42,0,0,1,1.371,3.428,4.444,4.444,0,0,1-1.371,3.441A5.088,5.088,0,0,1,111.517,17.176Zm-.026-2.013a2.319,2.319,0,0,0,1.789-.738,2.764,2.764,0,0,0,.681-1.951,2.764,2.764,0,0,0-.681-1.951,2.319,2.319,0,0,0-1.789-.738,2.234,2.234,0,0,0-1.736.743,2.789,2.789,0,0,0-.672,1.947,2.789,2.789,0,0,0,.672,1.947A2.234,2.234,0,0,0,111.49,15.163Zm10.951,2a4.827,4.827,0,0,1-3.489-1.3,4.493,4.493,0,0,1-1.354-3.393,4.483,4.483,0,0,1,1.349-3.393,5.364,5.364,0,0,1,6.42-.422,3.885,3.885,0,0,1,1.512,2.452l-2.338.255a2,2,0,0,0-.756-1.187,2.3,2.3,0,0,0-1.371-.4,2.072,2.072,0,0,0-1.652.738,2.894,2.894,0,0,0-.633,1.951,2.9,2.9,0,0,0,.633,1.947,2.067,2.067,0,0,0,1.652.743,2.278,2.278,0,0,0,1.367-.4,2.05,2.05,0,0,0,.76-1.187l2.338.255a3.9,3.9,0,0,1-1.525,2.452A4.8,4.8,0,0,1,122.441,17.167Zm7.532-10.556a1.421,1.421,0,0,1-1.037-.426,1.4,1.4,0,0,1-.431-1.033,1.382,1.382,0,0,1,.435-1.024,1.425,1.425,0,0,1,1.033-.426,1.463,1.463,0,0,1,1.45,1.45,1.463,1.463,0,0,1-1.45,1.459ZM128.682,17V7.965h2.549V17Zm8.6-10.266,2.3-3.234,1.248.879-2,2.355Zm.782,10.441a5.681,5.681,0,0,1-2.558-.554A4.138,4.138,0,0,1,133.749,15a4.846,4.846,0,0,1-.637-2.522,4.42,4.42,0,0,1,1.371-3.428,5.731,5.731,0,0,1,7.163,0,4.42,4.42,0,0,1,1.371,3.428,4.444,4.444,0,0,1-1.371,3.441A5.088,5.088,0,0,1,138.06,17.176Zm-.026-2.013a2.319,2.319,0,0,0,1.789-.738,2.764,2.764,0,0,0,.681-1.951,2.764,2.764,0,0,0-.681-1.951,2.319,2.319,0,0,0-1.789-.738,2.234,2.234,0,0,0-1.736.743,2.789,2.789,0,0,0-.672,1.947,2.789,2.789,0,0,0,.672,1.947A2.234,2.234,0,0,0,138.033,15.163Zm12.2-7.374a3.522,3.522,0,0,1,2.5.813,3.014,3.014,0,0,1,.87,2.316V17h-2.54V11.463a1.574,1.574,0,0,0-.453-1.248,1.705,1.705,0,0,0-1.165-.4,2.379,2.379,0,0,0-.756.114,1.942,1.942,0,0,0-.633.356,1.573,1.573,0,0,0-.453.681,3.15,3.15,0,0,0-.171,1.046V17H144.9V7.965h2.531v1A3.481,3.481,0,0,1,150.232,7.789Z" transform="translate(-2611 -1401)" fill="#00223d"/>
        <path id="Trazado_9964" data-name="Trazado 9964" d="M36.271,4.3A3.822,3.822,0,0,1,39.2,5.482,4.112,4.112,0,0,1,40.305,8.4a4.011,4.011,0,0,1-1.1,2.9,3.891,3.891,0,0,1-2.936,1.138H33.625V17H30.989V4.3Zm-.439,5.941a1.938,1.938,0,0,0,1.45-.5,1.888,1.888,0,0,0,.483-1.375,1.873,1.873,0,0,0-.488-1.358,1.92,1.92,0,0,0-1.446-.505H33.625v3.735Zm8.78-.844A2.933,2.933,0,0,1,45.8,8.312a3.62,3.62,0,0,1,1.767-.453v2.259a3.423,3.423,0,0,0-2.162.545,2.379,2.379,0,0,0-.668,1.934V17H42.186V7.965h2.426ZM57.5,12.351l-.026.606h-6.7a2.339,2.339,0,0,0,.721,1.652,2.3,2.3,0,0,0,1.591.571,2.221,2.221,0,0,0,1.191-.312,1.918,1.918,0,0,0,.76-.91l2.32.343a3.945,3.945,0,0,1-1.582,2.118,4.7,4.7,0,0,1-2.672.756,4.891,4.891,0,0,1-3.52-1.244,4.538,4.538,0,0,1-1.305-3.45,4.565,4.565,0,0,1,1.31-3.45,4.746,4.746,0,0,1,3.437-1.261,4.536,4.536,0,0,1,3.243,1.151A4.517,4.517,0,0,1,57.5,12.351ZM53.041,9.564a2,2,0,0,0-2.2,1.74h4.148a1.9,1.9,0,0,0-.624-1.292A1.978,1.978,0,0,0,53.041,9.564Zm10.468,7.6a4.827,4.827,0,0,1-3.489-1.3,4.493,4.493,0,0,1-1.354-3.393,4.483,4.483,0,0,1,1.349-3.393,5.364,5.364,0,0,1,6.42-.422,3.885,3.885,0,0,1,1.512,2.452l-2.338.255a2,2,0,0,0-.756-1.187,2.3,2.3,0,0,0-1.371-.4,2.072,2.072,0,0,0-1.652.738,2.894,2.894,0,0,0-.633,1.951,2.9,2.9,0,0,0,.633,1.947,2.067,2.067,0,0,0,1.652.743,2.278,2.278,0,0,0,1.367-.4,2.05,2.05,0,0,0,.76-1.187l2.338.255a3.9,3.9,0,0,1-1.525,2.452A4.8,4.8,0,0,1,63.508,17.167ZM71.041,6.611A1.421,1.421,0,0,1,70,6.185a1.4,1.4,0,0,1-.431-1.033,1.382,1.382,0,0,1,.435-1.024A1.425,1.425,0,0,1,71.041,3.7a1.463,1.463,0,0,1,1.45,1.45,1.463,1.463,0,0,1-1.45,1.459ZM69.749,17V7.965H72.3V17Zm9.378.176a5.681,5.681,0,0,1-2.558-.554A4.138,4.138,0,0,1,74.815,15a4.846,4.846,0,0,1-.637-2.522,4.42,4.42,0,0,1,1.371-3.428,5.731,5.731,0,0,1,7.163,0,4.42,4.42,0,0,1,1.371,3.428,4.444,4.444,0,0,1-1.371,3.441A5.088,5.088,0,0,1,79.126,17.176ZM79.1,15.163a2.319,2.319,0,0,0,1.789-.738,2.764,2.764,0,0,0,.681-1.951,2.764,2.764,0,0,0-.681-1.951A2.319,2.319,0,0,0,79.1,9.784a2.234,2.234,0,0,0-1.736.743,2.789,2.789,0,0,0-.672,1.947,2.789,2.789,0,0,0,.672,1.947A2.234,2.234,0,0,0,79.1,15.163Z" transform="translate(-2395 -1469)" fill="#00223d"/>
        <path id="Trazado_9966" data-name="Trazado 9966" d="M27.025,17V4.3h4.6a7.166,7.166,0,0,1,2.65.457,4.881,4.881,0,0,1,1.9,1.3,5.64,5.64,0,0,1,1.125,2,8.255,8.255,0,0,1,.382,2.593,8.286,8.286,0,0,1-.382,2.6,5.64,5.64,0,0,1-1.125,2,4.881,4.881,0,0,1-1.9,1.3,7.166,7.166,0,0,1-2.65.457Zm2.637-2.329H31.49a3.12,3.12,0,0,0,2.566-1.033,4.629,4.629,0,0,0,.844-2.993,4.629,4.629,0,0,0-.844-2.993A3.12,3.12,0,0,0,31.49,6.62H29.662ZM41.1,6.611a1.421,1.421,0,0,1-1.037-.426,1.4,1.4,0,0,1-.431-1.033,1.382,1.382,0,0,1,.435-1.024A1.425,1.425,0,0,1,41.1,3.7a1.463,1.463,0,0,1,1.45,1.45A1.463,1.463,0,0,1,41.1,6.611ZM39.813,17V7.965h2.549V17Zm8.35.176a5.049,5.049,0,0,1-2.637-.633,2.675,2.675,0,0,1-1.292-1.881l2.118-.6a1.7,1.7,0,0,0,1.811,1.345,1.87,1.87,0,0,0,.923-.207.719.719,0,0,0,.36-.7.739.739,0,0,0-.149-.466,1.183,1.183,0,0,0-.461-.334,5.749,5.749,0,0,0-.615-.237q-.3-.1-.8-.233t-.835-.259a5.593,5.593,0,0,1-.8-.338,3.393,3.393,0,0,1-.659-.466,1.878,1.878,0,0,1-.492-.708,2.552,2.552,0,0,1-.171-.967,2.308,2.308,0,0,1,.98-2.021A4.379,4.379,0,0,1,48,7.789a4.489,4.489,0,0,1,2.364.58,2.625,2.625,0,0,1,1.213,1.811l-1.96.439a1.535,1.535,0,0,0-1.608-1.143,1.761,1.761,0,0,0-.888.2.649.649,0,0,0-.352.6.685.685,0,0,0,.053.272.539.539,0,0,0,.185.22,2.692,2.692,0,0,0,.255.167,1.923,1.923,0,0,0,.36.145q.237.075.4.114l.461.119.47.123q.483.132.848.264a4.967,4.967,0,0,1,.778.369,2.792,2.792,0,0,1,.681.532,2.372,2.372,0,0,1,.444.747,2.759,2.759,0,0,1,.176,1.006,2.718,2.718,0,0,1-.3,1.31,2.276,2.276,0,0,1-.831.883,4.043,4.043,0,0,1-1.173.475A6.087,6.087,0,0,1,48.163,17.176Zm8.9-.176a2.729,2.729,0,0,1-2.039-.734,2.854,2.854,0,0,1-.721-2.087V9.907H52.531V7.965H53.1a1.491,1.491,0,0,0,1.125-.378,1.946,1.946,0,0,0,.36-1.345v-1.2h2.285V7.965h1.863V9.907H56.873v4q0,1.169,1.046,1.169h.817V17Zm6.056-7.6a2.933,2.933,0,0,1,1.187-1.085,3.62,3.62,0,0,1,1.767-.453v2.259a3.423,3.423,0,0,0-2.162.545,2.379,2.379,0,0,0-.668,1.934V17H60.7V7.965h2.426Zm5.73-2.786a1.421,1.421,0,0,1-1.037-.426,1.4,1.4,0,0,1-.431-1.033,1.382,1.382,0,0,1,.435-1.024A1.425,1.425,0,0,1,68.852,3.7a1.463,1.463,0,0,1,1.45,1.45,1.463,1.463,0,0,1-1.45,1.459ZM67.56,17V7.965h2.549V17ZM78.037,7.789a4.372,4.372,0,0,1,1.679.325,4.064,4.064,0,0,1,2.32,2.408,5.5,5.5,0,0,1,.343,1.978,5.5,5.5,0,0,1-.343,1.978,4.064,4.064,0,0,1-2.32,2.408,4.372,4.372,0,0,1-1.679.325,3.9,3.9,0,0,1-1.709-.365,2.527,2.527,0,0,1-1.138-1.024L75.127,17h-2.4V3.5h2.531V9.063a2.522,2.522,0,0,1,1.129-.94A3.973,3.973,0,0,1,78.037,7.789Zm-.589,7.321a2.277,2.277,0,0,0,1.718-.712,2.631,2.631,0,0,0,.681-1.9,2.644,2.644,0,0,0-.681-1.907,2.277,2.277,0,0,0-1.718-.712,2.251,2.251,0,0,0-1.705.725,2.644,2.644,0,0,0-.686,1.894,2.638,2.638,0,0,0,.681,1.89A2.253,2.253,0,0,0,77.448,15.11Zm8.262,2.065a1.456,1.456,0,0,1-1.441-1.441,1.411,1.411,0,0,1,.426-1.028,1.379,1.379,0,0,1,1.015-.431,1.471,1.471,0,0,1,1.459,1.459,1.379,1.379,0,0,1-.431,1.015A1.411,1.411,0,0,1,85.709,17.176Z" transform="translate(-2725 -1469)" fill="#00223d"/>
        <path id="Trazado_9946" data-name="Trazado 9946" d="M1507.474,861.87c-183.552,0-332.882-134.131-332.882-299s149.33-299,332.882-299l.434,0v-10l-.434,0q-4.427,0-8.826.1c-130.516,2.988-242.859,72.058-297.583,171.569q-.922,1.677-1.823,3.365-6.3,11.82-11.509,24.181-2.227,5.293-4.244,10.678t-3.818,10.856q-2.4,7.295-4.413,14.737-1.508,5.58-2.789,11.238-1.707,7.543-3.007,15.217a282.973,282.973,0,0,0,0,94.115q1.3,7.672,3.007,15.217,1.282,5.656,2.789,11.238,2.01,7.44,4.413,14.737,1.8,5.47,3.818,10.856t4.244,10.678q5.2,12.352,11.509,24.181.9,1.689,1.823,3.366c54.724,99.51,167.067,168.581,297.583,171.569q4.4.1,8.826.1c.144,0,.288,0,.434,0v-10C1507.763,861.867,1507.619,861.87,1507.474,861.87Z" transform="translate(-4027.522 -2011.87)" fill="#f2bb27" stroke="rgba(0,0,0,0)" stroke-miterlimit="10" stroke-width="1"/>
        <path id="Polígono_7" data-name="Polígono 7" d="M17.5,0,35,29.932H0Z" transform="translate(-2501 -1770) rotate(90)" fill="#f2bb27" stroke="rgba(0,0,0,0)" stroke-miterlimit="10" stroke-width="1"/>
        <path id="Trazado_9947" data-name="Trazado 9947" d="M1507.474,861.87c-183.552,0-332.882-134.131-332.882-299s149.33-299,332.882-299l.434,0v-10l-.434,0q-4.427,0-8.826.1c-130.516,2.988-242.859,72.058-297.583,171.569q-.922,1.677-1.823,3.365-6.3,11.82-11.509,24.181-2.227,5.293-4.244,10.678t-3.818,10.856q-2.4,7.295-4.413,14.737-1.508,5.58-2.789,11.238-1.707,7.544-3.007,15.217a282.973,282.973,0,0,0,0,94.115q1.3,7.672,3.007,15.217,1.282,5.656,2.789,11.238,2.01,7.44,4.413,14.737,1.8,5.47,3.818,10.856t4.244,10.678q5.2,12.352,11.509,24.181.9,1.689,1.823,3.366c54.724,99.51,167.067,168.581,297.583,171.569q4.4.1,8.826.1c.144,0,.288,0,.434,0v-10C1507.763,861.867,1507.619,861.87,1507.474,861.87Z" transform="translate(-974.478 -886.13) rotate(180)" fill="#f2bb27" stroke="rgba(0,0,0,0)" stroke-miterlimit="10" stroke-width="1"/>
        <path id="Polígono_8" data-name="Polígono 8" d="M17.5,0,35,29.932H0Z" transform="translate(-2501 -1128) rotate(-90)" fill="#f2bb27" stroke="rgba(0,0,0,0)" stroke-miterlimit="10" stroke-width="1"/>
        <rect id="Rectángulo_2769" data-name="Rectángulo 2769" width="170" height="73" transform="translate(-2804 -1206)" fill="#eef0f2"/>
        <rect id="Rectángulo_2771" data-name="Rectángulo 2771" width="170" height="73" transform="translate(-2862 -1736)" fill="#eef0f2"/>
        <rect id="Rectángulo_2772" data-name="Rectángulo 2772" width="170" height="73" transform="translate(-2320 -1736)" fill="#eef0f2"/>
        <rect id="Rectángulo_2770" data-name="Rectángulo 2770" width="170" height="73" transform="translate(-2382 -1206)" fill="#eef0f2"/>
        <rect id="Rectángulo_2767" data-name="Rectángulo 2767" width="140" height="73" transform="translate(-2958 -1485)" fill="#eef0f2"/>
        <rect id="Rectángulo_2768" data-name="Rectángulo 2768" width="155" height="73" transform="translate(-2170 -1485)" fill="#eef0f2"/>
        <path id="Trazado_9953" data-name="Trazado 9953" d="M19.005,6.62H14.294V9.5h4.175V11.8H14.294v2.874h4.711V17H11.64V4.3h7.365ZM30.4,4.3h2.628V17h-3.05L24.349,7.921V17H21.721V4.3h3.015l5.66,9.026Zm13.28,0V6.62H40.662V17h-2.61V6.62H35.019V4.3Zm7.172,12.876a6.9,6.9,0,0,1-3.335-.8,5.766,5.766,0,0,1-2.316-2.29,6.886,6.886,0,0,1-.844-3.445A6.879,6.879,0,0,1,45.2,7.2a5.744,5.744,0,0,1,2.316-2.281,7.418,7.418,0,0,1,6.667,0A5.752,5.752,0,0,1,56.491,7.2a6.879,6.879,0,0,1,.844,3.45,6.886,6.886,0,0,1-.844,3.445,5.766,5.766,0,0,1-2.316,2.29A6.885,6.885,0,0,1,50.848,17.176Zm-2.777-3.529a4.025,4.025,0,0,0,5.555,0,4.1,4.1,0,0,0,1.09-3,4.075,4.075,0,0,0-1.09-2.988,4.036,4.036,0,0,0-5.555,0,4.075,4.075,0,0,0-1.09,2.988A4.1,4.1,0,0,0,48.071,13.647ZM66.466,17l-3.3-5.59H62.4V17H59.76V4.3h4.605a5.327,5.327,0,0,1,1.846.294,3.191,3.191,0,0,1,1.279.817,3.5,3.5,0,0,1,.721,1.2A4.388,4.388,0,0,1,68.453,8.1a3.1,3.1,0,0,1-.694,2.087,3.5,3.5,0,0,1-2,1.094L69.586,17ZM62.4,6.488V9.521h1.556q1.978,0,1.978-1.512a1.377,1.377,0,0,0-.483-1.116,2.3,2.3,0,0,0-1.494-.4ZM80.195,4.3h2.628V17h-3.05L74.148,7.921V17H71.52V4.3h3.015l5.66,9.026Zm11.54,12.876a6.9,6.9,0,0,1-3.335-.8,5.766,5.766,0,0,1-2.316-2.29,6.886,6.886,0,0,1-.844-3.445,6.879,6.879,0,0,1,.844-3.45A5.744,5.744,0,0,1,88.4,4.915a7.418,7.418,0,0,1,6.667,0A5.752,5.752,0,0,1,97.377,7.2a6.879,6.879,0,0,1,.844,3.45,6.886,6.886,0,0,1-.844,3.445,5.766,5.766,0,0,1-2.316,2.29A6.885,6.885,0,0,1,91.735,17.176Zm-2.777-3.529a4.025,4.025,0,0,0,5.555,0,4.1,4.1,0,0,0,1.09-3,4.075,4.075,0,0,0-1.09-2.988,4.036,4.036,0,0,0-5.555,0,4.075,4.075,0,0,0-1.09,2.988A4.1,4.1,0,0,0,88.958,13.647ZM19.317,28.3a3.822,3.822,0,0,1,2.927,1.182A4.112,4.112,0,0,1,23.352,32.4a4.011,4.011,0,0,1-1.1,2.9,3.891,3.891,0,0,1-2.936,1.138H16.672V41H14.035V28.3Zm-.439,5.941a1.938,1.938,0,0,0,1.45-.5,2.166,2.166,0,0,0,0-2.733,1.92,1.92,0,0,0-1.446-.505H16.672v3.735Zm12.313,6.935a6.9,6.9,0,0,1-3.335-.8,5.766,5.766,0,0,1-2.316-2.29,7.465,7.465,0,0,1,0-6.9,5.744,5.744,0,0,1,2.316-2.281,7.418,7.418,0,0,1,6.667,0A5.752,5.752,0,0,1,36.834,31.2a7.465,7.465,0,0,1,0,6.9,5.766,5.766,0,0,1-2.316,2.29A6.885,6.885,0,0,1,31.191,41.176Zm-2.777-3.529a4.025,4.025,0,0,0,5.555,0,4.1,4.1,0,0,0,1.09-3,4.075,4.075,0,0,0-1.09-2.988,4.036,4.036,0,0,0-5.555,0,4.075,4.075,0,0,0-1.09,2.988A4.1,4.1,0,0,0,28.414,37.647ZM42.74,38.671h3.981V41H40.1V28.3H42.74Zm6.513-11.558,2.3-3.234,1.248.888-2,2.347ZM48.734,41V28.3h2.637V41Zm13.28-12.7v2.32H59V41H56.39V30.62H53.357V28.3Zm2,12.7V28.3h2.637V41Zm11.54.176a7.089,7.089,0,0,1-2.588-.466,6.087,6.087,0,0,1-2.061-1.3,5.864,5.864,0,0,1-1.354-2.065,7.2,7.2,0,0,1-.492-2.7A6.879,6.879,0,0,1,69.9,31.2a5.744,5.744,0,0,1,2.316-2.281,6.935,6.935,0,0,1,3.335-.791,6.739,6.739,0,0,1,3.727,1.028,5.629,5.629,0,0,1,2.276,2.83l-2.461.9a3.479,3.479,0,0,0-1.362-1.714,3.891,3.891,0,0,0-2.18-.615,3.73,3.73,0,0,0-2.777,1.107,4.075,4.075,0,0,0-1.09,2.988,4.081,4.081,0,0,0,1.094,2.993A3.726,3.726,0,0,0,75.55,38.75a3.876,3.876,0,0,0,2.175-.62,3.5,3.5,0,0,0,1.367-1.718l2.461.9a5.652,5.652,0,0,1-2.276,2.834A6.718,6.718,0,0,1,75.55,41.176Zm13.79,0A6.9,6.9,0,0,1,86,40.38a5.766,5.766,0,0,1-2.316-2.29,7.465,7.465,0,0,1,0-6.9A5.744,5.744,0,0,1,86,28.915a7.418,7.418,0,0,1,6.667,0A5.752,5.752,0,0,1,94.982,31.2a7.465,7.465,0,0,1,0,6.9,5.766,5.766,0,0,1-2.316,2.29A6.885,6.885,0,0,1,89.34,41.176Zm-2.777-3.529a4.025,4.025,0,0,0,5.555,0,4.1,4.1,0,0,0,1.09-3,4.075,4.075,0,0,0-1.09-2.988,4.036,4.036,0,0,0-5.555,0,4.075,4.075,0,0,0-1.09,2.988A4.1,4.1,0,0,0,86.563,37.647Z" transform="translate(-2941 -1472)" fill="#00223d"/>
        <path id="Trazado_9950" data-name="Trazado 9950" d="M33.005,6.62H28.294V9.5h4.175V11.8H28.294v2.874h4.711V17H25.64V4.3h7.365ZM44.4,4.3h2.628V17h-3.05L38.349,7.921V17H35.721V4.3h3.015l5.66,9.026Zm13.28,0V6.62H54.662V17h-2.61V6.62H49.019V4.3Zm7.172,12.876a6.9,6.9,0,0,1-3.335-.8,5.766,5.766,0,0,1-2.316-2.29,6.886,6.886,0,0,1-.844-3.445A6.879,6.879,0,0,1,59.2,7.2a5.744,5.744,0,0,1,2.316-2.281,7.418,7.418,0,0,1,6.667,0A5.752,5.752,0,0,1,70.491,7.2a6.879,6.879,0,0,1,.844,3.45,6.886,6.886,0,0,1-.844,3.445,5.766,5.766,0,0,1-2.316,2.29A6.885,6.885,0,0,1,64.848,17.176Zm-2.777-3.529a4.025,4.025,0,0,0,5.555,0,4.1,4.1,0,0,0,1.09-3,4.075,4.075,0,0,0-1.09-2.988,4.036,4.036,0,0,0-5.555,0,4.075,4.075,0,0,0-1.09,2.988A4.1,4.1,0,0,0,62.071,13.647ZM80.466,17l-3.3-5.59H76.4V17H73.76V4.3h4.605a5.327,5.327,0,0,1,1.846.294,3.191,3.191,0,0,1,1.279.817,3.5,3.5,0,0,1,.721,1.2A4.388,4.388,0,0,1,82.453,8.1a3.1,3.1,0,0,1-.694,2.087,3.5,3.5,0,0,1-2,1.094L83.586,17ZM76.4,6.488V9.521h1.556q1.978,0,1.978-1.512a1.377,1.377,0,0,0-.483-1.116,2.3,2.3,0,0,0-1.494-.4ZM94.195,4.3h2.628V17h-3.05L88.148,7.921V17H85.52V4.3h3.015l5.66,9.026Zm11.54,12.876a6.9,6.9,0,0,1-3.335-.8,5.766,5.766,0,0,1-2.316-2.29,6.886,6.886,0,0,1-.844-3.445,6.879,6.879,0,0,1,.844-3.45A5.744,5.744,0,0,1,102.4,4.915a7.418,7.418,0,0,1,6.667,0A5.752,5.752,0,0,1,111.377,7.2a6.879,6.879,0,0,1,.844,3.45,6.886,6.886,0,0,1-.844,3.445,5.766,5.766,0,0,1-2.316,2.29A6.885,6.885,0,0,1,105.735,17.176Zm-2.777-3.529a4.025,4.025,0,0,0,5.555,0,4.1,4.1,0,0,0,1.09-3,4.075,4.075,0,0,0-1.09-2.988,4.036,4.036,0,0,0-5.555,0,4.075,4.075,0,0,0-1.09,2.988A4.1,4.1,0,0,0,102.958,13.647ZM18.2,30.62H13.494V33.5h4.175V35.8H13.494v2.874H18.2V41H10.839V28.3H18.2Zm7.857,10.556a7.089,7.089,0,0,1-2.588-.466,6.087,6.087,0,0,1-2.061-1.3,5.864,5.864,0,0,1-1.354-2.065,7.2,7.2,0,0,1-.492-2.7,6.879,6.879,0,0,1,.844-3.45,5.744,5.744,0,0,1,2.316-2.281,6.935,6.935,0,0,1,3.335-.791,6.739,6.739,0,0,1,3.727,1.028,5.629,5.629,0,0,1,2.276,2.83l-2.461.9a3.479,3.479,0,0,0-1.362-1.714,3.891,3.891,0,0,0-2.18-.615,3.73,3.73,0,0,0-2.777,1.107,4.075,4.075,0,0,0-1.09,2.988,4.081,4.081,0,0,0,1.094,2.993,3.726,3.726,0,0,0,2.773,1.112,3.876,3.876,0,0,0,2.175-.62A3.5,3.5,0,0,0,29.6,36.412l2.461.9a5.652,5.652,0,0,1-2.276,2.834A6.718,6.718,0,0,1,26.062,41.176Zm13.79,0a6.9,6.9,0,0,1-3.335-.8,5.766,5.766,0,0,1-2.316-2.29,7.465,7.465,0,0,1,0-6.9,5.744,5.744,0,0,1,2.316-2.281,7.418,7.418,0,0,1,6.667,0A5.752,5.752,0,0,1,45.495,31.2a7.465,7.465,0,0,1,0,6.9,5.766,5.766,0,0,1-2.316,2.29A6.885,6.885,0,0,1,39.852,41.176Zm-2.777-3.529a4.025,4.025,0,0,0,5.555,0,4.1,4.1,0,0,0,1.09-3,4.075,4.075,0,0,0-1.09-2.988,4.036,4.036,0,0,0-5.555,0,4.075,4.075,0,0,0-1.09,2.988A4.1,4.1,0,0,0,37.075,37.647ZM57.439,28.3h2.628V41h-3.05l-5.625-9.079V41H48.764V28.3h3.015l5.66,9.026ZM68.2,27.113l2.3-3.234,1.248.888-2,2.347Zm.782,14.063a6.9,6.9,0,0,1-3.335-.8,5.766,5.766,0,0,1-2.316-2.29,7.465,7.465,0,0,1,0-6.9,5.744,5.744,0,0,1,2.316-2.281,7.418,7.418,0,0,1,6.667,0A5.752,5.752,0,0,1,74.622,31.2a7.465,7.465,0,0,1,0,6.9,5.766,5.766,0,0,1-2.316,2.29A6.885,6.885,0,0,1,68.979,41.176ZM66.2,37.647a4.025,4.025,0,0,0,5.555,0,4.1,4.1,0,0,0,1.09-3,4.075,4.075,0,0,0-1.09-2.988,4.036,4.036,0,0,0-5.555,0,4.075,4.075,0,0,0-1.09,2.988A4.1,4.1,0,0,0,66.2,37.647ZM92.446,41H89.818l-.835-9.571L85.766,41H84.061l-3.217-9.571L80,41H77.364l1.063-12.7h3.762L84.9,36.271,87.638,28.3H91.4Zm2.76,0V28.3h2.637V41Zm11.54.176a7.089,7.089,0,0,1-2.588-.466,6.087,6.087,0,0,1-2.061-1.3,5.864,5.864,0,0,1-1.354-2.065,7.2,7.2,0,0,1-.492-2.7,6.879,6.879,0,0,1,.844-3.45,5.744,5.744,0,0,1,2.316-2.281,6.935,6.935,0,0,1,3.335-.791,6.739,6.739,0,0,1,3.727,1.028,5.629,5.629,0,0,1,2.276,2.83l-2.461.9a3.479,3.479,0,0,0-1.362-1.714,3.891,3.891,0,0,0-2.18-.615,3.73,3.73,0,0,0-2.777,1.107,4.075,4.075,0,0,0-1.09,2.988,4.081,4.081,0,0,0,1.094,2.993,3.726,3.726,0,0,0,2.773,1.112,3.876,3.876,0,0,0,2.175-.62,3.5,3.5,0,0,0,1.367-1.718l2.461.9a5.652,5.652,0,0,1-2.276,2.834A6.718,6.718,0,0,1,106.746,41.176Zm13.79,0a6.9,6.9,0,0,1-3.335-.8,5.766,5.766,0,0,1-2.316-2.29,7.465,7.465,0,0,1,0-6.9,5.744,5.744,0,0,1,2.316-2.281,7.418,7.418,0,0,1,6.667,0,5.752,5.752,0,0,1,2.312,2.281,7.465,7.465,0,0,1,0,6.9,5.766,5.766,0,0,1-2.316,2.29A6.885,6.885,0,0,1,120.536,41.176Zm-2.777-3.529a4.025,4.025,0,0,0,5.555,0,4.1,4.1,0,0,0,1.09-3,4.075,4.075,0,0,0-1.09-2.988,4.036,4.036,0,0,0-5.555,0,4.075,4.075,0,0,0-1.09,2.988A4.1,4.1,0,0,0,117.758,37.647Z" transform="translate(-2160 -1472)" fill="#00223d"/>
        <path id="Trazado_9952" data-name="Trazado 9952" d="M46.005,6.62H41.294V9.5h4.175V11.8H41.294v2.874h4.711V17H38.64V4.3h7.365ZM57.4,4.3h2.628V17h-3.05L51.349,7.921V17H48.721V4.3h3.015l5.66,9.026Zm13.28,0V6.62H67.662V17h-2.61V6.62H62.019V4.3Zm7.172,12.876a6.9,6.9,0,0,1-3.335-.8,5.766,5.766,0,0,1-2.316-2.29,6.886,6.886,0,0,1-.844-3.445A6.879,6.879,0,0,1,72.2,7.2a5.744,5.744,0,0,1,2.316-2.281,7.418,7.418,0,0,1,6.667,0A5.752,5.752,0,0,1,83.491,7.2a6.879,6.879,0,0,1,.844,3.45,6.886,6.886,0,0,1-.844,3.445,5.766,5.766,0,0,1-2.316,2.29A6.885,6.885,0,0,1,77.848,17.176Zm-2.777-3.529a4.025,4.025,0,0,0,5.555,0,4.1,4.1,0,0,0,1.09-3,4.075,4.075,0,0,0-1.09-2.988,4.036,4.036,0,0,0-5.555,0,4.075,4.075,0,0,0-1.09,2.988A4.1,4.1,0,0,0,75.071,13.647ZM93.466,17l-3.3-5.59H89.4V17H86.76V4.3h4.605a5.327,5.327,0,0,1,1.846.294,3.191,3.191,0,0,1,1.279.817,3.5,3.5,0,0,1,.721,1.2A4.388,4.388,0,0,1,95.453,8.1a3.1,3.1,0,0,1-.694,2.087,3.5,3.5,0,0,1-2,1.094L96.586,17ZM89.4,6.488V9.521h1.556q1.978,0,1.978-1.512a1.377,1.377,0,0,0-.483-1.116,2.3,2.3,0,0,0-1.494-.4Zm17.8-2.188h2.628V17h-3.05l-5.625-9.079V17H98.52V4.3h3.015l5.66,9.026Zm11.54,12.876a6.9,6.9,0,0,1-3.335-.8,5.766,5.766,0,0,1-2.316-2.29,6.886,6.886,0,0,1-.844-3.445,6.879,6.879,0,0,1,.844-3.45A5.744,5.744,0,0,1,115.4,4.915a7.418,7.418,0,0,1,6.667,0A5.752,5.752,0,0,1,124.377,7.2a6.879,6.879,0,0,1,.844,3.45,6.886,6.886,0,0,1-.844,3.445,5.766,5.766,0,0,1-2.316,2.29A6.885,6.885,0,0,1,118.735,17.176Zm-2.777-3.529a4.025,4.025,0,0,0,5.555,0,4.1,4.1,0,0,0,1.09-3,4.075,4.075,0,0,0-1.09-2.988,4.036,4.036,0,0,0-5.555,0,4.075,4.075,0,0,0-1.09,2.988A4.1,4.1,0,0,0,115.958,13.647ZM23.778,28.3v2.32H20.763V41h-2.61V30.62H15.121V28.3Zm9.36,2.32H28.427V33.5H32.6V35.8H28.427v2.874h4.711V41H25.773V28.3h7.365ZM41,41.176a7.089,7.089,0,0,1-2.588-.466,6.087,6.087,0,0,1-2.061-1.3,5.864,5.864,0,0,1-1.354-2.065,7.2,7.2,0,0,1-.492-2.7,6.879,6.879,0,0,1,.844-3.45,5.744,5.744,0,0,1,2.316-2.281A6.935,6.935,0,0,1,41,28.124a6.739,6.739,0,0,1,3.727,1.028A5.629,5.629,0,0,1,47,31.982l-2.461.9a3.479,3.479,0,0,0-1.362-1.714A3.891,3.891,0,0,0,41,30.55a3.73,3.73,0,0,0-2.777,1.107,4.075,4.075,0,0,0-1.09,2.988,4.081,4.081,0,0,0,1.094,2.993A3.726,3.726,0,0,0,41,38.75a3.876,3.876,0,0,0,2.175-.62,3.5,3.5,0,0,0,1.367-1.718l2.461.9a5.652,5.652,0,0,1-2.276,2.834A6.718,6.718,0,0,1,41,41.176ZM57.835,28.3h2.628V41h-3.05l-5.625-9.079V41H49.161V28.3h3.015l5.66,9.026Zm11.54,12.876a6.9,6.9,0,0,1-3.335-.8,5.766,5.766,0,0,1-2.316-2.29,7.465,7.465,0,0,1,0-6.9,5.744,5.744,0,0,1,2.316-2.281,7.418,7.418,0,0,1,6.667,0A5.752,5.752,0,0,1,75.018,31.2a7.465,7.465,0,0,1,0,6.9A5.766,5.766,0,0,1,72.7,40.38,6.885,6.885,0,0,1,69.375,41.176ZM66.6,37.647a4.025,4.025,0,0,0,5.555,0,4.1,4.1,0,0,0,1.09-3,4.075,4.075,0,0,0-1.09-2.988,4.036,4.036,0,0,0-5.555,0,4.075,4.075,0,0,0-1.09,2.988A4.1,4.1,0,0,0,66.6,37.647Zm14.326,1.024h3.981V41H78.288V28.3h2.637ZM91.506,27.113l2.3-3.234,1.248.888-2,2.347Zm.782,14.063a6.9,6.9,0,0,1-3.335-.8,5.766,5.766,0,0,1-2.316-2.29,7.465,7.465,0,0,1,0-6.9,5.744,5.744,0,0,1,2.316-2.281,7.418,7.418,0,0,1,6.667,0A5.752,5.752,0,0,1,97.931,31.2a7.465,7.465,0,0,1,0,6.9,5.766,5.766,0,0,1-2.316,2.29A6.885,6.885,0,0,1,92.289,41.176Zm-2.777-3.529a4.025,4.025,0,0,0,5.555,0,4.1,4.1,0,0,0,1.09-3,4.075,4.075,0,0,0-1.09-2.988,4.036,4.036,0,0,0-5.555,0,4.075,4.075,0,0,0-1.09,2.988A4.1,4.1,0,0,0,89.511,37.647Zm17.183,3.529a6.867,6.867,0,0,1-2.536-.461,5.945,5.945,0,0,1-2.021-1.3,5.824,5.824,0,0,1-1.327-2.057,7.727,7.727,0,0,1,.013-5.392,5.9,5.9,0,0,1,1.354-2.074,6.052,6.052,0,0,1,2.061-1.305,7.089,7.089,0,0,1,2.588-.466,6.921,6.921,0,0,1,3.3.778,5.657,5.657,0,0,1,2.29,2.21l-2.312,1.23a3.388,3.388,0,0,0-1.34-1.441,3.844,3.844,0,0,0-1.938-.483,3.683,3.683,0,0,0-2.773,1.116,4.258,4.258,0,0,0-1.077,3.085,4.391,4.391,0,0,0,1.072,3.1,3.724,3.724,0,0,0,2.874,1.16,4.247,4.247,0,0,0,1.547-.272,3.086,3.086,0,0,0,1.23-.883,3.2,3.2,0,0,0,.7-1.507h-3.472V34.1H112.9V41h-2.074V39.242A4.633,4.633,0,0,1,106.694,41.176ZM115.632,41V28.3h2.637V41Zm11.54.176a7.089,7.089,0,0,1-2.588-.466,6.087,6.087,0,0,1-2.061-1.3,5.864,5.864,0,0,1-1.354-2.065,7.2,7.2,0,0,1-.492-2.7,6.879,6.879,0,0,1,.844-3.45,5.744,5.744,0,0,1,2.316-2.281,6.935,6.935,0,0,1,3.335-.791,6.739,6.739,0,0,1,3.727,1.028,5.629,5.629,0,0,1,2.276,2.83l-2.461.9a3.479,3.479,0,0,0-1.362-1.714,3.891,3.891,0,0,0-2.18-.615,3.73,3.73,0,0,0-2.777,1.107,4.075,4.075,0,0,0-1.09,2.988,4.081,4.081,0,0,0,1.094,2.993,3.726,3.726,0,0,0,2.773,1.112,3.876,3.876,0,0,0,2.175-.62,3.5,3.5,0,0,0,1.367-1.718l2.461.9a5.652,5.652,0,0,1-2.276,2.834A6.718,6.718,0,0,1,127.172,41.176Zm13.79,0a6.9,6.9,0,0,1-3.335-.8,5.766,5.766,0,0,1-2.316-2.29,7.465,7.465,0,0,1,0-6.9,5.744,5.744,0,0,1,2.316-2.281,7.418,7.418,0,0,1,6.667,0A5.752,5.752,0,0,1,146.6,31.2a7.465,7.465,0,0,1,0,6.9,5.766,5.766,0,0,1-2.316,2.29A6.885,6.885,0,0,1,140.962,41.176Zm-2.777-3.529a4.025,4.025,0,0,0,5.555,0,4.1,4.1,0,0,0,1.09-3,4.075,4.075,0,0,0-1.09-2.988,4.036,4.036,0,0,0-5.555,0,4.075,4.075,0,0,0-1.09,2.988A4.1,4.1,0,0,0,138.185,37.647Z" transform="translate(-2801 -1195)" fill="#00223d"/>
        <path id="Trazado_9951" data-name="Trazado 9951" d="M26.005,6.62H21.294V9.5h4.175V11.8H21.294v2.874h4.711V17H18.64V4.3h7.365ZM37.4,4.3h2.628V17h-3.05L31.349,7.921V17H28.721V4.3h3.015l5.66,9.026Zm13.28,0V6.62H47.662V17h-2.61V6.62H42.019V4.3Zm7.172,12.876a6.9,6.9,0,0,1-3.335-.8,5.766,5.766,0,0,1-2.316-2.29,6.886,6.886,0,0,1-.844-3.445A6.879,6.879,0,0,1,52.2,7.2a5.744,5.744,0,0,1,2.316-2.281,7.418,7.418,0,0,1,6.667,0A5.752,5.752,0,0,1,63.491,7.2a6.879,6.879,0,0,1,.844,3.45,6.886,6.886,0,0,1-.844,3.445,5.766,5.766,0,0,1-2.316,2.29A6.885,6.885,0,0,1,57.848,17.176Zm-2.777-3.529a4.025,4.025,0,0,0,5.555,0,4.1,4.1,0,0,0,1.09-3,4.075,4.075,0,0,0-1.09-2.988,4.036,4.036,0,0,0-5.555,0,4.075,4.075,0,0,0-1.09,2.988A4.1,4.1,0,0,0,55.071,13.647ZM73.466,17l-3.3-5.59H69.4V17H66.76V4.3h4.605a5.327,5.327,0,0,1,1.846.294,3.191,3.191,0,0,1,1.279.817,3.5,3.5,0,0,1,.721,1.2A4.388,4.388,0,0,1,75.453,8.1a3.1,3.1,0,0,1-.694,2.087,3.5,3.5,0,0,1-2,1.094L76.586,17ZM69.4,6.488V9.521h1.556q1.978,0,1.978-1.512a1.377,1.377,0,0,0-.483-1.116,2.3,2.3,0,0,0-1.494-.4ZM87.195,4.3h2.628V17h-3.05L81.148,7.921V17H78.52V4.3h3.015l5.66,9.026Zm11.54,12.876a6.9,6.9,0,0,1-3.335-.8,5.766,5.766,0,0,1-2.316-2.29,6.886,6.886,0,0,1-.844-3.445,6.879,6.879,0,0,1,.844-3.45A5.744,5.744,0,0,1,95.4,4.915a7.418,7.418,0,0,1,6.667,0A5.752,5.752,0,0,1,104.377,7.2a6.879,6.879,0,0,1,.844,3.45,6.886,6.886,0,0,1-.844,3.445,5.766,5.766,0,0,1-2.316,2.29A6.885,6.885,0,0,1,98.735,17.176Zm-2.777-3.529a4.025,4.025,0,0,0,5.555,0,4.1,4.1,0,0,0,1.09-3,4.075,4.075,0,0,0-1.09-2.988,4.036,4.036,0,0,0-5.555,0,4.075,4.075,0,0,0-1.09,2.988A4.1,4.1,0,0,0,95.958,13.647ZM30.677,28.3H33.3V41h-3.05L24.63,31.921V41H22V28.3h3.015l5.66,9.026ZM45.091,41l-.923-2.619H38.833L37.91,41h-2.7l4.676-12.7h3.226L47.789,41Zm-5.484-4.825h3.788L41.5,30.787ZM55.98,28.3v2.32H52.966V41h-2.61V30.62H47.323V28.3Zm6.7,12.876a6.572,6.572,0,0,1-1.956-.277,4.6,4.6,0,0,1-1.569-.831,3.717,3.717,0,0,1-1.059-1.45,5.226,5.226,0,0,1-.382-2.065V28.3h2.637v7.893a2.761,2.761,0,0,0,.637,2.013,2.557,2.557,0,0,0,3.393,0,2.739,2.739,0,0,0,.646-2.008V28.3h2.637v8.253a5.226,5.226,0,0,1-.382,2.065,3.7,3.7,0,0,1-1.063,1.45,4.651,4.651,0,0,1-1.573.831A6.6,6.6,0,0,1,62.678,41.176ZM77.391,41l-3.3-5.59h-.765V41H70.685V28.3H75.29a5.327,5.327,0,0,1,1.846.294,3.191,3.191,0,0,1,1.279.817,3.5,3.5,0,0,1,.721,1.2,4.388,4.388,0,0,1,.242,1.485,3.1,3.1,0,0,1-.694,2.087,3.5,3.5,0,0,1-2,1.094L80.511,41ZM73.321,30.488v3.032h1.556q1.978,0,1.978-1.512a1.377,1.377,0,0,0-.483-1.116,2.3,2.3,0,0,0-1.494-.4ZM91.049,41l-.923-2.619H84.791L83.868,41h-2.7l4.676-12.7h3.226L93.747,41Zm-5.484-4.825h3.788l-1.89-5.388Zm12.727,2.5h3.981V41H95.654V28.3h2.637Z" transform="translate(-2358 -1193)" fill="#00223d"/>
        <path id="Trazado_9954" data-name="Trazado 9954" d="M28.005,6.62H23.294V9.5h4.175V11.8H23.294v2.874h4.711V17H20.64V4.3h7.365ZM39.4,4.3h2.628V17h-3.05L33.349,7.921V17H30.721V4.3h3.015l5.66,9.026Zm13.28,0V6.62H49.662V17h-2.61V6.62H44.019V4.3Zm7.172,12.876a6.9,6.9,0,0,1-3.335-.8,5.766,5.766,0,0,1-2.316-2.29,6.886,6.886,0,0,1-.844-3.445A6.879,6.879,0,0,1,54.2,7.2a5.744,5.744,0,0,1,2.316-2.281,7.418,7.418,0,0,1,6.667,0A5.752,5.752,0,0,1,65.491,7.2a6.879,6.879,0,0,1,.844,3.45,6.886,6.886,0,0,1-.844,3.445,5.766,5.766,0,0,1-2.316,2.29A6.885,6.885,0,0,1,59.848,17.176Zm-2.777-3.529a4.025,4.025,0,0,0,5.555,0,4.1,4.1,0,0,0,1.09-3,4.075,4.075,0,0,0-1.09-2.988,4.036,4.036,0,0,0-5.555,0,4.075,4.075,0,0,0-1.09,2.988A4.1,4.1,0,0,0,57.071,13.647ZM75.466,17l-3.3-5.59H71.4V17H68.76V4.3h4.605a5.327,5.327,0,0,1,1.846.294,3.191,3.191,0,0,1,1.279.817,3.5,3.5,0,0,1,.721,1.2A4.388,4.388,0,0,1,77.453,8.1a3.1,3.1,0,0,1-.694,2.087,3.5,3.5,0,0,1-2,1.094L78.586,17ZM71.4,6.488V9.521h1.556q1.978,0,1.978-1.512a1.377,1.377,0,0,0-.483-1.116,2.3,2.3,0,0,0-1.494-.4ZM89.195,4.3h2.628V17h-3.05L83.148,7.921V17H80.52V4.3h3.015l5.66,9.026Zm11.54,12.876a6.9,6.9,0,0,1-3.335-.8,5.766,5.766,0,0,1-2.316-2.29,6.886,6.886,0,0,1-.844-3.445,6.879,6.879,0,0,1,.844-3.45A5.744,5.744,0,0,1,97.4,4.915a7.418,7.418,0,0,1,6.667,0A5.752,5.752,0,0,1,106.377,7.2a6.879,6.879,0,0,1,.844,3.45,6.886,6.886,0,0,1-.844,3.445,5.766,5.766,0,0,1-2.316,2.29A6.885,6.885,0,0,1,100.735,17.176Zm-2.777-3.529a4.025,4.025,0,0,0,5.555,0,4.1,4.1,0,0,0,1.09-3,4.075,4.075,0,0,0-1.09-2.988,4.036,4.036,0,0,0-5.555,0,4.075,4.075,0,0,0-1.09,2.988A4.1,4.1,0,0,0,97.958,13.647ZM25.369,41.176a7.089,7.089,0,0,1-2.588-.466,6.087,6.087,0,0,1-2.061-1.3,5.864,5.864,0,0,1-1.354-2.065,7.2,7.2,0,0,1-.492-2.7,6.879,6.879,0,0,1,.844-3.45,5.744,5.744,0,0,1,2.316-2.281,6.935,6.935,0,0,1,3.335-.791A6.739,6.739,0,0,1,29.1,29.152a5.629,5.629,0,0,1,2.276,2.83l-2.461.9a3.479,3.479,0,0,0-1.362-1.714,3.891,3.891,0,0,0-2.18-.615,3.73,3.73,0,0,0-2.777,1.107,4.075,4.075,0,0,0-1.09,2.988A4.081,4.081,0,0,0,22.6,37.638a3.726,3.726,0,0,0,2.773,1.112,3.876,3.876,0,0,0,2.175-.62,3.5,3.5,0,0,0,1.367-1.718l2.461.9A5.652,5.652,0,0,1,29.1,40.143,6.718,6.718,0,0,1,25.369,41.176Zm12.867,0A6.572,6.572,0,0,1,36.28,40.9a4.6,4.6,0,0,1-1.569-.831,3.717,3.717,0,0,1-1.059-1.45,5.226,5.226,0,0,1-.382-2.065V28.3h2.637v7.893a2.761,2.761,0,0,0,.637,2.013,2.557,2.557,0,0,0,3.393,0,2.739,2.739,0,0,0,.646-2.008V28.3h2.637v8.253a5.226,5.226,0,0,1-.382,2.065,3.7,3.7,0,0,1-1.063,1.45A4.651,4.651,0,0,1,40.2,40.9,6.6,6.6,0,0,1,38.236,41.176Zm10.644-2.5h3.981V41H46.243V28.3h2.637ZM62.239,28.3v2.32H59.224V41h-2.61V30.62H53.582V28.3Zm6.7,12.876A6.572,6.572,0,0,1,66.98,40.9a4.6,4.6,0,0,1-1.569-.831,3.717,3.717,0,0,1-1.059-1.45,5.226,5.226,0,0,1-.382-2.065V28.3h2.637v7.893a2.761,2.761,0,0,0,.637,2.013,2.557,2.557,0,0,0,3.393,0,2.739,2.739,0,0,0,.646-2.008V28.3h2.637v8.253a5.226,5.226,0,0,1-.382,2.065,3.7,3.7,0,0,1-1.063,1.45A4.651,4.651,0,0,1,70.9,40.9,6.6,6.6,0,0,1,68.936,41.176ZM83.649,41l-3.3-5.59H79.58V41H76.943V28.3h4.605a5.327,5.327,0,0,1,1.846.294,3.191,3.191,0,0,1,1.279.817,3.5,3.5,0,0,1,.721,1.2,4.388,4.388,0,0,1,.242,1.485,3.1,3.1,0,0,1-.694,2.087,3.5,3.5,0,0,1-2,1.094L86.769,41ZM79.58,30.488v3.032h1.556q1.978,0,1.978-1.512a1.377,1.377,0,0,0-.483-1.116,2.3,2.3,0,0,0-1.494-.4ZM97.307,41l-.923-2.619H91.049L90.126,41h-2.7L92.1,28.3H95.33L100.005,41Zm-5.484-4.825h3.788l-1.89-5.388Zm12.727,2.5h3.981V41h-6.618V28.3h2.637Z" transform="translate(-2837 -1724)" fill="#00223d"/>
        <path id="Trazado_9948" data-name="Trazado 9948" d="M38.005,6.62H33.294V9.5h4.175V11.8H33.294v2.874h4.711V17H30.64V4.3h7.365ZM49.4,4.3h2.628V17h-3.05L43.349,7.921V17H40.721V4.3h3.015l5.66,9.026Zm13.28,0V6.62H59.662V17h-2.61V6.62H54.019V4.3Zm7.172,12.876a6.9,6.9,0,0,1-3.335-.8,5.766,5.766,0,0,1-2.316-2.29,6.886,6.886,0,0,1-.844-3.445A6.879,6.879,0,0,1,64.2,7.2a5.744,5.744,0,0,1,2.316-2.281,7.418,7.418,0,0,1,6.667,0A5.752,5.752,0,0,1,75.491,7.2a6.879,6.879,0,0,1,.844,3.45,6.886,6.886,0,0,1-.844,3.445,5.766,5.766,0,0,1-2.316,2.29A6.885,6.885,0,0,1,69.848,17.176Zm-2.777-3.529a4.025,4.025,0,0,0,5.555,0,4.1,4.1,0,0,0,1.09-3,4.075,4.075,0,0,0-1.09-2.988,4.036,4.036,0,0,0-5.555,0,4.075,4.075,0,0,0-1.09,2.988A4.1,4.1,0,0,0,67.071,13.647ZM85.466,17l-3.3-5.59H81.4V17H78.76V4.3h4.605a5.327,5.327,0,0,1,1.846.294,3.191,3.191,0,0,1,1.279.817,3.5,3.5,0,0,1,.721,1.2A4.388,4.388,0,0,1,87.453,8.1a3.1,3.1,0,0,1-.694,2.087,3.5,3.5,0,0,1-2,1.094L88.586,17ZM81.4,6.488V9.521h1.556q1.978,0,1.978-1.512a1.377,1.377,0,0,0-.483-1.116,2.3,2.3,0,0,0-1.494-.4ZM99.195,4.3h2.628V17h-3.05L93.148,7.921V17H90.52V4.3h3.015l5.66,9.026Zm11.54,12.876a6.9,6.9,0,0,1-3.335-.8,5.766,5.766,0,0,1-2.316-2.29,6.886,6.886,0,0,1-.844-3.445,6.879,6.879,0,0,1,.844-3.45A5.744,5.744,0,0,1,107.4,4.915a7.418,7.418,0,0,1,6.667,0A5.752,5.752,0,0,1,116.377,7.2a6.879,6.879,0,0,1,.844,3.45,6.886,6.886,0,0,1-.844,3.445,5.766,5.766,0,0,1-2.316,2.29A6.885,6.885,0,0,1,110.735,17.176Zm-2.777-3.529a4.025,4.025,0,0,0,5.555,0,4.1,4.1,0,0,0,1.09-3,4.075,4.075,0,0,0-1.09-2.988,4.036,4.036,0,0,0-5.555,0,4.075,4.075,0,0,0-1.09,2.988A4.1,4.1,0,0,0,107.958,13.647ZM5.925,41V28.3h4.6a7.166,7.166,0,0,1,2.65.457,4.881,4.881,0,0,1,1.9,1.3,5.64,5.64,0,0,1,1.125,2,9.013,9.013,0,0,1,0,5.194,5.64,5.64,0,0,1-1.125,2,4.881,4.881,0,0,1-1.9,1.3,7.166,7.166,0,0,1-2.65.457Zm2.637-2.329H10.39a3.12,3.12,0,0,0,2.566-1.033,4.629,4.629,0,0,0,.844-2.993,4.629,4.629,0,0,0-.844-2.993A3.12,3.12,0,0,0,10.39,30.62H8.562ZM26.413,30.62H21.7V33.5h4.175V35.8H21.7v2.874h4.711V41H19.047V28.3h7.365ZM43.683,41H41.055l-.835-9.571L37,41H35.3l-3.217-9.571L31.238,41H28.6l1.063-12.7h3.762l2.707,7.972L38.875,28.3h3.762Zm8.385.176a6.9,6.9,0,0,1-3.335-.8,5.766,5.766,0,0,1-2.316-2.29,7.465,7.465,0,0,1,0-6.9,5.744,5.744,0,0,1,2.316-2.281,7.418,7.418,0,0,1,6.667,0A5.752,5.752,0,0,1,57.71,31.2a7.465,7.465,0,0,1,0,6.9,5.766,5.766,0,0,1-2.316,2.29A6.885,6.885,0,0,1,52.068,41.176Zm-2.777-3.529a4.025,4.025,0,0,0,5.555,0,4.1,4.1,0,0,0,1.09-3,4.075,4.075,0,0,0-1.09-2.988,4.036,4.036,0,0,0-5.555,0,4.075,4.075,0,0,0-1.09,2.988A4.1,4.1,0,0,0,49.291,37.647Zm17.183,3.529a6.867,6.867,0,0,1-2.536-.461,5.945,5.945,0,0,1-2.021-1.3,5.824,5.824,0,0,1-1.327-2.057,7.727,7.727,0,0,1,.013-5.392A5.9,5.9,0,0,1,61.956,29.9a6.052,6.052,0,0,1,2.061-1.305,7.089,7.089,0,0,1,2.588-.466,6.921,6.921,0,0,1,3.3.778,5.657,5.657,0,0,1,2.29,2.21l-2.312,1.23a3.388,3.388,0,0,0-1.34-1.441,3.844,3.844,0,0,0-1.938-.483,3.683,3.683,0,0,0-2.773,1.116,4.258,4.258,0,0,0-1.077,3.085,4.391,4.391,0,0,0,1.072,3.1,3.724,3.724,0,0,0,2.874,1.16,4.247,4.247,0,0,0,1.547-.272,3.086,3.086,0,0,0,1.23-.883,3.2,3.2,0,0,0,.7-1.507H66.71V34.1h5.968V41H70.6V39.242A4.633,4.633,0,0,1,66.473,41.176ZM82.118,41l-3.3-5.59h-.765V41H75.412V28.3h4.605a5.327,5.327,0,0,1,1.846.294,3.191,3.191,0,0,1,1.279.817,3.5,3.5,0,0,1,.721,1.2A4.388,4.388,0,0,1,84.1,32.1a3.1,3.1,0,0,1-.694,2.087,3.5,3.5,0,0,1-2,1.094L85.238,41ZM78.048,30.488v3.032H79.6q1.978,0,1.978-1.512a1.377,1.377,0,0,0-.483-1.116,2.3,2.3,0,0,0-1.494-.4Zm16.91-5.722-2,2.347H91.408l2.3-3.234ZM95.776,41l-.923-2.619H89.518L88.6,41H85.9l4.676-12.7H93.8L98.474,41Zm-5.484-4.825H94.08l-1.89-5.388ZM107.87,30.62h-4.834V33.5h4.175V35.8h-4.175V41h-2.654V28.3h7.488ZM110.12,41V28.3h2.637V41Zm11.54.176a7.089,7.089,0,0,1-2.588-.466,6.087,6.087,0,0,1-2.061-1.3,5.864,5.864,0,0,1-1.354-2.065,7.2,7.2,0,0,1-.492-2.7,6.879,6.879,0,0,1,.844-3.45,5.744,5.744,0,0,1,2.316-2.281,6.935,6.935,0,0,1,3.335-.791,6.739,6.739,0,0,1,3.727,1.028,5.629,5.629,0,0,1,2.276,2.83l-2.461.9a3.479,3.479,0,0,0-1.362-1.714,3.891,3.891,0,0,0-2.18-.615,3.73,3.73,0,0,0-2.777,1.107,4.075,4.075,0,0,0-1.09,2.988,4.081,4.081,0,0,0,1.094,2.993,3.726,3.726,0,0,0,2.773,1.112,3.876,3.876,0,0,0,2.175-.62,3.5,3.5,0,0,0,1.367-1.718l2.461.9a5.652,5.652,0,0,1-2.276,2.834A6.718,6.718,0,0,1,121.66,41.176Zm13.79,0a6.9,6.9,0,0,1-3.335-.8,5.766,5.766,0,0,1-2.316-2.29,7.465,7.465,0,0,1,0-6.9,5.744,5.744,0,0,1,2.316-2.281,7.418,7.418,0,0,1,6.667,0,5.752,5.752,0,0,1,2.312,2.281,7.465,7.465,0,0,1,0,6.9,5.766,5.766,0,0,1-2.316,2.29A6.885,6.885,0,0,1,135.45,41.176Zm-2.777-3.529a4.025,4.025,0,0,0,5.555,0,4.1,4.1,0,0,0,1.09-3,4.075,4.075,0,0,0-1.09-2.988,4.036,4.036,0,0,0-5.555,0,4.075,4.075,0,0,0-1.09,2.988A4.1,4.1,0,0,0,132.672,37.647Z" transform="translate(-2308 -1724)" fill="#00223d"/>
      </g>
    </g>
  </g>
</svg>
