<svg id="project" xmlns="http://www.w3.org/2000/svg" width="74.095" height="74.095" viewBox="0 0 74.095 74.095">
  <path id="Trazado_12631" data-name="Trazado 12631" d="M73.01,7.191H39.184V1.085A1.085,1.085,0,0,0,38.1,0H31.327a1.085,1.085,0,0,0-1.085,1.085V7.191H16.959a1.085,1.085,0,0,0-1.085,1.085v9.332a8.262,8.262,0,0,0-1.967,1.461V15.88c0-1.968-1.958-3.583-4.869-4.12V9.4A1.085,1.085,0,0,0,7.952,8.318a8.308,8.308,0,0,0-5.36,2.027A7.4,7.4,0,0,0,0,16.012V20.56a1.086,1.086,0,0,0,2.171,0V16.012a5.636,5.636,0,0,1,4.7-5.431V52.217a8.3,8.3,0,0,0-4.692,2.095c0-1.478,0-27.984,0-27.984a1.086,1.086,0,0,0-2.171,0V60.042a1.082,1.082,0,0,0,.016.178c.107,3.184,3.052,5.563,6.938,5.563a8.306,8.306,0,0,0,4.8-1.418v3.99c0,3.668,3.669,5.74,6.955,5.74,3.488,0,6.953-1.965,6.953-5.742l0-15.346h30.91L34.05,72.184a1.093,1.093,0,0,0,.7,1.912H67.441a1.085,1.085,0,0,0,1.085-1.085V67.745a1.086,1.086,0,0,0-2.171,0v4.18H37.7L66.356,47.53V61.757a1.086,1.086,0,0,0,2.171,0V53.008H73.01A1.085,1.085,0,0,0,74.1,51.922V8.277A1.085,1.085,0,0,0,73.01,7.191ZM71.925,9.362V35.687H46.5V9.362ZM37.014,2.171V29.949h-4.6V27.175H33.2A1.086,1.086,0,0,0,33.2,25h-.788V22.16h1.8a1.086,1.086,0,0,0,0-2.171h-1.8V17.145H33.2a1.085,1.085,0,1,0,0-2.171h-.788V12.13h1.8a1.086,1.086,0,0,0,0-2.171h-1.8V7.115H33.2a1.086,1.086,0,0,0,0-2.171h-.788V2.171ZM17.143,19.36a5.719,5.719,0,0,1,1.474-.466l.007,41.636a8.288,8.288,0,0,0-4.692,2.1c0-1.458,0-2.586,0-2.617l-.006-35.683a5.621,5.621,0,0,1,3.221-4.965Zm6.351,45.826-.111-.062A9.839,9.839,0,0,0,18.8,64.047V62.7a6.345,6.345,0,0,1,.878-.066,1.085,1.085,0,0,0,1.12-1.085L20.789,22.3c1.439.356,2.7,1.085,2.7,1.893ZM11.736,15.88v40.98a9.664,9.664,0,0,0-4.7-1.125v-1.35a6.291,6.291,0,0,1,.878-.066,1.085,1.085,0,0,0,1.12-1.085V13.98C10.691,14.375,11.736,15.2,11.736,15.88Zm0,44.676c0,1.657-2.19,3.056-4.783,3.056-2.72,0-4.772-1.535-4.772-3.57a5.257,5.257,0,0,1,2.688-5v1.825a1.085,1.085,0,0,0,1.187,1.081,8,8,0,0,1,4.524.767,1.837,1.837,0,0,1,1.156,1.841Zm6.976,11.369h0c-2.72,0-4.771-1.535-4.771-3.57a5.258,5.258,0,0,1,2.687-5V65.18a1.085,1.085,0,0,0,1.187,1.08c1.841-.173,5.769.122,5.68,2.607,0,1.657-2.19,3.057-4.782,3.057Zm6.946-47.734c0-1.954-1.964-3.579-4.87-4.118V17.716A1.085,1.085,0,0,0,19.7,16.631a7.86,7.86,0,0,0-1.658.182V9.362h12.2V31.034a1.085,1.085,0,0,0,1.085,1.085H38.1a1.085,1.085,0,0,0,1.085-1.085V9.362h5.15V50.837H25.663Zm42.238,20a1.085,1.085,0,0,0-1.159.159l-7.615,6.483H46.5V37.858h25.42V50.837h-3.4V45.18a1.086,1.086,0,0,0-.63-.985Z" fill="#748693"/>
  <path id="Trazado_12632" data-name="Trazado 12632" d="M350.925,113.53h10a1.1,1.1,0,0,0,.769-.319l5-5a1.086,1.086,0,0,0,.318-.768V97.46a1.1,1.1,0,0,0-1.086-1.085h-10a1.085,1.085,0,0,0-.767.318l-5,4.994a1.1,1.1,0,0,0-.319.769v9.988A1.086,1.086,0,0,0,350.925,113.53Zm1.085-9.988h7.83v7.817h-7.83Zm10,6.284v-6.919l2.83-2.828V107Zm-5.638-11.279H363.3l-2.828,2.825h-6.93Z" transform="translate(-299.211 -82.428)" fill="#748693"/>
  <path id="Trazado_12633" data-name="Trazado 12633" d="M365.338,314.087h-3.6a1.086,1.086,0,0,0,0,2.171h3.6A1.086,1.086,0,0,0,365.338,314.087Z" transform="translate(-308.491 -268.633)" fill="#748693"/>
  <path id="Trazado_12634" data-name="Trazado 12634" d="M370.957,284.242h-9.215a1.086,1.086,0,0,0,0,2.171h9.215A1.086,1.086,0,0,0,370.957,284.242Z" transform="translate(-308.491 -243.107)" fill="#748693"/>
  <path id="Trazado_12635" data-name="Trazado 12635" d="M345.078,383.779l-13.1,11.158a1.093,1.093,0,0,0,.7,1.912h13.1a1.085,1.085,0,0,0,1.085-1.085V384.606A1.1,1.1,0,0,0,345.078,383.779Zm-.382,10.9h-9.07l9.07-7.723Z" transform="translate(-283.613 -328.018)" fill="#748693"/>
</svg>
